# Blender 4.5.1 LTS
# www.blender.org
mtllib Doubles_Room_Right_3_Way.mtl
o Doubles_Room_Right_3_Way
v -289.850006 0.000000 -10.000000
v -289.850006 5.300000 -10.000000
v -290.149994 0.000000 -10.000000
v -290.149994 5.300000 -10.000000
v -289.850006 0.000000 -20.000000
v -289.850006 5.300000 -20.000000
v -290.149994 0.000000 -20.000000
v -290.149994 5.300000 -20.000000
v -290.149994 0.000000 -16.000000
v -290.149994 0.000000 -14.000000
v -289.850006 0.000000 -14.000000
v -289.850006 0.000000 -16.000000
v -289.850006 3.975000 -16.000000
v -289.850006 3.975000 -14.000000
v -290.149994 3.975000 -14.000000
v -290.149994 3.975000 -16.000000
v -300.000000 0.000000 0.149999
v -300.000000 5.300000 0.149999
v -300.000000 0.000000 -0.150002
v -300.000000 5.300000 -0.150002
v -290.000000 0.000000 0.149999
v -290.000000 5.300000 0.149999
v -290.000000 0.000000 -0.150002
v -290.000000 5.300000 -0.150002
v -294.000000 0.000000 -0.150002
v -296.000000 0.000000 -0.150002
v -296.000000 0.000000 0.149999
v -294.000000 0.000000 0.149999
v -294.000000 3.975000 0.149999
v -296.000000 3.975000 0.149999
v -296.000000 3.975000 -0.150002
v -294.000000 3.975000 -0.150002
v -310.000305 0.000000 -19.850002
v -310.000305 5.300000 -19.850002
v -310.000305 0.000000 -20.150002
v -310.000305 5.300000 -20.150002
v -300.000305 0.000000 -19.850002
v -300.000305 5.300000 -19.850002
v -300.000305 0.000000 -20.150002
v -300.000305 5.300000 -20.150002
v -300.000275 0.000000 -19.850000
v -300.000275 5.300000 -19.850000
v -300.000275 0.000000 -20.150000
v -300.000275 5.300000 -20.150000
v -290.000275 0.000000 -19.850000
v -290.000275 5.300000 -19.850000
v -290.000275 0.000000 -20.150000
v -290.000275 5.300000 -20.150000
v -309.850281 0.000000 -10.000000
v -309.850281 5.300000 -10.000000
v -310.150269 0.000000 -10.000000
v -310.150269 5.300000 -10.000000
v -309.850281 0.000000 -20.000000
v -309.850281 5.300000 -20.000000
v -310.150269 0.000000 -20.000000
v -310.150269 5.300000 -20.000000
v -309.999969 0.000000 0.150000
v -309.999969 5.300000 0.150000
v -309.999969 0.000000 -0.150001
v -309.999969 5.300000 -0.150001
v -299.999969 0.000000 0.149999
v -299.999969 5.300000 0.149999
v -299.999969 0.000000 -0.150002
v -299.999969 5.300000 -0.150002
v -303.999969 0.000000 -0.150001
v -305.999969 0.000000 -0.150001
v -305.999969 0.000000 0.150000
v -303.999969 0.000000 0.150000
v -303.999969 3.975000 0.150000
v -305.999969 3.975000 0.150000
v -305.999969 3.975000 -0.150001
v -303.999969 3.975000 -0.150001
v -289.849976 0.000000 0.000000
v -289.849976 5.300000 0.000000
v -290.149994 0.000000 0.000000
v -290.149994 5.300000 0.000000
v -289.849976 0.000000 -10.000000
v -289.849976 5.300000 -10.000000
v -290.149994 0.000000 -10.000000
v -290.149994 5.300000 -10.000000
v -290.149994 0.000000 -6.000001
v -290.149994 0.000000 -4.000001
v -289.849976 0.000000 -4.000001
v -289.849976 0.000000 -6.000001
v -289.849976 3.975000 -6.000001
v -289.849976 3.975000 -4.000001
v -290.149994 3.975000 -4.000001
v -290.149994 3.975000 -6.000001
v -309.849976 0.000000 -0.000001
v -309.849976 5.300000 -0.000001
v -310.149994 0.000000 -0.000001
v -310.149994 5.300000 -0.000001
v -309.849976 0.000000 -10.000001
v -309.849976 5.300000 -10.000001
v -310.149994 0.000000 -10.000001
v -310.149994 5.300000 -10.000001
v -310.149994 0.000000 -6.000001
v -310.149994 0.000000 -4.000001
v -309.849976 0.000000 -4.000001
v -309.849976 0.000000 -6.000001
v -309.849976 3.975000 -6.000001
v -309.849976 3.975000 -4.000001
v -310.149994 3.975000 -4.000001
v -310.149994 3.975000 -6.000001
vn -0.0000 -1.0000 -0.0000
vn -0.0000 1.0000 -0.0000
vn 1.0000 -0.0000 -0.0000
vn -1.0000 -0.0000 -0.0000
vn -0.0000 -0.0000 -1.0000
vn -0.0000 -0.0000 1.0000
vt 0.125000 0.500000
vt 0.225000 0.500000
vt 0.225000 0.750000
vt 0.125000 0.750000
vt 0.625000 0.500000
vt 0.875000 0.500000
vt 0.875000 0.750000
vt 0.625000 0.750000
vt 0.275000 0.500000
vt 0.375000 0.500000
vt 0.375000 0.750000
vt 0.275000 0.750000
vt 0.625000 1.000000
vt 0.375000 1.000000
vt 0.375000 0.900000
vt 0.562500 0.900000
vt 0.562500 0.850000
vt 0.375000 0.850000
vt 0.375000 0.250000
vt 0.625000 0.250000
vt 0.375000 0.400000
vt 0.562500 0.400000
vt 0.562500 0.350000
vt 0.375000 0.350000
vt 0.000000 0.000000
vt 0.375000 0.000000
vt 0.625000 0.000000
s 0
f 3/1/1 10/2/1 11/3/1 1/4/1
f 8/5/2 4/6/2 2/7/2 6/8/2
f 9/9/1 7/10/1 5/11/1 12/12/1
f 10/2/1 9/9/1 12/12/1 11/3/1
f 5/11/3 6/8/3 2/13/3 1/14/3 11/15/3 14/16/3 13/17/3 12/18/3
f 3/19/4 4/20/4 8/5/4 7/10/4 9/21/4 16/22/4 15/23/4 10/24/4
f 10/25/5 15/25/5 14/25/5 11/25/5
f 9/25/6 12/25/6 13/25/6 16/25/6
f 7/10/5 8/5/5 6/8/5 5/11/5
f 1/26/6 2/27/6 4/20/6 3/19/6
f 15/23/1 16/22/1 13/17/1 14/16/1
f 19/1/1 26/2/1 27/3/1 17/4/1
f 24/5/2 20/6/2 18/7/2 22/8/2
f 25/9/1 23/10/1 21/11/1 28/12/1
f 26/2/1 25/9/1 28/12/1 27/3/1
f 21/11/6 22/8/6 18/13/6 17/14/6 27/15/6 30/16/6 29/17/6 28/18/6
f 19/19/5 20/20/5 24/5/5 23/10/5 25/21/5 32/22/5 31/23/5 26/24/5
f 26/25/3 31/25/3 30/25/3 27/25/3
f 25/25/4 28/25/4 29/25/4 32/25/4
f 23/10/3 24/5/3 22/8/3 21/11/3
f 17/26/4 18/27/4 20/20/4 19/19/4
f 31/23/1 32/22/1 29/17/1 30/16/1
f 40/5/2 36/6/2 34/7/2 38/8/2
f 35/1/1 39/10/1 37/11/1 33/4/1
f 38/8/6 34/13/6 33/14/6 37/11/6
f 39/10/3 40/5/3 38/8/3 37/11/3
f 36/20/5 40/5/5 39/10/5 35/19/5
f 33/26/4 34/27/4 36/20/4 35/19/4
f 48/5/2 44/6/2 42/7/2 46/8/2
f 43/1/1 47/10/1 45/11/1 41/4/1
f 46/8/6 42/13/6 41/14/6 45/11/6
f 47/10/3 48/5/3 46/8/3 45/11/3
f 44/20/5 48/5/5 47/10/5 43/19/5
f 41/26/4 42/27/4 44/20/4 43/19/4
f 56/5/2 52/6/2 50/7/2 54/8/2
f 51/1/1 55/10/1 53/11/1 49/4/1
f 54/8/3 50/13/3 49/14/3 53/11/3
f 55/10/5 56/5/5 54/8/5 53/11/5
f 52/20/4 56/5/4 55/10/4 51/19/4
f 49/26/6 50/27/6 52/20/6 51/19/6
f 59/1/1 66/2/1 67/3/1 57/4/1
f 64/5/2 60/6/2 58/7/2 62/8/2
f 65/9/1 63/10/1 61/11/1 68/12/1
f 66/2/1 65/9/1 68/12/1 67/3/1
f 61/11/6 62/8/6 58/13/6 57/14/6 67/15/6 70/16/6 69/17/6 68/18/6
f 59/19/5 60/20/5 64/5/5 63/10/5 65/21/5 72/22/5 71/23/5 66/24/5
f 66/25/3 71/25/3 70/25/3 67/25/3
f 65/25/4 68/25/4 69/25/4 72/25/4
f 63/10/3 64/5/3 62/8/3 61/11/3
f 57/26/4 58/27/4 60/20/4 59/19/4
f 71/23/1 72/22/1 69/17/1 70/16/1
f 75/1/1 82/2/1 83/3/1 73/4/1
f 80/5/2 76/6/2 74/7/2 78/8/2
f 81/9/1 79/10/1 77/11/1 84/12/1
f 82/2/1 81/9/1 84/12/1 83/3/1
f 77/11/3 78/8/3 74/13/3 73/14/3 83/15/3 86/16/3 85/17/3 84/18/3
f 75/19/4 76/20/4 80/5/4 79/10/4 81/21/4 88/22/4 87/23/4 82/24/4
f 82/25/5 87/25/5 86/25/5 83/25/5
f 81/25/6 84/25/6 85/25/6 88/25/6
f 79/10/5 80/5/5 78/8/5 77/11/5
f 73/26/6 74/27/6 76/20/6 75/19/6
f 87/23/1 88/22/1 85/17/1 86/16/1
f 91/1/1 98/2/1 99/3/1 89/4/1
f 96/5/2 92/6/2 90/7/2 94/8/2
f 97/9/1 95/10/1 93/11/1 100/12/1
f 98/2/1 97/9/1 100/12/1 99/3/1
f 93/11/3 94/8/3 90/13/3 89/14/3 99/15/3 102/16/3 101/17/3 100/18/3
f 91/19/4 92/20/4 96/5/4 95/10/4 97/21/4 104/22/4 103/23/4 98/24/4
f 98/25/5 103/25/5 102/25/5 99/25/5
f 97/25/6 100/25/6 101/25/6 104/25/6
f 95/10/5 96/5/5 94/8/5 93/11/5
f 89/26/6 90/27/6 92/20/6 91/19/6
f 103/23/1 104/22/1 101/17/1 102/16/1
f 33/25/1 53/25/1 37/25/1 41/25/1 7/25/1 45/25/1 9/9/1 10/2/1 3/1/1 79/10/1 81/9/1 82/2/1 23/25/1 75/25/1 25/9/1 26/2/1 63/25/1 19/25/1 65/9/1 66/2/1 89/25/1 59/25/1 99/3/1 100/12/1 49/25/1 93/25/1
f 54/25/2 34/25/2 94/25/2 50/25/2 60/25/2 90/25/2 20/25/2 64/25/2 76/25/2 24/25/2 4/25/2 80/25/2 46/25/2 8/25/2 42/25/2 38/25/2
l 7 19
l 3 23
l 4 20
l 8 24
