# Blender 4.5.1 LTS
# www.blender.org
mtllib Doubles_Room_3_Way_Doubles.mtl
o Doubles_Room_3_Way_Doubles
v -649.850281 0.000000 -70.000000
v -649.850281 5.300000 -70.000000
v -650.150330 0.000000 -70.000000
v -650.150330 5.300000 -70.000000
v -649.850281 0.000000 -80.000000
v -649.850281 5.300000 -80.000000
v -650.150330 0.000000 -80.000000
v -650.150330 5.300000 -80.000000
v -659.999939 0.000000 -59.849998
v -659.999939 5.300000 -59.849998
v -659.999939 0.000000 -60.150002
v -659.999939 5.300000 -60.150002
v -649.999939 0.000000 -59.849998
v -649.999939 5.300000 -59.849998
v -649.999939 0.000000 -60.150002
v -649.999939 5.300000 -60.150002
v -653.999939 0.000000 -60.150002
v -655.999939 0.000000 -60.150002
v -655.999939 0.000000 -59.849998
v -653.999939 0.000000 -59.849998
v -653.999939 3.975000 -59.849998
v -655.999939 3.975000 -59.849998
v -655.999939 3.975000 -60.150002
v -653.999939 3.975000 -60.150002
v -669.850342 0.000000 -70.000000
v -669.850342 5.300000 -70.000000
v -670.150330 0.000000 -70.000000
v -670.150330 5.300000 -70.000000
v -669.850342 0.000000 -80.000000
v -669.850342 5.300000 -80.000000
v -670.150330 0.000000 -80.000000
v -670.150330 5.300000 -80.000000
v -670.000000 0.000000 -59.849998
v -670.000000 5.300000 -59.849998
v -670.000000 0.000000 -60.149998
v -670.000000 5.300000 -60.149998
v -660.000000 0.000000 -59.849998
v -660.000000 5.300000 -59.849998
v -660.000000 0.000000 -60.150002
v -660.000000 5.300000 -60.150002
v -664.000000 0.000000 -60.149998
v -666.000000 0.000000 -60.149998
v -666.000000 0.000000 -59.849998
v -664.000000 0.000000 -59.849998
v -664.000000 3.975000 -59.849998
v -666.000000 3.975000 -59.849998
v -666.000000 3.975000 -60.149998
v -664.000000 3.975000 -60.149998
v -669.849976 0.000000 -60.000000
v -669.849976 5.300000 -60.000000
v -670.149963 0.000000 -60.000000
v -670.149963 5.300000 -60.000000
v -669.849976 0.000000 -70.000000
v -669.849976 5.300000 -70.000000
v -670.149963 0.000000 -70.000000
v -670.149963 5.300000 -70.000000
v -670.149963 0.000000 -66.000000
v -670.149963 0.000000 -64.000000
v -669.849976 0.000000 -64.000000
v -669.849976 0.000000 -66.000000
v -669.849976 3.975000 -66.000000
v -669.849976 3.975000 -64.000000
v -670.149963 3.975000 -64.000000
v -670.149963 3.975000 -66.000000
v -649.850037 0.000000 -60.000000
v -649.850037 5.300000 -60.000000
v -650.150024 0.000000 -60.000000
v -650.150024 5.300000 -60.000000
v -649.850037 0.000000 -70.000000
v -649.850037 5.300000 -70.000000
v -650.150024 0.000000 -70.000000
v -650.150024 5.300000 -70.000000
v -650.150024 0.000000 -66.000000
v -650.150024 0.000000 -64.000000
v -649.850037 0.000000 -64.000000
v -649.850037 0.000000 -66.000000
v -649.850037 3.975000 -66.000000
v -649.850037 3.975000 -64.000000
v -650.150024 3.975000 -64.000000
v -650.150024 3.975000 -66.000000
v -659.999939 0.000000 -79.849998
v -659.999939 5.300000 -79.849998
v -659.999939 0.000000 -80.150002
v -659.999939 5.300000 -80.150002
v -649.999939 0.000000 -79.849998
v -649.999939 5.300000 -79.849998
v -649.999939 0.000000 -80.150002
v -649.999939 5.300000 -80.150002
v -653.999939 0.000000 -80.150002
v -655.999939 0.000000 -80.150002
v -655.999939 0.000000 -79.849998
v -653.999939 0.000000 -79.849998
v -653.999939 3.975000 -79.849998
v -655.999939 3.975000 -79.849998
v -655.999939 3.975000 -80.150002
v -653.999939 3.975000 -80.150002
v -670.000000 0.000000 -79.849998
v -670.000000 5.300000 -79.849998
v -670.000000 0.000000 -80.150002
v -670.000000 5.300000 -80.150002
v -660.000000 0.000000 -79.849998
v -660.000000 5.300000 -79.849998
v -660.000000 0.000000 -80.150002
v -660.000000 5.300000 -80.150002
v -664.000000 0.000000 -80.150002
v -666.000000 0.000000 -80.150002
v -666.000000 0.000000 -79.849998
v -664.000000 0.000000 -79.849998
v -664.000000 3.975000 -79.849998
v -666.000000 3.975000 -79.849998
v -666.000000 3.975000 -80.150002
v -664.000000 3.975000 -80.150002
vn -0.0000 1.0000 -0.0000
vn -0.0000 -1.0000 -0.0000
vn 1.0000 -0.0000 -0.0000
vn -0.0000 -0.0000 -1.0000
vn -1.0000 -0.0000 -0.0000
vn -0.0000 -0.0000 1.0000
vt 0.625000 0.500000
vt 0.875000 0.500000
vt 0.875000 0.750000
vt 0.625000 0.750000
vt 0.125000 0.500000
vt 0.375000 0.500000
vt 0.375000 0.750000
vt 0.125000 0.750000
vt 0.625000 1.000000
vt 0.375000 1.000000
vt 0.625000 0.250000
vt 0.375000 0.250000
vt 0.375000 0.000000
vt 0.625000 0.000000
vt 0.225000 0.500000
vt 0.225000 0.750000
vt 0.275000 0.500000
vt 0.275000 0.750000
vt 0.375000 0.900000
vt 0.562500 0.900000
vt 0.562500 0.850000
vt 0.375000 0.850000
vt 0.375000 0.400000
vt 0.562500 0.400000
vt 0.562500 0.350000
vt 0.375000 0.350000
vt 0.000000 0.000000
s 0
f 8/1/1 4/2/1 2/3/1 6/4/1
f 3/5/2 7/6/2 5/7/2 1/8/2
f 6/4/3 2/9/3 1/10/3 5/7/3
f 7/6/4 8/1/4 6/4/4 5/7/4
f 4/11/5 8/1/5 7/6/5 3/12/5
f 1/13/6 2/14/6 4/11/6 3/12/6
f 11/5/2 18/15/2 19/16/2 9/8/2
f 16/1/1 12/2/1 10/3/1 14/4/1
f 17/17/2 15/6/2 13/7/2 20/18/2
f 18/15/2 17/17/2 20/18/2 19/16/2
f 13/7/6 14/4/6 10/9/6 9/10/6 19/19/6 22/20/6 21/21/6 20/22/6
f 11/12/4 12/11/4 16/1/4 15/6/4 17/23/4 24/24/4 23/25/4 18/26/4
f 18/27/3 23/27/3 22/27/3 19/27/3
f 17/27/5 20/27/5 21/27/5 24/27/5
f 15/6/3 16/1/3 14/4/3 13/7/3
f 9/13/5 10/14/5 12/11/5 11/12/5
f 23/25/2 24/24/2 21/21/2 22/20/2
f 32/1/1 28/2/1 26/3/1 30/4/1
f 27/5/2 31/6/2 29/7/2 25/8/2
f 30/4/3 26/9/3 25/10/3 29/7/3
f 31/6/4 32/1/4 30/4/4 29/7/4
f 28/11/5 32/1/5 31/6/5 27/12/5
f 25/13/6 26/14/6 28/11/6 27/12/6
f 35/5/2 42/15/2 43/16/2 33/8/2
f 40/1/1 36/2/1 34/3/1 38/4/1
f 41/17/2 39/6/2 37/7/2 44/18/2
f 42/15/2 41/17/2 44/18/2 43/16/2
f 37/7/6 38/4/6 34/9/6 33/10/6 43/19/6 46/20/6 45/21/6 44/22/6
f 35/12/4 36/11/4 40/1/4 39/6/4 41/23/4 48/24/4 47/25/4 42/26/4
f 42/27/3 47/27/3 46/27/3 43/27/3
f 41/27/5 44/27/5 45/27/5 48/27/5
f 39/6/3 40/1/3 38/4/3 37/7/3
f 33/13/5 34/14/5 36/11/5 35/12/5
f 47/25/2 48/24/2 45/21/2 46/20/2
f 51/5/2 58/15/2 59/16/2 49/8/2
f 56/1/1 52/2/1 50/3/1 54/4/1
f 57/17/2 55/6/2 53/7/2 60/18/2
f 58/15/2 57/17/2 60/18/2 59/16/2
f 53/7/3 54/4/3 50/9/3 49/10/3 59/19/3 62/20/3 61/21/3 60/22/3
f 51/12/5 52/11/5 56/1/5 55/6/5 57/23/5 64/24/5 63/25/5 58/26/5
f 58/27/4 63/27/4 62/27/4 59/27/4
f 57/27/6 60/27/6 61/27/6 64/27/6
f 55/6/4 56/1/4 54/4/4 53/7/4
f 49/13/6 50/14/6 52/11/6 51/12/6
f 63/25/2 64/24/2 61/21/2 62/20/2
f 67/5/2 74/15/2 75/16/2 65/8/2
f 72/1/1 68/2/1 66/3/1 70/4/1
f 73/17/2 71/6/2 69/7/2 76/18/2
f 74/15/2 73/17/2 76/18/2 75/16/2
f 69/7/3 70/4/3 66/9/3 65/10/3 75/19/3 78/20/3 77/21/3 76/22/3
f 67/12/5 68/11/5 72/1/5 71/6/5 73/23/5 80/24/5 79/25/5 74/26/5
f 74/27/4 79/27/4 78/27/4 75/27/4
f 73/27/6 76/27/6 77/27/6 80/27/6
f 71/6/4 72/1/4 70/4/4 69/7/4
f 65/13/6 66/14/6 68/11/6 67/12/6
f 79/25/2 80/24/2 77/21/2 78/20/2
f 83/5/2 90/15/2 91/16/2 81/8/2
f 88/1/1 84/2/1 82/3/1 86/4/1
f 89/17/2 87/6/2 85/7/2 92/18/2
f 90/15/2 89/17/2 92/18/2 91/16/2
f 85/7/6 86/4/6 82/9/6 81/10/6 91/19/6 94/20/6 93/21/6 92/22/6
f 83/12/4 84/11/4 88/1/4 87/6/4 89/23/4 96/24/4 95/25/4 90/26/4
f 90/27/3 95/27/3 94/27/3 91/27/3
f 89/27/5 92/27/5 93/27/5 96/27/5
f 87/6/3 88/1/3 86/4/3 85/7/3
f 81/13/5 82/14/5 84/11/5 83/12/5
f 95/25/2 96/24/2 93/21/2 94/20/2
f 99/5/2 106/15/2 107/16/2 97/8/2
f 104/1/1 100/2/1 98/3/1 102/4/1
f 105/17/2 103/6/2 101/7/2 108/18/2
f 106/15/2 105/17/2 108/18/2 107/16/2
f 101/7/6 102/4/6 98/9/6 97/10/6 107/19/6 110/20/6 109/21/6 108/22/6
f 99/12/4 100/11/4 104/1/4 103/6/4 105/23/4 112/24/4 111/25/4 106/26/4
f 106/27/3 111/27/3 110/27/3 107/27/3
f 105/27/5 108/27/5 109/27/5 112/27/5
f 103/6/3 104/1/3 102/4/3 101/7/3
f 97/13/5 98/14/5 100/11/5 99/12/5
f 111/25/2 112/24/2 109/21/2 110/20/2
f 68/27/1 16/27/1 72/27/1 4/27/1 86/27/1 8/27/1 82/27/1 102/27/1 30/27/1 98/27/1 54/27/1 26/27/1 36/27/1 50/27/1 40/27/1 12/27/1
f 7/27/2 85/27/2 3/27/2 71/6/2 73/17/2 74/15/2 15/27/2 67/27/2 17/17/2 18/15/2 11/5/2 39/6/2 41/17/2 42/15/2 49/27/2 35/27/2 59/16/2 60/18/2 25/27/2 53/27/2 97/27/2 29/27/2 107/16/2 108/18/2 101/7/2 81/8/2 91/16/2 92/18/2
l 4 12
l 8 16
l 7 11
l 3 15
