# Blender 4.5.1 LTS
# www.blender.org
mtllib Doubles_Room_Right_2_Way_Left.mtl
o Doubles_Room_Right_2_Way_Left
v -580.000000 0.000000 -79.849998
v -580.000000 5.300000 -79.849998
v -580.000000 0.000000 -80.150002
v -580.000000 5.300000 -80.150002
v -570.000000 0.000000 -79.849998
v -570.000000 5.300000 -79.849998
v -570.000000 0.000000 -80.150002
v -570.000000 5.300000 -80.150002
v -574.000000 0.000000 -80.150002
v -576.000000 0.000000 -80.150002
v -576.000000 0.000000 -79.849998
v -574.000000 0.000000 -79.849998
v -574.000000 3.975000 -79.849998
v -576.000000 3.975000 -79.849998
v -576.000000 3.975000 -80.150002
v -574.000000 3.975000 -80.150002
v -559.850281 0.000000 -69.999992
v -559.850281 5.300000 -69.999992
v -560.150330 0.000000 -69.999992
v -560.150330 5.300000 -69.999992
v -559.850281 0.000000 -79.999992
v -559.850281 5.300000 -79.999992
v -560.150330 0.000000 -79.999992
v -560.150330 5.300000 -79.999992
v -569.999939 0.000000 -59.849995
v -569.999939 5.300000 -59.849995
v -569.999939 0.000000 -60.149994
v -569.999939 5.300000 -60.149994
v -559.999939 0.000000 -59.849995
v -559.999939 5.300000 -59.849995
v -559.999939 0.000000 -60.149994
v -559.999939 5.300000 -60.149994
v -563.999939 0.000000 -60.149994
v -565.999939 0.000000 -60.149994
v -565.999939 0.000000 -59.849995
v -563.999939 0.000000 -59.849995
v -563.999939 3.975000 -59.849995
v -565.999939 3.975000 -59.849995
v -565.999939 3.975000 -60.149994
v -563.999939 3.975000 -60.149994
v -580.000244 0.000000 -79.849998
v -580.000244 5.300000 -79.849998
v -580.000244 0.000000 -80.149994
v -580.000244 5.300000 -80.149994
v -570.000244 0.000000 -79.849998
v -570.000244 5.300000 -79.849998
v -570.000244 0.000000 -80.149994
v -579.850281 0.000000 -69.999992
v -579.850281 5.300000 -69.999992
v -580.150269 0.000000 -69.999992
v -580.150269 5.300000 -69.999992
v -579.850281 0.000000 -79.999992
v -579.850281 5.300000 -79.999992
v -580.150269 0.000000 -79.999992
v -580.150269 5.300000 -79.999992
v -579.850281 0.000000 -59.999992
v -579.850281 5.300000 -59.999992
v -580.150269 0.000000 -59.999992
v -580.150269 5.300000 -59.999992
v -579.850281 0.000000 -69.999992
v -579.850281 5.300000 -69.999992
v -580.150269 0.000000 -69.999992
v -580.150269 5.300000 -69.999992
v -580.000000 0.000000 -59.849991
v -580.000000 5.300000 -59.849991
v -580.000000 0.000000 -60.149994
v -580.000000 5.300000 -60.149994
v -570.000000 0.000000 -59.849995
v -570.000000 5.300000 -59.849995
v -570.000000 0.000000 -60.149994
v -570.000000 5.300000 -60.149994
v -574.000000 0.000000 -60.149994
v -576.000000 0.000000 -60.149994
v -576.000000 0.000000 -59.849991
v -574.000000 0.000000 -59.849991
v -574.000000 3.975000 -59.849991
v -576.000000 3.975000 -59.849991
v -576.000000 3.975000 -60.149994
v -574.000000 3.975000 -60.149994
v -559.849976 0.000000 -59.999996
v -559.849976 5.300000 -59.999996
v -560.149963 0.000000 -59.999996
v -560.149963 5.300000 -59.999996
v -559.849976 0.000000 -69.999992
v -559.849976 5.300000 -69.999992
v -560.149963 0.000000 -69.999992
v -560.149963 5.300000 -69.999992
v -560.149963 0.000000 -65.999992
v -560.149963 0.000000 -63.999992
v -559.849976 0.000000 -63.999992
v -559.849976 0.000000 -65.999992
v -559.849976 3.975000 -65.999992
v -559.849976 3.975000 -63.999992
v -560.149963 3.975000 -63.999992
v -560.149963 3.975000 -65.999992
v -569.999939 0.000000 -79.849998
v -569.999939 5.300000 -79.849998
v -559.999939 0.000000 -79.849998
v -559.999939 5.300000 -79.849998
v -559.999939 0.000000 -80.149994
v -559.999939 5.300000 -80.149994
v -565.999939 0.000000 -79.849998
v -563.999939 0.000000 -79.849998
v -565.999939 3.975000 -80.149994
v -570.000305 0.000000 -79.849991
v -570.000305 5.300000 -79.849991
v -570.000305 0.000000 -80.149994
v -570.000305 5.300000 -80.149994
v -560.000305 0.000000 -79.849991
v -560.000305 5.300000 -79.849991
v -560.000305 0.000000 -80.149994
v -560.000305 5.300000 -80.149994
vn -0.0000 -1.0000 -0.0000
vn -0.0000 1.0000 -0.0000
vn -0.0000 -0.0000 1.0000
vn -0.0000 -0.0000 -1.0000
vn 1.0000 -0.0000 -0.0000
vn -1.0000 -0.0000 -0.0000
vt 0.125000 0.500000
vt 0.225000 0.500000
vt 0.225000 0.750000
vt 0.125000 0.750000
vt 0.625000 0.500000
vt 0.875000 0.500000
vt 0.875000 0.750000
vt 0.625000 0.750000
vt 0.275000 0.500000
vt 0.375000 0.500000
vt 0.375000 0.750000
vt 0.275000 0.750000
vt 0.625000 1.000000
vt 0.375000 1.000000
vt 0.375000 0.900000
vt 0.562500 0.900000
vt 0.562500 0.850000
vt 0.375000 0.850000
vt 0.375000 0.250000
vt 0.625000 0.250000
vt 0.375000 0.400000
vt 0.562500 0.400000
vt 0.562500 0.350000
vt 0.375000 0.350000
vt 0.000000 0.000000
vt 0.375000 0.000000
vt 0.625000 0.000000
s 0
f 3/1/1 10/2/1 11/3/1 1/4/1
f 8/5/2 4/6/2 2/7/2 6/8/2
f 9/9/1 7/10/1 5/11/1 12/12/1
f 10/2/1 9/9/1 12/12/1 11/3/1
f 5/11/3 6/8/3 2/13/3 1/14/3 11/15/3 14/16/3 13/17/3 12/18/3
f 3/19/4 4/20/4 8/5/4 7/10/4 9/21/4 16/22/4 15/23/4 10/24/4
f 10/25/5 15/25/5 14/25/5 11/25/5
f 9/25/6 12/25/6 13/25/6 16/25/6
f 7/10/5 8/5/5 6/8/5 5/11/5
f 1/26/6 2/27/6 4/20/6 3/19/6
f 15/23/1 16/22/1 13/17/1 14/16/1
f 24/5/2 20/6/2 18/7/2 22/8/2
f 19/1/1 23/10/1 21/11/1 17/4/1
f 22/8/5 18/13/5 17/14/5 21/11/5
f 23/10/4 24/5/4 22/8/4 21/11/4
f 20/20/6 24/5/6 23/10/6 19/19/6
f 17/26/3 18/27/3 20/20/3 19/19/3
f 27/1/1 34/2/1 35/3/1 25/4/1
f 32/5/2 28/6/2 26/7/2 30/8/2
f 33/9/1 31/10/1 29/11/1 36/12/1
f 34/2/1 33/9/1 36/12/1 35/3/1
f 29/11/3 30/8/3 26/13/3 25/14/3 35/15/3 38/16/3 37/17/3 36/18/3
f 27/19/4 28/20/4 32/5/4 31/10/4 33/21/4 40/22/4 39/23/4 34/24/4
f 34/25/5 39/25/5 38/25/5 35/25/5
f 33/25/6 36/25/6 37/25/6 40/25/6
f 31/10/5 32/5/5 30/8/5 29/11/5
f 25/26/6 26/27/6 28/20/6 27/19/6
f 39/23/1 40/22/1 37/17/1 38/16/1
f 55/5/2 51/6/2 49/7/2 53/8/2
f 50/1/1 54/10/1 52/11/1 48/4/1
f 53/8/5 49/13/5 48/14/5 52/11/5
f 54/10/4 55/5/4 53/8/4 52/11/4
f 51/20/6 55/5/6 54/10/6 50/19/6
f 48/26/3 49/27/3 51/20/3 50/19/3
f 63/5/2 59/6/2 57/7/2 61/8/2
f 58/1/1 62/10/1 60/11/1 56/4/1
f 61/8/5 57/13/5 56/14/5 60/11/5
f 62/10/4 63/5/4 61/8/4 60/11/4
f 59/20/6 63/5/6 62/10/6 58/19/6
f 56/26/3 57/27/3 59/20/3 58/19/3
f 66/1/1 73/2/1 74/3/1 64/4/1
f 71/5/2 67/6/2 65/7/2 69/8/2
f 72/9/1 70/10/1 68/11/1 75/12/1
f 73/2/1 72/9/1 75/12/1 74/3/1
f 68/11/3 69/8/3 65/13/3 64/14/3 74/15/3 77/16/3 76/17/3 75/18/3
f 66/19/4 67/20/4 71/5/4 70/10/4 72/21/4 79/22/4 78/23/4 73/24/4
f 73/25/5 78/25/5 77/25/5 74/25/5
f 72/25/6 75/25/6 76/25/6 79/25/6
f 70/10/5 71/5/5 69/8/5 68/11/5
f 64/26/6 65/27/6 67/20/6 66/19/6
f 78/23/1 79/22/1 76/17/1 77/16/1
f 82/1/1 89/2/1 90/3/1 80/4/1
f 87/5/2 83/6/2 81/7/2 85/8/2
f 88/9/1 86/10/1 84/11/1 91/12/1
f 89/2/1 88/9/1 91/12/1 90/3/1
f 84/11/5 85/8/5 81/13/5 80/14/5 90/15/5 93/16/5 92/17/5 91/18/5
f 82/19/6 83/20/6 87/5/6 86/10/6 88/21/6 95/22/6 94/23/6 89/24/6
f 89/25/4 94/25/4 93/25/4 90/25/4
f 88/25/3 91/25/3 92/25/3 95/25/3
f 86/10/4 87/5/4 85/8/4 84/11/4
f 80/26/3 81/27/3 83/20/3 82/19/3
f 94/23/1 95/22/1 92/17/1 93/16/1
f 83/25/2 32/25/2 87/25/2 20/25/2 99/25/2 24/25/2 97/25/2 46/25/2 53/25/2 42/25/2 61/25/2 49/25/2 67/25/2 57/25/2 71/25/2 28/25/2
f 52/25/2 41/25/2 60/25/2 48/25/2 66/25/2 56/25/2 73/2/2 72/9/2 70/10/2 27/1/2 34/2/2 33/9/2 82/25/2 31/25/2 89/2/2 88/9/2 86/10/2 19/25/2 98/25/2 23/25/2 103/12/2 102/3/2 96/4/2 45/25/2
f 112/5/2 108/6/2 106/7/2 110/8/2
f 107/1/1 111/10/1 109/11/1 105/4/1
f 110/8/3 106/13/3 105/14/3 109/11/3
f 111/10/5 112/5/5 110/8/5 109/11/5
f 108/20/4 112/5/4 111/10/4 107/19/4
f 105/26/6 106/27/6 108/20/6 107/19/6
l 43 41
l 42 44
l 45 47
l 98 100
l 101 99
l 103 98
l 99 97
l 99 98
l 20 28
l 24 32
l 23 27
l 19 31
