# Blender 4.5.1 LTS
# www.blender.org
mtllib Left_Doubles_Room_Right_2_Way_Doubles.mtl
o Left_Doubles_Room_Right_2_Way_Doubles
v -529.850281 0.000000 -130.000000
v -529.850281 5.300000 -130.000000
v -530.150330 0.000000 -130.000000
v -530.150330 5.300000 -130.000000
v -529.850281 0.000000 -140.000000
v -529.850281 5.300000 -140.000000
v -530.150330 0.000000 -140.000000
v -530.150330 5.300000 -140.000000
v -550.000000 0.000000 -119.849998
v -550.000000 5.300000 -119.849998
v -550.000000 0.000000 -120.150002
v -550.000000 5.300000 -120.150002
v -540.000000 0.000000 -119.849998
v -540.000000 5.300000 -119.849998
v -540.000000 0.000000 -120.150002
v -540.000000 5.300000 -120.150002
v -544.000000 0.000000 -120.150002
v -546.000000 0.000000 -120.150002
v -546.000000 0.000000 -119.849998
v -544.000000 0.000000 -119.849998
v -544.000000 3.975000 -119.849998
v -546.000000 3.975000 -119.849998
v -546.000000 3.975000 -120.150002
v -544.000000 3.975000 -120.150002
v -540.000305 0.000000 -119.849998
v -540.000305 5.300000 -119.849998
v -540.000305 0.000000 -120.150002
v -540.000305 5.300000 -120.150002
v -530.000305 0.000000 -119.849998
v -530.000305 5.300000 -119.849998
v -530.000305 0.000000 -120.150002
v -530.000305 5.300000 -120.150002
v -549.850281 0.000000 -130.000015
v -549.850281 5.300000 -130.000015
v -550.150269 0.000000 -130.000015
v -550.150269 5.300000 -130.000015
v -549.850281 0.000000 -140.000015
v -549.850281 5.300000 -140.000015
v -550.150269 0.000000 -140.000015
v -550.150269 5.300000 -140.000015
v -529.849976 0.000000 -120.000000
v -529.849976 5.300000 -120.000000
v -530.149963 0.000000 -120.000000
v -530.149963 5.300000 -120.000000
v -529.849976 0.000000 -130.000000
v -529.849976 5.300000 -130.000000
v -530.149963 0.000000 -130.000000
v -530.149963 5.300000 -130.000000
v -530.149963 0.000000 -126.000000
v -530.149963 0.000000 -124.000000
v -529.849976 0.000000 -124.000000
v -529.849976 0.000000 -126.000000
v -529.849976 3.975000 -126.000000
v -529.849976 3.975000 -124.000000
v -530.149963 3.975000 -124.000000
v -530.149963 3.975000 -126.000000
v -549.850281 0.000000 -120.000008
v -549.850281 5.300000 -120.000008
v -550.150269 0.000000 -120.000008
v -550.150269 5.300000 -120.000008
v -549.850281 0.000000 -130.000015
v -549.850281 5.300000 -130.000015
v -550.150269 0.000000 -130.000015
v -550.150269 5.300000 -130.000015
v -539.999939 0.000000 -139.850006
v -539.999939 5.300000 -139.850006
v -539.999939 0.000000 -140.149994
v -539.999939 5.300000 -140.149994
v -529.999939 0.000000 -139.850006
v -529.999939 5.300000 -139.850006
v -529.999939 0.000000 -140.149994
v -529.999939 5.300000 -140.149994
v -533.999939 0.000000 -140.149994
v -535.999939 0.000000 -140.149994
v -535.999939 0.000000 -139.850006
v -533.999939 0.000000 -139.850006
v -533.999939 3.975000 -139.850006
v -535.999939 3.975000 -139.850006
v -535.999939 3.975000 -140.149994
v -533.999939 3.975000 -140.149994
v -550.000000 0.000000 -139.850006
v -550.000000 5.300000 -139.850006
v -550.000000 0.000000 -140.149994
v -550.000000 5.300000 -140.149994
v -540.000000 0.000000 -139.850006
v -540.000000 5.300000 -139.850006
v -540.000000 0.000000 -140.149994
v -540.000000 5.300000 -140.149994
v -544.000000 0.000000 -140.149994
v -546.000000 0.000000 -140.149994
v -546.000000 0.000000 -139.850006
v -544.000000 0.000000 -139.850006
v -544.000000 3.975000 -139.850006
v -546.000000 3.975000 -139.850006
v -546.000000 3.975000 -140.149994
v -544.000000 3.975000 -140.149994
vn -0.0000 1.0000 -0.0000
vn -0.0000 -1.0000 -0.0000
vn 1.0000 -0.0000 -0.0000
vn -0.0000 -0.0000 -1.0000
vn -1.0000 -0.0000 -0.0000
vn -0.0000 -0.0000 1.0000
vt 0.625000 0.500000
vt 0.875000 0.500000
vt 0.875000 0.750000
vt 0.625000 0.750000
vt 0.125000 0.500000
vt 0.375000 0.500000
vt 0.375000 0.750000
vt 0.125000 0.750000
vt 0.625000 1.000000
vt 0.375000 1.000000
vt 0.625000 0.250000
vt 0.375000 0.250000
vt 0.375000 0.000000
vt 0.625000 0.000000
vt 0.225000 0.500000
vt 0.225000 0.750000
vt 0.275000 0.500000
vt 0.275000 0.750000
vt 0.375000 0.900000
vt 0.562500 0.900000
vt 0.562500 0.850000
vt 0.375000 0.850000
vt 0.375000 0.400000
vt 0.562500 0.400000
vt 0.562500 0.350000
vt 0.375000 0.350000
vt 0.000000 0.000000
s 0
f 8/1/1 4/2/1 2/3/1 6/4/1
f 3/5/2 7/6/2 5/7/2 1/8/2
f 6/4/3 2/9/3 1/10/3 5/7/3
f 7/6/4 8/1/4 6/4/4 5/7/4
f 4/11/5 8/1/5 7/6/5 3/12/5
f 1/13/6 2/14/6 4/11/6 3/12/6
f 11/5/2 18/15/2 19/16/2 9/8/2
f 16/1/1 12/2/1 10/3/1 14/4/1
f 17/17/2 15/6/2 13/7/2 20/18/2
f 18/15/2 17/17/2 20/18/2 19/16/2
f 13/7/6 14/4/6 10/9/6 9/10/6 19/19/6 22/20/6 21/21/6 20/22/6
f 11/12/4 12/11/4 16/1/4 15/6/4 17/23/4 24/24/4 23/25/4 18/26/4
f 18/27/3 23/27/3 22/27/3 19/27/3
f 17/27/5 20/27/5 21/27/5 24/27/5
f 15/6/3 16/1/3 14/4/3 13/7/3
f 9/13/5 10/14/5 12/11/5 11/12/5
f 23/25/2 24/24/2 21/21/2 22/20/2
f 32/1/1 28/2/1 26/3/1 30/4/1
f 27/5/2 31/6/2 29/7/2 25/8/2
f 30/4/6 26/9/6 25/10/6 29/7/6
f 31/6/3 32/1/3 30/4/3 29/7/3
f 28/11/4 32/1/4 31/6/4 27/12/4
f 25/13/5 26/14/5 28/11/5 27/12/5
f 40/1/1 36/2/1 34/3/1 38/4/1
f 35/5/2 39/6/2 37/7/2 33/8/2
f 38/4/3 34/9/3 33/10/3 37/7/3
f 39/6/4 40/1/4 38/4/4 37/7/4
f 36/11/5 40/1/5 39/6/5 35/12/5
f 33/13/6 34/14/6 36/11/6 35/12/6
f 43/5/2 50/15/2 51/16/2 41/8/2
f 48/1/1 44/2/1 42/3/1 46/4/1
f 49/17/2 47/6/2 45/7/2 52/18/2
f 50/15/2 49/17/2 52/18/2 51/16/2
f 45/7/3 46/4/3 42/9/3 41/10/3 51/19/3 54/20/3 53/21/3 52/22/3
f 43/12/5 44/11/5 48/1/5 47/6/5 49/23/5 56/24/5 55/25/5 50/26/5
f 50/27/4 55/27/4 54/27/4 51/27/4
f 49/27/6 52/27/6 53/27/6 56/27/6
f 47/6/4 48/1/4 46/4/4 45/7/4
f 41/13/6 42/14/6 44/11/6 43/12/6
f 55/25/2 56/24/2 53/21/2 54/20/2
f 64/1/1 60/2/1 58/3/1 62/4/1
f 59/5/2 63/6/2 61/7/2 57/8/2
f 62/4/3 58/9/3 57/10/3 61/7/3
f 63/6/4 64/1/4 62/4/4 61/7/4
f 60/11/5 64/1/5 63/6/5 59/12/5
f 57/13/6 58/14/6 60/11/6 59/12/6
f 67/5/2 74/15/2 75/16/2 65/8/2
f 72/1/1 68/2/1 66/3/1 70/4/1
f 73/17/2 71/6/2 69/7/2 76/18/2
f 74/15/2 73/17/2 76/18/2 75/16/2
f 69/7/6 70/4/6 66/9/6 65/10/6 75/19/6 78/20/6 77/21/6 76/22/6
f 67/12/4 68/11/4 72/1/4 71/6/4 73/23/4 80/24/4 79/25/4 74/26/4
f 74/27/3 79/27/3 78/27/3 75/27/3
f 73/27/5 76/27/5 77/27/5 80/27/5
f 71/6/3 72/1/3 70/4/3 69/7/3
f 65/13/5 66/14/5 68/11/5 67/12/5
f 79/25/2 80/24/2 77/21/2 78/20/2
f 83/5/2 90/15/2 91/16/2 81/8/2
f 88/1/1 84/2/1 82/3/1 86/4/1
f 89/17/2 87/6/2 85/7/2 92/18/2
f 90/15/2 89/17/2 92/18/2 91/16/2
f 85/7/6 86/4/6 82/9/6 81/10/6 91/19/6 94/20/6 93/21/6 92/22/6
f 83/12/4 84/11/4 88/1/4 87/6/4 89/23/4 96/24/4 95/25/4 90/26/4
f 90/27/3 95/27/3 94/27/3 91/27/3
f 89/27/5 92/27/5 93/27/5 96/27/5
f 87/6/3 88/1/3 86/4/3 85/7/3
f 81/13/5 82/14/5 84/11/5 83/12/5
f 95/25/2 96/24/2 93/21/2 94/20/2
f 8/27/2 70/27/2 48/27/2 4/27/2 32/27/2 44/27/2 16/27/2 28/27/2 58/27/2 12/27/2 34/27/2 62/27/2 82/27/2 38/27/2 86/27/2 66/27/2
f 61/27/2 81/8/2 91/16/2 92/18/2 85/7/2 65/8/2 75/16/2 76/18/2 7/27/2 69/27/2 47/27/2 3/27/2 49/17/2 50/15/2 31/27/2 43/27/2 15/27/2 27/27/2 17/17/2 18/15/2 57/27/2 11/27/2
l 8 12
l 4 16
l 7 11
l 3 15
