# Blender 4.5.1 LTS
# www.blender.org
mtllib Right_Doubles_Room_Left_4_Way_Left.mtl
o Right_Doubles_Room_Left_4_Way_Left
v -679.850281 0.000000 -100.000000
v -679.850281 5.300000 -100.000000
v -680.150330 0.000000 -100.000000
v -680.150330 5.300000 -100.000000
v -679.850281 0.000000 -110.000000
v -679.850281 5.300000 -110.000000
v -680.150330 0.000000 -110.000000
v -680.150330 5.300000 -110.000000
v -689.999939 0.000000 -89.849998
v -689.999939 5.300000 -89.849998
v -689.999939 0.000000 -90.150002
v -689.999939 5.300000 -90.150002
v -679.999939 0.000000 -89.849998
v -679.999939 5.300000 -89.849998
v -679.999939 0.000000 -90.150002
v -679.999939 5.300000 -90.150002
v -683.999939 0.000000 -90.150002
v -685.999939 0.000000 -90.150002
v -685.999939 0.000000 -89.849998
v -683.999939 0.000000 -89.849998
v -683.999939 3.975000 -89.849998
v -685.999939 3.975000 -89.849998
v -685.999939 3.975000 -90.150002
v -683.999939 3.975000 -90.150002
v -700.000305 0.000000 -89.849998
v -700.000305 5.300000 -89.849998
v -700.000305 0.000000 -90.150002
v -700.000305 5.300000 -90.150002
v -690.000305 0.000000 -89.849998
v -690.000305 5.300000 -89.849998
v -690.000305 0.000000 -90.150002
v -690.000305 5.300000 -90.150002
v -690.000305 0.000000 -109.849998
v -690.000305 5.300000 -109.849998
v -690.000305 0.000000 -110.150002
v -690.000305 5.300000 -110.150002
v -680.000305 0.000000 -109.849998
v -680.000305 5.300000 -109.849998
v -680.000305 0.000000 -110.150002
v -680.000305 5.300000 -110.150002
v -699.849976 0.000000 -90.000000
v -699.849976 5.300000 -90.000000
v -700.149963 0.000000 -90.000000
v -700.149963 5.300000 -90.000000
v -699.849976 0.000000 -100.000000
v -699.849976 5.300000 -100.000000
v -700.149963 0.000000 -100.000000
v -700.149963 5.300000 -100.000000
v -700.149963 0.000000 -96.000000
v -700.149963 0.000000 -94.000000
v -699.849976 0.000000 -94.000000
v -699.849976 0.000000 -96.000000
v -699.849976 3.975000 -96.000000
v -699.849976 3.975000 -94.000000
v -700.149963 3.975000 -94.000000
v -700.149963 3.975000 -96.000000
v -679.850037 0.000000 -90.000000
v -679.850037 5.300000 -90.000000
v -680.150024 0.000000 -90.000000
v -680.150024 5.300000 -90.000000
v -679.850037 0.000000 -100.000000
v -679.850037 5.300000 -100.000000
v -680.150024 0.000000 -100.000000
v -680.150024 5.300000 -100.000000
v -680.150024 0.000000 -96.000000
v -680.150024 0.000000 -94.000000
v -679.850037 0.000000 -94.000000
v -679.850037 0.000000 -96.000000
v -679.850037 3.975000 -96.000000
v -679.850037 3.975000 -94.000000
v -680.150024 3.975000 -94.000000
v -680.150024 3.975000 -96.000000
v -699.849976 0.000000 -100.000000
v -699.849976 5.300000 -100.000000
v -700.149963 0.000000 -100.000000
v -700.149963 5.300000 -100.000000
v -699.849976 0.000000 -110.000000
v -699.849976 5.300000 -110.000000
v -700.149963 0.000000 -110.000000
v -700.149963 5.300000 -110.000000
v -700.149963 0.000000 -106.000000
v -700.149963 0.000000 -104.000000
v -699.849976 0.000000 -104.000000
v -699.849976 0.000000 -106.000000
v -699.849976 3.975000 -106.000000
v -699.849976 3.975000 -104.000000
v -700.149963 3.975000 -104.000000
v -700.149963 3.975000 -106.000000
v -700.000000 0.000000 -109.849998
v -700.000000 5.300000 -109.849998
v -700.000000 0.000000 -110.150002
v -700.000000 5.300000 -110.150002
v -690.000000 0.000000 -109.849998
v -690.000000 5.300000 -109.849998
v -690.000000 0.000000 -110.150002
v -690.000000 5.300000 -110.150002
v -694.000000 0.000000 -110.150002
v -696.000000 0.000000 -110.150002
v -696.000000 0.000000 -109.849998
v -694.000000 0.000000 -109.849998
v -694.000000 3.975000 -109.849998
v -696.000000 3.975000 -109.849998
v -696.000000 3.975000 -110.150002
v -694.000000 3.975000 -110.150002
vn -0.0000 1.0000 -0.0000
vn -0.0000 -1.0000 -0.0000
vn 1.0000 -0.0000 -0.0000
vn -0.0000 -0.0000 -1.0000
vn -1.0000 -0.0000 -0.0000
vn -0.0000 -0.0000 1.0000
vt 0.625000 0.500000
vt 0.875000 0.500000
vt 0.875000 0.750000
vt 0.625000 0.750000
vt 0.125000 0.500000
vt 0.375000 0.500000
vt 0.375000 0.750000
vt 0.125000 0.750000
vt 0.625000 1.000000
vt 0.375000 1.000000
vt 0.625000 0.250000
vt 0.375000 0.250000
vt 0.375000 0.000000
vt 0.625000 0.000000
vt 0.225000 0.500000
vt 0.225000 0.750000
vt 0.275000 0.500000
vt 0.275000 0.750000
vt 0.375000 0.900000
vt 0.562500 0.900000
vt 0.562500 0.850000
vt 0.375000 0.850000
vt 0.375000 0.400000
vt 0.562500 0.400000
vt 0.562500 0.350000
vt 0.375000 0.350000
vt 0.000000 0.000000
s 0
f 8/1/1 4/2/1 2/3/1 6/4/1
f 3/5/2 7/6/2 5/7/2 1/8/2
f 6/4/3 2/9/3 1/10/3 5/7/3
f 7/6/4 8/1/4 6/4/4 5/7/4
f 4/11/5 8/1/5 7/6/5 3/12/5
f 1/13/6 2/14/6 4/11/6 3/12/6
f 11/5/2 18/15/2 19/16/2 9/8/2
f 16/1/1 12/2/1 10/3/1 14/4/1
f 17/17/2 15/6/2 13/7/2 20/18/2
f 18/15/2 17/17/2 20/18/2 19/16/2
f 13/7/6 14/4/6 10/9/6 9/10/6 19/19/6 22/20/6 21/21/6 20/22/6
f 11/12/4 12/11/4 16/1/4 15/6/4 17/23/4 24/24/4 23/25/4 18/26/4
f 18/27/3 23/27/3 22/27/3 19/27/3
f 17/27/5 20/27/5 21/27/5 24/27/5
f 15/6/3 16/1/3 14/4/3 13/7/3
f 9/13/5 10/14/5 12/11/5 11/12/5
f 23/25/2 24/24/2 21/21/2 22/20/2
f 32/1/1 28/2/1 26/3/1 30/4/1
f 27/5/2 31/6/2 29/7/2 25/8/2
f 30/4/6 26/9/6 25/10/6 29/7/6
f 31/6/3 32/1/3 30/4/3 29/7/3
f 28/11/4 32/1/4 31/6/4 27/12/4
f 25/13/5 26/14/5 28/11/5 27/12/5
f 40/1/1 36/2/1 34/3/1 38/4/1
f 35/5/2 39/6/2 37/7/2 33/8/2
f 38/4/6 34/9/6 33/10/6 37/7/6
f 39/6/3 40/1/3 38/4/3 37/7/3
f 36/11/4 40/1/4 39/6/4 35/12/4
f 33/13/5 34/14/5 36/11/5 35/12/5
f 43/5/2 50/15/2 51/16/2 41/8/2
f 48/1/1 44/2/1 42/3/1 46/4/1
f 49/17/2 47/6/2 45/7/2 52/18/2
f 50/15/2 49/17/2 52/18/2 51/16/2
f 45/7/3 46/4/3 42/9/3 41/10/3 51/19/3 54/20/3 53/21/3 52/22/3
f 43/12/5 44/11/5 48/1/5 47/6/5 49/23/5 56/24/5 55/25/5 50/26/5
f 50/27/4 55/27/4 54/27/4 51/27/4
f 49/27/6 52/27/6 53/27/6 56/27/6
f 47/6/4 48/1/4 46/4/4 45/7/4
f 41/13/6 42/14/6 44/11/6 43/12/6
f 55/25/2 56/24/2 53/21/2 54/20/2
f 59/5/2 66/15/2 67/16/2 57/8/2
f 64/1/1 60/2/1 58/3/1 62/4/1
f 65/17/2 63/6/2 61/7/2 68/18/2
f 66/15/2 65/17/2 68/18/2 67/16/2
f 61/7/3 62/4/3 58/9/3 57/10/3 67/19/3 70/20/3 69/21/3 68/22/3
f 59/12/5 60/11/5 64/1/5 63/6/5 65/23/5 72/24/5 71/25/5 66/26/5
f 66/27/4 71/27/4 70/27/4 67/27/4
f 65/27/6 68/27/6 69/27/6 72/27/6
f 63/6/4 64/1/4 62/4/4 61/7/4
f 57/13/6 58/14/6 60/11/6 59/12/6
f 71/25/2 72/24/2 69/21/2 70/20/2
f 75/5/2 82/15/2 83/16/2 73/8/2
f 80/1/1 76/2/1 74/3/1 78/4/1
f 81/17/2 79/6/2 77/7/2 84/18/2
f 82/15/2 81/17/2 84/18/2 83/16/2
f 77/7/3 78/4/3 74/9/3 73/10/3 83/19/3 86/20/3 85/21/3 84/22/3
f 75/12/5 76/11/5 80/1/5 79/6/5 81/23/5 88/24/5 87/25/5 82/26/5
f 82/27/4 87/27/4 86/27/4 83/27/4
f 81/27/6 84/27/6 85/27/6 88/27/6
f 79/6/4 80/1/4 78/4/4 77/7/4
f 73/13/6 74/14/6 76/11/6 75/12/6
f 87/25/2 88/24/2 85/21/2 86/20/2
f 91/5/2 98/15/2 99/16/2 89/8/2
f 96/1/1 92/2/1 90/3/1 94/4/1
f 97/17/2 95/6/2 93/7/2 100/18/2
f 98/15/2 97/17/2 100/18/2 99/16/2
f 93/7/6 94/4/6 90/9/6 89/10/6 99/19/6 102/20/6 101/21/6 100/22/6
f 91/12/4 92/11/4 96/1/4 95/6/4 97/23/4 104/24/4 103/25/4 98/26/4
f 98/27/3 103/27/3 102/27/3 99/27/3
f 97/27/5 100/27/5 101/27/5 104/27/5
f 95/6/3 96/1/3 94/4/3 93/7/3
f 89/13/5 90/14/5 92/11/5 91/12/5
f 103/25/2 104/24/2 101/21/2 102/20/2
f 42/27/2 28/27/2 46/27/2 74/27/2 90/27/2 78/27/2 34/27/2 94/27/2 8/27/2 38/27/2 4/27/2 64/27/2 16/27/2 60/27/2 12/27/2 32/27/2
f 37/27/2 3/27/2 63/6/2 65/17/2 66/15/2 15/27/2 59/27/2 17/17/2 18/15/2 11/5/2 31/27/2 41/27/2 27/27/2 51/16/2 52/18/2 73/27/2 45/27/2 83/16/2 84/18/2 89/27/2 77/27/2 99/16/2 100/18/2 33/27/2 93/27/2 7/27/2
l 8 16
l 4 12
l 7 11
l 3 15
