# Blender 4.5.1 LTS
# www.blender.org
mtllib Doubles_Room_Left_2_Way_Right.mtl
o Doubles_Room_Left_2_Way_Right
v 10.588318 -2.417545 0.523682
v 10.588318 2.882455 0.523681
v 10.288269 -2.417545 0.523682
v 10.288269 2.882455 0.523681
v 10.588318 -2.417546 -9.476318
v 10.588318 2.882455 -9.476318
v 10.288269 -2.417546 -9.476318
v 10.288269 2.882455 -9.476318
v 0.438660 -2.417544 10.673687
v 0.438660 2.882456 10.673687
v 0.438660 -2.417544 10.373688
v 0.438660 2.882456 10.373688
v 10.438660 -2.417544 10.673687
v 10.438660 2.882456 10.673687
v 10.438660 -2.417544 10.373688
v 10.438660 2.882456 10.373688
v 6.438660 -2.417544 10.373688
v 4.438660 -2.417544 10.373688
v 4.438660 -2.417544 10.673687
v 6.438660 -2.417544 10.673687
v 6.438660 1.557456 10.673687
v 4.438660 1.557456 10.673687
v 4.438660 1.557456 10.373688
v 6.438660 1.557456 10.373688
v 0.438293 -2.417546 -9.326313
v 0.438293 2.882455 -9.326313
v 0.438293 -2.417546 -9.626312
v 0.438293 2.882455 -9.626312
v 10.438293 -2.417546 -9.326313
v 10.438293 2.882455 -9.326313
v 10.438293 -2.417546 -9.626312
v 10.438293 2.882455 -9.626312
v -9.411682 -2.417545 0.523689
v -9.411682 2.882455 0.523689
v -9.711670 -2.417545 0.523689
v -9.711670 2.882455 0.523689
v -9.411682 -2.417546 -9.476311
v -9.411682 2.882455 -9.476311
v -9.711670 -2.417546 -9.476311
v -9.711670 2.882455 -9.476311
v 10.588318 -2.417544 10.523685
v 10.588318 2.882456 10.523685
v 10.288330 -2.417544 10.523685
v 10.288330 2.882456 10.523685
v 10.588318 -2.417545 0.523686
v 10.588318 2.882455 0.523685
v 10.288330 -2.417545 0.523686
v 10.288330 2.882455 0.523685
v -9.561401 -2.417544 10.673685
v -9.561401 2.882456 10.673685
v -9.561401 -2.417544 10.373684
v -9.561401 2.882456 10.373684
v 0.438599 -2.417544 10.673683
v 0.438599 2.882456 10.673683
v 0.438599 -2.417544 10.373684
v 0.438599 2.882456 10.373684
v -3.561401 -2.417544 10.373684
v -5.561401 -2.417544 10.373684
v -5.561401 -2.417544 10.673685
v -3.561401 -2.417544 10.673685
v -3.561401 1.557456 10.673685
v -5.561401 1.557456 10.673685
v -5.561401 1.557456 10.373684
v -3.561401 1.557456 10.373684
v -9.411377 -2.417544 10.523685
v -9.411377 2.882456 10.523685
v -9.711365 -2.417544 10.523685
v -9.711365 2.882456 10.523685
v -9.411377 -2.417545 0.523686
v -9.411377 2.882455 0.523685
v -9.711365 -2.417545 0.523686
v -9.711365 2.882455 0.523685
v -9.711365 -2.417545 4.523685
v -9.711365 -2.417544 6.523685
v -9.411377 -2.417544 6.523685
v -9.411377 -2.417545 4.523685
v -9.411377 1.557455 4.523685
v -9.411377 1.557456 6.523685
v -9.711365 1.557456 6.523685
v -9.711365 1.557455 4.523685
v -9.561401 -2.417546 -9.326313
v -9.561401 2.882455 -9.326313
v -9.561401 -2.417546 -9.626312
v -9.561401 2.882455 -9.626312
v 0.438599 -2.417546 -9.326313
v 0.438599 2.882455 -9.326313
v 0.438599 -2.417546 -9.626312
v 0.438599 2.882455 -9.626312
v -5.561401 -2.417546 -9.326313
v -3.561401 -2.417546 -9.326313
v 0.438660 -2.417546 -9.326313
v 0.438660 2.882455 -9.326313
v 0.438660 -2.417546 -9.626312
v 0.438660 2.882455 -9.626312
v 10.438660 -2.417546 -9.326313
v 10.438660 2.882455 -9.326313
v 10.438660 -2.417546 -9.626312
v 10.438660 2.882455 -9.626312
v 6.438660 -2.417546 -9.626312
v 4.438660 -2.417546 -9.626312
v 4.438660 -2.417546 -9.326313
v 6.438660 -2.417546 -9.326313
v 6.438660 1.557454 -9.326313
v 4.438660 1.557454 -9.326313
v 4.438660 1.557454 -9.626312
v 6.438660 1.557454 -9.626312
v -9.561646 -2.417546 -9.326313
v -9.561646 2.882455 -9.326313
v -9.561646 -2.417546 -9.626312
v -9.561646 2.882455 -9.626312
v 0.438354 -2.417546 -9.326313
v 0.438354 2.882455 -9.326313
v 0.438354 -2.417546 -9.626312
v 0.438354 2.882455 -9.626312
vn -0.0000 1.0000 -0.0000
vn -0.0000 -1.0000 -0.0000
vn 1.0000 -0.0000 -0.0000
vn -0.0000 -0.0000 -1.0000
vn -1.0000 -0.0000 -0.0000
vn -0.0000 -0.0000 1.0000
vt 0.625000 0.500000
vt 0.875000 0.500000
vt 0.875000 0.750000
vt 0.625000 0.750000
vt 0.125000 0.500000
vt 0.375000 0.500000
vt 0.375000 0.750000
vt 0.125000 0.750000
vt 0.625000 1.000000
vt 0.375000 1.000000
vt 0.625000 0.250000
vt 0.375000 0.250000
vt 0.375000 0.000000
vt 0.625000 0.000000
vt 0.225000 0.500000
vt 0.225000 0.750000
vt 0.275000 0.500000
vt 0.275000 0.750000
vt 0.375000 0.900000
vt 0.562500 0.900000
vt 0.562500 0.850000
vt 0.375000 0.850000
vt 0.375000 0.400000
vt 0.562500 0.400000
vt 0.562500 0.350000
vt 0.375000 0.350000
vt 0.000000 0.000000
s 1
f 8/1/1 4/2/1 2/3/1 6/4/1
f 3/5/2 7/6/2 5/7/2 1/8/2
f 6/4/3 2/9/3 1/10/3 5/7/3
f 7/6/4 8/1/4 6/4/4 5/7/4
f 4/11/5 8/1/5 7/6/5 3/12/5
f 1/13/6 2/14/6 4/11/6 3/12/6
f 11/5/2 18/15/2 19/16/2 9/8/2
f 16/1/1 12/2/1 10/3/1 14/4/1
f 17/17/2 15/6/2 13/7/2 20/18/2
f 18/15/2 17/17/2 20/18/2 19/16/2
f 13/7/6 14/4/6 10/9/6 9/10/6 19/19/6 22/20/6 21/21/6 20/22/6
f 11/12/4 12/11/4 16/1/4 15/6/4 17/23/4 24/24/4 23/25/4 18/26/4
f 18/27/3 23/27/3 22/27/3 19/27/3
f 17/27/5 20/27/5 21/27/5 24/27/5
f 15/6/3 16/1/3 14/4/3 13/7/3
f 9/13/5 10/14/5 12/11/5 11/12/5
f 23/25/2 24/24/2 21/21/2 22/20/2
f 40/1/1 36/2/1 34/3/1 38/4/1
f 35/5/2 39/6/2 37/7/2 33/8/2
f 38/4/3 34/9/3 33/10/3 37/7/3
f 39/6/4 40/1/4 38/4/4 37/7/4
f 36/11/5 40/1/5 39/6/5 35/12/5
f 33/13/6 34/14/6 36/11/6 35/12/6
f 48/1/1 44/2/1 42/3/1 46/4/1
f 43/5/2 47/6/2 45/7/2 41/8/2
f 46/4/3 42/9/3 41/10/3 45/7/3
f 47/6/4 48/1/4 46/4/4 45/7/4
f 44/11/5 48/1/5 47/6/5 43/12/5
f 41/13/6 42/14/6 44/11/6 43/12/6
f 51/5/2 58/15/2 59/16/2 49/8/2
f 56/1/1 52/2/1 50/3/1 54/4/1
f 57/17/2 55/6/2 53/7/2 60/18/2
f 58/15/2 57/17/2 60/18/2 59/16/2
f 53/7/6 54/4/6 50/9/6 49/10/6 59/19/6 62/20/6 61/21/6 60/22/6
f 51/12/4 52/11/4 56/1/4 55/6/4 57/23/4 64/24/4 63/25/4 58/26/4
f 58/27/3 63/27/3 62/27/3 59/27/3
f 57/27/5 60/27/5 61/27/5 64/27/5
f 55/6/3 56/1/3 54/4/3 53/7/3
f 49/13/5 50/14/5 52/11/5 51/12/5
f 63/25/2 64/24/2 61/21/2 62/20/2
f 67/5/2 74/15/2 75/16/2 65/8/2
f 72/1/1 68/2/1 66/3/1 70/4/1
f 73/17/2 71/6/2 69/7/2 76/18/2
f 74/15/2 73/17/2 76/18/2 75/16/2
f 69/7/3 70/4/3 66/9/3 65/10/3 75/19/3 78/20/3 77/21/3 76/22/3
f 67/12/5 68/11/5 72/1/5 71/6/5 73/23/5 80/24/5 79/25/5 74/26/5
f 74/27/4 79/27/4 78/27/4 75/27/4
f 73/27/6 76/27/6 77/27/6 80/27/6
f 71/6/4 72/1/4 70/4/4 69/7/4
f 65/13/6 66/14/6 68/11/6 67/12/6
f 79/25/2 80/24/2 77/21/2 78/20/2
f 44/27/1 16/27/1 48/27/1 4/27/1 30/27/1 8/27/1 86/27/1 26/27/1 38/27/1 82/27/1 70/27/1 34/27/1 52/27/1 66/27/1 56/27/1 12/27/1
f 7/27/2 29/27/2 3/27/2 47/27/2 15/27/2 43/27/2 17/17/2 18/15/2 11/5/2 55/6/2 57/17/2 58/15/2 65/27/2 51/27/2 75/16/2 76/18/2 33/27/2 69/27/2 81/27/2 37/27/2 89/16/2 90/18/2 25/27/2 85/27/2
f 93/5/2 100/15/2 101/16/2 91/8/2
f 98/1/1 94/2/1 92/3/1 96/4/1
f 99/17/2 97/6/2 95/7/2 102/18/2
f 100/15/2 99/17/2 102/18/2 101/16/2
f 95/7/6 96/4/6 92/9/6 91/10/6 101/19/6 104/20/6 103/21/6 102/22/6
f 93/12/4 94/11/4 98/1/4 97/6/4 99/23/4 106/24/4 105/25/4 100/26/4
f 100/27/3 105/27/3 104/27/3 101/27/3
f 99/27/5 102/27/5 103/27/5 106/27/5
f 97/6/3 98/1/3 96/4/3 95/7/3
f 91/13/5 92/14/5 94/11/5 93/12/5
f 105/25/2 106/24/2 103/21/2 104/20/2
f 114/1/1 110/2/1 108/3/1 112/4/1
f 109/5/2 113/6/2 111/7/2 107/8/2
f 112/4/6 108/9/6 107/10/6 111/7/6
f 113/6/3 114/1/3 112/4/3 111/7/3
f 110/11/4 114/1/4 113/6/4 109/12/4
f 107/13/5 108/14/5 110/11/5 109/12/5
l 25 27
l 26 28
l 29 31
l 30 32
l 81 83
l 82 84
l 85 87
l 86 88
l 81 89
l 85 90
l 82 86
l 81 82
l 85 86
l 4 12
l 8 16
l 7 11
l 3 15
