# Blender 4.5.1 LTS
# www.blender.org
mtllib Doubles_Room_1_Way_Left.mtl
o Doubles_Room_1_Way_Left
v 10.604279 -2.469320 -0.909092
v 10.604279 2.830681 -0.909092
v 10.304291 -2.469320 -0.909092
v 10.304291 2.830681 -0.909092
v 10.604279 -2.469320 -10.909092
v 10.604279 2.830680 -10.909092
v 10.304291 -2.469320 -10.909092
v 10.304291 2.830680 -10.909092
v 0.454651 -2.469319 9.240910
v 0.454651 2.830681 9.240910
v 0.454651 -2.469319 8.940910
v 0.454651 2.830681 8.940910
v 10.454651 -2.469319 9.240910
v 10.454651 2.830681 9.240910
v 10.454651 -2.469319 8.940910
v 10.454651 2.830681 8.940910
v 6.454651 -2.469319 8.940910
v 4.454651 -2.469319 8.940910
v 4.454651 -2.469319 9.240910
v 6.454651 -2.469319 9.240910
v 6.454651 1.505681 9.240910
v 4.454651 1.505681 9.240910
v 4.454651 1.505681 8.940910
v 6.454651 1.505681 8.940910
v 0.454346 -2.469320 -10.759087
v 0.454346 2.830680 -10.759087
v 0.454346 -2.469321 -11.059086
v 0.454346 2.830680 -11.059086
v 10.454346 -2.469320 -10.759087
v 10.454346 2.830680 -10.759087
v 10.454346 -2.469321 -11.059086
v 10.454346 2.830680 -11.059086
v -9.395660 -2.469320 -0.909084
v -9.395660 2.830681 -0.909085
v -9.695679 -2.469320 -0.909084
v -9.695679 2.830681 -0.909085
v -9.395660 -2.469320 -10.909084
v -9.395660 2.830680 -10.909084
v -9.695679 -2.469320 -10.909084
v -9.695679 2.830680 -10.909084
v -9.395660 -2.469319 9.090912
v -9.395660 2.830681 9.090912
v -9.695679 -2.469319 9.090912
v -9.695679 2.830681 9.090912
v -9.395660 -2.469320 -0.909088
v -9.395660 2.830681 -0.909088
v -9.695679 -2.469320 -0.909088
v -9.695679 2.830681 -0.909088
v -9.545349 -2.469319 9.240911
v -9.545349 2.830681 9.240911
v -9.545349 -2.469319 8.940910
v -9.545349 2.830681 8.940910
v 0.454651 -2.469319 9.240910
v 0.454651 2.830681 9.240910
v 0.454651 -2.469319 8.940910
v 0.454651 2.830681 8.940910
v -3.545349 -2.469319 8.940910
v -5.545349 -2.469319 8.940910
v -5.545349 -2.469319 9.240911
v -3.545349 -2.469319 9.240911
v -3.545349 1.505681 9.240911
v -5.545349 1.505681 9.240911
v -5.545349 1.505681 8.940910
v -3.545349 1.505681 8.940910
v 10.604370 -2.469319 9.090910
v 10.604370 2.830681 9.090910
v 10.304352 -2.469319 9.090910
v 10.304352 2.830681 9.090910
v 10.604370 -2.469320 -0.909088
v 10.604370 2.830681 -0.909088
v 10.304352 -2.469320 -0.909088
v 10.304352 2.830681 -0.909088
v -9.545349 -2.469320 -10.759087
v -9.545349 2.830680 -10.759087
v -9.545349 -2.469321 -11.059086
v -9.545349 2.830680 -11.059086
v 0.454651 -2.469320 -10.759087
v 0.454651 2.830680 -10.759087
v 0.454651 -2.469321 -11.059086
v 0.454651 2.830680 -11.059086
v -3.545349 -2.469321 -11.059086
v -5.545349 -2.469321 -11.059086
v -5.545349 -2.469320 -10.759087
v -3.545349 -2.469320 -10.759087
v -3.545349 1.505679 -10.759087
v -5.545349 1.505679 -10.759087
v -5.545349 1.505679 -11.059086
v -3.545349 1.505679 -11.059086
vn -0.0000 1.0000 -0.0000
vn -0.0000 -1.0000 -0.0000
vn 1.0000 -0.0000 -0.0000
vn -0.0000 -0.0000 -1.0000
vn -1.0000 -0.0000 -0.0000
vn -0.0000 -0.0000 1.0000
vt 0.625000 0.500000
vt 0.875000 0.500000
vt 0.875000 0.750000
vt 0.625000 0.750000
vt 0.125000 0.500000
vt 0.375000 0.500000
vt 0.375000 0.750000
vt 0.125000 0.750000
vt 0.625000 1.000000
vt 0.375000 1.000000
vt 0.625000 0.250000
vt 0.375000 0.250000
vt 0.375000 0.000000
vt 0.625000 0.000000
vt 0.225000 0.500000
vt 0.225000 0.750000
vt 0.275000 0.500000
vt 0.275000 0.750000
vt 0.375000 0.900000
vt 0.562500 0.900000
vt 0.562500 0.850000
vt 0.375000 0.850000
vt 0.375000 0.400000
vt 0.562500 0.400000
vt 0.562500 0.350000
vt 0.375000 0.350000
vt 0.000000 0.000000
s 1
f 8/1/1 4/2/1 2/3/1 6/4/1
f 3/5/2 7/6/2 5/7/2 1/8/2
f 6/4/3 2/9/3 1/10/3 5/7/3
f 7/6/4 8/1/4 6/4/4 5/7/4
f 4/11/5 8/1/5 7/6/5 3/12/5
f 1/13/6 2/14/6 4/11/6 3/12/6
f 11/5/2 18/15/2 19/16/2 9/8/2
f 16/1/1 12/2/1 10/3/1 14/4/1
f 17/17/2 15/6/2 13/7/2 20/18/2
f 18/15/2 17/17/2 20/18/2 19/16/2
f 13/7/6 14/4/6 10/9/6 9/10/6 19/19/6 22/20/6 21/21/6 20/22/6
f 11/12/4 12/11/4 16/1/4 15/6/4 17/23/4 24/24/4 23/25/4 18/26/4
f 18/27/3 23/27/3 22/27/3 19/27/3
f 17/27/5 20/27/5 21/27/5 24/27/5
f 15/6/3 16/1/3 14/4/3 13/7/3
f 9/13/5 10/14/5 12/11/5 11/12/5
f 23/25/2 24/24/2 21/21/2 22/20/2
f 32/1/1 28/2/1 26/3/1 30/4/1
f 27/5/2 31/6/2 29/7/2 25/8/2
f 30/4/6 26/9/6 25/10/6 29/7/6
f 31/6/3 32/1/3 30/4/3 29/7/3
f 28/11/4 32/1/4 31/6/4 27/12/4
f 25/13/5 26/14/5 28/11/5 27/12/5
f 40/1/1 36/2/1 34/3/1 38/4/1
f 35/5/2 39/6/2 37/7/2 33/8/2
f 38/4/3 34/9/3 33/10/3 37/7/3
f 39/6/4 40/1/4 38/4/4 37/7/4
f 36/11/5 40/1/5 39/6/5 35/12/5
f 33/13/6 34/14/6 36/11/6 35/12/6
f 48/1/1 44/2/1 42/3/1 46/4/1
f 43/5/2 47/6/2 45/7/2 41/8/2
f 46/4/3 42/9/3 41/10/3 45/7/3
f 47/6/4 48/1/4 46/4/4 45/7/4
f 44/11/5 48/1/5 47/6/5 43/12/5
f 41/13/6 42/14/6 44/11/6 43/12/6
f 51/5/2 58/15/2 59/16/2 49/8/2
f 56/1/1 52/2/1 50/3/1 54/4/1
f 57/17/2 55/6/2 53/7/2 60/18/2
f 58/15/2 57/17/2 60/18/2 59/16/2
f 53/7/6 54/4/6 50/9/6 49/10/6 59/19/6 62/20/6 61/21/6 60/22/6
f 51/12/4 52/11/4 56/1/4 55/6/4 57/23/4 64/24/4 63/25/4 58/26/4
f 58/27/3 63/27/3 62/27/3 59/27/3
f 57/27/5 60/27/5 61/27/5 64/27/5
f 55/6/3 56/1/3 54/4/3 53/7/3
f 49/13/5 50/14/5 52/11/5 51/12/5
f 63/25/2 64/24/2 61/21/2 62/20/2
f 72/1/1 68/2/1 66/3/1 70/4/1
f 67/5/2 71/6/2 69/7/2 65/8/2
f 70/4/3 66/9/3 65/10/3 69/7/3
f 71/6/4 72/1/4 70/4/4 69/7/4
f 68/11/5 72/1/5 71/6/5 67/12/5
f 65/13/6 66/14/6 68/11/6 67/12/6
f 75/5/2 82/15/2 83/16/2 73/8/2
f 80/1/1 76/2/1 74/3/1 78/4/1
f 81/17/2 79/6/2 77/7/2 84/18/2
f 82/15/2 81/17/2 84/18/2 83/16/2
f 77/7/6 78/4/6 74/9/6 73/10/6 83/19/6 86/20/6 85/21/6 84/22/6
f 75/12/4 76/11/4 80/1/4 79/6/4 81/23/4 88/24/4 87/25/4 82/26/4
f 82/27/3 87/27/3 86/27/3 83/27/3
f 81/27/5 84/27/5 85/27/5 88/27/5
f 79/6/3 80/1/3 78/4/3 77/7/3
f 73/13/5 74/14/5 76/11/5 75/12/5
f 87/25/2 88/24/2 85/21/2 86/20/2
f 68/27/1 16/27/1 72/27/1 4/27/1 30/27/1 8/27/1 78/27/1 26/27/1 38/27/1 74/27/1 46/27/1 34/27/1 52/27/1 42/27/1 56/27/1 12/27/1
f 7/27/2 29/27/2 3/27/2 71/27/2 15/27/2 67/27/2 17/17/2 18/15/2 11/5/2 55/6/2 57/17/2 58/15/2 41/27/2 51/27/2 33/27/2 45/27/2 73/27/2 37/27/2 83/16/2 84/18/2 25/27/2 77/27/2
l 8 16
l 4 12
l 7 11
l 3 15
