# Blender 4.5.1 LTS
# www.blender.org
mtllib Doubles_Room_Left_4_Way_Right.mtl
o Doubles_Room_Left_4_Way_Right
v -9.465332 -2.364616 0.459229
v -9.465332 2.935384 0.459228
v -9.765381 -2.364616 0.459229
v -9.765381 2.935384 0.459228
v -9.465332 -2.364617 -9.540771
v -9.465332 2.935383 -9.540771
v -9.765381 -2.364617 -9.540771
v -9.765381 2.935383 -9.540771
v -9.765381 -2.364617 -5.540771
v -9.765381 -2.364616 -3.540771
v -9.465332 -2.364616 -3.540771
v -9.465332 -2.364617 -5.540771
v -9.465332 1.610383 -5.540771
v -9.465332 1.610384 -3.540772
v -9.765381 1.610384 -3.540772
v -9.765381 1.610383 -5.540771
v 0.384766 -2.364615 10.609234
v 0.384766 2.935385 10.609234
v 0.384766 -2.364615 10.309235
v 0.384766 2.935385 10.309235
v 10.384766 -2.364615 10.609232
v 10.384766 2.935385 10.609232
v 10.384766 -2.364615 10.309233
v 10.384766 2.935385 10.309233
v 6.384766 -2.364615 10.309233
v 4.384766 -2.364615 10.309233
v 4.384766 -2.364615 10.609232
v 6.384766 -2.364615 10.609232
v 6.384766 1.610385 10.609232
v 4.384766 1.610385 10.609232
v 4.384766 1.610385 10.309233
v 6.384766 1.610385 10.309233
v 0.384399 -2.364617 -9.390766
v 0.384399 2.935383 -9.390766
v 0.384399 -2.364617 -9.690769
v 0.384399 2.935383 -9.690769
v 10.384399 -2.364617 -9.390766
v 10.384399 2.935383 -9.390766
v 10.384399 -2.364617 -9.690765
v 10.384399 2.935383 -9.690765
v 10.534424 -2.364616 0.459233
v 10.534424 2.935384 0.459232
v 10.234436 -2.364616 0.459233
v 10.234436 2.935384 0.459232
v 10.534424 -2.364617 -9.540768
v 10.534424 2.935383 -9.540768
v 10.234436 -2.364617 -9.540768
v 10.234436 2.935383 -9.540768
v -9.615234 -2.364615 10.609234
v -9.615234 2.935385 10.609234
v -9.615234 -2.364615 10.309235
v -9.615234 2.935385 10.309235
v 0.384766 -2.364615 10.609234
v 0.384766 2.935385 10.609234
v 0.384766 -2.364615 10.309235
v 0.384766 2.935385 10.309235
v -3.615234 -2.364615 10.309235
v -5.615234 -2.364615 10.309235
v -5.615234 -2.364615 10.609234
v -3.615234 -2.364615 10.609234
v -3.615234 1.610385 10.609234
v -5.615234 1.610385 10.609234
v -5.615234 1.610385 10.309235
v -3.615234 1.610385 10.309235
v 10.534729 -2.364615 10.459232
v 10.534729 2.935385 10.459232
v 10.234741 -2.364615 10.459232
v 10.234741 2.935385 10.459232
v 10.534729 -2.364616 0.459233
v 10.534729 2.935384 0.459232
v 10.234741 -2.364616 0.459233
v 10.234741 2.935384 0.459232
v 10.234741 -2.364616 4.459232
v 10.234741 -2.364616 6.459232
v 10.534729 -2.364616 6.459232
v 10.534729 -2.364616 4.459232
v 10.534729 1.610384 4.459232
v 10.534729 1.610384 6.459232
v 10.234741 1.610384 6.459232
v 10.234741 1.610384 4.459232
v -9.465210 -2.364615 10.459232
v -9.465210 2.935385 10.459232
v -9.765198 -2.364615 10.459232
v -9.765198 2.935385 10.459232
v -9.465210 -2.364616 0.459233
v -9.465210 2.935384 0.459232
v -9.765198 -2.364616 0.459233
v -9.765198 2.935384 0.459232
v -9.765198 -2.364616 4.459232
v -9.765198 -2.364616 6.459232
v -9.465210 -2.364616 6.459232
v -9.465210 -2.364616 4.459232
v -9.465210 1.610384 4.459232
v -9.465210 1.610384 6.459232
v -9.765198 1.610384 6.459232
v -9.765198 1.610384 4.459232
v -9.615234 -2.364617 -9.390766
v -9.615234 2.935383 -9.390766
v -9.615234 -2.364617 -9.690765
v -9.615234 2.935383 -9.690765
v 0.384766 -2.364617 -9.390766
v 0.384766 2.935383 -9.390766
v 0.384766 -2.364617 -9.690765
v 0.384766 2.935383 -9.690765
v -5.615234 -2.364617 -9.390766
v -3.615234 -2.364617 -9.390766
v 0.384766 -2.364617 -9.390766
v 0.384766 2.935383 -9.390766
v 0.384766 -2.364617 -9.690769
v 0.384766 2.935383 -9.690769
v 10.384766 -2.364617 -9.390766
v 10.384766 2.935383 -9.390766
v 10.384766 -2.364617 -9.690765
v 10.384766 2.935383 -9.690765
v 6.384766 -2.364617 -9.690765
v 4.384766 -2.364617 -9.690765
v 4.384766 -2.364617 -9.390766
v 6.384766 -2.364617 -9.390766
v 6.384766 1.610383 -9.390766
v 4.384766 1.610383 -9.390766
v 4.384766 1.610383 -9.690765
v 6.384766 1.610383 -9.690765
v -9.615540 -2.364617 -9.390766
v -9.615540 2.935383 -9.390766
v -9.615540 -2.364617 -9.690765
v -9.615540 2.935383 -9.690765
v 0.384460 -2.364617 -9.390766
v 0.384460 2.935383 -9.390766
v 0.384460 -2.364617 -9.690765
v 0.384460 2.935383 -9.690765
vn -0.0000 -1.0000 -0.0000
vn -0.0000 1.0000 -0.0000
vn 1.0000 -0.0000 -0.0000
vn -1.0000 -0.0000 -0.0000
vn -0.0000 -0.0000 -1.0000
vn -0.0000 -0.0000 1.0000
vt 0.125000 0.500000
vt 0.225000 0.500000
vt 0.225000 0.750000
vt 0.125000 0.750000
vt 0.625000 0.500000
vt 0.875000 0.500000
vt 0.875000 0.750000
vt 0.625000 0.750000
vt 0.275000 0.500000
vt 0.375000 0.500000
vt 0.375000 0.750000
vt 0.275000 0.750000
vt 0.625000 1.000000
vt 0.375000 1.000000
vt 0.375000 0.900000
vt 0.562500 0.900000
vt 0.562500 0.850000
vt 0.375000 0.850000
vt 0.375000 0.250000
vt 0.625000 0.250000
vt 0.375000 0.400000
vt 0.562500 0.400000
vt 0.562500 0.350000
vt 0.375000 0.350000
vt 0.000000 0.000000
vt 0.375000 0.000000
vt 0.625000 0.000000
s 1
f 3/1/1 10/2/1 11/3/1 1/4/1
f 8/5/2 4/6/2 2/7/2 6/8/2
f 9/9/1 7/10/1 5/11/1 12/12/1
f 10/2/1 9/9/1 12/12/1 11/3/1
f 5/11/3 6/8/3 2/13/3 1/14/3 11/15/3 14/16/3 13/17/3 12/18/3
f 3/19/4 4/20/4 8/5/4 7/10/4 9/21/4 16/22/4 15/23/4 10/24/4
f 10/25/5 15/25/5 14/25/5 11/25/5
f 9/25/6 12/25/6 13/25/6 16/25/6
f 7/10/5 8/5/5 6/8/5 5/11/5
f 1/26/6 2/27/6 4/20/6 3/19/6
f 15/23/1 16/22/1 13/17/1 14/16/1
f 19/1/1 26/2/1 27/3/1 17/4/1
f 24/5/2 20/6/2 18/7/2 22/8/2
f 25/9/1 23/10/1 21/11/1 28/12/1
f 26/2/1 25/9/1 28/12/1 27/3/1
f 21/11/6 22/8/6 18/13/6 17/14/6 27/15/6 30/16/6 29/17/6 28/18/6
f 19/19/5 20/20/5 24/5/5 23/10/5 25/21/5 32/22/5 31/23/5 26/24/5
f 26/25/3 31/25/3 30/25/3 27/25/3
f 25/25/4 28/25/4 29/25/4 32/25/4
f 23/10/3 24/5/3 22/8/3 21/11/3
f 17/26/4 18/27/4 20/20/4 19/19/4
f 31/23/1 32/22/1 29/17/1 30/16/1
f 48/5/2 44/6/2 42/7/2 46/8/2
f 43/1/1 47/10/1 45/11/1 41/4/1
f 46/8/3 42/13/3 41/14/3 45/11/3
f 47/10/5 48/5/5 46/8/5 45/11/5
f 44/20/4 48/5/4 47/10/4 43/19/4
f 41/26/6 42/27/6 44/20/6 43/19/6
f 51/1/1 58/2/1 59/3/1 49/4/1
f 56/5/2 52/6/2 50/7/2 54/8/2
f 57/9/1 55/10/1 53/11/1 60/12/1
f 58/2/1 57/9/1 60/12/1 59/3/1
f 53/11/6 54/8/6 50/13/6 49/14/6 59/15/6 62/16/6 61/17/6 60/18/6
f 51/19/5 52/20/5 56/5/5 55/10/5 57/21/5 64/22/5 63/23/5 58/24/5
f 58/25/3 63/25/3 62/25/3 59/25/3
f 57/25/4 60/25/4 61/25/4 64/25/4
f 55/10/3 56/5/3 54/8/3 53/11/3
f 49/26/4 50/27/4 52/20/4 51/19/4
f 63/23/1 64/22/1 61/17/1 62/16/1
f 67/1/1 74/2/1 75/3/1 65/4/1
f 72/5/2 68/6/2 66/7/2 70/8/2
f 73/9/1 71/10/1 69/11/1 76/12/1
f 74/2/1 73/9/1 76/12/1 75/3/1
f 69/11/3 70/8/3 66/13/3 65/14/3 75/15/3 78/16/3 77/17/3 76/18/3
f 67/19/4 68/20/4 72/5/4 71/10/4 73/21/4 80/22/4 79/23/4 74/24/4
f 74/25/5 79/25/5 78/25/5 75/25/5
f 73/25/6 76/25/6 77/25/6 80/25/6
f 71/10/5 72/5/5 70/8/5 69/11/5
f 65/26/6 66/27/6 68/20/6 67/19/6
f 79/23/1 80/22/1 77/17/1 78/16/1
f 83/1/1 90/2/1 91/3/1 81/4/1
f 88/5/2 84/6/2 82/7/2 86/8/2
f 89/9/1 87/10/1 85/11/1 92/12/1
f 90/2/1 89/9/1 92/12/1 91/3/1
f 85/11/3 86/8/3 82/13/3 81/14/3 91/15/3 94/16/3 93/17/3 92/18/3
f 83/19/4 84/20/4 88/5/4 87/10/4 89/21/4 96/22/4 95/23/4 90/24/4
f 90/25/5 95/25/5 94/25/5 91/25/5
f 89/25/6 92/25/6 93/25/6 96/25/6
f 87/10/5 88/5/5 86/8/5 85/11/5
f 81/26/6 82/27/6 84/20/6 83/19/6
f 95/23/1 96/22/1 93/17/1 94/16/1
f 68/25/2 24/25/2 44/25/2 72/25/2 38/25/2 48/25/2 102/25/2 34/25/2 6/25/2 98/25/2 86/25/2 2/25/2 52/25/2 82/25/2 56/25/2 20/25/2
f 47/25/1 37/25/1 43/25/1 71/10/1 73/9/1 74/2/1 23/25/1 67/25/1 25/9/1 26/2/1 19/1/1 55/10/1 57/9/1 58/2/1 81/25/1 51/25/1 91/3/1 92/12/1 1/25/1 85/25/1 11/3/1 12/12/1 97/25/1 5/25/1 105/3/1 106/12/1 33/25/1 101/25/1
f 109/1/1 116/2/1 117/3/1 107/4/1
f 114/5/2 110/6/2 108/7/2 112/8/2
f 115/9/1 113/10/1 111/11/1 118/12/1
f 116/2/1 115/9/1 118/12/1 117/3/1
f 111/11/6 112/8/6 108/13/6 107/14/6 117/15/6 120/16/6 119/17/6 118/18/6
f 109/19/5 110/20/5 114/5/5 113/10/5 115/21/5 122/22/5 121/23/5 116/24/5
f 116/25/3 121/25/3 120/25/3 117/25/3
f 115/25/4 118/25/4 119/25/4 122/25/4
f 113/10/3 114/5/3 112/8/3 111/11/3
f 107/26/4 108/27/4 110/20/4 109/19/4
f 121/23/1 122/22/1 119/17/1 120/16/1
f 130/5/2 126/6/2 124/7/2 128/8/2
f 125/1/1 129/10/1 127/11/1 123/4/1
f 128/8/6 124/13/6 123/14/6 127/11/6
f 129/10/3 130/5/3 128/8/3 127/11/3
f 126/20/5 130/5/5 129/10/5 125/19/5
f 123/26/4 124/27/4 126/20/4 125/19/4
l 33 35
l 34 36
l 37 39
l 38 40
l 97 99
l 98 100
l 101 103
l 102 104
l 97 105
l 101 106
l 98 102
l 97 98
l 101 102
l 6 24
l 2 20
l 1 19
l 5 23
