# Blender 4.5.1 LTS
# www.blender.org
mtllib Doubles_Room_Right_4_Way_Left.mtl
o Doubles_Room_Right_4_Way_Left
v -10.240906 -2.360157 0.307823
v -10.240906 2.939843 0.307823
v -10.540955 -2.360157 0.307823
v -10.540955 2.939843 0.307823
v -10.240906 -2.360158 -9.692177
v -10.240906 2.939842 -9.692177
v -10.540955 -2.360158 -9.692177
v -10.540955 2.939842 -9.692177
v -0.390564 -2.360156 10.457825
v -0.390564 2.939844 10.457825
v -0.390564 -2.360156 10.157822
v -0.390564 2.939844 10.157822
v 9.609436 -2.360156 10.457821
v 9.609436 2.939844 10.457821
v 9.609436 -2.360156 10.157822
v 9.609436 2.939844 10.157822
v 5.609436 -2.360156 10.157822
v 3.609436 -2.360156 10.157822
v 3.609436 -2.360156 10.457821
v 5.609436 -2.360156 10.457821
v 5.609436 1.614844 10.457821
v 3.609436 1.614844 10.457821
v 3.609436 1.614844 10.157822
v 5.609436 1.614844 10.157822
v -10.390930 -2.360158 -9.542175
v -10.390930 2.939842 -9.542175
v -10.390930 -2.360158 -9.842171
v -10.390930 2.939842 -9.842171
v -0.390930 -2.360158 -9.542175
v -0.390930 2.939842 -9.542175
v -0.390930 -2.360158 -9.842171
v -0.390930 2.939842 -9.842171
v -10.390625 -2.360156 10.457825
v -10.390625 2.939844 10.457825
v -10.390625 -2.360156 10.157822
v -10.390625 2.939844 10.157822
v -0.390625 -2.360156 10.457825
v -0.390625 2.939844 10.457825
v -0.390625 -2.360156 10.157822
v -0.390625 2.939844 10.157822
v -4.390625 -2.360156 10.157822
v -6.390625 -2.360156 10.157822
v -6.390625 -2.360156 10.457825
v -4.390625 -2.360156 10.457825
v -4.390625 1.614844 10.457825
v -6.390625 1.614844 10.457825
v -6.390625 1.614844 10.157822
v -4.390625 1.614844 10.157822
v 9.759399 -2.360156 10.307823
v 9.759399 2.939844 10.307823
v 9.459412 -2.360156 10.307823
v 9.459412 2.939844 10.307823
v 9.759399 -2.360157 0.307823
v 9.759399 2.939843 0.307823
v 9.459412 -2.360157 0.307823
v 9.459412 2.939843 0.307823
v 9.459412 -2.360157 4.307823
v 9.459412 -2.360157 6.307823
v 9.759399 -2.360157 6.307823
v 9.759399 -2.360157 4.307823
v 9.759399 1.614843 4.307823
v 9.759399 1.614843 6.307823
v 9.459412 1.614843 6.307823
v 9.459412 1.614843 4.307823
v -10.240540 -2.360156 10.307823
v -10.240540 2.939844 10.307823
v -10.540588 -2.360156 10.307823
v -10.540588 2.939844 10.307823
v -10.240540 -2.360157 0.307823
v -10.240540 2.939843 0.307823
v -10.540588 -2.360157 0.307823
v -10.540588 2.939843 0.307823
v -10.540588 -2.360157 4.307823
v -10.540588 -2.360157 6.307823
v -10.240540 -2.360157 6.307823
v -10.240540 -2.360157 4.307823
v -10.240540 1.614843 4.307823
v -10.240540 1.614843 6.307823
v -10.540588 1.614843 6.307823
v -10.540588 1.614843 4.307823
v 9.759399 -2.360157 0.307823
v 9.759399 2.939843 0.307823
v 9.459412 -2.360157 0.307823
v 9.459412 2.939843 0.307823
v 9.759399 -2.360158 -9.692177
v 9.759399 2.939842 -9.692177
v 9.459412 -2.360158 -9.692177
v 9.459412 2.939842 -9.692177
v 9.459412 -2.360157 -5.692177
v 9.459412 -2.360157 -3.692177
v 9.759399 -2.360157 -3.692177
v 9.759399 -2.360157 -5.692177
v 9.759399 1.614842 -5.692177
v 9.759399 1.614843 -3.692177
v 9.459412 1.614843 -3.692177
v 9.459412 1.614842 -5.692177
v -0.390564 -2.360158 -9.542175
v -0.390564 2.939842 -9.542175
v 9.609436 -2.360158 -9.542175
v 9.609436 2.939842 -9.542175
v 9.609436 -2.360158 -9.842171
v 9.609436 2.939842 -9.842171
v 3.609436 -2.360158 -9.542175
v 5.609436 -2.360158 -9.542175
v -10.390625 -2.360158 -9.542175
v -10.390625 2.939842 -9.542175
v -10.390625 -2.360158 -9.842171
v -10.390625 2.939842 -9.842171
v -0.390625 -2.360158 -9.542175
v -0.390625 2.939842 -9.542175
v -0.390625 -2.360158 -9.842171
v -0.390625 2.939842 -9.842171
v -4.390625 -2.360158 -9.842171
v -6.390625 -2.360158 -9.842171
v -6.390625 -2.360158 -9.542175
v -4.390625 -2.360158 -9.542175
v -4.390625 1.614842 -9.542175
v -6.390625 1.614842 -9.542175
v -6.390625 1.614842 -9.842171
v -4.390625 1.614842 -9.842171
v -0.390930 -2.360158 -9.542175
v -0.390930 2.939842 -9.542175
v -0.390930 -2.360158 -9.842171
v -0.390930 2.939842 -9.842171
v 9.609070 -2.360158 -9.542175
v 9.609070 2.939842 -9.542175
v 9.609070 -2.360158 -9.842171
v 9.609070 2.939842 -9.842171
vn -0.0000 1.0000 -0.0000
vn -0.0000 -1.0000 -0.0000
vn 1.0000 -0.0000 -0.0000
vn -0.0000 -0.0000 -1.0000
vn -1.0000 -0.0000 -0.0000
vn -0.0000 -0.0000 1.0000
vt 0.625000 0.500000
vt 0.875000 0.500000
vt 0.875000 0.750000
vt 0.625000 0.750000
vt 0.125000 0.500000
vt 0.375000 0.500000
vt 0.375000 0.750000
vt 0.125000 0.750000
vt 0.625000 1.000000
vt 0.375000 1.000000
vt 0.625000 0.250000
vt 0.375000 0.250000
vt 0.375000 0.000000
vt 0.625000 0.000000
vt 0.225000 0.500000
vt 0.225000 0.750000
vt 0.275000 0.500000
vt 0.275000 0.750000
vt 0.375000 0.900000
vt 0.562500 0.900000
vt 0.562500 0.850000
vt 0.375000 0.850000
vt 0.375000 0.400000
vt 0.562500 0.400000
vt 0.562500 0.350000
vt 0.375000 0.350000
vt 0.000000 0.000000
s 1
f 8/1/1 4/2/1 2/3/1 6/4/1
f 3/5/2 7/6/2 5/7/2 1/8/2
f 6/4/3 2/9/3 1/10/3 5/7/3
f 7/6/4 8/1/4 6/4/4 5/7/4
f 4/11/5 8/1/5 7/6/5 3/12/5
f 1/13/6 2/14/6 4/11/6 3/12/6
f 11/5/2 18/15/2 19/16/2 9/8/2
f 16/1/1 12/2/1 10/3/1 14/4/1
f 17/17/2 15/6/2 13/7/2 20/18/2
f 18/15/2 17/17/2 20/18/2 19/16/2
f 13/7/6 14/4/6 10/9/6 9/10/6 19/19/6 22/20/6 21/21/6 20/22/6
f 11/12/4 12/11/4 16/1/4 15/6/4 17/23/4 24/24/4 23/25/4 18/26/4
f 18/27/3 23/27/3 22/27/3 19/27/3
f 17/27/5 20/27/5 21/27/5 24/27/5
f 15/6/3 16/1/3 14/4/3 13/7/3
f 9/13/5 10/14/5 12/11/5 11/12/5
f 23/25/2 24/24/2 21/21/2 22/20/2
f 35/5/2 42/15/2 43/16/2 33/8/2
f 40/1/1 36/2/1 34/3/1 38/4/1
f 41/17/2 39/6/2 37/7/2 44/18/2
f 42/15/2 41/17/2 44/18/2 43/16/2
f 37/7/6 38/4/6 34/9/6 33/10/6 43/19/6 46/20/6 45/21/6 44/22/6
f 35/12/4 36/11/4 40/1/4 39/6/4 41/23/4 48/24/4 47/25/4 42/26/4
f 42/27/3 47/27/3 46/27/3 43/27/3
f 41/27/5 44/27/5 45/27/5 48/27/5
f 39/6/3 40/1/3 38/4/3 37/7/3
f 33/13/5 34/14/5 36/11/5 35/12/5
f 47/25/2 48/24/2 45/21/2 46/20/2
f 51/5/2 58/15/2 59/16/2 49/8/2
f 56/1/1 52/2/1 50/3/1 54/4/1
f 57/17/2 55/6/2 53/7/2 60/18/2
f 58/15/2 57/17/2 60/18/2 59/16/2
f 53/7/3 54/4/3 50/9/3 49/10/3 59/19/3 62/20/3 61/21/3 60/22/3
f 51/12/5 52/11/5 56/1/5 55/6/5 57/23/5 64/24/5 63/25/5 58/26/5
f 58/27/4 63/27/4 62/27/4 59/27/4
f 57/27/6 60/27/6 61/27/6 64/27/6
f 55/6/4 56/1/4 54/4/4 53/7/4
f 49/13/6 50/14/6 52/11/6 51/12/6
f 63/25/2 64/24/2 61/21/2 62/20/2
f 67/5/2 74/15/2 75/16/2 65/8/2
f 72/1/1 68/2/1 66/3/1 70/4/1
f 73/17/2 71/6/2 69/7/2 76/18/2
f 74/15/2 73/17/2 76/18/2 75/16/2
f 69/7/3 70/4/3 66/9/3 65/10/3 75/19/3 78/20/3 77/21/3 76/22/3
f 67/12/5 68/11/5 72/1/5 71/6/5 73/23/5 80/24/5 79/25/5 74/26/5
f 74/27/4 79/27/4 78/27/4 75/27/4
f 73/27/6 76/27/6 77/27/6 80/27/6
f 71/6/4 72/1/4 70/4/4 69/7/4
f 65/13/6 66/14/6 68/11/6 67/12/6
f 79/25/2 80/24/2 77/21/2 78/20/2
f 83/5/2 90/15/2 91/16/2 81/8/2
f 88/1/1 84/2/1 82/3/1 86/4/1
f 89/17/2 87/6/2 85/7/2 92/18/2
f 90/15/2 89/17/2 92/18/2 91/16/2
f 85/7/3 86/4/3 82/9/3 81/10/3 91/19/3 94/20/3 93/21/3 92/22/3
f 83/12/5 84/11/5 88/1/5 87/6/5 89/23/5 96/24/5 95/25/5 90/26/5
f 90/27/4 95/27/4 94/27/4 91/27/4
f 89/27/6 92/27/6 93/27/6 96/27/6
f 87/6/4 88/1/4 86/4/4 85/7/4
f 81/13/6 82/14/6 84/11/6 83/12/6
f 95/25/2 96/24/2 93/21/2 94/20/2
f 6/27/1 26/27/1 70/27/1 2/27/1 36/27/1 66/27/1 40/27/1 12/27/1 52/27/1 16/27/1 56/27/1 84/27/1 100/27/1 88/27/1 98/27/1 30/27/1
f 25/27/2 5/27/2 29/27/2 97/8/2 103/16/2 104/18/2 87/27/2 99/27/2 89/17/2 90/15/2 55/27/2 83/27/2 57/17/2 58/15/2 15/27/2 51/27/2 17/17/2 18/15/2 11/5/2 39/6/2 41/17/2 42/15/2 65/27/2 35/27/2 75/16/2 76/18/2 1/27/2 69/27/2
f 107/5/2 114/15/2 115/16/2 105/8/2
f 112/1/1 108/2/1 106/3/1 110/4/1
f 113/17/2 111/6/2 109/7/2 116/18/2
f 114/15/2 113/17/2 116/18/2 115/16/2
f 109/7/6 110/4/6 106/9/6 105/10/6 115/19/6 118/20/6 117/21/6 116/22/6
f 107/12/4 108/11/4 112/1/4 111/6/4 113/23/4 120/24/4 119/25/4 114/26/4
f 114/27/3 119/27/3 118/27/3 115/27/3
f 113/27/5 116/27/5 117/27/5 120/27/5
f 111/6/3 112/1/3 110/4/3 109/7/3
f 105/13/5 106/14/5 108/11/5 107/12/5
f 119/25/2 120/24/2 117/21/2 118/20/2
f 128/1/1 124/2/1 122/3/1 126/4/1
f 123/5/2 127/6/2 125/7/2 121/8/2
f 126/4/6 122/9/6 121/10/6 125/7/6
f 127/6/3 128/1/3 126/4/3 125/7/3
f 124/11/4 128/1/4 127/6/4 123/12/4
f 121/13/5 122/14/5 124/11/5 123/12/5
l 25 27
l 26 28
l 29 31
l 30 32
l 99 101
l 100 102
l 99 104
l 98 100
l 99 100
l 2 12
l 6 16
l 1 11
l 5 15
