# Blender 4.5.1 LTS
# www.blender.org
mtllib Doubles_Room_Left_4_Way_Doubles.mtl
o Doubles_Room_Left_4_Way_Doubles
v 0.666748 -2.340834 9.816666
v 0.666748 2.959166 9.816666
v 0.666748 -2.340834 9.516678
v 0.666748 2.959166 9.516678
v 10.666748 -2.340834 9.816666
v 10.666748 2.959166 9.816666
v 10.666748 -2.340834 9.516678
v 10.666748 2.959166 9.516678
v 6.666748 -2.340834 9.516678
v 4.666748 -2.340834 9.516678
v 4.666748 -2.340834 9.816666
v 6.666748 -2.340834 9.816666
v 6.666748 1.634166 9.816666
v 4.666748 1.634166 9.816666
v 4.666748 1.634166 9.516678
v 6.666748 1.634166 9.516678
v 10.816528 -2.340835 -0.333328
v 10.816528 2.959166 -0.333328
v 10.516541 -2.340835 -0.333328
v 10.516541 2.959166 -0.333328
v 10.816528 -2.340835 -10.333313
v 10.816528 2.959165 -10.333313
v 10.516541 -2.340835 -10.333313
v 10.516541 2.959165 -10.333313
v -9.333191 -2.340834 9.816681
v -9.333191 2.959166 9.816681
v -9.333191 -2.340834 9.516678
v -9.333191 2.959166 9.516678
v 0.666809 -2.340834 9.816681
v 0.666809 2.959166 9.816681
v 0.666809 -2.340834 9.516678
v 0.666809 2.959166 9.516678
v -3.333191 -2.340834 9.516678
v -5.333191 -2.340834 9.516678
v -5.333191 -2.340834 9.816681
v -3.333191 -2.340834 9.816681
v -3.333191 1.634166 9.816681
v -5.333191 1.634166 9.816681
v -5.333191 1.634166 9.516678
v -3.333191 1.634166 9.516678
v 10.816833 -2.340834 9.666672
v 10.816833 2.959166 9.666672
v 10.516846 -2.340834 9.666672
v 10.516846 2.959166 9.666672
v 10.816833 -2.340835 -0.333328
v 10.816833 2.959166 -0.333328
v 10.516846 -2.340835 -0.333328
v 10.516846 2.959166 -0.333328
v 10.516846 -2.340834 3.666672
v 10.516846 -2.340834 5.666672
v 10.816833 -2.340834 5.666672
v 10.816833 -2.340834 3.666672
v 10.816833 1.634166 3.666672
v 10.816833 1.634166 5.666672
v 10.516846 1.634166 5.666672
v 10.516846 1.634166 3.666672
v -9.183167 -2.340834 9.666672
v -9.183167 2.959166 9.666672
v -9.483154 -2.340834 9.666672
v -9.483154 2.959166 9.666672
v -9.183167 -2.340835 -0.333328
v -9.183167 2.959166 -0.333328
v -9.483154 -2.340835 -0.333328
v -9.483154 2.959166 -0.333328
v -9.483154 -2.340834 3.666672
v -9.483154 -2.340834 5.666672
v -9.183167 -2.340834 5.666672
v -9.183167 -2.340834 3.666672
v -9.183167 1.634166 3.666672
v -9.183167 1.634166 5.666672
v -9.483154 1.634166 5.666672
v -9.483154 1.634166 3.666672
v -9.183167 -2.340835 -0.333328
v -9.183167 2.959166 -0.333328
v -9.483154 -2.340835 -0.333328
v -9.483154 2.959166 -0.333328
v -9.183167 -2.340835 -10.333313
v -9.183167 2.959165 -10.333313
v -9.483154 -2.340835 -10.333313
v -9.483154 2.959165 -10.333313
v -9.483154 -2.340835 -6.333313
v -9.483154 -2.340835 -4.333313
v -9.183167 -2.340835 -4.333313
v -9.183167 -2.340835 -6.333313
v -9.183167 1.634165 -6.333313
v -9.183167 1.634165 -4.333313
v -9.483154 1.634165 -4.333313
v -9.483154 1.634165 -6.333313
v -9.333191 -2.340835 -10.183334
v -9.333191 2.959165 -10.183334
v -9.333191 -2.340835 -10.483322
v -9.333191 2.959165 -10.483322
v 0.666809 -2.340835 -10.183334
v 0.666809 2.959165 -10.183334
v 0.666809 -2.340835 -10.483322
v 0.666809 2.959165 -10.483322
v -3.333191 -2.340835 -10.483322
v -5.333191 -2.340835 -10.483322
v -5.333191 -2.340835 -10.183334
v -3.333191 -2.340835 -10.183334
v -3.333191 1.634165 -10.183334
v -5.333191 1.634165 -10.183334
v -5.333191 1.634164 -10.483322
v -3.333191 1.634164 -10.483322
v 0.666809 -2.340835 -10.183334
v 0.666809 2.959165 -10.183334
v 0.666809 -2.340835 -10.483322
v 0.666809 2.959165 -10.483322
v 10.666809 -2.340835 -10.183334
v 10.666809 2.959165 -10.183334
v 10.666809 -2.340835 -10.483322
v 10.666809 2.959165 -10.483322
v 6.666809 -2.340835 -10.483322
v 4.666809 -2.340835 -10.483322
v 4.666809 -2.340835 -10.183334
v 6.666809 -2.340835 -10.183334
v 6.666809 1.634165 -10.183334
v 4.666809 1.634165 -10.183334
v 4.666809 1.634164 -10.483322
v 6.666809 1.634164 -10.483322
vn -0.0000 -1.0000 -0.0000
vn -0.0000 1.0000 -0.0000
vn -0.0000 -0.0000 1.0000
vn -0.0000 -0.0000 -1.0000
vn 1.0000 -0.0000 -0.0000
vn -1.0000 -0.0000 -0.0000
vt 0.125000 0.500000
vt 0.225000 0.500000
vt 0.225000 0.750000
vt 0.125000 0.750000
vt 0.625000 0.500000
vt 0.875000 0.500000
vt 0.875000 0.750000
vt 0.625000 0.750000
vt 0.275000 0.500000
vt 0.375000 0.500000
vt 0.375000 0.750000
vt 0.275000 0.750000
vt 0.625000 1.000000
vt 0.375000 1.000000
vt 0.375000 0.900000
vt 0.562500 0.900000
vt 0.562500 0.850000
vt 0.375000 0.850000
vt 0.375000 0.250000
vt 0.625000 0.250000
vt 0.375000 0.400000
vt 0.562500 0.400000
vt 0.562500 0.350000
vt 0.375000 0.350000
vt 0.000000 0.000000
vt 0.375000 0.000000
vt 0.625000 0.000000
s 1
f 3/1/1 10/2/1 11/3/1 1/4/1
f 8/5/2 4/6/2 2/7/2 6/8/2
f 9/9/1 7/10/1 5/11/1 12/12/1
f 10/2/1 9/9/1 12/12/1 11/3/1
f 5/11/3 6/8/3 2/13/3 1/14/3 11/15/3 14/16/3 13/17/3 12/18/3
f 3/19/4 4/20/4 8/5/4 7/10/4 9/21/4 16/22/4 15/23/4 10/24/4
f 10/25/5 15/25/5 14/25/5 11/25/5
f 9/25/6 12/25/6 13/25/6 16/25/6
f 7/10/5 8/5/5 6/8/5 5/11/5
f 1/26/6 2/27/6 4/20/6 3/19/6
f 15/23/1 16/22/1 13/17/1 14/16/1
f 24/5/2 20/6/2 18/7/2 22/8/2
f 19/1/1 23/10/1 21/11/1 17/4/1
f 22/8/5 18/13/5 17/14/5 21/11/5
f 23/10/4 24/5/4 22/8/4 21/11/4
f 20/20/6 24/5/6 23/10/6 19/19/6
f 17/26/3 18/27/3 20/20/3 19/19/3
f 27/1/1 34/2/1 35/3/1 25/4/1
f 32/5/2 28/6/2 26/7/2 30/8/2
f 33/9/1 31/10/1 29/11/1 36/12/1
f 34/2/1 33/9/1 36/12/1 35/3/1
f 29/11/3 30/8/3 26/13/3 25/14/3 35/15/3 38/16/3 37/17/3 36/18/3
f 27/19/4 28/20/4 32/5/4 31/10/4 33/21/4 40/22/4 39/23/4 34/24/4
f 34/25/5 39/25/5 38/25/5 35/25/5
f 33/25/6 36/25/6 37/25/6 40/25/6
f 31/10/5 32/5/5 30/8/5 29/11/5
f 25/26/6 26/27/6 28/20/6 27/19/6
f 39/23/1 40/22/1 37/17/1 38/16/1
f 43/1/1 50/2/1 51/3/1 41/4/1
f 48/5/2 44/6/2 42/7/2 46/8/2
f 49/9/1 47/10/1 45/11/1 52/12/1
f 50/2/1 49/9/1 52/12/1 51/3/1
f 45/11/5 46/8/5 42/13/5 41/14/5 51/15/5 54/16/5 53/17/5 52/18/5
f 43/19/6 44/20/6 48/5/6 47/10/6 49/21/6 56/22/6 55/23/6 50/24/6
f 50/25/4 55/25/4 54/25/4 51/25/4
f 49/25/3 52/25/3 53/25/3 56/25/3
f 47/10/4 48/5/4 46/8/4 45/11/4
f 41/26/3 42/27/3 44/20/3 43/19/3
f 55/23/1 56/22/1 53/17/1 54/16/1
f 59/1/1 66/2/1 67/3/1 57/4/1
f 64/5/2 60/6/2 58/7/2 62/8/2
f 65/9/1 63/10/1 61/11/1 68/12/1
f 66/2/1 65/9/1 68/12/1 67/3/1
f 61/11/5 62/8/5 58/13/5 57/14/5 67/15/5 70/16/5 69/17/5 68/18/5
f 59/19/6 60/20/6 64/5/6 63/10/6 65/21/6 72/22/6 71/23/6 66/24/6
f 66/25/4 71/25/4 70/25/4 67/25/4
f 65/25/3 68/25/3 69/25/3 72/25/3
f 63/10/4 64/5/4 62/8/4 61/11/4
f 57/26/3 58/27/3 60/20/3 59/19/3
f 71/23/1 72/22/1 69/17/1 70/16/1
f 75/1/1 82/2/1 83/3/1 73/4/1
f 80/5/2 76/6/2 74/7/2 78/8/2
f 81/9/1 79/10/1 77/11/1 84/12/1
f 82/2/1 81/9/1 84/12/1 83/3/1
f 77/11/5 78/8/5 74/13/5 73/14/5 83/15/5 86/16/5 85/17/5 84/18/5
f 75/19/6 76/20/6 80/5/6 79/10/6 81/21/6 88/22/6 87/23/6 82/24/6
f 82/25/4 87/25/4 86/25/4 83/25/4
f 81/25/3 84/25/3 85/25/3 88/25/3
f 79/10/4 80/5/4 78/8/4 77/11/4
f 73/26/3 74/27/3 76/20/3 75/19/3
f 87/23/1 88/22/1 85/17/1 86/16/1
f 91/1/1 98/2/1 99/3/1 89/4/1
f 96/5/2 92/6/2 90/7/2 94/8/2
f 97/9/1 95/10/1 93/11/1 100/12/1
f 98/2/1 97/9/1 100/12/1 99/3/1
f 93/11/3 94/8/3 90/13/3 89/14/3 99/15/3 102/16/3 101/17/3 100/18/3
f 91/19/4 92/20/4 96/5/4 95/10/4 97/21/4 104/22/4 103/23/4 98/24/4
f 98/25/5 103/25/5 102/25/5 99/25/5
f 97/25/6 100/25/6 101/25/6 104/25/6
f 95/10/5 96/5/5 94/8/5 93/11/5
f 89/26/6 90/27/6 92/20/6 91/19/6
f 103/23/1 104/22/1 101/17/1 102/16/1
f 107/1/1 114/2/1 115/3/1 105/4/1
f 112/5/2 108/6/2 106/7/2 110/8/2
f 113/9/1 111/10/1 109/11/1 116/12/1
f 114/2/1 113/9/1 116/12/1 115/3/1
f 109/11/3 110/8/3 106/13/3 105/14/3 115/15/3 118/16/3 117/17/3 116/18/3
f 107/19/4 108/20/4 112/5/4 111/10/4 113/21/4 120/22/4 119/23/4 114/24/4
f 114/25/5 119/25/5 118/25/5 115/25/5
f 113/25/6 116/25/6 117/25/6 120/25/6
f 111/10/5 112/5/5 110/8/5 109/11/5
f 105/26/6 106/27/6 108/20/6 107/19/6
f 119/23/1 120/22/1 117/17/1 118/16/1
f 8/25/1 44/25/1 32/25/1 4/25/1 58/25/1 28/25/1 74/25/1 62/25/1 90/25/1 78/25/1 94/25/1 106/25/1 24/25/1 110/25/1 48/25/1 20/25/1
f 23/25/1 109/25/1 19/25/1 47/10/1 49/9/1 50/2/1 7/25/1 43/25/1 9/9/1 10/2/1 31/25/1 3/25/1 33/9/1 34/2/1 57/25/1 27/25/1 67/3/1 68/12/1 73/25/1 61/25/1 83/3/1 84/12/1 89/25/1 77/25/1 99/3/1 100/12/1 105/25/1 93/25/1 115/3/1 116/12/1
l 4 24
l 7 23
l 3 19
