# Blender 4.5.1 LTS
# www.blender.org
mtllib Left_Doubles_Room_Left_4_Way_Left.mtl
o Left_Doubles_Room_Left_4_Way_Left
v -8.311462 -2.395194 -0.384613
v -8.311462 2.904807 -0.384613
v -8.611511 -2.395194 -0.384613
v -8.611511 2.904807 -0.384613
v -8.311462 -2.395194 -10.384613
v -8.311462 2.904806 -10.384613
v -8.611511 -2.395194 -10.384613
v -8.611511 2.904806 -10.384613
v -8.611511 -2.395194 -6.384613
v -8.611511 -2.395194 -4.384613
v -8.311462 -2.395194 -4.384613
v -8.311462 -2.395194 -6.384613
v -8.311462 1.579806 -6.384613
v -8.311462 1.579806 -4.384613
v -8.611511 1.579806 -4.384613
v -8.611511 1.579806 -6.384613
v -8.461365 -2.395193 9.765388
v -8.461365 2.904807 9.765388
v -8.461365 -2.395193 9.465385
v -8.461365 2.904807 9.465385
v 1.538635 -2.395193 9.765388
v 1.538635 2.904807 9.765388
v 1.538635 -2.395193 9.465385
v 1.538635 2.904807 9.465385
v -2.461365 -2.395193 9.465385
v -4.461365 -2.395193 9.465385
v -4.461365 -2.395193 9.765388
v -2.461365 -2.395193 9.765388
v -2.461365 1.579807 9.765388
v -4.461365 1.579807 9.765388
v -4.461365 1.579807 9.465385
v -2.461365 1.579807 9.465385
v 1.538269 -2.395193 9.765388
v 1.538269 2.904807 9.765388
v 1.538269 -2.395193 9.465385
v 1.538269 2.904807 9.465385
v 11.538269 -2.395193 9.765388
v 11.538269 2.904807 9.765388
v 11.538269 -2.395193 9.465385
v 11.538269 2.904807 9.465385
v 1.538269 -2.395194 -10.234612
v 1.538269 2.904806 -10.234612
v 1.538269 -2.395194 -10.534615
v 1.538269 2.904806 -10.534615
v 11.538269 -2.395194 -10.234612
v 11.538269 2.904806 -10.234612
v 11.538269 -2.395194 -10.534615
v 11.538269 2.904806 -10.534615
v 11.688293 -2.395194 -0.384613
v 11.688293 2.904807 -0.384613
v 11.388306 -2.395194 -0.384613
v 11.388306 2.904807 -0.384613
v 11.688293 -2.395194 -10.384613
v 11.688293 2.904806 -10.384613
v 11.388306 -2.395194 -10.384613
v 11.388306 2.904806 -10.384613
v 11.688599 -2.395193 9.615387
v 11.688599 2.904807 9.615387
v 11.388611 -2.395193 9.615387
v 11.388611 2.904807 9.615387
v 11.688599 -2.395194 -0.384613
v 11.688599 2.904807 -0.384613
v 11.388611 -2.395194 -0.384613
v 11.388611 2.904807 -0.384613
v 11.388611 -2.395193 3.615387
v 11.388611 -2.395193 5.615387
v 11.688599 -2.395193 5.615387
v 11.688599 -2.395193 3.615387
v 11.688599 1.579807 3.615387
v 11.688599 1.579807 5.615387
v 11.388611 1.579807 5.615387
v 11.388611 1.579807 3.615387
v -8.311340 -2.395193 9.615387
v -8.311340 2.904807 9.615387
v -8.611328 -2.395193 9.615387
v -8.611328 2.904807 9.615387
v -8.311340 -2.395194 -0.384613
v -8.311340 2.904807 -0.384613
v -8.611328 -2.395194 -0.384613
v -8.611328 2.904807 -0.384613
v -8.611328 -2.395193 3.615387
v -8.611328 -2.395193 5.615387
v -8.311340 -2.395193 5.615387
v -8.311340 -2.395193 3.615387
v -8.311340 1.579807 3.615387
v -8.311340 1.579807 5.615387
v -8.611328 1.579807 5.615387
v -8.611328 1.579807 3.615387
v -8.461365 -2.395194 -10.234612
v -8.461365 2.904806 -10.234612
v -8.461365 -2.395194 -10.534615
v -8.461365 2.904806 -10.534615
v 1.538635 -2.395194 -10.234612
v 1.538635 2.904806 -10.234612
v 1.538635 -2.395194 -10.534615
v 1.538635 2.904806 -10.534615
v -2.461365 -2.395194 -10.534615
v -4.461365 -2.395194 -10.534615
v -4.461365 -2.395194 -10.234612
v -2.461365 -2.395194 -10.234612
v -2.461365 1.579806 -10.234612
v -4.461365 1.579806 -10.234612
v -4.461365 1.579805 -10.534615
v -2.461365 1.579805 -10.534615
vn -0.0000 -1.0000 -0.0000
vn -0.0000 1.0000 -0.0000
vn 1.0000 -0.0000 -0.0000
vn -1.0000 -0.0000 -0.0000
vn -0.0000 -0.0000 -1.0000
vn -0.0000 -0.0000 1.0000
vt 0.125000 0.500000
vt 0.225000 0.500000
vt 0.225000 0.750000
vt 0.125000 0.750000
vt 0.625000 0.500000
vt 0.875000 0.500000
vt 0.875000 0.750000
vt 0.625000 0.750000
vt 0.275000 0.500000
vt 0.375000 0.500000
vt 0.375000 0.750000
vt 0.275000 0.750000
vt 0.625000 1.000000
vt 0.375000 1.000000
vt 0.375000 0.900000
vt 0.562500 0.900000
vt 0.562500 0.850000
vt 0.375000 0.850000
vt 0.375000 0.250000
vt 0.625000 0.250000
vt 0.375000 0.400000
vt 0.562500 0.400000
vt 0.562500 0.350000
vt 0.375000 0.350000
vt 0.000000 0.000000
vt 0.375000 0.000000
vt 0.625000 0.000000
s 1
f 3/1/1 10/2/1 11/3/1 1/4/1
f 8/5/2 4/6/2 2/7/2 6/8/2
f 9/9/1 7/10/1 5/11/1 12/12/1
f 10/2/1 9/9/1 12/12/1 11/3/1
f 5/11/3 6/8/3 2/13/3 1/14/3 11/15/3 14/16/3 13/17/3 12/18/3
f 3/19/4 4/20/4 8/5/4 7/10/4 9/21/4 16/22/4 15/23/4 10/24/4
f 10/25/5 15/25/5 14/25/5 11/25/5
f 9/25/6 12/25/6 13/25/6 16/25/6
f 7/10/5 8/5/5 6/8/5 5/11/5
f 1/26/6 2/27/6 4/20/6 3/19/6
f 15/23/1 16/22/1 13/17/1 14/16/1
f 19/1/1 26/2/1 27/3/1 17/4/1
f 24/5/2 20/6/2 18/7/2 22/8/2
f 25/9/1 23/10/1 21/11/1 28/12/1
f 26/2/1 25/9/1 28/12/1 27/3/1
f 21/11/6 22/8/6 18/13/6 17/14/6 27/15/6 30/16/6 29/17/6 28/18/6
f 19/19/5 20/20/5 24/5/5 23/10/5 25/21/5 32/22/5 31/23/5 26/24/5
f 26/25/3 31/25/3 30/25/3 27/25/3
f 25/25/4 28/25/4 29/25/4 32/25/4
f 23/10/3 24/5/3 22/8/3 21/11/3
f 17/26/4 18/27/4 20/20/4 19/19/4
f 31/23/1 32/22/1 29/17/1 30/16/1
f 40/5/2 36/6/2 34/7/2 38/8/2
f 35/1/1 39/10/1 37/11/1 33/4/1
f 38/8/6 34/13/6 33/14/6 37/11/6
f 39/10/3 40/5/3 38/8/3 37/11/3
f 36/20/5 40/5/5 39/10/5 35/19/5
f 33/26/4 34/27/4 36/20/4 35/19/4
f 48/5/2 44/6/2 42/7/2 46/8/2
f 43/1/1 47/10/1 45/11/1 41/4/1
f 46/8/6 42/13/6 41/14/6 45/11/6
f 47/10/3 48/5/3 46/8/3 45/11/3
f 44/20/5 48/5/5 47/10/5 43/19/5
f 41/26/4 42/27/4 44/20/4 43/19/4
f 56/5/2 52/6/2 50/7/2 54/8/2
f 51/1/1 55/10/1 53/11/1 49/4/1
f 54/8/3 50/13/3 49/14/3 53/11/3
f 55/10/5 56/5/5 54/8/5 53/11/5
f 52/20/4 56/5/4 55/10/4 51/19/4
f 49/26/6 50/27/6 52/20/6 51/19/6
f 59/1/1 66/2/1 67/3/1 57/4/1
f 64/5/2 60/6/2 58/7/2 62/8/2
f 65/9/1 63/10/1 61/11/1 68/12/1
f 66/2/1 65/9/1 68/12/1 67/3/1
f 61/11/3 62/8/3 58/13/3 57/14/3 67/15/3 70/16/3 69/17/3 68/18/3
f 59/19/4 60/20/4 64/5/4 63/10/4 65/21/4 72/22/4 71/23/4 66/24/4
f 66/25/5 71/25/5 70/25/5 67/25/5
f 65/25/6 68/25/6 69/25/6 72/25/6
f 63/10/5 64/5/5 62/8/5 61/11/5
f 57/26/6 58/27/6 60/20/6 59/19/6
f 71/23/1 72/22/1 69/17/1 70/16/1
f 75/1/1 82/2/1 83/3/1 73/4/1
f 80/5/2 76/6/2 74/7/2 78/8/2
f 81/9/1 79/10/1 77/11/1 84/12/1
f 82/2/1 81/9/1 84/12/1 83/3/1
f 77/11/3 78/8/3 74/13/3 73/14/3 83/15/3 86/16/3 85/17/3 84/18/3
f 75/19/4 76/20/4 80/5/4 79/10/4 81/21/4 88/22/4 87/23/4 82/24/4
f 82/25/5 87/25/5 86/25/5 83/25/5
f 81/25/6 84/25/6 85/25/6 88/25/6
f 79/10/5 80/5/5 78/8/5 77/11/5
f 73/26/6 74/27/6 76/20/6 75/19/6
f 87/23/1 88/22/1 85/17/1 86/16/1
f 91/1/1 98/2/1 99/3/1 89/4/1
f 96/5/2 92/6/2 90/7/2 94/8/2
f 97/9/1 95/10/1 93/11/1 100/12/1
f 98/2/1 97/9/1 100/12/1 99/3/1
f 93/11/6 94/8/6 90/13/6 89/14/6 99/15/6 102/16/6 101/17/6 100/18/6
f 91/19/5 92/20/5 96/5/5 95/10/5 97/21/5 104/22/5 103/23/5 98/24/5
f 98/25/3 103/25/3 102/25/3 99/25/3
f 97/25/4 100/25/4 101/25/4 104/25/4
f 95/10/3 96/5/3 94/8/3 93/11/3
f 89/26/4 90/27/4 92/20/4 91/19/4
f 103/23/1 104/22/1 101/17/1 102/16/1
f 78/25/2 20/25/2 74/25/2 36/25/2 24/25/2 60/25/2 40/25/2 64/25/2 52/25/2 62/25/2 46/25/2 56/25/2 94/25/2 42/25/2 6/25/2 90/25/2 2/25/2
f 45/25/1 51/25/1 63/10/1 65/9/1 66/2/1 39/25/1 59/25/1 23/25/1 35/25/1 25/9/1 26/2/1 73/25/1 19/25/1 83/3/1 84/12/1 77/11/1 1/4/1 11/3/1 12/12/1 89/25/1 5/25/1 99/3/1 100/12/1 41/25/1 93/25/1 55/25/1
l 6 24
l 2 20
l 1 23
l 5 19
