# Blender 4.5.1 LTS
# www.blender.org
mtllib Left_Doubles_Room_Open_Left.mtl
o Left_Doubles_Room_Open_Left
v -9.135681 -2.366072 10.000000
v -9.135681 2.933928 10.000000
v -9.435730 -2.366072 10.000000
v -9.435730 2.933928 10.000000
v -9.135681 -2.366073 0.000000
v -9.135681 2.933927 -0.000000
v -9.435730 -2.366073 0.000000
v -9.435730 2.933927 -0.000000
v -9.435730 -2.366073 4.000000
v -9.435730 -2.366072 6.000000
v -9.135681 -2.366072 6.000000
v -9.135681 -2.366073 4.000000
v -9.135681 1.608927 4.000000
v -9.135681 1.608927 6.000000
v -9.435730 1.608927 6.000000
v -9.435730 1.608927 4.000000
v -9.285706 -2.366072 10.150000
v -9.285706 2.933928 10.150000
v -9.285706 -2.366072 9.850000
v -9.285706 2.933928 9.850000
v 0.714294 -2.366072 10.150000
v 0.714294 2.933928 10.150000
v 0.714294 -2.366072 9.850000
v 0.714294 2.933928 9.850000
v -3.285706 -2.366072 9.850000
v -5.285706 -2.366072 9.850000
v -5.285706 -2.366072 10.150000
v -3.285706 -2.366072 10.150000
v -3.285706 1.608928 10.150000
v -5.285706 1.608928 10.150000
v -5.285706 1.608928 9.850000
v -3.285706 1.608928 9.850000
v 0.714050 -2.366072 10.150000
v 0.714050 2.933928 10.150000
v 0.714050 -2.366072 9.849998
v 0.714050 2.933928 9.849998
v 10.714050 -2.366072 10.150000
v 10.714050 2.933928 10.150000
v 10.714050 -2.366072 9.849998
v 10.714050 2.933928 9.849998
v 0.714050 -2.366074 -9.849998
v 0.714050 2.933927 -9.849998
v 0.714050 -2.366074 -10.149998
v 0.714050 2.933927 -10.149998
v 10.714050 -2.366074 -9.849998
v 10.714050 2.933927 -9.849998
v 10.714050 -2.366074 -10.149998
v 10.714050 2.933927 -10.149998
v 10.864319 -2.366072 10.000000
v 10.864319 2.933928 10.000000
v 10.564331 -2.366072 10.000000
v 10.564331 2.933928 10.000000
v 10.864319 -2.366073 0.000000
v 10.864319 2.933927 -0.000000
v 10.564331 -2.366073 0.000000
v 10.564331 2.933927 -0.000000
v 10.564331 -2.366073 4.000000
v 10.564331 -2.366072 6.000000
v 10.864319 -2.366072 6.000000
v 10.864319 -2.366073 4.000000
v 10.864319 1.608927 4.000000
v 10.864319 1.608927 6.000000
v 10.564331 1.608927 6.000000
v 10.564331 1.608927 4.000000
v 10.864319 -2.366073 0.000000
v 10.864319 2.933927 -0.000000
v 10.564331 -2.366073 0.000000
v 10.564331 2.933927 -0.000000
v 10.864319 -2.366074 -10.000000
v 10.864319 2.933927 -10.000000
v 10.564331 -2.366074 -10.000000
v 10.564331 2.933927 -10.000000
v 10.564331 -2.366073 -6.000000
v 10.564331 -2.366073 -4.000000
v 10.864319 -2.366073 -4.000000
v 10.864319 -2.366073 -6.000000
v 10.864319 1.608927 -6.000000
v 10.864319 1.608927 -4.000000
v 10.564331 1.608927 -4.000000
v 10.564331 1.608927 -6.000000
v -9.135620 -2.366073 -0.000004
v -9.135620 2.933927 -0.000004
v -9.435608 -2.366073 -0.000004
v -9.435608 2.933927 -0.000004
v -9.135620 -2.366074 -10.000000
v -9.135620 2.933927 -10.000000
v -9.435608 -2.366074 -10.000000
v -9.435608 2.933927 -10.000000
v -9.435608 -2.366073 -6.000004
v -9.435608 -2.366073 -4.000000
v -9.135620 -2.366073 -4.000000
v -9.135620 -2.366073 -6.000004
v -9.135620 1.608927 -6.000004
v -9.135620 1.608927 -4.000000
v -9.435608 1.608927 -4.000000
v -9.435608 1.608927 -6.000004
v -9.285706 -2.366074 -9.849998
v -9.285706 2.933927 -9.849998
v -9.285706 -2.366074 -10.149998
v -9.285706 2.933927 -10.149998
v 0.714294 -2.366074 -9.849998
v 0.714294 2.933927 -9.849998
v 0.714294 -2.366074 -10.149998
v 0.714294 2.933927 -10.149998
v -3.285706 -2.366074 -10.149998
v -5.285706 -2.366074 -10.149998
v -5.285706 -2.366074 -9.849998
v -3.285706 -2.366074 -9.849998
v -3.285706 1.608926 -9.849998
v -5.285706 1.608926 -9.849998
v -5.285706 1.608926 -10.149998
v -3.285706 1.608926 -10.149998
vn -0.0000 -1.0000 -0.0000
vn -0.0000 1.0000 -0.0000
vn 1.0000 -0.0000 -0.0000
vn -1.0000 -0.0000 -0.0000
vn -0.0000 -0.0000 -1.0000
vn -0.0000 -0.0000 1.0000
vt 0.125000 0.500000
vt 0.225000 0.500000
vt 0.225000 0.750000
vt 0.125000 0.750000
vt 0.625000 0.500000
vt 0.875000 0.500000
vt 0.875000 0.750000
vt 0.625000 0.750000
vt 0.275000 0.500000
vt 0.375000 0.500000
vt 0.375000 0.750000
vt 0.275000 0.750000
vt 0.625000 1.000000
vt 0.375000 1.000000
vt 0.375000 0.900000
vt 0.562500 0.900000
vt 0.562500 0.850000
vt 0.375000 0.850000
vt 0.375000 0.250000
vt 0.625000 0.250000
vt 0.375000 0.400000
vt 0.562500 0.400000
vt 0.562500 0.350000
vt 0.375000 0.350000
vt 0.000000 0.000000
vt 0.375000 0.000000
vt 0.625000 0.000000
s 1
f 3/1/1 10/2/1 11/3/1 1/4/1
f 8/5/2 4/6/2 2/7/2 6/8/2
f 9/9/1 7/10/1 5/11/1 12/12/1
f 10/2/1 9/9/1 12/12/1 11/3/1
f 5/11/3 6/8/3 2/13/3 1/14/3 11/15/3 14/16/3 13/17/3 12/18/3
f 3/19/4 4/20/4 8/5/4 7/10/4 9/21/4 16/22/4 15/23/4 10/24/4
f 10/25/5 15/25/5 14/25/5 11/25/5
f 9/25/6 12/25/6 13/25/6 16/25/6
f 7/10/5 8/5/5 6/8/5 5/11/5
f 1/26/6 2/27/6 4/20/6 3/19/6
f 15/23/1 16/22/1 13/17/1 14/16/1
f 19/1/1 26/2/1 27/3/1 17/4/1
f 24/5/2 20/6/2 18/7/2 22/8/2
f 25/9/1 23/10/1 21/11/1 28/12/1
f 26/2/1 25/9/1 28/12/1 27/3/1
f 21/11/6 22/8/6 18/13/6 17/14/6 27/15/6 30/16/6 29/17/6 28/18/6
f 19/19/5 20/20/5 24/5/5 23/10/5 25/21/5 32/22/5 31/23/5 26/24/5
f 26/25/3 31/25/3 30/25/3 27/25/3
f 25/25/4 28/25/4 29/25/4 32/25/4
f 23/10/3 24/5/3 22/8/3 21/11/3
f 17/26/4 18/27/4 20/20/4 19/19/4
f 31/23/1 32/22/1 29/17/1 30/16/1
f 40/5/2 36/6/2 34/7/2 38/8/2
f 35/1/1 39/10/1 37/11/1 33/4/1
f 38/8/6 34/13/6 33/14/6 37/11/6
f 39/10/3 40/5/3 38/8/3 37/11/3
f 36/20/5 40/5/5 39/10/5 35/19/5
f 33/26/4 34/27/4 36/20/4 35/19/4
f 48/5/2 44/6/2 42/7/2 46/8/2
f 43/1/1 47/10/1 45/11/1 41/4/1
f 46/8/6 42/13/6 41/14/6 45/11/6
f 47/10/3 48/5/3 46/8/3 45/11/3
f 44/20/5 48/5/5 47/10/5 43/19/5
f 41/26/4 42/27/4 44/20/4 43/19/4
f 51/1/1 58/2/1 59/3/1 49/4/1
f 56/5/2 52/6/2 50/7/2 54/8/2
f 57/9/1 55/10/1 53/11/1 60/12/1
f 58/2/1 57/9/1 60/12/1 59/3/1
f 53/11/3 54/8/3 50/13/3 49/14/3 59/15/3 62/16/3 61/17/3 60/18/3
f 51/19/4 52/20/4 56/5/4 55/10/4 57/21/4 64/22/4 63/23/4 58/24/4
f 58/25/5 63/25/5 62/25/5 59/25/5
f 57/25/6 60/25/6 61/25/6 64/25/6
f 55/10/5 56/5/5 54/8/5 53/11/5
f 49/26/6 50/27/6 52/20/6 51/19/6
f 63/23/1 64/22/1 61/17/1 62/16/1
f 67/1/1 74/2/1 75/3/1 65/4/1
f 72/5/2 68/6/2 66/7/2 70/8/2
f 73/9/1 71/10/1 69/11/1 76/12/1
f 74/2/1 73/9/1 76/12/1 75/3/1
f 69/11/3 70/8/3 66/13/3 65/14/3 75/15/3 78/16/3 77/17/3 76/18/3
f 67/19/4 68/20/4 72/5/4 71/10/4 73/21/4 80/22/4 79/23/4 74/24/4
f 74/25/5 79/25/5 78/25/5 75/25/5
f 73/25/6 76/25/6 77/25/6 80/25/6
f 71/10/5 72/5/5 70/8/5 69/11/5
f 65/26/6 66/27/6 68/20/6 67/19/6
f 79/23/1 80/22/1 77/17/1 78/16/1
f 83/1/1 90/2/1 91/3/1 81/4/1
f 88/5/2 84/6/2 82/7/2 86/8/2
f 89/9/1 87/10/1 85/11/1 92/12/1
f 90/2/1 89/9/1 92/12/1 91/3/1
f 85/11/3 86/8/3 82/13/3 81/14/3 91/15/3 94/16/3 93/17/3 92/18/3
f 83/19/4 84/20/4 88/5/4 87/10/4 89/21/4 96/22/4 95/23/4 90/24/4
f 90/25/5 95/25/5 94/25/5 91/25/5
f 89/25/6 92/25/6 93/25/6 96/25/6
f 87/10/5 88/5/5 86/8/5 85/11/5
f 81/26/6 82/27/6 84/20/6 83/19/6
f 95/23/1 96/22/1 93/17/1 94/16/1
f 99/1/1 106/2/1 107/3/1 97/4/1
f 104/5/2 100/6/2 98/7/2 102/8/2
f 105/9/1 103/10/1 101/11/1 108/12/1
f 106/2/1 105/9/1 108/12/1 107/3/1
f 101/11/6 102/8/6 98/13/6 97/14/6 107/15/6 110/16/6 109/17/6 108/18/6
f 99/19/5 100/20/5 104/5/5 103/10/5 105/21/5 112/22/5 111/23/5 106/24/5
f 106/25/3 111/25/3 110/25/3 107/25/3
f 105/25/4 108/25/4 109/25/4 112/25/4
f 103/10/3 104/5/3 102/8/3 101/11/3
f 97/26/4 98/27/4 100/20/4 99/19/4
f 111/23/1 112/22/1 109/17/1 110/16/1
f 2/25/1 20/25/1 6/25/1 82/25/1 98/25/1 86/25/1 42/25/1 102/25/1 72/25/1 46/25/1 68/25/1 56/25/1 40/25/1 52/25/1 24/25/1 36/25/1
f 58/2/1 39/25/1 51/25/1 23/25/1 35/25/1 25/9/1 26/2/1 1/25/1 19/25/1 11/3/1 12/12/1 81/4/1 91/3/1 92/12/1 97/25/1 85/25/1 107/3/1 108/12/1 41/25/1 101/25/1 71/25/1 45/25/1 73/9/1 74/2/1 55/25/1 67/25/1 57/9/1
l 6 24
l 12 23
