# Blender 4.5.1 LTS
# www.blender.org
mtllib Right_Doubles_Room_Left_1_Way.mtl
o Right_Doubles_Room_Left_1_Way
v -9.350124 -2.517501 -1.500000
v -9.350124 2.782499 -1.500000
v -9.650127 -2.517501 -1.500000
v -9.650127 2.782499 -1.500000
v -9.350124 -2.517502 -11.500000
v -9.350124 2.782498 -11.500000
v -9.650127 -2.517502 -11.500000
v -9.650127 2.782498 -11.500000
v 0.500183 -2.517500 8.650007
v 0.500183 2.782500 8.650007
v 0.500183 -2.517500 8.350006
v 0.500183 2.782500 8.350006
v 10.500179 -2.517500 8.650005
v 10.500179 2.782500 8.650005
v 10.500179 -2.517500 8.350006
v 10.500179 2.782500 8.350006
v 6.500179 -2.517500 8.350006
v 4.500183 -2.517500 8.350006
v 4.500183 -2.517500 8.650005
v 6.500179 -2.517500 8.650005
v 6.500179 1.457499 8.650005
v 4.500183 1.457499 8.650005
v 4.500183 1.457499 8.350006
v 6.500179 1.457499 8.350006
v -9.500126 -2.517500 8.650007
v -9.500126 2.782500 8.650007
v -9.500126 -2.517500 8.350006
v -9.500126 2.782500 8.350006
v 0.499874 -2.517500 8.650007
v 0.499874 2.782500 8.650007
v 0.499874 -2.517500 8.350006
v 0.499874 2.782500 8.350006
v -9.500126 -2.517502 -11.349995
v -9.500126 2.782498 -11.349995
v -9.500126 -2.517502 -11.649994
v -9.500126 2.782498 -11.649994
v 0.499874 -2.517502 -11.349995
v 0.499874 2.782498 -11.349995
v 0.499874 -2.517502 -11.649994
v 0.499874 2.782498 -11.649994
v 0.499874 -2.517502 -11.349995
v 0.499874 2.782498 -11.349995
v 0.499874 -2.517502 -11.649998
v 0.499874 2.782498 -11.649998
v 10.499874 -2.517502 -11.349995
v 10.499874 2.782498 -11.349995
v 10.499874 -2.517502 -11.649994
v 10.499874 2.782498 -11.649994
v 10.649876 -2.517501 -1.499992
v 10.649876 2.782499 -1.499993
v 10.349876 -2.517501 -1.499992
v 10.349876 2.782499 -1.499993
v 10.649876 -2.517502 -11.499992
v 10.649876 2.782498 -11.499992
v 10.349876 -2.517502 -11.499992
v 10.349876 2.782498 -11.499992
v 10.649876 -2.517500 8.500008
v 10.649876 2.782500 8.500008
v 10.349876 -2.517500 8.500008
v 10.349876 2.782500 8.500008
v 10.649876 -2.517501 -1.499992
v 10.649876 2.782499 -1.499993
v 10.349876 -2.517501 -1.499992
v 10.349876 2.782499 -1.499993
v -9.349819 -2.517500 8.500008
v -9.349819 2.782500 8.500008
v -9.649822 -2.517500 8.500008
v -9.649822 2.782500 8.500008
v -9.349819 -2.517501 -1.499992
v -9.349819 2.782499 -1.499993
v -9.649822 -2.517501 -1.499992
v -9.649822 2.782499 -1.499993
v -9.649822 -2.517501 2.500008
v -9.649822 -2.517501 4.500008
v -9.349819 -2.517501 4.500008
v -9.349819 -2.517501 2.500008
v -9.349819 1.457499 2.500008
v -9.349819 1.457499 4.500008
v -9.649822 1.457499 4.500008
v -9.649822 1.457499 2.500008
vn -0.0000 1.0000 -0.0000
vn -0.0000 -1.0000 -0.0000
vn 1.0000 -0.0000 -0.0000
vn -0.0000 -0.0000 -1.0000
vn -1.0000 -0.0000 -0.0000
vn -0.0000 -0.0000 1.0000
vt 0.625000 0.500000
vt 0.875000 0.500000
vt 0.875000 0.750000
vt 0.625000 0.750000
vt 0.125000 0.500000
vt 0.375000 0.500000
vt 0.375000 0.750000
vt 0.125000 0.750000
vt 0.625000 1.000000
vt 0.375000 1.000000
vt 0.625000 0.250000
vt 0.375000 0.250000
vt 0.375000 0.000000
vt 0.625000 0.000000
vt 0.225000 0.500000
vt 0.225000 0.750000
vt 0.275000 0.500000
vt 0.275000 0.750000
vt 0.375000 0.900000
vt 0.562500 0.900000
vt 0.562500 0.850000
vt 0.375000 0.850000
vt 0.375000 0.400000
vt 0.562500 0.400000
vt 0.562500 0.350000
vt 0.375000 0.350000
vt 0.000000 0.000000
s 1
f 8/1/1 4/2/1 2/3/1 6/4/1
f 3/5/2 7/6/2 5/7/2 1/8/2
f 6/4/3 2/9/3 1/10/3 5/7/3
f 7/6/4 8/1/4 6/4/4 5/7/4
f 4/11/5 8/1/5 7/6/5 3/12/5
f 1/13/6 2/14/6 4/11/6 3/12/6
f 11/5/2 18/15/2 19/16/2 9/8/2
f 16/1/1 12/2/1 10/3/1 14/4/1
f 17/17/2 15/6/2 13/7/2 20/18/2
f 18/15/2 17/17/2 20/18/2 19/16/2
f 13/7/6 14/4/6 10/9/6 9/10/6 19/19/6 22/20/6 21/21/6 20/22/6
f 11/12/4 12/11/4 16/1/4 15/6/4 17/23/4 24/24/4 23/25/4 18/26/4
f 18/27/3 23/27/3 22/27/3 19/27/3
f 17/27/5 20/27/5 21/27/5 24/27/5
f 15/6/3 16/1/3 14/4/3 13/7/3
f 9/13/5 10/14/5 12/11/5 11/12/5
f 23/25/2 24/24/2 21/21/2 22/20/2
f 32/1/1 28/2/1 26/3/1 30/4/1
f 27/5/2 31/6/2 29/7/2 25/8/2
f 30/4/6 26/9/6 25/10/6 29/7/6
f 31/6/3 32/1/3 30/4/3 29/7/3
f 28/11/4 32/1/4 31/6/4 27/12/4
f 25/13/5 26/14/5 28/11/5 27/12/5
f 40/1/1 36/2/1 34/3/1 38/4/1
f 35/5/2 39/6/2 37/7/2 33/8/2
f 38/4/6 34/9/6 33/10/6 37/7/6
f 39/6/3 40/1/3 38/4/3 37/7/3
f 36/11/4 40/1/4 39/6/4 35/12/4
f 33/13/5 34/14/5 36/11/5 35/12/5
f 48/1/1 44/2/1 42/3/1 46/4/1
f 43/5/2 47/6/2 45/7/2 41/8/2
f 46/4/6 42/9/6 41/10/6 45/7/6
f 47/6/3 48/1/3 46/4/3 45/7/3
f 44/11/4 48/1/4 47/6/4 43/12/4
f 41/13/5 42/14/5 44/11/5 43/12/5
f 56/1/1 52/2/1 50/3/1 54/4/1
f 51/5/2 55/6/2 53/7/2 49/8/2
f 54/4/3 50/9/3 49/10/3 53/7/3
f 55/6/4 56/1/4 54/4/4 53/7/4
f 52/11/5 56/1/5 55/6/5 51/12/5
f 49/13/6 50/14/6 52/11/6 51/12/6
f 64/1/1 60/2/1 58/3/1 62/4/1
f 59/5/2 63/6/2 61/7/2 57/8/2
f 62/4/3 58/9/3 57/10/3 61/7/3
f 63/6/4 64/1/4 62/4/4 61/7/4
f 60/11/5 64/1/5 63/6/5 59/12/5
f 57/13/6 58/14/6 60/11/6 59/12/6
f 67/5/2 74/15/2 75/16/2 65/8/2
f 72/1/1 68/2/1 66/3/1 70/4/1
f 73/17/2 71/6/2 69/7/2 76/18/2
f 74/15/2 73/17/2 76/18/2 75/16/2
f 69/7/3 70/4/3 66/9/3 65/10/3 75/19/3 78/20/3 77/21/3 76/22/3
f 67/12/5 68/11/5 72/1/5 71/6/5 73/23/5 80/24/5 79/25/5 74/26/5
f 74/27/4 79/27/4 78/27/4 75/27/4
f 73/27/6 76/27/6 77/27/6 80/27/6
f 71/6/4 72/1/4 70/4/4 69/7/4
f 65/13/6 66/14/6 68/11/6 67/12/6
f 79/25/2 80/24/2 77/21/2 78/20/2
f 52/27/2 16/27/2 60/27/2 12/27/2 32/27/2 66/27/2 28/27/2 2/27/2 70/27/2 34/27/2 6/27/2 42/27/2 38/27/2 56/27/2 46/27/2 64/27/2
f 55/27/2 45/27/2 63/27/2 51/27/2 15/27/2 59/27/2 17/17/2 18/15/2 11/5/2 31/27/2 65/27/2 27/27/2 75/16/2 76/18/2 1/27/2 69/27/2 33/27/2 5/27/2 37/27/2 41/27/2
l 6 16
l 2 12
l 1 11
l 5 15
