# Blender 4.5.1 LTS
# www.blender.org
mtllib Right_Doubles_Room_Left_2_Way_Right.001.mtl
o Right_Doubles_Room_Left_2_Way_Right.001
v -9.905945 -2.450002 -8.532070
v -9.905945 2.849998 -8.532070
v -9.905945 -2.450002 -8.832073
v -9.905945 2.849998 -8.832073
v 0.094055 -2.450002 -8.532070
v 0.094055 2.849998 -8.532070
v 0.094055 -2.450002 -8.832073
v 0.094055 2.849998 -8.832073
v 0.094360 -2.450000 11.467928
v 0.094360 2.850000 11.467928
v 0.094360 -2.450000 11.167929
v 0.094360 2.850000 11.167929
v 10.094360 -2.450000 11.467928
v 10.094360 2.850000 11.467928
v 10.094360 -2.450000 11.167929
v 10.094360 2.850000 11.167929
v 6.094360 -2.450000 11.167929
v 4.094360 -2.450000 11.167929
v 4.094360 -2.450000 11.467928
v 6.094360 -2.450000 11.467928
v 6.094360 1.524999 11.467928
v 4.094360 1.524999 11.467928
v 4.094360 1.524999 11.167929
v 6.094360 1.524999 11.167929
v -9.906006 -2.450000 11.467928
v -9.906006 2.850000 11.467928
v -9.906006 -2.450000 11.167929
v -9.906006 2.850000 11.167929
v 0.094025 -2.450000 11.467928
v 0.094025 2.850000 11.467928
v 0.094025 -2.450000 11.167929
v 0.094025 2.850000 11.167929
v 0.094025 -2.450002 -8.532070
v 0.094025 2.849998 -8.532070
v 0.094025 -2.450002 -8.832069
v 0.094025 2.849998 -8.832069
v 10.094025 -2.450002 -8.532070
v 10.094025 2.849998 -8.532070
v 10.094025 -2.450002 -8.832069
v 10.094025 2.849998 -8.832069
v -9.755981 -2.450001 1.317929
v -9.755981 2.849999 1.317928
v -10.055969 -2.450001 1.317929
v -10.055969 2.849999 1.317928
v -9.755981 -2.450002 -8.682068
v -9.755981 2.849998 -8.682068
v -10.055969 -2.450002 -8.682068
v -10.055969 2.849998 -8.682068
v 10.244019 -2.450001 1.317929
v 10.244019 2.849999 1.317928
v 9.944031 -2.450001 1.317929
v 9.944031 2.849999 1.317928
v 10.244019 -2.450002 -8.682068
v 10.244019 2.849998 -8.682068
v 9.944031 -2.450002 -8.682068
v 9.944031 2.849998 -8.682068
v 10.244019 -2.450000 11.317928
v 10.244019 2.850000 11.317928
v 9.944031 -2.450000 11.317928
v 9.944031 2.850000 11.317928
v 10.244019 -2.450001 1.317929
v 10.244019 2.849999 1.317928
v 9.944031 -2.450001 1.317929
v 9.944031 2.849999 1.317928
v -9.755676 -2.450000 11.317928
v -9.755676 2.850000 11.317928
v -10.055664 -2.450000 11.317928
v -10.055664 2.850000 11.317928
v -9.755676 -2.450001 1.317929
v -9.755676 2.849999 1.317928
v -10.055664 -2.450001 1.317929
v -10.055664 2.849999 1.317928
v -10.055664 -2.450001 5.317928
v -10.055664 -2.450001 7.317928
v -9.755676 -2.450001 7.317928
v -9.755676 -2.450001 5.317928
v -9.755676 1.524999 5.317928
v -9.755676 1.524999 7.317928
v -10.055664 1.524999 7.317928
v -10.055664 1.524999 5.317928
v -9.905701 -2.450002 -8.532070
v -9.905701 2.849998 -8.532070
v -9.905701 -2.450002 -8.832069
v -9.905701 2.849998 -8.832069
v 0.094330 -2.450002 -8.532070
v 0.094330 2.849998 -8.532070
v 0.094330 -2.450002 -8.832069
v 0.094330 2.849998 -8.832069
v -5.905701 -2.450002 -8.532070
v -3.905701 -2.450002 -8.532070
v 0.094360 -2.450002 -8.532070
v 0.094360 2.849998 -8.532070
v 0.094360 -2.450002 -8.832073
v 0.094360 2.849998 -8.832073
v 10.094360 -2.450002 -8.532070
v 10.094360 2.849998 -8.532070
v 10.094360 -2.450002 -8.832073
v 10.094360 2.849998 -8.832073
v 6.094360 -2.450002 -8.832073
v 4.094360 -2.450002 -8.832073
v 4.094360 -2.450002 -8.532070
v 6.094360 -2.450002 -8.532070
v 6.094360 1.524998 -8.532070
v 4.094360 1.524998 -8.532070
v 4.094360 1.524998 -8.832073
v 6.094360 1.524998 -8.832073
vn -0.0000 1.0000 -0.0000
vn -0.0000 -1.0000 -0.0000
vn -0.0000 -0.0000 1.0000
vn 1.0000 -0.0000 -0.0000
vn -0.0000 -0.0000 -1.0000
vn -1.0000 -0.0000 -0.0000
vt 0.625000 0.500000
vt 0.875000 0.500000
vt 0.875000 0.750000
vt 0.625000 0.750000
vt 0.125000 0.500000
vt 0.375000 0.500000
vt 0.375000 0.750000
vt 0.125000 0.750000
vt 0.625000 1.000000
vt 0.375000 1.000000
vt 0.625000 0.250000
vt 0.375000 0.250000
vt 0.375000 0.000000
vt 0.625000 0.000000
vt 0.225000 0.500000
vt 0.225000 0.750000
vt 0.275000 0.500000
vt 0.275000 0.750000
vt 0.375000 0.900000
vt 0.562500 0.900000
vt 0.562500 0.850000
vt 0.375000 0.850000
vt 0.375000 0.400000
vt 0.562500 0.400000
vt 0.562500 0.350000
vt 0.375000 0.350000
vt 0.000000 0.000000
s 1
f 8/1/1 4/2/1 2/3/1 6/4/1
f 3/5/2 7/6/2 5/7/2 1/8/2
f 6/4/3 2/9/3 1/10/3 5/7/3
f 7/6/4 8/1/4 6/4/4 5/7/4
f 4/11/5 8/1/5 7/6/5 3/12/5
f 1/13/6 2/14/6 4/11/6 3/12/6
f 11/5/2 18/15/2 19/16/2 9/8/2
f 16/1/1 12/2/1 10/3/1 14/4/1
f 17/17/2 15/6/2 13/7/2 20/18/2
f 18/15/2 17/17/2 20/18/2 19/16/2
f 13/7/3 14/4/3 10/9/3 9/10/3 19/19/3 22/20/3 21/21/3 20/22/3
f 11/12/5 12/11/5 16/1/5 15/6/5 17/23/5 24/24/5 23/25/5 18/26/5
f 18/27/4 23/27/4 22/27/4 19/27/4
f 17/27/6 20/27/6 21/27/6 24/27/6
f 15/6/4 16/1/4 14/4/4 13/7/4
f 9/13/6 10/14/6 12/11/6 11/12/6
f 23/25/2 24/24/2 21/21/2 22/20/2
f 32/1/1 28/2/1 26/3/1 30/4/1
f 27/5/2 31/6/2 29/7/2 25/8/2
f 30/4/3 26/9/3 25/10/3 29/7/3
f 31/6/4 32/1/4 30/4/4 29/7/4
f 28/11/5 32/1/5 31/6/5 27/12/5
f 25/13/6 26/14/6 28/11/6 27/12/6
f 48/1/1 44/2/1 42/3/1 46/4/1
f 43/5/2 47/6/2 45/7/2 41/8/2
f 46/4/4 42/9/4 41/10/4 45/7/4
f 47/6/5 48/1/5 46/4/5 45/7/5
f 44/11/6 48/1/6 47/6/6 43/12/6
f 41/13/3 42/14/3 44/11/3 43/12/3
f 56/1/1 52/2/1 50/3/1 54/4/1
f 51/5/2 55/6/2 53/7/2 49/8/2
f 54/4/4 50/9/4 49/10/4 53/7/4
f 55/6/5 56/1/5 54/4/5 53/7/5
f 52/11/6 56/1/6 55/6/6 51/12/6
f 49/13/3 50/14/3 52/11/3 51/12/3
f 64/1/1 60/2/1 58/3/1 62/4/1
f 59/5/2 63/6/2 61/7/2 57/8/2
f 62/4/4 58/9/4 57/10/4 61/7/4
f 63/6/5 64/1/5 62/4/5 61/7/5
f 60/11/6 64/1/6 63/6/6 59/12/6
f 57/13/3 58/14/3 60/11/3 59/12/3
f 67/5/2 74/15/2 75/16/2 65/8/2
f 72/1/1 68/2/1 66/3/1 70/4/1
f 73/17/2 71/6/2 69/7/2 76/18/2
f 74/15/2 73/17/2 76/18/2 75/16/2
f 69/7/4 70/4/4 66/9/4 65/10/4 75/19/4 78/20/4 77/21/4 76/22/4
f 67/12/6 68/11/6 72/1/6 71/6/6 73/23/6 80/24/6 79/25/6 74/26/6
f 74/27/5 79/27/5 78/27/5 75/27/5
f 73/27/3 76/27/3 77/27/3 80/27/3
f 71/6/5 72/1/5 70/4/5 69/7/5
f 65/13/3 66/14/3 68/11/3 67/12/3
f 79/25/2 80/24/2 77/21/2 78/20/2
f 82/27/2 46/27/2 34/27/2 86/27/2 56/27/2 38/27/2 52/27/2 64/27/2 16/27/2 60/27/2 12/27/2 32/27/2 66/27/2 28/27/2 42/27/2 70/27/2
f 55/27/2 37/27/2 51/27/2 63/27/2 15/27/2 59/27/2 17/17/2 18/15/2 11/5/2 31/27/2 65/27/2 27/27/2 75/16/2 76/18/2 41/27/2 69/27/2 81/27/2 45/27/2 89/16/2 90/18/2 33/27/2 85/27/2
f 93/5/2 100/15/2 101/16/2 91/8/2
f 98/1/1 94/2/1 92/3/1 96/4/1
f 99/17/2 97/6/2 95/7/2 102/18/2
f 100/15/2 99/17/2 102/18/2 101/16/2
f 95/7/3 96/4/3 92/9/3 91/10/3 101/19/3 104/20/3 103/21/3 102/22/3
f 93/12/5 94/11/5 98/1/5 97/6/5 99/23/5 106/24/5 105/25/5 100/26/5
f 100/27/4 105/27/4 104/27/4 101/27/4
f 99/27/6 102/27/6 103/27/6 106/27/6
f 97/6/4 98/1/4 96/4/4 95/7/4
f 91/13/6 92/14/6 94/11/6 93/12/6
f 105/25/2 106/24/2 103/21/2 104/20/2
l 33 35
l 34 36
l 37 39
l 38 40
l 81 83
l 82 84
l 85 87
l 86 88
l 81 89
l 85 90
l 82 86
l 81 82
l 85 86
l 12 28
l 16 32
l 15 31
l 11 27
