# Blender 4.5.1 LTS
# www.blender.org
mtllib Right_Doubles_Room_Left_4_Way_Right.mtl
o Right_Doubles_Room_Left_4_Way_Right
v 0.081909 -2.389345 -8.704918
v 0.081909 2.910655 -8.704918
v 0.081909 -2.389345 -9.004921
v 0.081909 2.910655 -9.004921
v 10.081909 -2.389345 -8.704918
v 10.081909 2.910655 -8.704918
v 10.081909 -2.389345 -9.004921
v 10.081909 2.910655 -9.004921
v 6.081909 -2.389345 -9.004921
v 4.081909 -2.389345 -9.004921
v 4.081909 -2.389345 -8.704918
v 6.081909 -2.389345 -8.704918
v 6.081909 1.585654 -8.704918
v 4.081909 1.585654 -8.704918
v 4.081909 1.585654 -9.004921
v 6.081909 1.585654 -9.004921
v 0.081665 -2.389345 -8.704918
v 0.081665 2.910655 -8.704918
v 0.081665 -2.389345 -9.004921
v 0.081665 2.910655 -9.004921
v 10.081665 -2.389345 -8.704918
v 10.081665 2.910655 -8.704918
v 10.081665 -2.389345 -9.004921
v 10.081665 2.910655 -9.004921
v 0.081970 -2.389344 11.295078
v 0.081970 2.910656 11.295078
v 0.081970 -2.389344 10.995079
v 0.081970 2.910656 10.995079
v 10.081970 -2.389344 11.295078
v 10.081970 2.910656 11.295078
v 10.081970 -2.389344 10.995079
v 10.081970 2.910656 10.995079
v 6.081970 -2.389344 10.995079
v 4.081970 -2.389344 10.995079
v 4.081970 -2.389344 11.295078
v 6.081970 -2.389344 11.295078
v 6.081970 1.585656 11.295078
v 4.081970 1.585656 11.295078
v 4.081970 1.585656 10.995079
v 6.081970 1.585656 10.995079
v -9.918335 -2.389344 11.295078
v -9.918335 2.910656 11.295078
v -9.918335 -2.389344 10.995079
v -9.918335 2.910656 10.995079
v 0.081665 -2.389344 11.295078
v 0.081665 2.910656 11.295078
v 0.081665 -2.389344 10.995079
v 0.081665 2.910656 10.995079
v 10.231689 -2.389345 1.145081
v 10.231689 2.910655 1.145080
v 9.931702 -2.389345 1.145081
v 9.931702 2.910655 1.145080
v 10.231689 -2.389345 -8.854916
v 10.231689 2.910655 -8.854916
v 9.931702 -2.389345 -8.854916
v 9.931702 2.910655 -8.854916
v -9.768005 -2.389344 11.145079
v -9.768005 2.910656 11.145079
v -10.067993 -2.389344 11.145079
v -10.067993 2.910656 11.145079
v -9.768005 -2.389345 1.145081
v -9.768005 2.910655 1.145080
v -10.067993 -2.389345 1.145081
v -10.067993 2.910655 1.145080
v -10.067993 -2.389344 5.145081
v -10.067993 -2.389344 7.145081
v -9.768005 -2.389344 7.145081
v -9.768005 -2.389344 5.145081
v -9.768005 1.585656 5.145081
v -9.768005 1.585656 7.145081
v -10.067993 1.585656 7.145081
v -10.067993 1.585656 5.145081
v 10.231995 -2.389344 11.145079
v 10.231995 2.910656 11.145079
v 9.932007 -2.389344 11.145079
v 9.932007 2.910656 11.145079
v 10.231995 -2.389345 1.145081
v 10.231995 2.910655 1.145080
v 9.932007 -2.389345 1.145081
v 9.932007 2.910655 1.145080
v 9.932007 -2.389344 5.145081
v 9.932007 -2.389344 7.145081
v 10.231995 -2.389344 7.145081
v 10.231995 -2.389344 5.145081
v 10.231995 1.585656 5.145081
v 10.231995 1.585656 7.145081
v 9.932007 1.585656 7.145081
v 9.932007 1.585656 5.145081
v -9.768005 -2.389345 1.145081
v -9.768005 2.910655 1.145080
v -10.067993 -2.389345 1.145081
v -10.067993 2.910655 1.145080
v -9.768005 -2.389345 -8.854916
v -9.768005 2.910655 -8.854916
v -10.067993 -2.389345 -8.854916
v -10.067993 2.910655 -8.854916
v -10.067993 -2.389345 -4.854919
v -10.067993 -2.389345 -2.854919
v -9.768005 -2.389345 -2.854919
v -9.768005 -2.389345 -4.854919
v -9.768005 1.585655 -4.854919
v -9.768005 1.585655 -2.854920
v -10.067993 1.585655 -2.854920
v -10.067993 1.585655 -4.854919
v -9.918030 -2.389345 -8.704918
v -9.918030 2.910655 -8.704918
v -9.918030 -2.389345 -9.004921
v -9.918030 2.910655 -9.004921
v 0.081970 -2.389345 -8.704918
v 0.081970 2.910655 -8.704918
v 0.081970 -2.389345 -9.004921
v 0.081970 2.910655 -9.004921
v -5.918030 -2.389345 -8.704918
v -3.918030 -2.389345 -8.704918
v -9.918335 -2.389345 -8.704918
v -9.918335 2.910655 -8.704918
v -9.918335 -2.389345 -9.004921
v -9.918335 2.910655 -9.004921
v 0.081665 -2.389345 -8.704918
v 0.081665 2.910655 -8.704918
v 0.081665 -2.389345 -9.004921
v 0.081665 2.910655 -9.004921
vn -0.0000 -1.0000 -0.0000
vn -0.0000 1.0000 -0.0000
vn -0.0000 -0.0000 1.0000
vn -0.0000 -0.0000 -1.0000
vn 1.0000 -0.0000 -0.0000
vn -1.0000 -0.0000 -0.0000
vt 0.125000 0.500000
vt 0.225000 0.500000
vt 0.225000 0.750000
vt 0.125000 0.750000
vt 0.625000 0.500000
vt 0.875000 0.500000
vt 0.875000 0.750000
vt 0.625000 0.750000
vt 0.275000 0.500000
vt 0.375000 0.500000
vt 0.375000 0.750000
vt 0.275000 0.750000
vt 0.625000 1.000000
vt 0.375000 1.000000
vt 0.375000 0.900000
vt 0.562500 0.900000
vt 0.562500 0.850000
vt 0.375000 0.850000
vt 0.375000 0.250000
vt 0.625000 0.250000
vt 0.375000 0.400000
vt 0.562500 0.400000
vt 0.562500 0.350000
vt 0.375000 0.350000
vt 0.000000 0.000000
vt 0.375000 0.000000
vt 0.625000 0.000000
s 1
f 3/1/1 10/2/1 11/3/1 1/4/1
f 8/5/2 4/6/2 2/7/2 6/8/2
f 9/9/1 7/10/1 5/11/1 12/12/1
f 10/2/1 9/9/1 12/12/1 11/3/1
f 5/11/3 6/8/3 2/13/3 1/14/3 11/15/3 14/16/3 13/17/3 12/18/3
f 3/19/4 4/20/4 8/5/4 7/10/4 9/21/4 16/22/4 15/23/4 10/24/4
f 10/25/5 15/25/5 14/25/5 11/25/5
f 9/25/6 12/25/6 13/25/6 16/25/6
f 7/10/5 8/5/5 6/8/5 5/11/5
f 1/26/6 2/27/6 4/20/6 3/19/6
f 15/23/1 16/22/1 13/17/1 14/16/1
f 27/1/1 34/2/1 35/3/1 25/4/1
f 32/5/2 28/6/2 26/7/2 30/8/2
f 33/9/1 31/10/1 29/11/1 36/12/1
f 34/2/1 33/9/1 36/12/1 35/3/1
f 29/11/3 30/8/3 26/13/3 25/14/3 35/15/3 38/16/3 37/17/3 36/18/3
f 27/19/4 28/20/4 32/5/4 31/10/4 33/21/4 40/22/4 39/23/4 34/24/4
f 34/25/5 39/25/5 38/25/5 35/25/5
f 33/25/6 36/25/6 37/25/6 40/25/6
f 31/10/5 32/5/5 30/8/5 29/11/5
f 25/26/6 26/27/6 28/20/6 27/19/6
f 39/23/1 40/22/1 37/17/1 38/16/1
f 48/5/2 44/6/2 42/7/2 46/8/2
f 43/1/1 47/10/1 45/11/1 41/4/1
f 46/8/3 42/13/3 41/14/3 45/11/3
f 47/10/5 48/5/5 46/8/5 45/11/5
f 44/20/4 48/5/4 47/10/4 43/19/4
f 41/26/6 42/27/6 44/20/6 43/19/6
f 56/5/2 52/6/2 50/7/2 54/8/2
f 51/1/1 55/10/1 53/11/1 49/4/1
f 54/8/5 50/13/5 49/14/5 53/11/5
f 55/10/4 56/5/4 54/8/4 53/11/4
f 52/20/6 56/5/6 55/10/6 51/19/6
f 49/26/3 50/27/3 52/20/3 51/19/3
f 59/1/1 66/2/1 67/3/1 57/4/1
f 64/5/2 60/6/2 58/7/2 62/8/2
f 65/9/1 63/10/1 61/11/1 68/12/1
f 66/2/1 65/9/1 68/12/1 67/3/1
f 61/11/5 62/8/5 58/13/5 57/14/5 67/15/5 70/16/5 69/17/5 68/18/5
f 59/19/6 60/20/6 64/5/6 63/10/6 65/21/6 72/22/6 71/23/6 66/24/6
f 66/25/4 71/25/4 70/25/4 67/25/4
f 65/25/3 68/25/3 69/25/3 72/25/3
f 63/10/4 64/5/4 62/8/4 61/11/4
f 57/26/3 58/27/3 60/20/3 59/19/3
f 71/23/1 72/22/1 69/17/1 70/16/1
f 75/1/1 82/2/1 83/3/1 73/4/1
f 80/5/2 76/6/2 74/7/2 78/8/2
f 81/9/1 79/10/1 77/11/1 84/12/1
f 82/2/1 81/9/1 84/12/1 83/3/1
f 77/11/5 78/8/5 74/13/5 73/14/5 83/15/5 86/16/5 85/17/5 84/18/5
f 75/19/6 76/20/6 80/5/6 79/10/6 81/21/6 88/22/6 87/23/6 82/24/6
f 82/25/4 87/25/4 86/25/4 83/25/4
f 81/25/3 84/25/3 85/25/3 88/25/3
f 79/10/4 80/5/4 78/8/4 77/11/4
f 73/26/3 74/27/3 76/20/3 75/19/3
f 87/23/1 88/22/1 85/17/1 86/16/1
f 91/1/1 98/2/1 99/3/1 89/4/1
f 96/5/2 92/6/2 90/7/2 94/8/2
f 97/9/1 95/10/1 93/11/1 100/12/1
f 98/2/1 97/9/1 100/12/1 99/3/1
f 93/11/5 94/8/5 90/13/5 89/14/5 99/15/5 102/16/5 101/17/5 100/18/5
f 91/19/6 92/20/6 96/5/6 95/10/6 97/21/6 104/22/6 103/23/6 98/24/6
f 98/25/4 103/25/4 102/25/4 99/25/4
f 97/25/3 100/25/3 101/25/3 104/25/3
f 95/10/4 96/5/4 94/8/4 93/11/4
f 89/26/3 90/27/3 92/20/3 91/19/3
f 103/23/1 104/22/1 101/17/1 102/16/1
f 48/25/1 58/25/1 44/25/1 90/25/1 62/25/1 106/25/1 94/25/1 18/25/1 110/25/1 56/25/1 22/25/1 52/25/1 80/25/1 32/25/1 76/25/1 28/25/1
f 55/25/1 21/25/1 51/25/1 79/10/1 81/9/1 82/2/1 31/25/1 75/25/1 33/9/1 34/2/1 27/1/1 47/25/1 57/25/1 43/25/1 67/3/1 68/12/1 89/25/1 61/25/1 99/3/1 100/12/1 105/25/1 93/25/1 113/3/1 114/12/1 17/25/1 109/25/1
f 122/5/2 118/6/2 116/7/2 120/8/2
f 117/1/1 121/10/1 119/11/1 115/4/1
f 120/8/3 116/13/3 115/14/3 119/11/3
f 121/10/5 122/5/5 120/8/5 119/11/5
f 118/20/4 122/5/4 121/10/4 117/19/4
f 115/26/6 116/27/6 118/20/6 117/19/6
l 17 19
l 18 20
l 21 23
l 22 24
l 105 107
l 106 108
l 109 111
l 110 112
l 105 113
l 109 114
l 106 110
l 105 106
l 109 110
l 22 32
l 18 28
l 17 27
l 21 31
