# Blender 4.5.1 LTS
# www.blender.org
mtllib Right_Doubles_Room_Left_3_Way.mtl
o Right_Doubles_Room_Left_3_Way
v 0.416489 -2.429169 -11.099998
v 0.416489 2.870831 -11.099998
v 0.416489 -2.429169 -11.400002
v 0.416489 2.870831 -11.400002
v 10.416489 -2.429169 -11.099998
v 10.416489 2.870831 -11.099998
v 10.416489 -2.429169 -11.400002
v 10.416489 2.870831 -11.400002
v 0.416794 -2.429168 8.900000
v 0.416794 2.870833 8.900000
v 0.416794 -2.429168 8.600000
v 0.416794 2.870833 8.600000
v 10.416794 -2.429168 8.900000
v 10.416794 2.870833 8.900000
v 10.416794 -2.429168 8.600000
v 10.416794 2.870833 8.600000
v 6.416794 -2.429168 8.600000
v 4.416794 -2.429168 8.600000
v 4.416794 -2.429168 8.900000
v 6.416794 -2.429168 8.900000
v 6.416794 1.545832 8.900000
v 4.416794 1.545832 8.900000
v 4.416794 1.545832 8.600000
v 6.416794 1.545832 8.600000
v -9.583511 -2.429168 8.900000
v -9.583511 2.870833 8.900000
v -9.583511 -2.429168 8.600000
v -9.583511 2.870833 8.600000
v 0.416489 -2.429168 8.900000
v 0.416489 2.870833 8.900000
v 0.416489 -2.429168 8.600000
v 0.416489 2.870833 8.600000
v -9.583511 -2.429169 -11.099998
v -9.583511 2.870831 -11.099998
v -9.583511 -2.429169 -11.400002
v -9.583511 2.870831 -11.400002
v 0.416489 -2.429169 -11.099998
v 0.416489 2.870831 -11.099998
v 0.416489 -2.429169 -11.400002
v 0.416489 2.870831 -11.400002
v 10.566483 -2.429168 -1.250000
v 10.566483 2.870832 -1.250000
v 10.266495 -2.429168 -1.250000
v 10.266495 2.870832 -1.250000
v 10.566483 -2.429169 -11.249996
v 10.566483 2.870831 -11.249996
v 10.266495 -2.429169 -11.249996
v 10.266495 2.870831 -11.249996
v -9.433212 -2.429168 8.750000
v -9.433212 2.870833 8.750000
v -9.733200 -2.429168 8.750000
v -9.733200 2.870833 8.750000
v -9.433212 -2.429168 -1.250000
v -9.433212 2.870832 -1.250000
v -9.733200 -2.429168 -1.250000
v -9.733200 2.870832 -1.250000
v -9.733200 -2.429168 2.750000
v -9.733200 -2.429168 4.750000
v -9.433212 -2.429168 4.750000
v -9.433212 -2.429168 2.750000
v -9.433212 1.545832 2.750000
v -9.433212 1.545832 4.750000
v -9.733200 1.545832 4.750000
v -9.733200 1.545832 2.750000
v 10.566788 -2.429168 8.750000
v 10.566788 2.870833 8.750000
v 10.266800 -2.429168 8.750000
v 10.266800 2.870833 8.750000
v 10.566788 -2.429168 -1.250000
v 10.566788 2.870832 -1.250000
v 10.266800 -2.429168 -1.250000
v 10.266800 2.870832 -1.250000
v 10.266800 -2.429168 2.750000
v 10.266800 -2.429168 4.750000
v 10.566788 -2.429168 4.750000
v 10.566788 -2.429168 2.750000
v 10.566788 1.545832 2.750000
v 10.566788 1.545832 4.750000
v 10.266800 1.545832 4.750000
v 10.266800 1.545832 2.750000
v -9.433212 -2.429168 -1.250000
v -9.433212 2.870832 -1.250000
v -9.733200 -2.429168 -1.250000
v -9.733200 2.870832 -1.250000
v -9.433212 -2.429169 -11.249996
v -9.433212 2.870831 -11.249996
v -9.733200 -2.429169 -11.249996
v -9.733200 2.870831 -11.249996
v -9.733200 -2.429169 -7.250000
v -9.733200 -2.429169 -5.250000
v -9.433212 -2.429169 -5.250000
v -9.433212 -2.429169 -7.250000
v -9.433212 1.545831 -7.250000
v -9.433212 1.545831 -5.250000
v -9.733200 1.545831 -5.250000
v -9.733200 1.545831 -7.250000
vn -0.0000 1.0000 -0.0000
vn -0.0000 -1.0000 -0.0000
vn -0.0000 -0.0000 1.0000
vn 1.0000 -0.0000 -0.0000
vn -0.0000 -0.0000 -1.0000
vn -1.0000 -0.0000 -0.0000
vt 0.625000 0.500000
vt 0.875000 0.500000
vt 0.875000 0.750000
vt 0.625000 0.750000
vt 0.125000 0.500000
vt 0.375000 0.500000
vt 0.375000 0.750000
vt 0.125000 0.750000
vt 0.625000 1.000000
vt 0.375000 1.000000
vt 0.625000 0.250000
vt 0.375000 0.250000
vt 0.375000 0.000000
vt 0.625000 0.000000
vt 0.225000 0.500000
vt 0.225000 0.750000
vt 0.275000 0.500000
vt 0.275000 0.750000
vt 0.375000 0.900000
vt 0.562500 0.900000
vt 0.562500 0.850000
vt 0.375000 0.850000
vt 0.375000 0.400000
vt 0.562500 0.400000
vt 0.562500 0.350000
vt 0.375000 0.350000
vt 0.000000 0.000000
s 1
f 8/1/1 4/2/1 2/3/1 6/4/1
f 3/5/2 7/6/2 5/7/2 1/8/2
f 6/4/3 2/9/3 1/10/3 5/7/3
f 7/6/4 8/1/4 6/4/4 5/7/4
f 4/11/5 8/1/5 7/6/5 3/12/5
f 1/13/6 2/14/6 4/11/6 3/12/6
f 11/5/2 18/15/2 19/16/2 9/8/2
f 16/1/1 12/2/1 10/3/1 14/4/1
f 17/17/2 15/6/2 13/7/2 20/18/2
f 18/15/2 17/17/2 20/18/2 19/16/2
f 13/7/3 14/4/3 10/9/3 9/10/3 19/19/3 22/20/3 21/21/3 20/22/3
f 11/12/5 12/11/5 16/1/5 15/6/5 17/23/5 24/24/5 23/25/5 18/26/5
f 18/27/4 23/27/4 22/27/4 19/27/4
f 17/27/6 20/27/6 21/27/6 24/27/6
f 15/6/4 16/1/4 14/4/4 13/7/4
f 9/13/6 10/14/6 12/11/6 11/12/6
f 23/25/2 24/24/2 21/21/2 22/20/2
f 32/1/1 28/2/1 26/3/1 30/4/1
f 27/5/2 31/6/2 29/7/2 25/8/2
f 30/4/3 26/9/3 25/10/3 29/7/3
f 31/6/4 32/1/4 30/4/4 29/7/4
f 28/11/5 32/1/5 31/6/5 27/12/5
f 25/13/6 26/14/6 28/11/6 27/12/6
f 40/1/1 36/2/1 34/3/1 38/4/1
f 35/5/2 39/6/2 37/7/2 33/8/2
f 38/4/3 34/9/3 33/10/3 37/7/3
f 39/6/4 40/1/4 38/4/4 37/7/4
f 36/11/5 40/1/5 39/6/5 35/12/5
f 33/13/6 34/14/6 36/11/6 35/12/6
f 48/1/1 44/2/1 42/3/1 46/4/1
f 43/5/2 47/6/2 45/7/2 41/8/2
f 46/4/4 42/9/4 41/10/4 45/7/4
f 47/6/5 48/1/5 46/4/5 45/7/5
f 44/11/6 48/1/6 47/6/6 43/12/6
f 41/13/3 42/14/3 44/11/3 43/12/3
f 51/5/2 58/15/2 59/16/2 49/8/2
f 56/1/1 52/2/1 50/3/1 54/4/1
f 57/17/2 55/6/2 53/7/2 60/18/2
f 58/15/2 57/17/2 60/18/2 59/16/2
f 53/7/4 54/4/4 50/9/4 49/10/4 59/19/4 62/20/4 61/21/4 60/22/4
f 51/12/6 52/11/6 56/1/6 55/6/6 57/23/6 64/24/6 63/25/6 58/26/6
f 58/27/5 63/27/5 62/27/5 59/27/5
f 57/27/3 60/27/3 61/27/3 64/27/3
f 55/6/5 56/1/5 54/4/5 53/7/5
f 49/13/3 50/14/3 52/11/3 51/12/3
f 63/25/2 64/24/2 61/21/2 62/20/2
f 67/5/2 74/15/2 75/16/2 65/8/2
f 72/1/1 68/2/1 66/3/1 70/4/1
f 73/17/2 71/6/2 69/7/2 76/18/2
f 74/15/2 73/17/2 76/18/2 75/16/2
f 69/7/4 70/4/4 66/9/4 65/10/4 75/19/4 78/20/4 77/21/4 76/22/4
f 67/12/6 68/11/6 72/1/6 71/6/6 73/23/6 80/24/6 79/25/6 74/26/6
f 74/27/5 79/27/5 78/27/5 75/27/5
f 73/27/3 76/27/3 77/27/3 80/27/3
f 71/6/5 72/1/5 70/4/5 69/7/5
f 65/13/3 66/14/3 68/11/3 67/12/3
f 79/25/2 80/24/2 77/21/2 78/20/2
f 83/5/2 90/15/2 91/16/2 81/8/2
f 88/1/1 84/2/1 82/3/1 86/4/1
f 89/17/2 87/6/2 85/7/2 92/18/2
f 90/15/2 89/17/2 92/18/2 91/16/2
f 85/7/4 86/4/4 82/9/4 81/10/4 91/19/4 94/20/4 93/21/4 92/22/4
f 83/12/6 84/11/6 88/1/6 87/6/6 89/23/6 96/24/6 95/25/6 90/26/6
f 90/27/5 95/27/5 94/27/5 91/27/5
f 89/27/3 92/27/3 93/27/3 96/27/3
f 87/6/5 88/1/5 86/4/5 85/7/5
f 81/13/3 82/14/3 84/11/3 83/12/3
f 95/25/2 96/24/2 93/21/2 94/20/2
f 32/27/2 50/27/2 28/27/2 54/27/2 82/27/2 34/27/2 86/27/2 2/27/2 38/27/2 48/27/2 6/27/2 72/27/2 44/27/2 16/27/2 68/27/2 12/27/2
f 37/27/2 47/27/2 5/27/2 43/27/2 71/6/2 73/17/2 74/15/2 15/27/2 67/27/2 17/17/2 18/15/2 11/5/2 31/27/2 49/27/2 27/27/2 59/16/2 60/18/2 81/27/2 53/27/2 91/16/2 92/18/2 33/27/2 85/27/2 1/27/2
l 6 16
l 2 12
l 1 11
l 5 15
