# Blender 4.5.1 LTS
# www.blender.org
mtllib Right_Doubles_Room_Right_2_Way_Right.mtl
o Right_Doubles_Room_Right_2_Way_Right
v -1.818176 -2.469320 -10.304545
v -1.818176 2.830680 -10.304545
v -1.818176 -2.469320 -10.604545
v -1.818176 2.830680 -10.604545
v 8.181824 -2.469320 -10.304545
v 8.181824 2.830680 -10.304545
v 8.181824 -2.469320 -10.604545
v 8.181824 2.830680 -10.604545
v 4.181824 -2.469320 -10.604545
v 2.181824 -2.469320 -10.604545
v 2.181824 -2.469320 -10.304545
v 4.181824 -2.469320 -10.304545
v 4.181824 1.505680 -10.304545
v 2.181824 1.505680 -10.304545
v 2.181824 1.505680 -10.604545
v 4.181824 1.505680 -10.604545
v -1.818207 -2.469318 9.695455
v -1.818207 2.830682 9.695455
v -1.818207 -2.469318 9.395455
v -1.818207 2.830682 9.395455
v 8.181793 -2.469318 9.695455
v 8.181793 2.830682 9.695455
v 8.181793 -2.469318 9.395455
v 8.181793 2.830682 9.395455
v 4.181793 -2.469318 9.395455
v 2.181793 -2.469318 9.395455
v 2.181793 -2.469318 9.695455
v 4.181793 -2.469318 9.695455
v 4.181793 1.505682 9.695455
v 2.181793 1.505682 9.695455
v 2.181793 1.505682 9.395455
v 4.181793 1.505682 9.395455
v -11.818542 -2.469318 9.695455
v -11.818542 2.830682 9.695455
v -11.818542 -2.469318 9.395455
v -11.818542 2.830682 9.395455
v -1.818512 -2.469318 9.695455
v -1.818512 2.830682 9.695455
v -1.818512 -2.469318 9.395455
v -1.818512 2.830682 9.395455
v -11.818542 -2.469320 -10.304543
v -11.818542 2.830680 -10.304543
v -11.818542 -2.469320 -10.604543
v -11.818542 2.830680 -10.604543
v -1.818512 -2.469320 -10.304543
v -1.818512 2.830680 -10.304543
v -1.818512 -2.469320 -10.604543
v -1.818512 2.830680 -10.604543
v -11.668518 -2.469319 -0.454545
v -11.668518 2.830681 -0.454545
v -11.968506 -2.469319 -0.454545
v -11.968506 2.830681 -0.454545
v -11.668518 -2.469320 -10.454543
v -11.668518 2.830680 -10.454543
v -11.968506 -2.469320 -10.454543
v -11.968506 2.830680 -10.454543
v 8.331482 -2.469319 -0.454545
v 8.331482 2.830681 -0.454545
v 8.031494 -2.469319 -0.454545
v 8.031494 2.830681 -0.454545
v 8.331482 -2.469320 -10.454543
v 8.331482 2.830680 -10.454543
v 8.031494 -2.469320 -10.454543
v 8.031494 2.830680 -10.454543
v 8.331787 -2.469318 9.545455
v 8.331787 2.830682 9.545455
v 8.031799 -2.469318 9.545455
v 8.031799 2.830682 9.545455
v 8.331787 -2.469319 -0.454544
v 8.331787 2.830681 -0.454544
v 8.031799 -2.469319 -0.454544
v 8.031799 2.830681 -0.454544
v 8.031799 -2.469319 3.545456
v 8.031799 -2.469319 5.545455
v 8.331787 -2.469319 5.545455
v 8.331787 -2.469319 3.545456
v 8.331787 1.505681 3.545456
v 8.331787 1.505681 5.545455
v 8.031799 1.505681 5.545455
v 8.031799 1.505681 3.545456
v -11.668518 -2.469318 9.545455
v -11.668518 2.830682 9.545455
v -11.968506 -2.469318 9.545455
v -11.968506 2.830682 9.545455
v -11.668518 -2.469319 -0.454544
v -11.668518 2.830681 -0.454544
v -11.968506 -2.469319 -0.454544
v -11.968506 2.830681 -0.454544
vn -0.0000 -1.0000 -0.0000
vn -0.0000 1.0000 -0.0000
vn -0.0000 -0.0000 1.0000
vn -0.0000 -0.0000 -1.0000
vn 1.0000 -0.0000 -0.0000
vn -1.0000 -0.0000 -0.0000
vt 0.125000 0.500000
vt 0.225000 0.500000
vt 0.225000 0.750000
vt 0.125000 0.750000
vt 0.625000 0.500000
vt 0.875000 0.500000
vt 0.875000 0.750000
vt 0.625000 0.750000
vt 0.275000 0.500000
vt 0.375000 0.500000
vt 0.375000 0.750000
vt 0.275000 0.750000
vt 0.625000 1.000000
vt 0.375000 1.000000
vt 0.375000 0.900000
vt 0.562500 0.900000
vt 0.562500 0.850000
vt 0.375000 0.850000
vt 0.375000 0.250000
vt 0.625000 0.250000
vt 0.375000 0.400000
vt 0.562500 0.400000
vt 0.562500 0.350000
vt 0.375000 0.350000
vt 0.000000 0.000000
vt 0.375000 0.000000
vt 0.625000 0.000000
s 1
f 3/1/1 10/2/1 11/3/1 1/4/1
f 8/5/2 4/6/2 2/7/2 6/8/2
f 9/9/1 7/10/1 5/11/1 12/12/1
f 10/2/1 9/9/1 12/12/1 11/3/1
f 5/11/3 6/8/3 2/13/3 1/14/3 11/15/3 14/16/3 13/17/3 12/18/3
f 3/19/4 4/20/4 8/5/4 7/10/4 9/21/4 16/22/4 15/23/4 10/24/4
f 10/25/5 15/25/5 14/25/5 11/25/5
f 9/25/6 12/25/6 13/25/6 16/25/6
f 7/10/5 8/5/5 6/8/5 5/11/5
f 1/26/6 2/27/6 4/20/6 3/19/6
f 15/23/1 16/22/1 13/17/1 14/16/1
f 19/1/1 26/2/1 27/3/1 17/4/1
f 24/5/2 20/6/2 18/7/2 22/8/2
f 25/9/1 23/10/1 21/11/1 28/12/1
f 26/2/1 25/9/1 28/12/1 27/3/1
f 21/11/3 22/8/3 18/13/3 17/14/3 27/15/3 30/16/3 29/17/3 28/18/3
f 19/19/4 20/20/4 24/5/4 23/10/4 25/21/4 32/22/4 31/23/4 26/24/4
f 26/25/5 31/25/5 30/25/5 27/25/5
f 25/25/6 28/25/6 29/25/6 32/25/6
f 23/10/5 24/5/5 22/8/5 21/11/5
f 17/26/6 18/27/6 20/20/6 19/19/6
f 31/23/1 32/22/1 29/17/1 30/16/1
f 40/5/2 36/6/2 34/7/2 38/8/2
f 35/1/1 39/10/1 37/11/1 33/4/1
f 38/8/3 34/13/3 33/14/3 37/11/3
f 39/10/5 40/5/5 38/8/5 37/11/5
f 36/20/4 40/5/4 39/10/4 35/19/4
f 33/26/6 34/27/6 36/20/6 35/19/6
f 48/5/2 44/6/2 42/7/2 46/8/2
f 43/1/1 47/10/1 45/11/1 41/4/1
f 46/8/3 42/13/3 41/14/3 45/11/3
f 47/10/5 48/5/5 46/8/5 45/11/5
f 44/20/4 48/5/4 47/10/4 43/19/4
f 41/26/6 42/27/6 44/20/6 43/19/6
f 56/5/2 52/6/2 50/7/2 54/8/2
f 51/1/1 55/10/1 53/11/1 49/4/1
f 54/8/5 50/13/5 49/14/5 53/11/5
f 55/10/4 56/5/4 54/8/4 53/11/4
f 52/20/6 56/5/6 55/10/6 51/19/6
f 49/26/3 50/27/3 52/20/3 51/19/3
f 64/5/2 60/6/2 58/7/2 62/8/2
f 59/1/1 63/10/1 61/11/1 57/4/1
f 62/8/5 58/13/5 57/14/5 61/11/5
f 63/10/4 64/5/4 62/8/4 61/11/4
f 60/20/6 64/5/6 63/10/6 59/19/6
f 57/26/3 58/27/3 60/20/3 59/19/3
f 67/1/1 74/2/1 75/3/1 65/4/1
f 72/5/2 68/6/2 66/7/2 70/8/2
f 73/9/1 71/10/1 69/11/1 76/12/1
f 74/2/1 73/9/1 76/12/1 75/3/1
f 69/11/5 70/8/5 66/13/5 65/14/5 75/15/5 78/16/5 77/17/5 76/18/5
f 67/19/6 68/20/6 72/5/6 71/10/6 73/21/6 80/22/6 79/23/6 74/24/6
f 74/25/4 79/25/4 78/25/4 75/25/4
f 73/25/3 76/25/3 77/25/3 80/25/3
f 71/10/4 72/5/4 70/8/4 69/11/4
f 65/26/3 66/27/3 68/20/3 67/19/3
f 79/23/1 80/22/1 77/17/1 78/16/1
f 88/5/2 84/6/2 82/7/2 86/8/2
f 83/1/1 87/10/1 85/11/1 81/4/1
f 86/8/5 82/13/5 81/14/5 85/11/5
f 87/10/4 88/5/4 86/8/4 85/11/4
f 84/20/6 88/5/6 87/10/6 83/19/6
f 81/26/3 82/27/3 84/20/3 83/19/3
f 24/25/1 68/25/1 20/25/1 40/25/1 82/25/1 36/25/1 86/25/1 50/25/1 42/25/1 54/25/1 46/25/1 2/25/1 64/25/1 6/25/1 60/25/1 72/25/1
f 41/25/1 53/25/1 45/25/1 1/4/1 11/3/1 12/12/1 63/25/1 5/25/1 59/25/1 71/10/1 73/9/1 74/2/1 23/25/1 67/25/1 25/9/1 26/2/1 19/1/1 39/25/1 81/25/1 35/25/1 85/25/1 49/25/1
l 6 24
l 2 20
l 1 19
l 5 23
