# Blender 4.5.1 LTS
# www.blender.org
mtllib Right_Doubles_Room_Right_3_Way.mtl
o Right_Doubles_Room_Right_3_Way
v 8.900055 -2.429168 -1.249997
v 8.900055 2.870832 -1.249997
v 8.600067 -2.429168 -1.249997
v 8.600067 2.870832 -1.249997
v 8.900055 -2.429169 -11.249997
v 8.900055 2.870831 -11.249997
v 8.600067 -2.429169 -11.249997
v 8.600067 2.870831 -11.249997
v 8.600067 -2.429168 -7.249997
v 8.600067 -2.429168 -5.249997
v 8.900055 -2.429168 -5.249997
v 8.900055 -2.429168 -7.249997
v 8.900055 1.545832 -7.249997
v 8.900055 1.545832 -5.249997
v 8.600067 1.545832 -5.249997
v 8.600067 1.545832 -7.249997
v -1.249924 -2.429167 8.900001
v -1.249924 2.870833 8.900001
v -1.249924 -2.429167 8.600000
v -1.249924 2.870833 8.600000
v 8.750076 -2.429167 8.900001
v 8.750076 2.870833 8.900001
v 8.750076 -2.429167 8.600000
v 8.750076 2.870833 8.600000
v 4.750076 -2.429167 8.600000
v 2.750076 -2.429167 8.600000
v 2.750076 -2.429167 8.900001
v 4.750076 -2.429167 8.900001
v 4.750076 1.545833 8.900001
v 2.750076 1.545833 8.900001
v 2.750076 1.545833 8.600000
v 4.750076 1.545833 8.600000
v -11.250229 -2.429167 8.900002
v -11.250229 2.870833 8.900002
v -11.250229 -2.429167 8.600000
v -11.250229 2.870833 8.600000
v -1.250229 -2.429167 8.900001
v -1.250229 2.870833 8.900001
v -1.250229 -2.429167 8.600000
v -1.250229 2.870833 8.600000
v -11.250229 -2.429169 -11.099998
v -11.250229 2.870831 -11.099998
v -11.250229 -2.429169 -11.399999
v -11.250229 2.870831 -11.399999
v -1.250229 -2.429169 -11.099998
v -1.250229 2.870831 -11.099998
v -1.250229 -2.429169 -11.399999
v -1.250229 2.870831 -11.399999
v -1.250244 -2.429169 -11.099998
v -1.250244 2.870831 -11.099998
v -1.250244 -2.429169 -11.399999
v -1.250244 2.870831 -11.399999
v 8.749756 -2.429169 -11.099998
v 8.749756 2.870831 -11.099998
v 8.749756 -2.429169 -11.399999
v 8.749756 2.870831 -11.399999
v -11.100235 -2.429168 -1.249999
v -11.100235 2.870832 -1.249999
v -11.400238 -2.429168 -1.249999
v -11.400238 2.870832 -1.249999
v -11.100235 -2.429169 -11.249999
v -11.100235 2.870831 -11.249999
v -11.400238 -2.429169 -11.249999
v -11.400238 2.870831 -11.249999
v 8.900085 -2.429167 8.750001
v 8.900085 2.870833 8.750001
v 8.600082 -2.429167 8.750001
v 8.600082 2.870833 8.750001
v 8.900085 -2.429168 -1.249999
v 8.900085 2.870832 -1.249999
v 8.600082 -2.429168 -1.249999
v 8.600082 2.870832 -1.249999
v 8.600082 -2.429168 2.750001
v 8.600082 -2.429167 4.750001
v 8.900085 -2.429167 4.750001
v 8.900085 -2.429168 2.750001
v 8.900085 1.545832 2.750001
v 8.900085 1.545833 4.750001
v 8.600082 1.545833 4.750001
v 8.600082 1.545832 2.750001
v -11.099930 -2.429167 8.750002
v -11.099930 2.870833 8.750002
v -11.399933 -2.429167 8.750002
v -11.399933 2.870833 8.750002
v -11.099930 -2.429168 -1.249999
v -11.099930 2.870832 -1.249999
v -11.399933 -2.429168 -1.249999
v -11.399933 2.870832 -1.249999
v -11.399933 -2.429168 2.750001
v -11.399933 -2.429167 4.750002
v -11.099930 -2.429167 4.750002
v -11.099930 -2.429168 2.750001
v -11.099930 1.545832 2.750001
v -11.099930 1.545833 4.750002
v -11.399933 1.545833 4.750002
v -11.399933 1.545832 2.750001
vn -0.0000 -1.0000 -0.0000
vn -0.0000 1.0000 -0.0000
vn 1.0000 -0.0000 -0.0000
vn -1.0000 -0.0000 -0.0000
vn -0.0000 -0.0000 -1.0000
vn -0.0000 -0.0000 1.0000
vt 0.125000 0.500000
vt 0.225000 0.500000
vt 0.225000 0.750000
vt 0.125000 0.750000
vt 0.625000 0.500000
vt 0.875000 0.500000
vt 0.875000 0.750000
vt 0.625000 0.750000
vt 0.275000 0.500000
vt 0.375000 0.500000
vt 0.375000 0.750000
vt 0.275000 0.750000
vt 0.625000 1.000000
vt 0.375000 1.000000
vt 0.375000 0.900000
vt 0.562500 0.900000
vt 0.562500 0.850000
vt 0.375000 0.850000
vt 0.375000 0.250000
vt 0.625000 0.250000
vt 0.375000 0.400000
vt 0.562500 0.400000
vt 0.562500 0.350000
vt 0.375000 0.350000
vt 0.000000 0.000000
vt 0.375000 0.000000
vt 0.625000 0.000000
s 1
f 3/1/1 10/2/1 11/3/1 1/4/1
f 8/5/2 4/6/2 2/7/2 6/8/2
f 9/9/1 7/10/1 5/11/1 12/12/1
f 10/2/1 9/9/1 12/12/1 11/3/1
f 5/11/3 6/8/3 2/13/3 1/14/3 11/15/3 14/16/3 13/17/3 12/18/3
f 3/19/4 4/20/4 8/5/4 7/10/4 9/21/4 16/22/4 15/23/4 10/24/4
f 10/25/5 15/25/5 14/25/5 11/25/5
f 9/25/6 12/25/6 13/25/6 16/25/6
f 7/10/5 8/5/5 6/8/5 5/11/5
f 1/26/6 2/27/6 4/20/6 3/19/6
f 15/23/1 16/22/1 13/17/1 14/16/1
f 19/1/1 26/2/1 27/3/1 17/4/1
f 24/5/2 20/6/2 18/7/2 22/8/2
f 25/9/1 23/10/1 21/11/1 28/12/1
f 26/2/1 25/9/1 28/12/1 27/3/1
f 21/11/6 22/8/6 18/13/6 17/14/6 27/15/6 30/16/6 29/17/6 28/18/6
f 19/19/5 20/20/5 24/5/5 23/10/5 25/21/5 32/22/5 31/23/5 26/24/5
f 26/25/3 31/25/3 30/25/3 27/25/3
f 25/25/4 28/25/4 29/25/4 32/25/4
f 23/10/3 24/5/3 22/8/3 21/11/3
f 17/26/4 18/27/4 20/20/4 19/19/4
f 31/23/1 32/22/1 29/17/1 30/16/1
f 40/5/2 36/6/2 34/7/2 38/8/2
f 35/1/1 39/10/1 37/11/1 33/4/1
f 38/8/6 34/13/6 33/14/6 37/11/6
f 39/10/3 40/5/3 38/8/3 37/11/3
f 36/20/5 40/5/5 39/10/5 35/19/5
f 33/26/4 34/27/4 36/20/4 35/19/4
f 48/5/2 44/6/2 42/7/2 46/8/2
f 43/1/1 47/10/1 45/11/1 41/4/1
f 46/8/6 42/13/6 41/14/6 45/11/6
f 47/10/3 48/5/3 46/8/3 45/11/3
f 44/20/5 48/5/5 47/10/5 43/19/5
f 41/26/4 42/27/4 44/20/4 43/19/4
f 56/5/2 52/6/2 50/7/2 54/8/2
f 51/1/1 55/10/1 53/11/1 49/4/1
f 54/8/6 50/13/6 49/14/6 53/11/6
f 55/10/3 56/5/3 54/8/3 53/11/3
f 52/20/5 56/5/5 55/10/5 51/19/5
f 49/26/4 50/27/4 52/20/4 51/19/4
f 64/5/2 60/6/2 58/7/2 62/8/2
f 59/1/1 63/10/1 61/11/1 57/4/1
f 62/8/3 58/13/3 57/14/3 61/11/3
f 63/10/5 64/5/5 62/8/5 61/11/5
f 60/20/4 64/5/4 63/10/4 59/19/4
f 57/26/6 58/27/6 60/20/6 59/19/6
f 67/1/1 74/2/1 75/3/1 65/4/1
f 72/5/2 68/6/2 66/7/2 70/8/2
f 73/9/1 71/10/1 69/11/1 76/12/1
f 74/2/1 73/9/1 76/12/1 75/3/1
f 69/11/3 70/8/3 66/13/3 65/14/3 75/15/3 78/16/3 77/17/3 76/18/3
f 67/19/4 68/20/4 72/5/4 71/10/4 73/21/4 80/22/4 79/23/4 74/24/4
f 74/25/5 79/25/5 78/25/5 75/25/5
f 73/25/6 76/25/6 77/25/6 80/25/6
f 71/10/5 72/5/5 70/8/5 69/11/5
f 65/26/6 66/27/6 68/20/6 67/19/6
f 79/23/1 80/22/1 77/17/1 78/16/1
f 83/1/1 90/2/1 91/3/1 81/4/1
f 88/5/2 84/6/2 82/7/2 86/8/2
f 89/9/1 87/10/1 85/11/1 92/12/1
f 90/2/1 89/9/1 92/12/1 91/3/1
f 85/11/3 86/8/3 82/13/3 81/14/3 91/15/3 94/16/3 93/17/3 92/18/3
f 83/19/4 84/20/4 88/5/4 87/10/4 89/21/4 96/22/4 95/23/4 90/24/4
f 90/25/5 95/25/5 94/25/5 91/25/5
f 89/25/6 92/25/6 93/25/6 96/25/6
f 87/10/5 88/5/5 86/8/5 85/11/5
f 81/26/6 82/27/6 84/20/6 83/19/6
f 95/23/1 96/22/1 93/17/1 94/16/1
f 41/25/1 61/25/1 49/25/1 45/25/1 7/25/1 53/25/1 9/9/1 10/2/1 3/1/1 71/10/1 73/9/1 74/2/1 23/25/1 67/25/1 25/9/1 26/2/1 19/1/1 39/25/1 81/25/1 35/25/1 91/3/1 92/12/1 57/25/1 85/25/1
f 72/25/1 24/25/1 68/25/1 20/25/1 40/25/1 82/25/1 36/25/1 58/25/1 86/25/1 42/25/1 62/25/1 46/25/1 8/5/1 4/6/1
l 7 19
l 3 23
l 4 20
l 8 24
