# Blender 4.5.1 LTS
# www.blender.org
mtllib Small_room_2_doors.mtl
o Small_room_2_doors
v -4.850265 -2.727027 5.000006
v -4.850265 2.572973 5.000006
v -5.150265 -2.727027 5.000006
v -5.150265 2.572973 5.000006
v -4.850277 -2.727028 -4.999994
v -4.850277 2.572972 -4.999994
v -5.150278 -2.727028 -4.999994
v -5.150278 2.572972 -4.999994
v -4.999966 -2.727027 5.150001
v -4.999966 2.572973 5.150001
v -4.999967 -2.727027 4.850001
v -4.999967 2.572973 4.850001
v 5.000033 -2.727027 5.150001
v 5.000033 2.572973 5.150001
v 5.000032 -2.727027 4.850000
v 5.000032 2.572973 4.850000
v 3.000033 -2.727027 4.850001
v 1.000033 -2.727027 4.850000
v -0.999967 -2.727027 4.850001
v -2.999967 -2.727027 4.850001
v -2.999967 2.572973 4.850001
v -0.999967 2.572973 4.850001
v 1.000033 2.572973 4.850000
v 3.000033 2.572973 4.850001
v -2.999967 -2.727027 5.150001
v -0.999967 -2.727027 5.150001
v 1.000033 -2.727027 5.150001
v 3.000033 -2.727027 5.150000
v 3.000033 2.572973 5.150000
v 1.000033 2.572973 5.150001
v -0.999967 2.572973 5.150001
v -2.999967 2.572973 5.150001
v -4.999966 -1.402027 5.150001
v -4.999966 -0.077027 5.150001
v -4.999966 1.247973 5.150001
v -4.999967 1.247973 4.850001
v -4.999967 -0.077027 4.850001
v -4.999967 -1.402027 4.850001
v 5.000032 1.247973 4.850000
v 5.000032 -0.077027 4.850000
v 5.000032 -1.402027 4.850000
v 5.000033 1.247973 5.150001
v 5.000033 -0.077027 5.150001
v 5.000033 -1.402027 5.150001
v 3.000033 1.247973 5.150000
v 3.000033 -0.077027 5.150000
v 3.000033 -1.402027 5.150000
v 1.000033 1.247973 5.150001
v 1.000033 -0.077027 5.150001
v 1.000033 -1.402027 5.150001
v -0.999967 1.247973 5.150001
v -0.999967 -0.077027 5.150001
v -0.999967 -1.402027 5.150001
v -2.999967 1.247973 5.150001
v -2.999967 -0.077027 5.150001
v -2.999967 -1.402027 5.150001
v -2.999967 1.247973 4.850001
v -2.999967 -0.077027 4.850001
v -2.999967 -1.402027 4.850001
v -0.999967 1.247973 4.850001
v -0.999967 -0.077027 4.850001
v -0.999967 -1.402027 4.850001
v 1.000033 1.247973 4.850000
v 1.000033 -0.077027 4.850000
v 1.000033 -1.402027 4.850000
v 3.000033 1.247973 4.850001
v 3.000033 -0.077027 4.850001
v 3.000033 -1.402027 4.850001
v -4.942994 -2.727027 4.943027
v 4.943060 -2.727027 4.943027
v -4.942994 -2.727028 -4.943026
v 4.943060 -2.727028 -4.943027
v 5.149734 -2.727027 5.000005
v 5.149734 2.572973 5.000005
v 4.849735 -2.727027 5.000005
v 4.849735 2.572973 5.000005
v 5.149723 -2.727028 -4.999994
v 5.149723 2.572972 -4.999994
v 4.849723 -2.727028 -4.999994
v 4.849723 2.572972 -4.999994
v -4.999966 -2.727028 -4.849999
v -4.999966 2.572972 -4.849999
v -4.999967 -2.727028 -5.150000
v -4.999967 2.572972 -5.150000
v 5.000033 -2.727028 -4.849999
v 5.000033 2.572972 -4.849999
v 5.000032 -2.727028 -5.150000
v 5.000032 2.572972 -5.150000
v 3.000033 -2.727028 -5.149999
v 1.000033 -2.727028 -5.150000
v -0.999967 -2.727028 -5.149999
v -2.999967 -2.727028 -5.149999
v -2.999967 2.572972 -5.149999
v -0.999967 2.572972 -5.149999
v 1.000033 2.572972 -5.150000
v 3.000033 2.572972 -5.149999
v -2.999967 -2.727028 -4.849999
v -0.999967 -2.727028 -4.849999
v 1.000033 -2.727028 -4.849999
v 3.000033 -2.727028 -4.849999
v 3.000033 2.572972 -4.849999
v 1.000033 2.572972 -4.849999
v -0.999967 2.572972 -4.849999
v -2.999967 2.572972 -4.849999
v -4.999966 -1.402028 -4.849999
v -4.999966 -0.077028 -4.849999
v -4.999966 1.247972 -4.849999
v -4.999967 1.247972 -5.150000
v -4.999967 -0.077028 -5.150000
v -4.999967 -1.402028 -5.150000
v 5.000032 1.247972 -5.150000
v 5.000032 -0.077028 -5.150000
v 5.000032 -1.402028 -5.150000
v 5.000033 1.247972 -4.849999
v 5.000033 -0.077028 -4.849999
v 5.000033 -1.402028 -4.849999
v 3.000033 1.247972 -4.849999
v 3.000033 -0.077028 -4.849999
v 3.000033 -1.402028 -4.849999
v 1.000033 1.247972 -4.849999
v 1.000033 -0.077028 -4.849999
v 1.000033 -1.402028 -4.849999
v -0.999967 1.247972 -4.849999
v -0.999967 -0.077028 -4.849999
v -0.999967 -1.402028 -4.849999
v -2.999967 1.247972 -4.849999
v -2.999967 -0.077028 -4.849999
v -2.999967 -1.402028 -4.849999
v -2.999967 1.247972 -5.149999
v -2.999967 -0.077028 -5.149999
v -2.999967 -1.402028 -5.149999
v -0.999967 1.247972 -5.149999
v -0.999967 -0.077028 -5.149999
v -0.999967 -1.402028 -5.149999
v 1.000033 1.247972 -5.150000
v 1.000033 -0.077028 -5.150000
v 1.000033 -1.402028 -5.150000
v 3.000033 1.247972 -5.149999
v 3.000033 -0.077028 -5.149999
v 3.000033 -1.402028 -5.149999
v -5.013624 2.552973 5.013659
v -5.013624 2.792973 5.013659
v -5.013624 2.552972 -5.013657
v -5.013624 2.792972 -5.013657
v 5.013691 2.552973 5.013659
v 5.013691 2.792973 5.013659
v 5.013691 2.552972 -5.013658
v 5.013691 2.792972 -5.013658
vn -0.0000 1.0000 -0.0000
vn -0.0000 -1.0000 -0.0000
vn 1.0000 -0.0000 -0.0000
vn -0.0000 -0.0000 -1.0000
vn -1.0000 -0.0000 -0.0000
vn -0.0000 -0.0000 1.0000
vn 0.9239 -0.0000 -0.3827
vn 0.1951 -0.0000 -0.9808
vt 0.625000 0.500000
vt 0.875000 0.500000
vt 0.875000 0.750000
vt 0.625000 0.750000
vt 0.125000 0.500000
vt 0.375000 0.500000
vt 0.375000 0.750000
vt 0.125000 0.750000
vt 0.625000 1.000000
vt 0.375000 1.000000
vt 0.625000 0.250000
vt 0.375000 0.250000
vt 0.375000 0.000000
vt 0.625000 0.000000
vt 0.562500 0.000000
vt 0.562500 0.250000
vt 0.562500 0.450000
vt 0.625000 0.450000
vt 0.562500 0.500000
vt 0.562500 0.750000
vt 0.562500 0.950000
vt 0.625000 0.950000
vt 0.562500 1.000000
vt 0.325000 0.500000
vt 0.325000 0.750000
vt 0.825000 0.500000
vt 0.825000 0.750000
vt 0.675000 0.500000
vt 0.675000 0.750000
vt 0.725000 0.500000
vt 0.725000 0.750000
vt 0.775000 0.500000
vt 0.775000 0.750000
vt 0.175000 0.500000
vt 0.175000 0.750000
vt 0.225000 0.500000
vt 0.225000 0.750000
vt 0.275000 0.500000
vt 0.275000 0.750000
vt 0.625000 0.800000
vt 0.562500 0.800000
vt 0.625000 0.850000
vt 0.562500 0.850000
vt 0.625000 0.900000
vt 0.562500 0.900000
vt 0.625000 0.300000
vt 0.562500 0.300000
vt 0.625000 0.350000
vt 0.562500 0.350000
vt 0.625000 0.400000
vt 0.562500 0.400000
vt 0.375000 0.400000
vt 0.437500 0.400000
vt 0.437500 0.450000
vt 0.375000 0.450000
vt 0.500000 0.400000
vt 0.500000 0.450000
vt 0.000000 0.000000
vt 0.375000 0.300000
vt 0.437500 0.300000
vt 0.437500 0.350000
vt 0.375000 0.350000
vt 0.500000 0.300000
vt 0.500000 0.350000
vt 0.437500 0.250000
vt 0.500000 0.250000
vt 0.375000 0.900000
vt 0.437500 0.900000
vt 0.437500 0.950000
vt 0.375000 0.950000
vt 0.500000 0.900000
vt 0.500000 0.950000
vt 0.375000 0.800000
vt 0.437500 0.800000
vt 0.437500 0.850000
vt 0.375000 0.850000
vt 0.500000 0.800000
vt 0.500000 0.850000
vt 0.437500 0.750000
vt 0.500000 0.750000
vt 0.437500 1.000000
vt 0.500000 1.000000
vt 0.437500 0.500000
vt 0.500000 0.500000
vt 0.437500 0.000000
vt 0.500000 0.000000
vt 1.000000 0.000000
vt 1.000000 1.000000
vt 0.000000 1.000000
s 1
f 8/1/1 4/2/1 2/3/1 6/4/1
f 3/5/2 7/6/2 5/7/2 1/8/2
f 6/4/3 2/9/3 1/10/3 5/7/3
f 7/6/4 8/1/4 6/4/4 5/7/4
f 4/11/5 8/1/5 7/6/5 3/12/5
f 1/13/6 2/14/6 4/11/6 3/12/6
f 35/15/5 10/14/5 12/11/5 36/16/5
f 66/17/4 24/18/4 16/1/4 39/19/4
f 39/19/3 16/1/3 14/4/3 42/20/3
f 54/21/6 32/22/6 10/9/6 35/23/6
f 17/24/2 15/6/2 13/7/2 28/25/2
f 21/26/1 12/2/1 10/3/1 32/27/1
f 16/1/1 24/28/1 29/29/1 14/4/1
f 24/28/1 23/30/1 30/31/1 29/29/1
f 23/30/1 22/32/1 31/33/1 30/31/1
f 22/32/1 21/26/1 32/27/1 31/33/1
f 11/5/2 20/34/2 25/35/2 9/8/2
f 20/34/2 19/36/2 26/37/2 25/35/2
f 19/36/7 18/38/8 27/39/2 26/37/2
f 18/38/2 17/24/2 28/25/2 27/39/2
f 42/20/6 14/4/6 29/40/6 45/41/6
f 45/41/6 29/40/6 30/42/6 48/43/6
f 48/43/6 30/42/6 31/44/6 51/45/6
f 51/45/6 31/44/6 32/22/6 54/21/6
f 36/16/4 12/11/4 21/46/4 57/47/4
f 57/47/4 21/46/4 22/48/4 60/49/4
f 60/49/4 22/48/4 23/50/4 63/51/4
f 63/51/4 23/50/4 24/18/4 66/17/4
f 18/52/4 65/53/4 68/54/4 17/55/4
f 65/53/4 64/56/4 67/57/4 68/54/4
f 64/56/4 63/51/4 66/17/4 67/57/4
f 19/58/3 62/58/3 61/58/3 60/58/3 51/58/3 52/58/3 53/58/3 26/58/3
f 20/59/4 59/60/4 62/61/4 19/62/4
f 59/60/4 58/63/4 61/64/4 62/61/4
f 58/63/4 57/47/4 60/49/4 61/64/4
f 11/12/4 38/65/4 59/60/4 20/59/4
f 38/65/4 37/66/4 58/63/4 59/60/4
f 37/66/4 36/16/4 57/47/4 58/63/4
f 26/67/6 53/68/6 56/69/6 25/70/6
f 53/68/6 52/71/6 55/72/6 56/69/6
f 52/71/6 51/45/6 54/21/6 55/72/6
f 65/58/5 18/58/5 27/58/5 50/58/5 49/58/5 48/58/5 63/58/5 64/58/5
f 28/73/6 47/74/6 50/75/6 27/76/6
f 47/74/6 46/77/6 49/78/6 50/75/6
f 46/77/6 45/41/6 48/43/6 49/78/6
f 13/7/6 44/79/6 47/74/6 28/73/6
f 44/79/6 43/80/6 46/77/6 47/74/6
f 43/80/6 42/20/6 45/41/6 46/77/6
f 25/70/6 56/69/6 33/81/6 9/10/6
f 56/69/6 55/72/6 34/82/6 33/81/6
f 55/72/6 54/21/6 35/23/6 34/82/6
f 15/6/3 41/83/3 44/79/3 13/7/3
f 41/83/3 40/84/3 43/80/3 44/79/3
f 40/84/3 39/19/3 42/20/3 43/80/3
f 17/55/4 68/54/4 41/83/4 15/6/4
f 68/54/4 67/57/4 40/84/4 41/83/4
f 67/57/4 66/17/4 39/19/4 40/84/4
f 9/13/5 33/85/5 38/65/5 11/12/5
f 33/85/5 34/86/5 37/66/5 38/65/5
f 34/86/5 35/15/5 36/16/5 37/66/5
f 60/49/2 63/51/2 48/43/2 51/45/2
f 20/34/2 15/6/2 17/24/2 18/38/2 11/58/2 19/36/2
f 17/58/2 20/58/5 15/58/2
f 20/58/2 11/58/2 15/58/2
f 18/58/2 20/58/5 17/58/2
f 19/58/7 20/58/2 18/58/8
f 20/58/2 11/58/2 18/58/2
s 0
f 20/58/4 11/58/4 19/58/4
s 1
f 69/58/1 70/87/1 72/88/1 71/89/1
f 80/1/1 76/2/1 74/3/1 78/4/1
f 75/5/2 79/6/2 77/7/2 73/8/2
f 78/4/3 74/9/3 73/10/3 77/7/3
f 79/6/4 80/1/4 78/4/4 77/7/4
f 76/11/5 80/1/5 79/6/5 75/12/5
f 73/13/6 74/14/6 76/11/6 75/12/6
f 107/15/5 82/14/5 84/11/5 108/16/5
f 138/17/4 96/18/4 88/1/4 111/19/4
f 111/19/3 88/1/3 86/4/3 114/20/3
f 126/21/6 104/22/6 82/9/6 107/23/6
f 89/24/2 87/6/2 85/7/2 100/25/2
f 93/26/1 84/2/1 82/3/1 104/27/1
f 88/1/1 96/28/1 101/29/1 86/4/1
f 96/28/1 95/30/1 102/31/1 101/29/1
f 95/30/1 94/32/1 103/33/1 102/31/1
f 94/32/1 93/26/1 104/27/1 103/33/1
f 83/5/2 92/34/2 97/35/2 81/8/2
f 92/34/2 91/36/2 98/37/2 97/35/2
f 91/36/2 90/38/2 99/39/2 98/37/2
f 90/38/2 89/24/2 100/25/2 99/39/2
f 114/20/6 86/4/6 101/40/6 117/41/6
f 117/41/6 101/40/6 102/42/6 120/43/6
f 120/43/6 102/42/6 103/44/6 123/45/6
f 123/45/6 103/44/6 104/22/6 126/21/6
f 108/16/4 84/11/4 93/46/4 129/47/4
f 129/47/4 93/46/4 94/48/4 132/49/4
f 132/49/4 94/48/4 95/50/4 135/51/4
f 135/51/4 95/50/4 96/18/4 138/17/4
f 90/52/4 137/53/4 140/54/4 89/55/4
f 137/53/4 136/56/4 139/57/4 140/54/4
f 136/56/4 135/51/4 138/17/4 139/57/4
f 91/58/3 134/58/3 133/58/3 132/58/3 123/58/3 124/58/3 125/58/3 98/58/3
f 92/59/4 131/60/4 134/61/4 91/62/4
f 131/60/4 130/63/4 133/64/4 134/61/4
f 130/63/4 129/47/4 132/49/4 133/64/4
f 83/12/4 110/65/4 131/60/4 92/59/4
f 110/65/4 109/66/4 130/63/4 131/60/4
f 109/66/4 108/16/4 129/47/4 130/63/4
f 98/67/6 125/68/6 128/69/6 97/70/6
f 125/68/6 124/71/6 127/72/6 128/69/6
f 124/71/6 123/45/6 126/21/6 127/72/6
f 137/58/5 90/58/5 99/58/5 122/58/5 121/58/5 120/58/5 135/58/5 136/58/5
f 100/73/6 119/74/6 122/75/6 99/76/6
f 119/74/6 118/77/6 121/78/6 122/75/6
f 118/77/6 117/41/6 120/43/6 121/78/6
f 85/7/6 116/79/6 119/74/6 100/73/6
f 116/79/6 115/80/6 118/77/6 119/74/6
f 115/80/6 114/20/6 117/41/6 118/77/6
f 97/70/6 128/69/6 105/81/6 81/10/6
f 128/69/6 127/72/6 106/82/6 105/81/6
f 127/72/6 126/21/6 107/23/6 106/82/6
f 87/6/3 113/83/3 116/79/3 85/7/3
f 113/83/3 112/84/3 115/80/3 116/79/3
f 112/84/3 111/19/3 114/20/3 115/80/3
f 89/55/4 140/54/4 113/83/4 87/6/4
f 140/54/4 139/57/4 112/84/4 113/83/4
f 139/57/4 138/17/4 111/19/4 112/84/4
f 81/13/5 105/85/5 110/65/5 83/12/5
f 105/85/5 106/86/5 109/66/5 110/65/5
f 106/86/5 107/15/5 108/16/5 109/66/5
f 132/49/2 135/51/2 120/43/2 123/45/2
s 0
f 98/58/4 85/58/4 81/58/4
f 100/58/4 85/58/4 98/58/4
f 99/58/6 98/37/6 85/58/6 81/8/6
f 99/58/4 100/58/4 98/58/4
f 98/58/6 99/58/6 81/58/6
f 97/58/4 98/58/4 81/58/4
s 1
f 141/13/5 142/14/5 144/11/5 143/12/5
f 143/12/4 144/11/4 148/1/4 147/6/4
f 147/6/3 148/1/3 146/4/3 145/7/3
f 145/7/6 146/4/6 142/9/6 141/10/6
f 143/5/2 147/6/2 145/7/2 141/8/2
f 148/1/1 144/2/1 142/3/1 146/4/1
