# Blender 4.5.1 LTS
# www.blender.org
mtllib Wall_without_door.003.mtl
o Wall_without_door.003
v -4.212846 -2.619540 9.310345
v -4.512846 -2.619540 9.310345
v -4.212847 -2.619541 -0.689655
v -4.512846 -2.619541 -0.689655
v -4.512846 2.680459 -0.689655
v -4.362541 -2.619540 9.460344
v -4.362541 2.680460 9.460344
v -4.362541 -2.619540 9.160345
v -4.362541 2.680460 9.160345
v 5.637457 -2.619540 9.460344
v 5.637457 2.680460 9.460344
v 5.637457 -2.619540 9.160345
v 5.637457 2.680460 9.160345
v 1.637458 -2.619540 9.160345
v -0.362542 -2.619540 9.160345
v -0.362542 -2.619540 9.460344
v 1.637458 -2.619540 9.460343
v 1.637458 1.355460 9.460343
v -0.362542 1.355460 9.460344
v -0.362542 1.355460 9.160345
v 1.637458 1.355460 9.160345
v -4.362541 -2.619541 -10.539656
v -4.362541 2.680459 -10.539656
v -4.362541 -2.619541 -10.839655
v -4.362541 2.680459 -10.839655
v 5.637458 -2.619541 -10.539656
v 5.637458 2.680459 -10.539656
v 5.637458 -2.619541 -10.839655
v 5.637458 2.680459 -10.839655
v 1.637459 -2.619541 -10.839655
v -0.362541 -2.619541 -10.839655
v -0.362541 -2.619541 -10.539656
v 1.637459 -2.619541 -10.539656
v 1.637459 1.355458 -10.539656
v -0.362541 1.355458 -10.539656
v -0.362541 1.355458 -10.839655
v 1.637459 1.355458 -10.839655
v 5.487457 -2.619541 -0.689655
v 5.487457 2.680459 -0.689655
v -4.222242 2.530460 9.162056
v 5.787155 -2.619541 -0.689655
v 5.787155 2.680459 -0.689655
v 5.487155 -2.619541 -0.689655
v 5.487155 2.680459 -0.689655
v 5.787154 -2.619541 -10.689655
v 5.787154 2.680459 -10.689655
v 5.487154 -2.619541 -10.689655
v 5.487154 2.680459 -10.689655
v -4.212845 -2.619541 -0.689655
v -4.212845 2.680459 -0.689655
v -4.512845 -2.619541 -0.689655
v -4.512845 2.680459 -0.689655
v -4.212846 -2.619541 -10.689655
v -4.212846 2.680459 -10.689655
v -4.512846 -2.619541 -10.689655
v -4.512846 2.680459 -10.689655
v -4.212541 -2.619540 9.310345
v -4.212541 2.680460 9.310345
v -4.512541 -2.619540 9.310345
v -4.512541 2.680460 9.310345
v -4.212541 -2.619541 -0.689655
v -4.212541 2.680459 -0.689655
v -4.512542 -2.619541 -0.689655
v -4.512542 2.680459 -0.689655
v -4.512541 -2.619540 3.310345
v -4.512541 -2.619540 5.310345
v -4.212541 -2.619540 5.310345
v -4.212541 -2.619540 3.310345
v -4.212541 1.355459 3.310345
v -4.212541 1.355460 5.310345
v -4.512541 1.355460 5.310345
v -4.512541 1.355459 3.310345
v 5.787153 -2.619540 9.310345
v 5.787153 2.680460 9.310345
v 5.487154 -2.619540 9.310345
v 5.487154 2.680460 9.310345
v 5.787153 -2.619541 -0.689655
v 5.787153 2.680459 -0.689655
v 5.487154 -2.619541 -0.689655
v 5.487154 2.680459 -0.689655
v -4.222242 2.830460 9.162056
v -4.222243 2.530459 -10.541363
v -4.222243 2.830458 -10.541363
v 5.497152 2.530460 9.162056
v 5.497152 2.830460 9.162056
v 5.497153 2.530459 -10.541363
v 5.497153 2.830458 -10.541363
vn -0.0000 -1.0000 -0.0000
vn -0.0000 1.0000 -0.0000
vn -0.0000 -0.0000 1.0000
vn -0.0000 -0.0000 -1.0000
vn 1.0000 -0.0000 -0.0000
vn -1.0000 -0.0000 -0.0000
vt 0.125000 0.500000
vt 0.225000 0.500000
vt 0.225000 0.750000
vt 0.125000 0.750000
vt 0.625000 0.500000
vt 0.875000 0.500000
vt 0.875000 0.750000
vt 0.625000 0.750000
vt 0.275000 0.500000
vt 0.375000 0.500000
vt 0.375000 0.750000
vt 0.275000 0.750000
vt 0.625000 1.000000
vt 0.375000 1.000000
vt 0.375000 0.900000
vt 0.562500 0.900000
vt 0.562500 0.850000
vt 0.375000 0.850000
vt 0.375000 0.250000
vt 0.625000 0.250000
vt 0.375000 0.400000
vt 0.562500 0.400000
vt 0.562500 0.350000
vt 0.375000 0.350000
vt 0.000000 0.000000
vt 0.375000 0.000000
vt 0.625000 0.000000
s 1
f 8/1/1 15/2/1 16/3/1 6/4/1
f 13/5/2 9/6/2 7/7/2 11/8/2
f 14/9/1 12/10/1 10/11/1 17/12/1
f 15/2/1 14/9/1 17/12/1 16/3/1
f 10/11/3 11/8/3 7/13/3 6/14/3 16/15/3 19/16/3 18/17/3 17/18/3
f 8/19/4 9/20/4 13/5/4 12/10/4 14/21/4 21/22/4 20/23/4 15/24/4
f 15/25/5 20/25/5 19/25/5 16/25/5
f 14/25/6 17/25/6 18/25/6 21/25/6
f 12/10/5 13/5/5 11/8/5 10/11/5
f 6/26/6 7/27/6 9/20/6 8/19/6
f 20/23/1 21/22/1 18/17/1 19/16/1
f 24/1/1 31/2/1 32/3/1 22/4/1
f 29/5/2 25/6/2 23/7/2 27/8/2
f 30/9/1 28/10/1 26/11/1 33/12/1
f 31/2/1 30/9/1 33/12/1 32/3/1
f 26/11/3 27/8/3 23/13/3 22/14/3 32/15/3 35/16/3 34/17/3 33/18/3
f 24/19/4 25/20/4 29/5/4 28/10/4 30/21/4 37/22/4 36/23/4 31/24/4
f 31/25/5 36/25/5 35/25/5 32/25/5
f 30/25/6 33/25/6 34/25/6 37/25/6
f 28/10/5 29/5/5 27/8/5 26/11/5
f 22/26/6 23/27/6 25/20/6 24/19/6
f 36/23/1 37/22/1 34/17/1 35/16/1
f 48/5/2 44/6/2 42/7/2 46/8/2
f 43/1/1 47/10/1 45/11/1 41/4/1
f 46/8/5 42/13/5 41/14/5 45/11/5
f 47/10/4 48/5/4 46/8/4 45/11/4
f 44/20/6 48/5/6 47/10/6 43/19/6
f 41/26/3 42/27/3 44/20/3 43/19/3
f 56/5/2 52/6/2 50/7/2 54/8/2
f 51/1/1 55/10/1 53/11/1 49/4/1
f 54/8/5 50/13/5 49/14/5 53/11/5
f 55/10/4 56/5/4 54/8/4 53/11/4
f 52/20/6 56/5/6 55/10/6 51/19/6
f 49/26/3 50/27/3 52/20/3 51/19/3
f 59/1/1 66/2/1 67/3/1 57/4/1
f 64/5/2 60/6/2 58/7/2 62/8/2
f 65/9/1 63/10/1 61/11/1 68/12/1
f 66/2/1 65/9/1 68/12/1 67/3/1
f 61/11/5 62/8/5 58/13/5 57/14/5 67/15/5 70/16/5 69/17/5 68/18/5
f 59/19/6 60/20/6 64/5/6 63/10/6 65/21/6 72/22/6 71/23/6 66/24/6
f 66/25/4 71/25/4 70/25/4 67/25/4
f 65/25/3 68/25/3 69/25/3 72/25/3
f 63/10/4 64/5/4 62/8/4 61/11/4
f 57/26/3 58/27/3 60/20/3 59/19/3
f 71/23/1 72/22/1 69/17/1 70/16/1
f 80/5/2 76/6/2 74/7/2 78/8/2
f 75/1/1 79/10/1 77/11/1 73/4/1
f 78/8/5 74/13/5 73/14/5 77/11/5
f 79/10/4 80/5/4 78/8/4 77/11/4
f 76/20/6 80/5/6 79/10/6 75/19/6
f 73/26/3 74/27/3 76/20/3 75/19/3
f 26/25/1 43/25/1 79/25/1 12/25/1 75/25/1 14/9/1 15/2/1 57/25/1 8/25/1 67/3/1 68/12/1 49/25/1 61/25/1 22/25/1 53/25/1 32/3/1 33/12/1 47/25/1
f 40/26/6 81/27/6 83/20/6 82/19/6
f 82/19/4 83/20/4 87/5/4 86/10/4
f 86/10/5 87/5/5 85/8/5 84/11/5
f 84/11/3 85/8/3 81/13/3 40/14/3
f 82/1/1 86/10/1 84/11/1 40/4/1
f 87/5/2 83/6/2 81/7/2 85/8/2
l 1 2
l 3 4
l 4 5
l 38 39
l 38 43
l 8 22
l 12 26
l 3 49
