# Blender 4.5.1 LTS
# www.blender.org
mtllib Wall_with_door.007.mtl
o Wall_with_door.007
v -4.270151 -2.504809 -0.576922
v -4.270151 2.795192 -0.576923
v -4.570151 -2.504809 -0.576922
v -4.570151 2.795192 -0.576923
v -4.270152 -2.504809 -10.576922
v -4.270152 2.795191 -10.576922
v -4.570152 -2.504809 -10.576922
v -4.570152 2.795191 -10.576922
v -4.570151 -2.504809 -6.576922
v -4.570151 -2.504809 -4.576922
v -4.270152 -2.504809 -4.576922
v -4.270152 -2.504809 -6.576922
v -4.270152 1.470191 -6.576922
v -4.270152 1.470191 -4.576922
v -4.570151 1.470191 -4.576922
v -4.570151 1.470191 -6.576922
v 5.729846 -2.504808 9.423078
v 5.729846 2.795192 9.423078
v 5.429847 -2.504808 9.423078
v 5.429847 2.795192 9.423078
v 5.729846 -2.504809 -0.576922
v 5.729846 2.795192 -0.576923
v 5.429845 -2.504809 -0.576922
v 5.429845 2.795192 -0.576923
v 5.429845 -2.504808 3.423078
v 5.429847 -2.504808 5.423078
v 5.729846 -2.504808 5.423078
v 5.729846 -2.504808 3.423078
v 5.729846 1.470191 3.423078
v 5.729846 1.470192 5.423078
v 5.429847 1.470192 5.423078
v 5.429845 1.470191 3.423078
v -4.270457 -2.504808 9.423078
v -4.570457 -2.504808 9.423078
v -4.270459 -2.504809 -0.576922
v -4.570458 -2.504809 -0.576922
v -4.570458 2.795192 -0.576923
v -4.420154 -2.504808 9.573076
v -4.420154 2.795192 9.573076
v -4.420154 -2.504808 9.273075
v -4.420154 2.795192 9.273075
v 5.579844 -2.504808 9.573077
v 5.579844 2.795192 9.573077
v 5.579844 -2.504808 9.273075
v 5.579844 2.795192 9.273075
v 1.579845 -2.504808 9.273075
v -0.420154 -2.504808 9.273075
v -0.420154 -2.504808 9.573076
v 1.579845 -2.504808 9.573076
v 1.579845 1.470192 9.573076
v -0.420154 1.470192 9.573076
v -0.420154 1.470192 9.273075
v 1.579845 1.470192 9.273075
v -4.420153 -2.504809 -10.426925
v -4.420153 2.795191 -10.426925
v -4.420153 -2.504809 -10.726924
v -4.420153 2.795191 -10.726924
v 5.579844 -2.504809 -10.426925
v 5.579844 2.795191 -10.426925
v 5.579844 -2.504809 -10.726924
v 5.579844 2.795191 -10.726924
v 1.579846 -2.504809 -10.726924
v -0.420154 -2.504809 -10.726924
v -0.420154 -2.504809 -10.426925
v 1.579846 -2.504809 -10.426925
v 1.579846 1.470190 -10.426925
v -0.420154 1.470190 -10.426925
v -0.420154 1.470190 -10.726924
v 1.579846 1.470190 -10.726924
v 5.429843 -2.504809 -0.576922
v 5.429843 2.795192 -0.576923
v 5.729541 -2.504809 -0.576923
v 5.729541 2.795192 -0.576924
v 5.429542 -2.504809 -0.576923
v 5.429542 2.795192 -0.576924
v 5.729541 -2.504809 -10.576922
v 5.729541 2.795191 -10.576922
v 5.429542 -2.504809 -10.576922
v 5.429542 2.795191 -10.576922
v -4.270457 -2.504809 -0.576922
v -4.270153 -2.504808 9.423078
v -4.270153 2.795192 9.423078
v -4.570152 -2.504808 9.423078
v -4.570152 2.795192 9.423078
v -4.270154 -2.504809 -0.576922
v -4.270154 2.795192 -0.576923
v -4.570152 -2.504809 -0.576922
v -4.570152 2.795192 -0.576923
v -4.570152 -2.504808 3.423077
v -4.570152 -2.504808 5.423077
v -4.270154 -2.504808 5.423077
v -4.270154 -2.504808 3.423077
v -4.270154 1.470191 3.423077
v -4.270154 1.470192 5.423077
v -4.570152 1.470192 5.423077
v -4.570152 1.470191 3.423077
v -4.414391 2.745192 9.435458
v -4.414391 3.045192 9.435458
v -4.414391 2.745191 -10.589305
v -4.414391 3.045191 -10.589305
v 5.574084 2.745192 9.435458
v 5.574084 3.045192 9.435458
v 5.574084 2.745191 -10.589305
v 5.574084 3.045191 -10.589305
vn -0.0000 -1.0000 -0.0000
vn -0.0000 1.0000 -0.0000
vn 1.0000 -0.0000 -0.0000
vn -1.0000 -0.0000 -0.0000
vn -0.0000 -0.0000 -1.0000
vn -0.0000 -0.0000 1.0000
vt 0.125000 0.500000
vt 0.225000 0.500000
vt 0.225000 0.750000
vt 0.125000 0.750000
vt 0.625000 0.500000
vt 0.875000 0.500000
vt 0.875000 0.750000
vt 0.625000 0.750000
vt 0.275000 0.500000
vt 0.375000 0.500000
vt 0.375000 0.750000
vt 0.275000 0.750000
vt 0.625000 1.000000
vt 0.375000 1.000000
vt 0.375000 0.900000
vt 0.562500 0.900000
vt 0.562500 0.850000
vt 0.375000 0.850000
vt 0.375000 0.250000
vt 0.625000 0.250000
vt 0.375000 0.400000
vt 0.562500 0.400000
vt 0.562500 0.350000
vt 0.375000 0.350000
vt 0.000000 0.000000
vt 0.375000 0.000000
vt 0.625000 0.000000
s 1
f 3/1/1 10/2/1 11/3/1 1/4/1
f 8/5/2 4/6/2 2/7/2 6/8/2
f 9/9/1 7/10/1 5/11/1 12/12/1
f 10/2/1 9/9/1 12/12/1 11/3/1
f 5/11/3 6/8/3 2/13/3 1/14/3 11/15/3 14/16/3 13/17/3 12/18/3
f 3/19/4 4/20/4 8/5/4 7/10/4 9/21/4 16/22/4 15/23/4 10/24/4
f 10/25/5 15/25/5 14/25/5 11/25/5
f 9/25/6 12/25/6 13/25/6 16/25/6
f 7/10/5 8/5/5 6/8/5 5/11/5
f 1/26/6 2/27/6 4/20/6 3/19/6
f 15/23/1 16/22/1 13/17/1 14/16/1
f 19/1/1 26/2/1 27/3/1 17/4/1
f 24/5/2 20/6/2 18/7/2 22/8/2
f 25/9/1 23/10/1 21/11/1 28/12/1
f 26/2/1 25/9/1 28/12/1 27/3/1
f 21/11/3 22/8/3 18/13/3 17/14/3 27/15/3 30/16/3 29/17/3 28/18/3
f 19/19/4 20/20/4 24/5/4 23/10/4 25/21/4 32/22/4 31/23/4 26/24/4
f 26/25/5 31/25/5 30/25/5 27/25/5
f 25/25/6 28/25/6 29/25/6 32/25/6
f 23/10/5 24/5/5 22/8/5 21/11/5
f 17/26/6 18/27/6 20/20/6 19/19/6
f 31/23/1 32/22/1 29/17/1 30/16/1
f 40/1/1 47/2/1 48/3/1 38/4/1
f 45/5/2 41/6/2 39/7/2 43/8/2
f 46/9/1 44/10/1 42/11/1 49/12/1
f 47/2/1 46/9/1 49/12/1 48/3/1
f 42/11/6 43/8/6 39/13/6 38/14/6 48/15/6 51/16/6 50/17/6 49/18/6
f 40/19/5 41/20/5 45/5/5 44/10/5 46/21/5 53/22/5 52/23/5 47/24/5
f 47/25/3 52/25/3 51/25/3 48/25/3
f 46/25/4 49/25/4 50/25/4 53/25/4
f 44/10/3 45/5/3 43/8/3 42/11/3
f 38/26/4 39/27/4 41/20/4 40/19/4
f 52/23/1 53/22/1 50/17/1 51/16/1
f 56/1/1 63/2/1 64/3/1 54/4/1
f 61/5/2 57/6/2 55/7/2 59/8/2
f 62/9/1 60/10/1 58/11/1 65/12/1
f 63/2/1 62/9/1 65/12/1 64/3/1
f 58/11/6 59/8/6 55/13/6 54/14/6 64/15/6 67/16/6 66/17/6 65/18/6
f 56/19/5 57/20/5 61/5/5 60/10/5 62/21/5 69/22/5 68/23/5 63/24/5
f 63/25/3 68/25/3 67/25/3 64/25/3
f 62/25/4 65/25/4 66/25/4 69/25/4
f 60/10/3 61/5/3 59/8/3 58/11/3
f 54/26/4 55/27/4 57/20/4 56/19/4
f 68/23/1 69/22/1 66/17/1 67/16/1
f 79/5/2 75/6/2 73/7/2 77/8/2
f 74/1/1 78/10/1 76/11/1 72/4/1
f 77/8/3 73/13/3 72/14/3 76/11/3
f 78/10/5 79/5/5 77/8/5 76/11/5
f 75/20/4 79/5/4 78/10/4 74/19/4
f 72/26/6 73/27/6 75/20/6 74/19/6
f 83/1/1 90/2/1 91/3/1 81/4/1
f 88/5/2 84/6/2 82/7/2 86/8/2
f 89/9/1 87/10/1 85/11/1 92/12/1
f 90/2/1 89/9/1 92/12/1 91/3/1
f 85/11/3 86/8/3 82/13/3 81/14/3 91/15/3 94/16/3 93/17/3 92/18/3
f 83/19/4 84/20/4 88/5/4 87/10/4 89/21/4 96/22/4 95/23/4 90/24/4
f 90/25/5 95/25/5 94/25/5 91/25/5
f 89/25/6 92/25/6 93/25/6 96/25/6
f 87/10/5 88/5/5 86/8/5 85/11/5
f 81/26/6 82/27/6 84/20/6 83/19/6
f 95/23/1 96/22/1 93/17/1 94/16/1
f 58/25/1 23/25/1 74/25/1 25/9/1 26/2/1 44/25/1 19/25/1 46/9/1 47/2/1 81/25/1 40/25/1 91/3/1 92/12/1 85/11/1 1/4/1 11/3/1 12/12/1 54/25/1 5/25/1 64/3/1 65/12/1 78/25/1
f 97/26/4 98/27/4 100/20/4 99/19/4
f 99/19/5 100/20/5 104/5/5 103/10/5
f 103/10/3 104/5/3 102/8/3 101/11/3
f 101/11/6 102/8/6 98/13/6 97/14/6
f 99/1/1 103/10/1 101/11/1 97/4/1
f 104/5/2 100/6/2 98/7/2 102/8/2
l 33 34
l 35 36
l 36 37
l 70 71
l 70 74
l 35 80
l 1 19
l 5 23
