# Blender 4.5.1 LTS
# www.blender.org
mtllib Hallway_1_way.mtl
o Hallway_1_way
v -5.151246 -2.782500 0.000032
v -5.151246 2.517500 0.000031
v -4.851245 -2.782500 -0.000031
v -4.851245 2.517500 -0.000032
v -5.149241 -2.782499 10.000030
v -5.149241 2.517501 10.000030
v -4.849241 -2.782499 9.999970
v -4.849241 2.517501 9.999970
v -4.999939 -2.782499 10.150000
v -4.999939 2.517501 10.150000
v -4.999938 -2.782499 9.849999
v -4.999938 2.517501 9.849999
v 5.000061 -2.782499 10.150000
v 5.000061 2.517501 10.150000
v 5.000061 -2.782499 9.850000
v 5.000061 2.517501 9.850000
v 3.000061 -2.782499 9.849999
v 1.000061 -2.782499 9.850000
v -0.999939 -2.782499 9.850000
v -2.999939 -2.782499 9.850000
v -2.999939 2.517501 9.850000
v -0.999939 2.517501 9.850000
v 1.000061 2.517501 9.850000
v 3.000061 2.517501 9.849999
v -2.999939 -2.782499 10.149999
v -0.999939 -2.782499 10.150000
v 1.000061 -2.782499 10.150000
v 3.000061 -2.782499 10.150000
v 3.000061 2.517501 10.150000
v 1.000061 2.517501 10.150000
v -0.999939 2.517501 10.150000
v -2.999939 2.517501 10.149999
v -4.999939 -1.457499 10.150000
v -4.999939 -0.132499 10.150000
v -4.999939 1.192501 10.150000
v -4.999938 1.192501 9.849999
v -4.999938 -0.132499 9.849999
v -4.999938 -1.457499 9.849999
v 5.000061 1.192501 9.850000
v 5.000061 -0.132499 9.850000
v 5.000061 -1.457499 9.850000
v 5.000061 1.192501 10.150000
v 5.000061 -0.132499 10.150000
v 5.000061 -1.457499 10.150000
v 3.000061 1.192501 10.150000
v 3.000061 -0.132499 10.150000
v 3.000061 -1.457499 10.150000
v 1.000061 1.192501 10.150000
v 1.000061 -0.132499 10.150000
v 1.000061 -1.457499 10.150000
v -0.999939 1.192501 10.150000
v -0.999939 -0.132499 10.150000
v -0.999939 -1.457499 10.150000
v -2.999939 1.192501 10.149999
v -2.999939 -0.132499 10.149999
v -2.999939 -1.457499 10.149999
v -2.999939 1.192501 9.850000
v -2.999939 -0.132499 9.850000
v -2.999939 -1.457499 9.850000
v -0.999939 1.192501 9.850000
v -0.999939 -0.132499 9.850000
v -0.999939 -1.457499 9.850000
v 1.000061 1.192501 9.850000
v 1.000061 -0.132499 9.850000
v 1.000061 -1.457499 9.850000
v 3.000061 1.192501 9.849999
v 3.000061 -0.132499 9.849999
v 3.000061 -1.457499 9.849999
v -4.999939 -2.782501 -9.850002
v -4.999939 2.517499 -9.850002
v -4.999938 -2.782501 -10.150002
v -4.999938 2.517499 -10.150002
v 5.000061 -2.782501 -9.850002
v 5.000061 2.517499 -9.850002
v 5.000061 -2.782501 -10.150002
v 5.000061 2.517499 -10.150002
v 3.000062 -2.782501 -10.150002
v 1.000061 -2.782501 -10.150002
v -0.999939 -2.782501 -10.150002
v -2.999939 -2.782501 -10.150002
v -2.999939 2.517499 -10.150002
v -0.999939 2.517499 -10.150002
v 1.000061 2.517499 -10.150002
v 3.000062 2.517499 -10.150002
v -2.999939 -2.782501 -9.850002
v -0.999939 -2.782501 -9.850002
v 1.000061 -2.782501 -9.850002
v 3.000062 -2.782501 -9.850000
v 3.000062 2.517499 -9.850000
v 1.000061 2.517499 -9.850002
v -0.999939 2.517499 -9.850002
v -2.999939 2.517499 -9.850002
v -4.999939 -1.457501 -9.850002
v -4.999939 -0.132501 -9.850002
v -4.999939 1.192499 -9.850002
v -4.999938 1.192499 -10.150002
v -4.999938 -0.132501 -10.150002
v -4.999938 -1.457501 -10.150002
v 5.000061 1.192499 -10.150002
v 5.000061 -0.132501 -10.150002
v 5.000061 -1.457501 -10.150002
v 5.000061 1.192499 -9.850002
v 5.000061 -0.132501 -9.850002
v 5.000061 -1.457501 -9.850002
v 3.000062 1.192499 -9.850000
v 3.000062 -0.132501 -9.850000
v 3.000062 -1.457501 -9.850000
v 1.000061 1.192499 -9.850002
v 1.000061 -0.132501 -9.850002
v 1.000061 -1.457501 -9.850002
v -0.999939 1.192499 -9.850002
v -0.999939 -0.132501 -9.850002
v -0.999939 -1.457501 -9.850002
v -2.999939 1.192499 -9.850002
v -2.999939 -0.132501 -9.850002
v -2.999939 -1.457501 -9.850002
v -2.999939 1.192499 -10.150002
v -2.999939 -0.132501 -10.150002
v -2.999939 -1.457501 -10.150002
v -0.999939 1.192499 -10.150002
v -0.999939 -0.132501 -10.150002
v -0.999939 -1.457501 -10.150002
v 1.000061 1.192499 -10.150002
v 1.000061 -0.132501 -10.150002
v 1.000061 -1.457501 -10.150002
v 3.000062 1.192499 -10.150002
v 3.000062 -0.132501 -10.150002
v 3.000062 -1.457501 -10.150002
v 4.848755 -2.782500 0.000030
v 4.848755 2.517500 0.000029
v 5.148754 -2.782500 -0.000031
v 5.148754 2.517500 -0.000032
v 4.850759 -2.782499 10.000029
v 4.850759 2.517501 10.000029
v 5.150759 -2.782499 9.999969
v 5.150759 2.517501 9.999969
v 4.846902 -2.782501 -9.999916
v 4.846902 2.517499 -9.999916
v 5.146902 -2.782501 -10.000086
v 5.146902 2.517499 -10.000086
v 4.852610 -2.782500 0.000084
v 4.852610 2.517500 0.000084
v 5.152610 -2.782500 -0.000087
v 5.152610 2.517500 -0.000087
v -5.153097 -2.782501 -9.999914
v -5.153097 2.517499 -9.999914
v -4.853097 -2.782501 -10.000086
v -4.853097 2.517499 -10.000086
v -5.147389 -2.782500 0.000084
v -5.147389 2.517500 0.000084
v -4.847389 -2.782500 -0.000088
v -4.847389 2.517500 -0.000088
v -4.878274 2.367501 9.885103
v -4.878274 2.667500 9.885103
v -4.878274 2.367499 -9.885098
v -4.878274 2.667499 -9.885098
v 4.878392 2.367501 9.885104
v 4.878392 2.667500 9.885104
v 4.878394 2.367499 -9.885098
v 4.878394 2.667499 -9.885098
vn -0.0000 1.0000 -0.0000
vn -0.0000 -1.0000 -0.0000
vn -1.0000 -0.0000 0.0002
vn 0.0002 -0.0000 1.0000
vn 1.0000 -0.0000 -0.0002
vn -0.0002 -0.0000 -1.0000
vn -1.0000 -0.0000 -0.0000
vn -0.0000 -0.0000 -1.0000
vn 1.0000 -0.0000 -0.0000
vn -0.0000 -0.0000 1.0000
vn -1.0000 -0.0000 0.0006
vn 0.0006 -0.0000 1.0000
vn 1.0000 -0.0000 -0.0006
vn -0.0006 -0.0000 -1.0000
vt 0.625000 0.500000
vt 0.875000 0.500000
vt 0.875000 0.750000
vt 0.625000 0.750000
vt 0.125000 0.500000
vt 0.375000 0.500000
vt 0.375000 0.750000
vt 0.125000 0.750000
vt 0.625000 1.000000
vt 0.375000 1.000000
vt 0.625000 0.250000
vt 0.375000 0.250000
vt 0.375000 0.000000
vt 0.625000 0.000000
vt 0.562500 0.000000
vt 0.562500 0.250000
vt 0.562500 0.450000
vt 0.625000 0.450000
vt 0.562500 0.500000
vt 0.562500 0.750000
vt 0.562500 0.950000
vt 0.625000 0.950000
vt 0.562500 1.000000
vt 0.325000 0.500000
vt 0.325000 0.750000
vt 0.825000 0.500000
vt 0.825000 0.750000
vt 0.675000 0.500000
vt 0.675000 0.750000
vt 0.725000 0.500000
vt 0.725000 0.750000
vt 0.775000 0.500000
vt 0.775000 0.750000
vt 0.175000 0.500000
vt 0.175000 0.750000
vt 0.225000 0.500000
vt 0.225000 0.750000
vt 0.275000 0.500000
vt 0.275000 0.750000
vt 0.625000 0.800000
vt 0.562500 0.800000
vt 0.625000 0.850000
vt 0.562500 0.850000
vt 0.625000 0.900000
vt 0.562500 0.900000
vt 0.625000 0.300000
vt 0.562500 0.300000
vt 0.625000 0.350000
vt 0.562500 0.350000
vt 0.625000 0.400000
vt 0.562500 0.400000
vt 0.375000 0.400000
vt 0.437500 0.400000
vt 0.437500 0.450000
vt 0.375000 0.450000
vt 0.500000 0.400000
vt 0.500000 0.450000
vt 0.000000 0.000000
vt 0.375000 0.300000
vt 0.437500 0.300000
vt 0.437500 0.350000
vt 0.375000 0.350000
vt 0.500000 0.300000
vt 0.500000 0.350000
vt 0.437500 0.250000
vt 0.500000 0.250000
vt 0.375000 0.900000
vt 0.437500 0.900000
vt 0.437500 0.950000
vt 0.375000 0.950000
vt 0.500000 0.900000
vt 0.500000 0.950000
vt 0.375000 0.800000
vt 0.437500 0.800000
vt 0.437500 0.850000
vt 0.375000 0.850000
vt 0.500000 0.800000
vt 0.500000 0.850000
vt 0.437500 0.750000
vt 0.500000 0.750000
vt 0.437500 1.000000
vt 0.500000 1.000000
vt 0.437500 0.500000
vt 0.500000 0.500000
vt 0.437500 0.000000
vt 0.500000 0.000000
s 1
f 8/1/1 4/2/1 2/3/1 6/4/1
f 3/5/2 7/6/2 5/7/2 1/8/2
f 6/4/3 2/9/3 1/10/3 5/7/3
f 7/6/4 8/1/4 6/4/4 5/7/4
f 4/11/5 8/1/5 7/6/5 3/12/5
f 1/13/6 2/14/6 4/11/6 3/12/6
f 35/15/7 10/14/7 12/11/7 36/16/7
f 66/17/8 24/18/8 16/1/8 39/19/8
f 39/19/9 16/1/9 14/4/9 42/20/9
f 54/21/10 32/22/10 10/9/10 35/23/10
f 17/24/2 15/6/2 13/7/2 28/25/2
f 21/26/1 12/2/1 10/3/1 32/27/1
f 16/1/1 24/28/1 29/29/1 14/4/1
f 24/28/1 23/30/1 30/31/1 29/29/1
f 23/30/1 22/32/1 31/33/1 30/31/1
f 22/32/1 21/26/1 32/27/1 31/33/1
f 11/5/2 20/34/2 25/35/2 9/8/2
f 20/34/2 19/36/2 26/37/2 25/35/2
f 19/36/2 18/38/2 27/39/2 26/37/2
f 18/38/2 17/24/2 28/25/2 27/39/2
f 42/20/10 14/4/10 29/40/10 45/41/10
f 45/41/10 29/40/10 30/42/10 48/43/10
f 48/43/10 30/42/10 31/44/10 51/45/10
f 51/45/10 31/44/10 32/22/10 54/21/10
f 36/16/8 12/11/8 21/46/8 57/47/8
f 57/47/8 21/46/8 22/48/8 60/49/8
f 60/49/8 22/48/8 23/50/8 63/51/8
f 63/51/8 23/50/8 24/18/8 66/17/8
f 18/52/8 65/53/8 68/54/8 17/55/8
f 65/53/8 64/56/8 67/57/8 68/54/8
f 64/56/8 63/51/8 66/17/8 67/57/8
f 19/58/9 62/58/9 61/58/9 60/58/9 51/58/9 52/58/9 53/58/9 26/58/9
f 20/59/8 59/60/8 62/61/8 19/62/8
f 59/60/8 58/63/8 61/64/8 62/61/8
f 58/63/8 57/47/8 60/49/8 61/64/8
f 11/12/8 38/65/8 59/60/8 20/59/8
f 38/65/8 37/66/8 58/63/8 59/60/8
f 37/66/8 36/16/8 57/47/8 58/63/8
f 26/67/10 53/68/10 56/69/10 25/70/10
f 53/68/10 52/71/10 55/72/10 56/69/10
f 52/71/10 51/45/10 54/21/10 55/72/10
f 65/58/7 18/58/7 27/58/7 50/58/7 49/58/7 48/58/7 63/58/7 64/58/7
f 28/73/10 47/74/10 50/75/10 27/76/10
f 47/74/10 46/77/10 49/78/10 50/75/10
f 46/77/10 45/41/10 48/43/10 49/78/10
f 13/7/10 44/79/10 47/74/10 28/73/10
f 44/79/10 43/80/10 46/77/10 47/74/10
f 43/80/10 42/20/10 45/41/10 46/77/10
f 25/70/10 56/69/10 33/81/10 9/10/10
f 56/69/10 55/72/10 34/82/10 33/81/10
f 55/72/10 54/21/10 35/23/10 34/82/10
f 15/6/9 41/83/9 44/79/9 13/7/9
f 41/83/9 40/84/9 43/80/9 44/79/9
f 40/84/9 39/19/9 42/20/9 43/80/9
f 17/55/8 68/54/8 41/83/8 15/6/8
f 68/54/8 67/57/8 40/84/8 41/83/8
f 67/57/8 66/17/8 39/19/8 40/84/8
f 9/13/7 33/85/7 38/65/7 11/12/7
f 33/85/7 34/86/7 37/66/7 38/65/7
f 34/86/7 35/15/7 36/16/7 37/66/7
f 60/49/2 63/51/2 48/43/2 51/45/2
f 95/15/7 70/14/7 72/11/7 96/16/7
f 126/17/8 84/18/8 76/1/8 99/19/8
f 99/19/9 76/1/9 74/4/9 102/20/9
f 114/21/10 92/22/10 70/9/10 95/23/10
f 77/24/2 75/6/2 73/7/2 88/25/2
f 81/26/1 72/2/1 70/3/1 92/27/1
f 76/1/1 84/28/1 89/29/1 74/4/1
f 84/28/1 83/30/1 90/31/1 89/29/1
f 83/30/1 82/32/1 91/33/1 90/31/1
f 82/32/1 81/26/1 92/27/1 91/33/1
f 71/5/2 80/34/2 85/35/2 69/8/2
f 80/34/2 79/36/2 86/37/2 85/35/2
f 79/36/2 78/38/2 87/39/2 86/37/2
f 78/38/2 77/24/2 88/25/2 87/39/2
f 102/20/10 74/4/10 89/40/10 105/41/10
f 105/41/10 89/40/10 90/42/10 108/43/10
f 108/43/10 90/42/10 91/44/10 111/45/10
f 111/45/10 91/44/10 92/22/10 114/21/10
f 96/16/8 72/11/8 81/46/8 117/47/8
f 117/47/8 81/46/8 82/48/8 120/49/8
f 120/49/8 82/48/8 83/50/8 123/51/8
f 123/51/8 83/50/8 84/18/8 126/17/8
f 78/52/8 125/53/8 128/54/8 77/55/8
f 125/53/8 124/56/8 127/57/8 128/54/8
f 124/56/8 123/51/8 126/17/8 127/57/8
f 79/58/9 122/58/9 121/58/9 120/58/9 111/58/9 112/58/9 113/58/9 86/58/9
f 80/59/8 119/60/8 122/61/8 79/62/8
f 119/60/8 118/63/8 121/64/8 122/61/8
f 118/63/8 117/47/8 120/49/8 121/64/8
f 71/12/8 98/65/8 119/60/8 80/59/8
f 98/65/8 97/66/8 118/63/8 119/60/8
f 97/66/8 96/16/8 117/47/8 118/63/8
f 86/67/10 113/68/10 116/69/10 85/70/10
f 113/68/10 112/71/10 115/72/10 116/69/10
f 112/71/10 111/45/10 114/21/10 115/72/10
f 125/58/7 78/58/7 87/58/7 110/58/7 109/58/7 108/58/7 123/58/7 124/58/7
f 88/73/10 107/74/10 110/75/10 87/76/10
f 107/74/10 106/77/10 109/78/10 110/75/10
f 106/77/10 105/41/10 108/43/10 109/78/10
f 73/7/10 104/79/10 107/74/10 88/73/10
f 104/79/10 103/80/10 106/77/10 107/74/10
f 103/80/10 102/20/10 105/41/10 106/77/10
f 85/70/10 116/69/10 93/81/10 69/10/10
f 116/69/10 115/72/10 94/82/10 93/81/10
f 115/72/10 114/21/10 95/23/10 94/82/10
f 75/6/9 101/83/9 104/79/9 73/7/9
f 101/83/9 100/84/9 103/80/9 104/79/9
f 100/84/9 99/19/9 102/20/9 103/80/9
f 77/55/8 128/54/8 101/83/8 75/6/8
f 128/54/8 127/57/8 100/84/8 101/83/8
f 127/57/8 126/17/8 99/19/8 100/84/8
f 69/13/7 93/85/7 98/65/7 71/12/7
f 93/85/7 94/86/7 97/66/7 98/65/7
f 94/86/7 95/15/7 96/16/7 97/66/7
f 120/49/2 123/51/2 108/43/2 111/45/2
f 136/1/1 132/2/1 130/3/1 134/4/1
f 131/5/2 135/6/2 133/7/2 129/8/2
f 134/4/3 130/9/3 129/10/3 133/7/3
f 135/6/4 136/1/4 134/4/4 133/7/4
f 132/11/5 136/1/5 135/6/5 131/12/5
f 129/13/6 130/14/6 132/11/6 131/12/6
f 144/1/1 140/2/1 138/3/1 142/4/1
f 139/5/2 143/6/2 141/7/2 137/8/2
f 142/4/11 138/9/11 137/10/11 141/7/11
f 143/6/12 144/1/12 142/4/12 141/7/12
f 140/11/13 144/1/13 143/6/13 139/12/13
f 137/13/14 138/14/14 140/11/14 139/12/14
f 152/1/1 148/2/1 146/3/1 150/4/1
f 147/5/2 151/6/2 149/7/2 145/8/2
f 150/4/11 146/9/11 145/10/11 149/7/11
f 151/6/12 152/1/12 150/4/12 149/7/12
f 148/11/13 152/1/13 151/6/13 147/12/13
f 145/13/14 146/14/14 148/11/14 147/12/14
f 129/58/1 73/58/1 137/58/1 88/25/1 87/39/1 86/37/1 85/35/1 147/58/1 69/58/1 151/58/1 3/58/1 11/58/1 7/58/1 20/34/1 19/36/1 18/38/1 17/24/1 133/58/1 15/58/1 141/58/1
f 153/13/7 154/14/7 156/11/7 155/12/7
f 155/12/8 156/11/8 160/1/8 159/6/8
f 159/6/9 160/1/9 158/4/9 157/7/9
f 157/7/10 158/4/10 154/9/10 153/10/10
f 155/5/2 159/6/2 157/7/2 153/8/2
f 160/1/1 156/2/1 154/3/1 158/4/1
l 7 15
