# Blender 4.5.1 LTS
# www.blender.org
mtllib Double_Room_Dead_End.mtl
o Double_Room_Dead_End
v -39.850304 0.000000 0.000000
v -39.850304 5.300000 0.000000
v -40.150307 0.000000 0.000000
v -40.150307 5.300000 0.000000
v -39.850304 0.000000 -10.000000
v -39.850304 5.300000 -10.000000
v -40.150307 0.000000 -10.000000
v -40.150307 5.300000 -10.000000
v -29.999996 0.000000 0.150000
v -29.999996 5.300000 0.150000
v -29.999996 0.000000 -0.150000
v -29.999996 5.300000 -0.150000
v -19.999998 0.000000 0.150000
v -19.999998 5.300000 0.150000
v -19.999998 0.000000 -0.150000
v -19.999998 5.300000 -0.150000
v -23.999998 0.000000 -0.150000
v -25.999996 0.000000 -0.150000
v -25.999996 0.000000 0.150000
v -23.999998 0.000000 0.150000
v -23.999998 3.975000 0.150000
v -25.999996 3.975000 0.150000
v -25.999996 3.975000 -0.150000
v -23.999998 3.975000 -0.150000
v -40.000301 0.000000 -19.850000
v -40.000301 5.300000 -19.850000
v -40.000301 0.000000 -20.150000
v -40.000301 5.300000 -20.150000
v -30.000301 0.000000 -19.850000
v -30.000301 5.300000 -19.850000
v -30.000301 0.000000 -20.150000
v -30.000301 5.300000 -20.150000
v -30.000301 0.000000 -19.849998
v -30.000301 5.300000 -19.849998
v -30.000301 0.000000 -20.149998
v -30.000301 5.300000 -20.149998
v -20.000303 0.000000 -19.849998
v -20.000303 5.300000 -19.849998
v -20.000303 0.000000 -20.149998
v -20.000303 5.300000 -20.149998
v -39.850300 0.000000 -10.000000
v -39.850300 5.300000 -10.000000
v -40.150299 0.000000 -10.000000
v -40.150299 5.300000 -10.000000
v -39.850300 0.000000 -20.000000
v -39.850300 5.300000 -20.000000
v -40.150303 0.000000 -20.000000
v -40.150303 5.300000 -20.000000
v -19.850304 0.000000 -10.000000
v -19.850304 5.300000 -10.000000
v -20.150303 0.000000 -10.000000
v -20.150303 5.300000 -10.000000
v -19.850304 0.000000 -20.000000
v -19.850304 5.300000 -20.000000
v -20.150303 0.000000 -20.000000
v -20.150303 5.300000 -20.000000
v -19.850304 0.000000 0.000000
v -19.850304 5.300000 0.000000
v -20.150303 0.000000 0.000000
v -20.150303 5.300000 0.000000
v -19.850304 0.000000 -10.000000
v -19.850304 5.300000 -10.000000
v -20.150303 0.000000 -10.000000
v -20.150303 5.300000 -10.000000
v -39.999996 0.000000 0.150000
v -39.999996 5.300000 0.150000
v -39.999996 0.000000 -0.150000
v -39.999996 5.300000 -0.150000
v -29.999996 0.000000 0.150000
v -29.999996 5.300000 0.150000
v -29.999996 0.000000 -0.150000
v -29.999996 5.300000 -0.150000
v -33.999996 0.000000 -0.150000
v -35.999996 0.000000 -0.150000
v -35.999996 0.000000 0.150000
v -33.999996 0.000000 0.149999
v -33.999996 3.975000 0.149999
v -35.999996 3.975000 0.150000
v -35.999996 3.975000 -0.150000
v -33.999996 3.975000 -0.150000
vn -0.0000 1.0000 -0.0000
vn -0.0000 -1.0000 -0.0000
vn 1.0000 -0.0000 -0.0000
vn -0.0000 -0.0000 -1.0000
vn -1.0000 -0.0000 -0.0000
vn -0.0000 -0.0000 1.0000
vt 0.625000 0.500000
vt 0.875000 0.500000
vt 0.875000 0.750000
vt 0.625000 0.750000
vt 0.125000 0.500000
vt 0.375000 0.500000
vt 0.375000 0.750000
vt 0.125000 0.750000
vt 0.625000 1.000000
vt 0.375000 1.000000
vt 0.625000 0.250000
vt 0.375000 0.250000
vt 0.375000 0.000000
vt 0.625000 0.000000
vt 0.225000 0.500000
vt 0.225000 0.750000
vt 0.275000 0.500000
vt 0.275000 0.750000
vt 0.375000 0.900000
vt 0.562500 0.900000
vt 0.562500 0.850000
vt 0.375000 0.850000
vt 0.375000 0.400000
vt 0.562500 0.400000
vt 0.562500 0.350000
vt 0.375000 0.350000
vt 0.000000 0.000000
s 0
f 8/1/1 4/2/1 2/3/1 6/4/1
f 3/5/2 7/6/2 5/7/2 1/8/2
f 6/4/3 2/9/3 1/10/3 5/7/3
f 7/6/4 8/1/4 6/4/4 5/7/4
f 4/11/5 8/1/5 7/6/5 3/12/5
f 1/13/6 2/14/6 4/11/6 3/12/6
f 11/5/2 18/15/2 19/16/2 9/8/2
f 16/1/1 12/2/1 10/3/1 14/4/1
f 17/17/2 15/6/2 13/7/2 20/18/2
f 18/15/2 17/17/2 20/18/2 19/16/2
f 13/7/6 14/4/6 10/9/6 9/10/6 19/19/6 22/20/6 21/21/6 20/22/6
f 11/12/4 12/11/4 16/1/4 15/6/4 17/23/4 24/24/4 23/25/4 18/26/4
f 18/27/3 23/27/3 22/27/3 19/27/3
f 17/27/5 20/27/5 21/27/5 24/27/5
f 15/6/3 16/1/3 14/4/3 13/7/3
f 9/13/5 10/14/5 12/11/5 11/12/5
f 23/25/2 24/24/2 21/21/2 22/20/2
f 32/1/1 28/2/1 26/3/1 30/4/1
f 27/5/2 31/6/2 29/7/2 25/8/2
f 30/4/6 26/9/6 25/10/6 29/7/6
f 31/6/3 32/1/3 30/4/3 29/7/3
f 28/11/4 32/1/4 31/6/4 27/12/4
f 25/13/5 26/14/5 28/11/5 27/12/5
f 40/1/1 36/2/1 34/3/1 38/4/1
f 35/5/2 39/6/2 37/7/2 33/8/2
f 38/4/6 34/9/6 33/10/6 37/7/6
f 39/6/3 40/1/3 38/4/3 37/7/3
f 36/11/4 40/1/4 39/6/4 35/12/4
f 33/13/5 34/14/5 36/11/5 35/12/5
f 48/1/1 44/2/1 42/3/1 46/4/1
f 43/5/2 47/6/2 45/7/2 41/8/2
f 46/4/3 42/9/3 41/10/3 45/7/3
f 47/6/4 48/1/4 46/4/4 45/7/4
f 44/11/5 48/1/5 47/6/5 43/12/5
f 41/13/6 42/14/6 44/11/6 43/12/6
f 56/1/1 52/2/1 50/3/1 54/4/1
f 51/5/2 55/6/2 53/7/2 49/8/2
f 54/4/3 50/9/3 49/10/3 53/7/3
f 55/6/4 56/1/4 54/4/4 53/7/4
f 52/11/5 56/1/5 55/6/5 51/12/5
f 49/13/6 50/14/6 52/11/6 51/12/6
f 64/1/1 60/2/1 58/3/1 62/4/1
f 59/5/2 63/6/2 61/7/2 57/8/2
f 62/4/3 58/9/3 57/10/3 61/7/3
f 63/6/4 64/1/4 62/4/4 61/7/4
f 60/11/5 64/1/5 63/6/5 59/12/5
f 57/13/6 58/14/6 60/11/6 59/12/6
f 67/5/2 74/15/2 75/16/2 65/8/2
f 72/1/1 68/2/1 66/3/1 70/4/1
f 73/17/2 71/6/2 69/7/2 76/18/2
f 74/15/2 73/17/2 76/18/2 75/16/2
f 69/7/6 70/4/6 66/9/6 65/10/6 75/19/6 78/20/6 77/21/6 76/22/6
f 67/12/4 68/11/4 72/1/4 71/6/4 73/23/4 80/24/4 79/25/4 74/26/4
f 74/27/3 79/27/3 78/27/3 75/27/3
f 73/27/5 76/27/5 77/27/5 80/27/5
f 71/6/3 72/1/3 70/4/3 69/7/3
f 65/13/5 66/14/5 68/11/5 67/12/5
f 79/25/2 80/24/2 77/21/2 78/20/2
f 25/27/2 45/27/2 33/27/2 29/27/2 55/27/2 37/27/2 51/27/2 63/27/2 15/27/2 59/27/2 17/17/2 18/15/2 71/27/2 11/27/2 73/17/2 74/15/2 1/27/2 67/27/2 41/27/2 5/27/2
f 60/27/1 16/27/1 64/27/1 52/27/1 38/27/1 56/27/1 30/27/1 34/27/1 46/27/1 26/27/1 6/27/1 42/27/1 68/27/1 2/27/1 12/27/1 72/27/1
l 1 15
l 5 11
l 6 16
