# Blender 4.5.1 LTS
# www.blender.org
mtllib Doubles_Room_Left_4_Way_Right.mtl
o Doubles_Room_Left_4_Way_Right
v -759.849976 0.000000 -40.000000
v -759.849976 5.300000 -40.000000
v -760.150024 0.000000 -40.000000
v -760.150024 5.300000 -40.000000
v -759.849976 0.000000 -50.000000
v -759.849976 5.300000 -50.000000
v -760.150024 0.000000 -50.000000
v -760.150024 5.300000 -50.000000
v -760.150024 0.000000 -46.000000
v -760.150024 0.000000 -44.000000
v -759.849976 0.000000 -44.000000
v -759.849976 0.000000 -46.000000
v -759.849976 3.975000 -46.000000
v -759.849976 3.975000 -44.000000
v -760.150024 3.975000 -44.000000
v -760.150024 3.975000 -46.000000
v -749.999878 0.000000 -29.849995
v -749.999878 5.300000 -29.849995
v -749.999878 0.000000 -30.149994
v -749.999878 5.300000 -30.149994
v -739.999878 0.000000 -29.849997
v -739.999878 5.300000 -29.849997
v -739.999878 0.000000 -30.149996
v -739.999878 5.300000 -30.149996
v -743.999878 0.000000 -30.149996
v -745.999878 0.000000 -30.149996
v -745.999878 0.000000 -29.849997
v -743.999878 0.000000 -29.849997
v -743.999878 3.975000 -29.849997
v -745.999878 3.975000 -29.849997
v -745.999878 3.975000 -30.149996
v -743.999878 3.975000 -30.149996
v -750.000244 0.000000 -49.849995
v -750.000244 5.300000 -49.849995
v -750.000244 0.000000 -50.149998
v -750.000244 5.300000 -50.149998
v -740.000244 0.000000 -49.849995
v -740.000244 5.300000 -49.849995
v -740.000244 0.000000 -50.149994
v -740.000244 5.300000 -50.149994
v -739.850220 0.000000 -39.999996
v -739.850220 5.300000 -39.999996
v -740.150208 0.000000 -39.999996
v -740.150208 5.300000 -39.999996
v -739.850220 0.000000 -49.999996
v -739.850220 5.300000 -49.999996
v -740.150208 0.000000 -49.999996
v -740.150208 5.300000 -49.999996
v -759.999878 0.000000 -29.849995
v -759.999878 5.300000 -29.849995
v -759.999878 0.000000 -30.149994
v -759.999878 5.300000 -30.149994
v -749.999878 0.000000 -29.849995
v -749.999878 5.300000 -29.849995
v -749.999878 0.000000 -30.149994
v -749.999878 5.300000 -30.149994
v -753.999878 0.000000 -30.149994
v -755.999878 0.000000 -30.149994
v -755.999878 0.000000 -29.849995
v -753.999878 0.000000 -29.849995
v -753.999878 3.975000 -29.849995
v -755.999878 3.975000 -29.849995
v -755.999878 3.975000 -30.149994
v -753.999878 3.975000 -30.149994
v -739.849915 0.000000 -29.999996
v -739.849915 5.300000 -29.999996
v -740.149902 0.000000 -29.999996
v -740.149902 5.300000 -29.999996
v -739.849915 0.000000 -39.999996
v -739.849915 5.300000 -39.999996
v -740.149902 0.000000 -39.999996
v -740.149902 5.300000 -39.999996
v -740.149902 0.000000 -35.999996
v -740.149902 0.000000 -33.999996
v -739.849915 0.000000 -33.999996
v -739.849915 0.000000 -35.999996
v -739.849915 3.975000 -35.999996
v -739.849915 3.975000 -33.999996
v -740.149902 3.975000 -33.999996
v -740.149902 3.975000 -35.999996
v -759.849854 0.000000 -29.999996
v -759.849854 5.300000 -29.999996
v -760.149841 0.000000 -29.999996
v -760.149841 5.300000 -29.999996
v -759.849854 0.000000 -39.999996
v -759.849854 5.300000 -39.999996
v -760.149841 0.000000 -39.999996
v -760.149841 5.300000 -39.999996
v -760.149841 0.000000 -35.999996
v -760.149841 0.000000 -33.999996
v -759.849854 0.000000 -33.999996
v -759.849854 0.000000 -35.999996
v -759.849854 3.975000 -35.999996
v -759.849854 3.975000 -33.999996
v -760.149841 3.975000 -33.999996
v -760.149841 3.975000 -35.999996
v -759.999878 0.000000 -49.849995
v -759.999878 5.300000 -49.849995
v -759.999878 0.000000 -50.149994
v -759.999878 5.300000 -50.149994
v -749.999878 0.000000 -49.849995
v -749.999878 5.300000 -49.849995
v -749.999878 0.000000 -50.149994
v -749.999878 5.300000 -50.149994
v -755.999878 0.000000 -49.849995
v -753.999878 0.000000 -49.849995
v -753.999878 3.975000 -49.849995
v -755.999878 3.975000 -49.849995
v -755.999878 3.975000 -50.149994
v -753.999878 3.975000 -50.149994
v -749.999878 0.000000 -49.849995
v -749.999878 5.300000 -49.849995
v -749.999878 0.000000 -50.149998
v -749.999878 5.300000 -50.149998
v -739.999878 0.000000 -49.849995
v -739.999878 5.300000 -49.849995
v -739.999878 0.000000 -50.149994
v -739.999878 5.300000 -50.149994
v -743.999878 0.000000 -50.149994
v -745.999878 0.000000 -50.149994
v -745.999878 0.000000 -49.849995
v -743.999878 0.000000 -49.849995
v -743.999878 3.975000 -49.849995
v -745.999878 3.975000 -49.849995
v -745.999878 3.975000 -50.149994
v -743.999878 3.975000 -50.149994
v -760.000183 0.000000 -49.849995
v -760.000183 5.300000 -49.849995
v -760.000183 0.000000 -50.149994
v -760.000183 5.300000 -50.149994
v -750.000183 0.000000 -49.849995
v -750.000183 5.300000 -49.849995
v -750.000183 0.000000 -50.149994
v -750.000183 5.300000 -50.149994
vn -0.0000 -1.0000 -0.0000
vn -0.0000 1.0000 -0.0000
vn 1.0000 -0.0000 -0.0000
vn -1.0000 -0.0000 -0.0000
vn -0.0000 -0.0000 -1.0000
vn -0.0000 -0.0000 1.0000
vt 0.125000 0.500000
vt 0.225000 0.500000
vt 0.225000 0.750000
vt 0.125000 0.750000
vt 0.625000 0.500000
vt 0.875000 0.500000
vt 0.875000 0.750000
vt 0.625000 0.750000
vt 0.275000 0.500000
vt 0.375000 0.500000
vt 0.375000 0.750000
vt 0.275000 0.750000
vt 0.625000 1.000000
vt 0.375000 1.000000
vt 0.375000 0.900000
vt 0.562500 0.900000
vt 0.562500 0.850000
vt 0.375000 0.850000
vt 0.375000 0.250000
vt 0.625000 0.250000
vt 0.375000 0.400000
vt 0.562500 0.400000
vt 0.562500 0.350000
vt 0.375000 0.350000
vt 0.000000 0.000000
vt 0.375000 0.000000
vt 0.625000 0.000000
s 0
f 3/1/1 10/2/1 11/3/1 1/4/1
f 8/5/2 4/6/2 2/7/2 6/8/2
f 9/9/1 7/10/1 5/11/1 12/12/1
f 10/2/1 9/9/1 12/12/1 11/3/1
f 5/11/3 6/8/3 2/13/3 1/14/3 11/15/3 14/16/3 13/17/3 12/18/3
f 3/19/4 4/20/4 8/5/4 7/10/4 9/21/4 16/22/4 15/23/4 10/24/4
f 10/25/5 15/25/5 14/25/5 11/25/5
f 9/25/6 12/25/6 13/25/6 16/25/6
f 7/10/5 8/5/5 6/8/5 5/11/5
f 1/26/6 2/27/6 4/20/6 3/19/6
f 15/23/1 16/22/1 13/17/1 14/16/1
f 19/1/1 26/2/1 27/3/1 17/4/1
f 24/5/2 20/6/2 18/7/2 22/8/2
f 25/9/1 23/10/1 21/11/1 28/12/1
f 26/2/1 25/9/1 28/12/1 27/3/1
f 21/11/6 22/8/6 18/13/6 17/14/6 27/15/6 30/16/6 29/17/6 28/18/6
f 19/19/5 20/20/5 24/5/5 23/10/5 25/21/5 32/22/5 31/23/5 26/24/5
f 26/25/3 31/25/3 30/25/3 27/25/3
f 25/25/4 28/25/4 29/25/4 32/25/4
f 23/10/3 24/5/3 22/8/3 21/11/3
f 17/26/4 18/27/4 20/20/4 19/19/4
f 31/23/1 32/22/1 29/17/1 30/16/1
f 48/5/2 44/6/2 42/7/2 46/8/2
f 43/1/1 47/10/1 45/11/1 41/4/1
f 46/8/3 42/13/3 41/14/3 45/11/3
f 47/10/5 48/5/5 46/8/5 45/11/5
f 44/20/4 48/5/4 47/10/4 43/19/4
f 41/26/6 42/27/6 44/20/6 43/19/6
f 51/1/1 58/2/1 59/3/1 49/4/1
f 56/5/2 52/6/2 50/7/2 54/8/2
f 57/9/1 55/10/1 53/11/1 60/12/1
f 58/2/1 57/9/1 60/12/1 59/3/1
f 53/11/6 54/8/6 50/13/6 49/14/6 59/15/6 62/16/6 61/17/6 60/18/6
f 51/19/5 52/20/5 56/5/5 55/10/5 57/21/5 64/22/5 63/23/5 58/24/5
f 58/25/3 63/25/3 62/25/3 59/25/3
f 57/25/4 60/25/4 61/25/4 64/25/4
f 55/10/3 56/5/3 54/8/3 53/11/3
f 49/26/4 50/27/4 52/20/4 51/19/4
f 63/23/1 64/22/1 61/17/1 62/16/1
f 67/1/1 74/2/1 75/3/1 65/4/1
f 72/5/2 68/6/2 66/7/2 70/8/2
f 73/9/1 71/10/1 69/11/1 76/12/1
f 74/2/1 73/9/1 76/12/1 75/3/1
f 69/11/3 70/8/3 66/13/3 65/14/3 75/15/3 78/16/3 77/17/3 76/18/3
f 67/19/4 68/20/4 72/5/4 71/10/4 73/21/4 80/22/4 79/23/4 74/24/4
f 74/25/5 79/25/5 78/25/5 75/25/5
f 73/25/6 76/25/6 77/25/6 80/25/6
f 71/10/5 72/5/5 70/8/5 69/11/5
f 65/26/6 66/27/6 68/20/6 67/19/6
f 79/23/1 80/22/1 77/17/1 78/16/1
f 83/1/1 90/2/1 91/3/1 81/4/1
f 88/5/2 84/6/2 82/7/2 86/8/2
f 89/9/1 87/10/1 85/11/1 92/12/1
f 90/2/1 89/9/1 92/12/1 91/3/1
f 85/11/3 86/8/3 82/13/3 81/14/3 91/15/3 94/16/3 93/17/3 92/18/3
f 83/19/4 84/20/4 88/5/4 87/10/4 89/21/4 96/22/4 95/23/4 90/24/4
f 90/25/5 95/25/5 94/25/5 91/25/5
f 89/25/6 92/25/6 93/25/6 96/25/6
f 87/10/5 88/5/5 86/8/5 85/11/5
f 81/26/6 82/27/6 84/20/6 83/19/6
f 95/23/1 96/22/1 93/17/1 94/16/1
f 68/25/2 24/25/2 44/25/2 72/25/2 38/25/2 48/25/2 102/25/2 34/25/2 6/25/2 98/25/2 86/25/2 2/25/2 52/25/2 82/25/2 56/25/2 20/25/2
f 47/25/1 37/25/1 43/25/1 71/10/1 73/9/1 74/2/1 23/25/1 67/25/1 25/9/1 26/2/1 19/1/1 55/10/1 57/9/1 58/2/1 81/25/1 51/25/1 91/3/1 92/12/1 1/25/1 85/25/1 11/3/1 12/12/1 97/25/1 5/25/1 105/3/1 106/12/1 33/25/1 101/25/1
f 113/1/1 120/2/1 121/3/1 111/4/1
f 118/5/2 114/6/2 112/7/2 116/8/2
f 119/9/1 117/10/1 115/11/1 122/12/1
f 120/2/1 119/9/1 122/12/1 121/3/1
f 115/11/6 116/8/6 112/13/6 111/14/6 121/15/6 124/16/6 123/17/6 122/18/6
f 113/19/5 114/20/5 118/5/5 117/10/5 119/21/5 126/22/5 125/23/5 120/24/5
f 120/25/3 125/25/3 124/25/3 121/25/3
f 119/25/4 122/25/4 123/25/4 126/25/4
f 117/10/3 118/5/3 116/8/3 115/11/3
f 111/26/4 112/27/4 114/20/4 113/19/4
f 125/23/1 126/22/1 123/17/1 124/16/1
f 134/5/2 130/6/2 128/7/2 132/8/2
f 129/1/1 133/10/1 131/11/1 127/4/1
f 132/8/6 128/13/6 127/14/6 131/11/6
f 133/10/3 134/5/3 132/8/3 131/11/3
f 130/20/5 134/5/5 133/10/5 129/19/5
f 127/26/4 128/27/4 130/20/4 129/19/4
l 35 33
l 34 36
l 37 39
l 40 38
l 99 97
l 98 100
l 101 103
l 104 102
l 97 105
l 106 101
l 102 98
l 97 98
l 102 101
l 6 24
l 2 20
l 1 19
l 5 23
