# Blender 4.5.1 LTS
# www.blender.org
mtllib Doubles_Room_Right_2_Way_Doubles.mtl
o Doubles_Room_Right_2_Way_Doubles
v -559.850281 0.000000 -130.000000
v -559.850281 5.300000 -130.000000
v -560.150330 0.000000 -130.000000
v -560.150330 5.300000 -130.000000
v -559.850281 0.000000 -140.000000
v -559.850281 5.300000 -140.000000
v -560.150330 0.000000 -140.000000
v -560.150330 5.300000 -140.000000
v -569.999939 0.000000 -119.849998
v -569.999939 5.300000 -119.849998
v -569.999939 0.000000 -120.150002
v -569.999939 5.300000 -120.150002
v -559.999939 0.000000 -119.849998
v -559.999939 5.300000 -119.849998
v -559.999939 0.000000 -120.150002
v -559.999939 5.300000 -120.150002
v -563.999939 0.000000 -120.150002
v -565.999939 0.000000 -120.150002
v -565.999939 0.000000 -119.849998
v -563.999939 0.000000 -119.849998
v -563.999939 3.975000 -119.849998
v -565.999939 3.975000 -119.849998
v -565.999939 3.975000 -120.150002
v -563.999939 3.975000 -120.150002
v -579.850281 0.000000 -130.000000
v -579.850281 5.300000 -130.000000
v -580.150269 0.000000 -130.000000
v -580.150269 5.300000 -130.000000
v -579.850281 0.000000 -140.000000
v -579.850281 5.300000 -140.000000
v -580.150269 0.000000 -140.000000
v -580.150269 5.300000 -140.000000
v -580.000000 0.000000 -119.849998
v -580.000000 5.300000 -119.849998
v -580.000000 0.000000 -120.150002
v -580.000000 5.300000 -120.150002
v -570.000000 0.000000 -119.849998
v -570.000000 5.300000 -119.849998
v -570.000000 0.000000 -120.150002
v -570.000000 5.300000 -120.150002
v -574.000000 0.000000 -120.150002
v -576.000000 0.000000 -120.150002
v -576.000000 0.000000 -119.849998
v -574.000000 0.000000 -119.849998
v -574.000000 3.975000 -119.849998
v -576.000000 3.975000 -119.849998
v -576.000000 3.975000 -120.150002
v -574.000000 3.975000 -120.150002
v -559.849976 0.000000 -120.000000
v -559.849976 5.300000 -120.000000
v -560.149963 0.000000 -120.000000
v -560.149963 5.300000 -120.000000
v -559.849976 0.000000 -130.000000
v -559.849976 5.300000 -130.000000
v -560.149963 0.000000 -130.000000
v -560.149963 5.300000 -130.000000
v -560.149963 0.000000 -126.000000
v -560.149963 0.000000 -124.000000
v -559.849976 0.000000 -124.000000
v -559.849976 0.000000 -126.000000
v -559.849976 3.975000 -126.000000
v -559.849976 3.975000 -124.000000
v -560.149963 3.975000 -124.000000
v -560.149963 3.975000 -126.000000
v -579.850281 0.000000 -120.000000
v -579.850281 5.300000 -120.000000
v -580.150269 0.000000 -120.000000
v -580.150269 5.300000 -120.000000
v -579.850281 0.000000 -130.000000
v -579.850281 5.300000 -130.000000
v -580.150269 0.000000 -130.000000
v -580.150269 5.300000 -130.000000
v -569.999939 0.000000 -139.850006
v -569.999939 5.300000 -139.850006
v -569.999939 0.000000 -140.149994
v -569.999939 5.300000 -140.149994
v -559.999939 0.000000 -139.850006
v -559.999939 5.300000 -139.850006
v -559.999939 0.000000 -140.149994
v -559.999939 5.300000 -140.149994
v -563.999939 0.000000 -140.149994
v -565.999939 0.000000 -140.149994
v -565.999939 0.000000 -139.850006
v -563.999939 0.000000 -139.850006
v -563.999939 3.975000 -139.850006
v -565.999939 3.975000 -139.850006
v -565.999939 3.975000 -140.149994
v -563.999939 3.975000 -140.149994
v -580.000000 0.000000 -139.850006
v -580.000000 5.300000 -139.850006
v -580.000000 0.000000 -140.149994
v -580.000000 5.300000 -140.149994
v -570.000000 0.000000 -139.850006
v -570.000000 5.300000 -139.850006
v -570.000000 0.000000 -140.149994
v -570.000000 5.300000 -140.149994
v -574.000000 0.000000 -140.149994
v -576.000000 0.000000 -140.149994
v -576.000000 0.000000 -139.850006
v -574.000000 0.000000 -139.850006
v -574.000000 3.975000 -139.850006
v -576.000000 3.975000 -139.850006
v -576.000000 3.975000 -140.149994
v -574.000000 3.975000 -140.149994
vn -0.0000 1.0000 -0.0000
vn -0.0000 -1.0000 -0.0000
vn 1.0000 -0.0000 -0.0000
vn -0.0000 -0.0000 -1.0000
vn -1.0000 -0.0000 -0.0000
vn -0.0000 -0.0000 1.0000
vt 0.625000 0.500000
vt 0.875000 0.500000
vt 0.875000 0.750000
vt 0.625000 0.750000
vt 0.125000 0.500000
vt 0.375000 0.500000
vt 0.375000 0.750000
vt 0.125000 0.750000
vt 0.625000 1.000000
vt 0.375000 1.000000
vt 0.625000 0.250000
vt 0.375000 0.250000
vt 0.375000 0.000000
vt 0.625000 0.000000
vt 0.225000 0.500000
vt 0.225000 0.750000
vt 0.275000 0.500000
vt 0.275000 0.750000
vt 0.375000 0.900000
vt 0.562500 0.900000
vt 0.562500 0.850000
vt 0.375000 0.850000
vt 0.375000 0.400000
vt 0.562500 0.400000
vt 0.562500 0.350000
vt 0.375000 0.350000
vt 0.000000 0.000000
s 0
f 8/1/1 4/2/1 2/3/1 6/4/1
f 3/5/2 7/6/2 5/7/2 1/8/2
f 6/4/3 2/9/3 1/10/3 5/7/3
f 7/6/4 8/1/4 6/4/4 5/7/4
f 4/11/5 8/1/5 7/6/5 3/12/5
f 1/13/6 2/14/6 4/11/6 3/12/6
f 11/5/2 18/15/2 19/16/2 9/8/2
f 16/1/1 12/2/1 10/3/1 14/4/1
f 17/17/2 15/6/2 13/7/2 20/18/2
f 18/15/2 17/17/2 20/18/2 19/16/2
f 13/7/6 14/4/6 10/9/6 9/10/6 19/19/6 22/20/6 21/21/6 20/22/6
f 11/12/4 12/11/4 16/1/4 15/6/4 17/23/4 24/24/4 23/25/4 18/26/4
f 18/27/3 23/27/3 22/27/3 19/27/3
f 17/27/5 20/27/5 21/27/5 24/27/5
f 15/6/3 16/1/3 14/4/3 13/7/3
f 9/13/5 10/14/5 12/11/5 11/12/5
f 23/25/2 24/24/2 21/21/2 22/20/2
f 32/1/1 28/2/1 26/3/1 30/4/1
f 27/5/2 31/6/2 29/7/2 25/8/2
f 30/4/3 26/9/3 25/10/3 29/7/3
f 31/6/4 32/1/4 30/4/4 29/7/4
f 28/11/5 32/1/5 31/6/5 27/12/5
f 25/13/6 26/14/6 28/11/6 27/12/6
f 35/5/2 42/15/2 43/16/2 33/8/2
f 40/1/1 36/2/1 34/3/1 38/4/1
f 41/17/2 39/6/2 37/7/2 44/18/2
f 42/15/2 41/17/2 44/18/2 43/16/2
f 37/7/6 38/4/6 34/9/6 33/10/6 43/19/6 46/20/6 45/21/6 44/22/6
f 35/12/4 36/11/4 40/1/4 39/6/4 41/23/4 48/24/4 47/25/4 42/26/4
f 42/27/3 47/27/3 46/27/3 43/27/3
f 41/27/5 44/27/5 45/27/5 48/27/5
f 39/6/3 40/1/3 38/4/3 37/7/3
f 33/13/5 34/14/5 36/11/5 35/12/5
f 47/25/2 48/24/2 45/21/2 46/20/2
f 51/5/2 58/15/2 59/16/2 49/8/2
f 56/1/1 52/2/1 50/3/1 54/4/1
f 57/17/2 55/6/2 53/7/2 60/18/2
f 58/15/2 57/17/2 60/18/2 59/16/2
f 53/7/3 54/4/3 50/9/3 49/10/3 59/19/3 62/20/3 61/21/3 60/22/3
f 51/12/5 52/11/5 56/1/5 55/6/5 57/23/5 64/24/5 63/25/5 58/26/5
f 58/27/4 63/27/4 62/27/4 59/27/4
f 57/27/6 60/27/6 61/27/6 64/27/6
f 55/6/4 56/1/4 54/4/4 53/7/4
f 49/13/6 50/14/6 52/11/6 51/12/6
f 63/25/2 64/24/2 61/21/2 62/20/2
f 72/1/1 68/2/1 66/3/1 70/4/1
f 67/5/2 71/6/2 69/7/2 65/8/2
f 70/4/3 66/9/3 65/10/3 69/7/3
f 71/6/4 72/1/4 70/4/4 69/7/4
f 68/11/5 72/1/5 71/6/5 67/12/5
f 65/13/6 66/14/6 68/11/6 67/12/6
f 75/5/2 82/15/2 83/16/2 73/8/2
f 80/1/1 76/2/1 74/3/1 78/4/1
f 81/17/2 79/6/2 77/7/2 84/18/2
f 82/15/2 81/17/2 84/18/2 83/16/2
f 77/7/6 78/4/6 74/9/6 73/10/6 83/19/6 86/20/6 85/21/6 84/22/6
f 75/12/4 76/11/4 80/1/4 79/6/4 81/23/4 88/24/4 87/25/4 82/26/4
f 82/27/3 87/27/3 86/27/3 83/27/3
f 81/27/5 84/27/5 85/27/5 88/27/5
f 79/6/3 80/1/3 78/4/3 77/7/3
f 73/13/5 74/14/5 76/11/5 75/12/5
f 87/25/2 88/24/2 85/21/2 86/20/2
f 91/5/2 98/15/2 99/16/2 89/8/2
f 96/1/1 92/2/1 90/3/1 94/4/1
f 97/17/2 95/6/2 93/7/2 100/18/2
f 98/15/2 97/17/2 100/18/2 99/16/2
f 93/7/6 94/4/6 90/9/6 89/10/6 99/19/6 102/20/6 101/21/6 100/22/6
f 91/12/4 92/11/4 96/1/4 95/6/4 97/23/4 104/24/4 103/25/4 98/26/4
f 98/27/3 103/27/3 102/27/3 99/27/3
f 97/27/5 100/27/5 101/27/5 104/27/5
f 95/6/3 96/1/3 94/4/3 93/7/3
f 89/13/5 90/14/5 92/11/5 91/12/5
f 103/25/2 104/24/2 101/21/2 102/20/2
f 52/27/1 16/27/1 56/27/1 4/27/1 78/27/1 8/27/1 74/27/1 94/27/1 30/27/1 90/27/1 26/27/1 70/27/1 36/27/1 66/27/1 40/27/1 12/27/1
f 25/27/2 89/27/2 29/27/2 99/16/2 100/18/2 93/7/2 73/8/2 83/16/2 84/18/2 7/27/2 77/27/2 55/27/2 3/27/2 57/17/2 58/15/2 15/27/2 51/27/2 17/17/2 18/15/2 11/5/2 39/6/2 41/17/2 42/15/2 65/27/2 35/27/2 69/27/2
l 8 16
l 4 12
l 7 11
l 3 15
