# Blender 4.5.1 LTS
# www.blender.org
mtllib Doubles_Room_Left_2_Way_Right.mtl
o Doubles_Room_Left_2_Way_Right
v -559.850281 0.000000 -40.000000
v -559.850281 5.300000 -40.000000
v -560.150330 0.000000 -40.000000
v -560.150330 5.300000 -40.000000
v -559.850281 0.000000 -50.000000
v -559.850281 5.300000 -50.000000
v -560.150330 0.000000 -50.000000
v -560.150330 5.300000 -50.000000
v -569.999939 0.000000 -29.849995
v -569.999939 5.300000 -29.849995
v -569.999939 0.000000 -30.149994
v -569.999939 5.300000 -30.149994
v -559.999939 0.000000 -29.849995
v -559.999939 5.300000 -29.849995
v -559.999939 0.000000 -30.149994
v -559.999939 5.300000 -30.149994
v -563.999939 0.000000 -30.149994
v -565.999939 0.000000 -30.149994
v -565.999939 0.000000 -29.849995
v -563.999939 0.000000 -29.849995
v -563.999939 3.975000 -29.849995
v -565.999939 3.975000 -29.849995
v -565.999939 3.975000 -30.149994
v -563.999939 3.975000 -30.149994
v -570.000305 0.000000 -49.849995
v -570.000305 5.300000 -49.849995
v -570.000305 0.000000 -50.149994
v -570.000305 5.300000 -50.149994
v -560.000305 0.000000 -49.849995
v -560.000305 5.300000 -49.849995
v -560.000305 0.000000 -50.149994
v -560.000305 5.300000 -50.149994
v -579.850281 0.000000 -39.999992
v -579.850281 5.300000 -39.999992
v -580.150269 0.000000 -39.999992
v -580.150269 5.300000 -39.999992
v -579.850281 0.000000 -49.999992
v -579.850281 5.300000 -49.999992
v -580.150269 0.000000 -49.999992
v -580.150269 5.300000 -49.999992
v -559.850281 0.000000 -29.999996
v -559.850281 5.300000 -29.999996
v -560.150269 0.000000 -29.999996
v -560.150269 5.300000 -29.999996
v -559.850281 0.000000 -39.999996
v -559.850281 5.300000 -39.999996
v -560.150269 0.000000 -39.999996
v -560.150269 5.300000 -39.999996
v -580.000000 0.000000 -29.849997
v -580.000000 5.300000 -29.849997
v -580.000000 0.000000 -30.149998
v -580.000000 5.300000 -30.149998
v -570.000000 0.000000 -29.849998
v -570.000000 5.300000 -29.849998
v -570.000000 0.000000 -30.149998
v -570.000000 5.300000 -30.149998
v -574.000000 0.000000 -30.149998
v -576.000000 0.000000 -30.149998
v -576.000000 0.000000 -29.849997
v -574.000000 0.000000 -29.849997
v -574.000000 3.975000 -29.849997
v -576.000000 3.975000 -29.849997
v -576.000000 3.975000 -30.149998
v -574.000000 3.975000 -30.149998
v -579.849976 0.000000 -29.999996
v -579.849976 5.300000 -29.999996
v -580.149963 0.000000 -29.999996
v -580.149963 5.300000 -29.999996
v -579.849976 0.000000 -39.999996
v -579.849976 5.300000 -39.999996
v -580.149963 0.000000 -39.999996
v -580.149963 5.300000 -39.999996
v -580.149963 0.000000 -35.999996
v -580.149963 0.000000 -33.999996
v -579.849976 0.000000 -33.999996
v -579.849976 0.000000 -35.999996
v -579.849976 3.975000 -35.999996
v -579.849976 3.975000 -33.999996
v -580.149963 3.975000 -33.999996
v -580.149963 3.975000 -35.999996
v -580.000000 0.000000 -49.849995
v -580.000000 5.300000 -49.849995
v -580.000000 0.000000 -50.149994
v -580.000000 5.300000 -50.149994
v -570.000000 0.000000 -49.849995
v -570.000000 5.300000 -49.849995
v -570.000000 0.000000 -50.149994
v -570.000000 5.300000 -50.149994
v -576.000000 0.000000 -49.849995
v -574.000000 0.000000 -49.849995
v -574.000000 3.975000 -49.849995
v -576.000000 3.975000 -49.849995
v -576.000000 3.975000 -50.149994
v -574.000000 3.975000 -50.149994
v -569.999939 0.000000 -49.849995
v -569.999939 5.300000 -49.849995
v -569.999939 0.000000 -50.149994
v -569.999939 5.300000 -50.149994
v -559.999939 0.000000 -49.849995
v -559.999939 5.300000 -49.849995
v -559.999939 0.000000 -50.149994
v -559.999939 5.300000 -50.149994
v -563.999939 0.000000 -50.149994
v -565.999939 0.000000 -50.149994
v -565.999939 0.000000 -49.849995
v -563.999939 0.000000 -49.849995
v -563.999939 3.975000 -49.849995
v -565.999939 3.975000 -49.849995
v -565.999939 3.975000 -50.149994
v -563.999939 3.975000 -50.149994
v -580.000244 0.000000 -49.849995
v -580.000244 5.300000 -49.849995
v -580.000244 0.000000 -50.149994
v -580.000244 5.300000 -50.149994
v -570.000244 0.000000 -49.849995
v -570.000244 5.300000 -49.849995
v -570.000244 0.000000 -50.149994
v -570.000244 5.300000 -50.149994
vn -0.0000 1.0000 -0.0000
vn -0.0000 -1.0000 -0.0000
vn 1.0000 -0.0000 -0.0000
vn -0.0000 -0.0000 -1.0000
vn -1.0000 -0.0000 -0.0000
vn -0.0000 -0.0000 1.0000
vt 0.625000 0.500000
vt 0.875000 0.500000
vt 0.875000 0.750000
vt 0.625000 0.750000
vt 0.125000 0.500000
vt 0.375000 0.500000
vt 0.375000 0.750000
vt 0.125000 0.750000
vt 0.625000 1.000000
vt 0.375000 1.000000
vt 0.625000 0.250000
vt 0.375000 0.250000
vt 0.375000 0.000000
vt 0.625000 0.000000
vt 0.225000 0.500000
vt 0.225000 0.750000
vt 0.275000 0.500000
vt 0.275000 0.750000
vt 0.375000 0.900000
vt 0.562500 0.900000
vt 0.562500 0.850000
vt 0.375000 0.850000
vt 0.375000 0.400000
vt 0.562500 0.400000
vt 0.562500 0.350000
vt 0.375000 0.350000
vt 0.000000 0.000000
s 0
f 8/1/1 4/2/1 2/3/1 6/4/1
f 3/5/2 7/6/2 5/7/2 1/8/2
f 6/4/3 2/9/3 1/10/3 5/7/3
f 7/6/4 8/1/4 6/4/4 5/7/4
f 4/11/5 8/1/5 7/6/5 3/12/5
f 1/13/6 2/14/6 4/11/6 3/12/6
f 11/5/2 18/15/2 19/16/2 9/8/2
f 16/1/1 12/2/1 10/3/1 14/4/1
f 17/17/2 15/6/2 13/7/2 20/18/2
f 18/15/2 17/17/2 20/18/2 19/16/2
f 13/7/6 14/4/6 10/9/6 9/10/6 19/19/6 22/20/6 21/21/6 20/22/6
f 11/12/4 12/11/4 16/1/4 15/6/4 17/23/4 24/24/4 23/25/4 18/26/4
f 18/27/3 23/27/3 22/27/3 19/27/3
f 17/27/5 20/27/5 21/27/5 24/27/5
f 15/6/3 16/1/3 14/4/3 13/7/3
f 9/13/5 10/14/5 12/11/5 11/12/5
f 23/25/2 24/24/2 21/21/2 22/20/2
f 40/1/1 36/2/1 34/3/1 38/4/1
f 35/5/2 39/6/2 37/7/2 33/8/2
f 38/4/3 34/9/3 33/10/3 37/7/3
f 39/6/4 40/1/4 38/4/4 37/7/4
f 36/11/5 40/1/5 39/6/5 35/12/5
f 33/13/6 34/14/6 36/11/6 35/12/6
f 48/1/1 44/2/1 42/3/1 46/4/1
f 43/5/2 47/6/2 45/7/2 41/8/2
f 46/4/3 42/9/3 41/10/3 45/7/3
f 47/6/4 48/1/4 46/4/4 45/7/4
f 44/11/5 48/1/5 47/6/5 43/12/5
f 41/13/6 42/14/6 44/11/6 43/12/6
f 51/5/2 58/15/2 59/16/2 49/8/2
f 56/1/1 52/2/1 50/3/1 54/4/1
f 57/17/2 55/6/2 53/7/2 60/18/2
f 58/15/2 57/17/2 60/18/2 59/16/2
f 53/7/6 54/4/6 50/9/6 49/10/6 59/19/6 62/20/6 61/21/6 60/22/6
f 51/12/4 52/11/4 56/1/4 55/6/4 57/23/4 64/24/4 63/25/4 58/26/4
f 58/27/3 63/27/3 62/27/3 59/27/3
f 57/27/5 60/27/5 61/27/5 64/27/5
f 55/6/3 56/1/3 54/4/3 53/7/3
f 49/13/5 50/14/5 52/11/5 51/12/5
f 63/25/2 64/24/2 61/21/2 62/20/2
f 67/5/2 74/15/2 75/16/2 65/8/2
f 72/1/1 68/2/1 66/3/1 70/4/1
f 73/17/2 71/6/2 69/7/2 76/18/2
f 74/15/2 73/17/2 76/18/2 75/16/2
f 69/7/3 70/4/3 66/9/3 65/10/3 75/19/3 78/20/3 77/21/3 76/22/3
f 67/12/5 68/11/5 72/1/5 71/6/5 73/23/5 80/24/5 79/25/5 74/26/5
f 74/27/4 79/27/4 78/27/4 75/27/4
f 73/27/6 76/27/6 77/27/6 80/27/6
f 71/6/4 72/1/4 70/4/4 69/7/4
f 65/13/6 66/14/6 68/11/6 67/12/6
f 79/25/2 80/24/2 77/21/2 78/20/2
f 44/27/1 16/27/1 48/27/1 4/27/1 30/27/1 8/27/1 86/27/1 26/27/1 38/27/1 82/27/1 70/27/1 34/27/1 52/27/1 66/27/1 56/27/1 12/27/1
f 7/27/2 29/27/2 3/27/2 47/27/2 15/27/2 43/27/2 17/17/2 18/15/2 11/5/2 55/6/2 57/17/2 58/15/2 65/27/2 51/27/2 75/16/2 76/18/2 33/27/2 69/27/2 81/27/2 37/27/2 89/16/2 90/18/2 25/27/2 85/27/2
f 97/5/2 104/15/2 105/16/2 95/8/2
f 102/1/1 98/2/1 96/3/1 100/4/1
f 103/17/2 101/6/2 99/7/2 106/18/2
f 104/15/2 103/17/2 106/18/2 105/16/2
f 99/7/6 100/4/6 96/9/6 95/10/6 105/19/6 108/20/6 107/21/6 106/22/6
f 97/12/4 98/11/4 102/1/4 101/6/4 103/23/4 110/24/4 109/25/4 104/26/4
f 104/27/3 109/27/3 108/27/3 105/27/3
f 103/27/5 106/27/5 107/27/5 110/27/5
f 101/6/3 102/1/3 100/4/3 99/7/3
f 95/13/5 96/14/5 98/11/5 97/12/5
f 109/25/2 110/24/2 107/21/2 108/20/2
f 118/1/1 114/2/1 112/3/1 116/4/1
f 113/5/2 117/6/2 115/7/2 111/8/2
f 116/4/6 112/9/6 111/10/6 115/7/6
f 117/6/3 118/1/3 116/4/3 115/7/3
f 114/11/4 118/1/4 117/6/4 113/12/4
f 111/13/5 112/14/5 114/11/5 113/12/5
l 27 25
l 26 28
l 29 31
l 32 30
l 83 81
l 82 84
l 85 87
l 88 86
l 81 89
l 90 85
l 86 82
l 81 82
l 86 85
l 4 12
l 8 16
l 7 11
l 3 15
