# Blender 4.5.1 LTS
# www.blender.org
mtllib Hallway 3 Way.mtl
o Wall_without_door.004
v -29.850306 0.000000 0.000000
v -29.850306 5.300000 0.000000
v -30.150305 0.000000 0.000000
v -30.150305 5.300000 0.000000
v -29.850306 0.000000 -10.000000
v -29.850306 5.300000 -10.000000
v -30.150305 0.000000 -10.000000
v -30.150305 5.300000 -10.000000
v -30.000000 0.000000 0.150000
v -30.000000 5.300000 0.150000
v -30.000000 0.000000 -0.150000
v -30.000000 5.300000 -0.150000
v -20.000002 0.000000 0.150000
v -20.000002 5.300000 0.150000
v -20.000002 0.000000 -0.150000
v -20.000002 5.300000 -0.150000
v -24.000000 0.000000 -0.150000
v -26.000000 0.000000 -0.150000
v -26.000000 0.000000 0.150000
v -24.000000 0.000000 0.149999
v -24.000000 3.975000 0.149999
v -26.000000 3.975000 0.150000
v -26.000000 3.975000 -0.150000
v -24.000000 3.975000 -0.150000
v -30.000000 0.000000 -19.850000
v -30.000000 5.300000 -19.850000
v -30.000000 0.000000 -20.150000
v -30.000000 5.300000 -20.150000
v -20.000000 0.000000 -19.850000
v -20.000000 5.300000 -19.850000
v -20.000000 0.000000 -20.150000
v -20.000000 5.300000 -20.150000
v -24.000000 0.000000 -20.150000
v -26.000000 0.000000 -20.150000
v -26.000000 0.000000 -19.850000
v -24.000000 0.000000 -19.850000
v -24.000000 3.975000 -19.850000
v -26.000000 3.975000 -19.850000
v -26.000000 3.975000 -20.150000
v -24.000000 3.975000 -20.150000
v -20.150002 0.000000 -10.000000
v -20.150002 5.300000 -10.000000
v -19.850002 0.000000 -10.000000
v -19.850002 5.300000 -10.000000
v -20.150002 5.300000 -0.000000
v -19.850002 0.000000 -0.000000
v -19.850002 5.300000 -0.000000
v -19.850002 0.000000 -4.000000
v -19.850002 0.000000 -6.000000
v -19.850304 0.000000 -10.000000
v -19.850304 5.300000 -10.000000
v -20.150303 0.000000 -10.000000
v -20.150303 5.300000 -10.000000
v -19.850304 0.000000 -20.000000
v -19.850304 5.300000 -20.000000
v -20.150305 0.000000 -20.000000
v -20.150305 5.300000 -20.000000
v -29.850304 0.000000 -10.000000
v -29.850304 5.300000 -10.000000
v -30.150305 0.000000 -10.000000
v -30.150305 5.300000 -10.000000
v -29.850306 0.000000 -20.000000
v -29.850306 5.300000 -20.000000
v -30.150305 0.000000 -20.000000
v -30.150305 5.300000 -20.000000
v -29.947926 5.250000 -0.126600
v -29.947926 5.550000 -0.126600
v -20.052082 5.250000 -0.126601
v -20.052082 5.550000 -0.126601
v -29.850000 0.000000 0.000000
v -29.850000 5.300000 0.000000
v -30.150000 0.000000 0.000000
v -30.150000 5.300000 0.000000
v -29.850000 0.000000 -10.000000
v -29.850000 5.300000 -10.000000
v -30.150000 0.000000 -10.000000
v -30.150000 5.300000 -10.000000
v -30.150000 0.000000 -6.000000
v -30.150000 0.000000 -4.000000
v -29.850000 0.000000 -4.000000
v -29.850000 0.000000 -6.000000
v -29.850000 3.975000 -6.000000
v -29.850000 3.975000 -4.000000
v -30.150000 3.975000 -4.000000
v -30.150000 3.975000 -6.000000
v -19.850306 0.000000 -0.000000
v -19.850306 5.300000 -0.000000
v -20.150305 0.000000 -0.000000
v -20.150305 5.300000 -0.000000
v -19.850306 0.000000 -10.000000
v -19.850306 5.300000 -10.000000
v -20.150305 0.000000 -10.000000
v -20.150305 5.300000 -10.000000
v -19.849998 0.000000 0.000000
v -19.849998 5.300000 0.000000
v -20.150000 0.000000 0.000000
v -20.150000 5.300000 0.000000
v -19.849998 0.000000 -10.000000
v -19.849998 5.300000 -10.000000
v -20.150000 0.000000 -10.000000
v -20.150000 5.300000 -10.000000
v -20.150000 0.000000 -6.000000
v -20.150000 0.000000 -4.000000
v -19.849998 0.000000 -4.000000
v -19.849998 0.000000 -6.000000
v -19.849998 3.975000 -6.000000
v -19.849998 3.975000 -4.000000
v -20.150000 3.975000 -4.000000
v -20.150000 3.975000 -6.000000
v -29.994240 5.250000 0.012381
v -29.994240 5.550000 0.012381
v -29.994238 5.250000 -20.012381
v -29.994238 5.550000 -20.012381
v -20.005764 5.250000 0.012381
v -20.005764 5.550000 0.012381
v -20.005764 5.250000 -20.012381
v -20.005764 5.550000 -20.012381
vn -0.0000 -1.0000 -0.0000
vn -0.0000 1.0000 -0.0000
vn -0.0000 -0.0000 1.0000
vn -0.0000 -0.0000 -1.0000
vn 1.0000 -0.0000 -0.0000
vn -1.0000 -0.0000 -0.0000
vt 0.125000 0.500000
vt 0.225000 0.500000
vt 0.225000 0.750000
vt 0.125000 0.750000
vt 0.625000 0.500000
vt 0.875000 0.500000
vt 0.875000 0.750000
vt 0.625000 0.750000
vt 0.275000 0.500000
vt 0.375000 0.500000
vt 0.375000 0.750000
vt 0.275000 0.750000
vt 0.625000 1.000000
vt 0.375000 1.000000
vt 0.375000 0.900000
vt 0.562500 0.900000
vt 0.562500 0.850000
vt 0.375000 0.850000
vt 0.375000 0.250000
vt 0.625000 0.250000
vt 0.375000 0.400000
vt 0.562500 0.400000
vt 0.562500 0.350000
vt 0.375000 0.350000
vt 0.000000 0.000000
vt 0.375000 0.000000
vt 0.625000 0.000000
s 0
f 11/1/1 18/2/1 19/3/1 9/4/1
f 16/5/2 12/6/2 10/7/2 14/8/2
f 17/9/1 15/10/1 13/11/1 20/12/1
f 18/2/1 17/9/1 20/12/1 19/3/1
f 13/11/3 14/8/3 10/13/3 9/14/3 19/15/3 22/16/3 21/17/3 20/18/3
f 11/19/4 12/20/4 16/5/4 15/10/4 17/21/4 24/22/4 23/23/4 18/24/4
f 18/25/5 23/25/5 22/25/5 19/25/5
f 17/25/6 20/25/6 21/25/6 24/25/6
f 15/10/5 16/5/5 14/8/5 13/11/5
f 9/26/6 10/27/6 12/20/6 11/19/6
f 23/23/1 24/22/1 21/17/1 22/16/1
f 27/1/1 34/2/1 35/3/1 25/4/1
f 32/5/2 28/6/2 26/7/2 30/8/2
f 33/9/1 31/10/1 29/11/1 36/12/1
f 34/2/1 33/9/1 36/12/1 35/3/1
f 29/11/3 30/8/3 26/13/3 25/14/3 35/15/3 38/16/3 37/17/3 36/18/3
f 27/19/4 28/20/4 32/5/4 31/10/4 33/21/4 40/22/4 39/23/4 34/24/4
f 34/25/5 39/25/5 38/25/5 35/25/5
f 33/25/6 36/25/6 37/25/6 40/25/6
f 31/10/5 32/5/5 30/8/5 29/11/5
f 25/26/6 26/27/6 28/20/6 27/19/6
f 39/23/1 40/22/1 37/17/1 38/16/1
f 57/5/2 53/6/2 51/7/2 55/8/2
f 52/1/1 56/10/1 54/11/1 50/4/1
f 55/8/5 51/13/5 50/14/5 54/11/5
f 56/10/4 57/5/4 55/8/4 54/11/4
f 53/20/6 57/5/6 56/10/6 52/19/6
f 50/26/3 51/27/3 53/20/3 52/19/3
f 65/5/2 61/6/2 59/7/2 63/8/2
f 60/1/1 64/10/1 62/11/1 58/4/1
f 63/8/5 59/13/5 58/14/5 62/11/5
f 64/10/4 65/5/4 63/8/4 62/11/4
f 61/20/6 65/5/6 64/10/6 60/19/6
f 58/26/3 59/27/3 61/20/3 60/19/3
f 72/1/1 79/2/1 80/3/1 70/4/1
f 77/5/2 73/6/2 71/7/2 75/8/2
f 78/9/1 76/10/1 74/11/1 81/12/1
f 79/2/1 78/9/1 81/12/1 80/3/1
f 74/11/5 75/8/5 71/13/5 70/14/5 80/15/5 83/16/5 82/17/5 81/18/5
f 72/19/6 73/20/6 77/5/6 76/10/6 78/21/6 85/22/6 84/23/6 79/24/6
f 79/25/4 84/25/4 83/25/4 80/25/4
f 78/25/3 81/25/3 82/25/3 85/25/3
f 76/10/4 77/5/4 75/8/4 74/11/4
f 70/26/3 71/27/3 73/20/3 72/19/3
f 84/23/1 85/22/1 82/17/1 83/16/1
f 96/1/1 103/2/1 104/3/1 94/4/1
f 101/5/2 97/6/2 95/7/2 99/8/2
f 102/9/1 100/10/1 98/11/1 105/12/1
f 103/2/1 102/9/1 105/12/1 104/3/1
f 98/11/5 99/8/5 95/13/5 94/14/5 104/15/5 107/16/5 106/17/5 105/18/5
f 96/19/6 97/20/6 101/5/6 100/10/6 102/21/6 109/22/6 108/23/6 103/24/6
f 103/25/4 108/25/4 107/25/4 104/25/4
f 102/25/3 105/25/3 106/25/3 109/25/3
f 100/10/4 101/5/4 99/8/4 98/11/4
f 94/26/3 95/27/3 97/20/3 96/19/3
f 108/23/1 109/22/1 106/17/1 107/16/1
f 56/25/1 29/25/1 52/25/1 100/10/1 102/9/1 103/2/1 15/25/1 96/25/1 17/9/1 18/2/1 70/25/1 11/25/1 80/3/1 81/12/1 58/25/1 74/25/1 25/25/1 62/25/1 35/3/1 36/12/1
f 110/26/6 111/27/6 113/20/6 112/19/6
f 112/19/4 113/20/4 117/5/4 116/10/4
f 116/10/5 117/5/5 115/8/5 114/11/5
f 114/11/3 115/8/3 111/13/3 110/14/3
f 112/1/1 116/10/1 114/11/1 110/4/1
f 117/5/2 113/6/2 111/7/2 115/8/2
l 3 1
l 5 7
l 8 7
l 41 42
l 52 41
l 58 5
l 15 29
l 11 25
