# Blender 4.5.1 LTS
# www.blender.org
mtllib Hallway 2 Way Right.mtl
o Wall_without_door.003
v -4.850304 0.000000 0.000000
v -4.850304 5.300000 0.000000
v -5.150304 0.000000 0.000000
v -5.150304 5.300000 0.000000
v -4.850305 0.000000 -10.000000
v -4.850305 5.300000 -10.000000
v -5.150304 0.000000 -10.000000
v -5.150304 5.300000 -10.000000
v -4.999999 0.000000 0.150000
v -4.999999 5.300000 0.150000
v -4.999999 0.000000 -0.150000
v -4.999999 5.300000 -0.150000
v 4.999999 0.000000 0.150000
v 4.999999 5.300000 0.150000
v 4.999999 0.000000 -0.150000
v 4.999999 5.300000 -0.150000
v 1.000000 0.000000 -0.150000
v -1.000000 0.000000 -0.150000
v -1.000000 0.000000 0.150000
v 1.000000 0.000000 0.149999
v 1.000000 3.975000 0.149999
v -1.000000 3.975000 0.150000
v -1.000000 3.975000 -0.150000
v 1.000000 3.975000 -0.150000
v -4.999999 0.000000 -19.850000
v -4.999999 5.300000 -19.850000
v -4.999999 0.000000 -20.150000
v -4.999999 5.300000 -20.150000
v 5.000000 0.000000 -19.850000
v 5.000000 5.300000 -19.850000
v 5.000000 0.000000 -20.150000
v 5.000000 5.300000 -20.150000
v 1.000001 0.000000 -20.150000
v -0.999999 0.000000 -20.150000
v -0.999999 0.000000 -19.850000
v 1.000001 0.000000 -19.850000
v 1.000001 3.975000 -19.850000
v -0.999999 3.975000 -19.850000
v -0.999999 3.975000 -20.150000
v 1.000001 3.975000 -20.150000
v 4.849999 0.000000 -10.000000
v 4.849999 5.300000 -10.000000
v 5.149999 0.000000 -10.000000
v 5.149999 5.300000 -10.000000
v 4.849999 0.000000 -0.000000
v 4.849999 5.300000 -0.000000
v 5.149999 0.000000 -0.000000
v 5.149999 5.300000 -0.000000
v 5.149999 0.000000 -4.000000
v 5.149999 0.000000 -6.000000
v 4.849999 0.000000 -6.000000
v 4.849999 0.000000 -4.000000
v 4.849999 3.975000 -4.000000
v 4.849999 3.975000 -6.000000
v 5.149999 3.975000 -6.000000
v 5.149999 3.975000 -4.000000
v 5.149697 0.000000 -10.000000
v 5.149697 5.300000 -10.000000
v 4.849697 0.000000 -10.000000
v 4.849697 5.300000 -10.000000
v 5.149696 0.000000 -20.000000
v 5.149696 5.300000 -20.000000
v 4.849696 0.000000 -20.000000
v 4.849696 5.300000 -20.000000
v -4.850303 0.000000 -10.000000
v -4.850303 5.300000 -10.000000
v -5.150303 0.000000 -10.000000
v -5.150303 5.300000 -10.000000
v -4.850304 0.000000 -20.000000
v -4.850304 5.300000 -20.000000
v -5.150304 0.000000 -20.000000
v -5.150304 5.300000 -20.000000
v -4.947924 5.250000 -0.126600
v -4.947924 5.550000 -0.126600
v -4.947925 5.250000 -19.873405
v -4.947925 5.550000 -19.873405
v 4.947919 5.250000 -0.126601
v 4.947919 5.550000 -0.126601
v 4.947921 5.250000 -19.873398
v 4.947921 5.550000 -19.873398
vn -0.0000 1.0000 -0.0000
vn -0.0000 -1.0000 -0.0000
vn 1.0000 -0.0000 -0.0000
vn -0.0000 -0.0000 -1.0000
vn -1.0000 -0.0000 -0.0000
vn -0.0000 -0.0000 1.0000
vt 0.625000 0.500000
vt 0.875000 0.500000
vt 0.875000 0.750000
vt 0.625000 0.750000
vt 0.125000 0.500000
vt 0.375000 0.500000
vt 0.375000 0.750000
vt 0.125000 0.750000
vt 0.625000 1.000000
vt 0.375000 1.000000
vt 0.625000 0.250000
vt 0.375000 0.250000
vt 0.375000 0.000000
vt 0.625000 0.000000
vt 0.225000 0.500000
vt 0.225000 0.750000
vt 0.275000 0.500000
vt 0.275000 0.750000
vt 0.375000 0.900000
vt 0.562500 0.900000
vt 0.562500 0.850000
vt 0.375000 0.850000
vt 0.375000 0.400000
vt 0.562500 0.400000
vt 0.562500 0.350000
vt 0.375000 0.350000
vt 0.000000 0.000000
s 0
f 8/1/1 4/2/1 2/3/1 6/4/1
f 3/5/2 7/6/2 5/7/2 1/8/2
f 6/4/3 2/9/3 1/10/3 5/7/3
f 7/6/4 8/1/4 6/4/4 5/7/4
f 4/11/5 8/1/5 7/6/5 3/12/5
f 1/13/6 2/14/6 4/11/6 3/12/6
f 11/5/2 18/15/2 19/16/2 9/8/2
f 16/1/1 12/2/1 10/3/1 14/4/1
f 17/17/2 15/6/2 13/7/2 20/18/2
f 18/15/2 17/17/2 20/18/2 19/16/2
f 13/7/6 14/4/6 10/9/6 9/10/6 19/19/6 22/20/6 21/21/6 20/22/6
f 11/12/4 12/11/4 16/1/4 15/6/4 17/23/4 24/24/4 23/25/4 18/26/4
f 18/27/3 23/27/3 22/27/3 19/27/3
f 17/27/5 20/27/5 21/27/5 24/27/5
f 15/6/3 16/1/3 14/4/3 13/7/3
f 9/13/5 10/14/5 12/11/5 11/12/5
f 23/25/2 24/24/2 21/21/2 22/20/2
f 27/5/2 34/15/2 35/16/2 25/8/2
f 32/1/1 28/2/1 26/3/1 30/4/1
f 33/17/2 31/6/2 29/7/2 36/18/2
f 34/15/2 33/17/2 36/18/2 35/16/2
f 29/7/6 30/4/6 26/9/6 25/10/6 35/19/6 38/20/6 37/21/6 36/22/6
f 27/12/4 28/11/4 32/1/4 31/6/4 33/23/4 40/24/4 39/25/4 34/26/4
f 34/27/3 39/27/3 38/27/3 35/27/3
f 33/27/5 36/27/5 37/27/5 40/27/5
f 31/6/3 32/1/3 30/4/3 29/7/3
f 25/13/5 26/14/5 28/11/5 27/12/5
f 39/25/2 40/24/2 37/21/2 38/20/2
f 43/5/2 50/15/2 51/16/2 41/8/2
f 48/1/1 44/2/1 42/3/1 46/4/1
f 49/17/2 47/6/2 45/7/2 52/18/2
f 50/15/2 49/17/2 52/18/2 51/16/2
f 45/7/5 46/4/5 42/9/5 41/10/5 51/19/5 54/20/5 53/21/5 52/22/5
f 43/12/3 44/11/3 48/1/3 47/6/3 49/23/3 56/24/3 55/25/3 50/26/3
f 50/27/6 55/27/6 54/27/6 51/27/6
f 49/27/4 52/27/4 53/27/4 56/27/4
f 47/6/6 48/1/6 46/4/6 45/7/6
f 41/13/4 42/14/4 44/11/4 43/12/4
f 55/25/2 56/24/2 53/21/2 54/20/2
f 64/1/1 60/2/1 58/3/1 62/4/1
f 59/5/2 63/6/2 61/7/2 57/8/2
f 62/4/3 58/9/3 57/10/3 61/7/3
f 63/6/4 64/1/4 62/4/4 61/7/4
f 60/11/5 64/1/5 63/6/5 59/12/5
f 57/13/6 58/14/6 60/11/6 59/12/6
f 72/1/1 68/2/1 66/3/1 70/4/1
f 67/5/2 71/6/2 69/7/2 65/8/2
f 70/4/3 66/9/3 65/10/3 69/7/3
f 71/6/4 72/1/4 70/4/4 69/7/4
f 68/11/5 72/1/5 71/6/5 67/12/5
f 65/13/6 66/14/6 68/11/6 67/12/6
f 5/27/2 25/27/2 69/27/2 35/16/2 36/18/2 63/27/2 29/27/2 59/27/2 41/8/2 51/16/2 52/18/2 15/27/2 45/27/2 17/17/2 18/15/2 1/27/2 11/27/2 65/27/2
f 73/13/5 74/14/5 76/11/5 75/12/5
f 75/12/4 76/11/4 80/1/4 79/6/4
f 79/6/3 80/1/3 78/4/3 77/7/3
f 77/7/6 78/4/6 74/9/6 73/10/6
f 75/5/2 79/6/2 77/7/2 73/8/2
f 80/1/1 76/2/1 74/3/1 78/4/1
l 5 15
