# Blender 4.5.1 LTS
# www.blender.org
mtllib Left_Doubles_Room_Left_3_Way.mtl
o Left_Doubles_Room_Left_3_Way
v -280.000000 0.000000 -29.850000
v -280.000000 5.300000 -29.850000
v -280.000000 0.000000 -30.150000
v -280.000000 5.300000 -30.150000
v -270.000000 0.000000 -29.850000
v -270.000000 5.300000 -29.850000
v -270.000000 0.000000 -30.150000
v -270.000000 5.300000 -30.150000
v -274.000000 0.000000 -30.150000
v -276.000000 0.000000 -30.150000
v -276.000000 0.000000 -29.850000
v -274.000000 0.000000 -29.850000
v -274.000000 3.975000 -29.850000
v -276.000000 3.975000 -29.850000
v -276.000000 3.975000 -30.150000
v -274.000000 3.975000 -30.150000
v -270.000305 0.000000 -29.850000
v -270.000305 5.300000 -29.850000
v -270.000305 0.000000 -30.150000
v -270.000305 5.300000 -30.150000
v -260.000305 0.000000 -29.850000
v -260.000305 5.300000 -29.850000
v -260.000305 0.000000 -30.150000
v -260.000305 5.300000 -30.150000
v -280.000305 0.000000 -49.849998
v -280.000305 5.300000 -49.849998
v -280.000305 0.000000 -50.150002
v -280.000305 5.300000 -50.150002
v -270.000305 0.000000 -49.849998
v -270.000305 5.300000 -49.849998
v -270.000305 0.000000 -50.150002
v -270.000305 5.300000 -50.150002
v -270.000305 0.000000 -49.849998
v -270.000305 5.300000 -49.849998
v -270.000305 0.000000 -50.150002
v -270.000305 5.300000 -50.150002
v -260.000305 0.000000 -49.849998
v -260.000305 5.300000 -49.849998
v -260.000305 0.000000 -50.150002
v -260.000305 5.300000 -50.150002
v -259.850311 0.000000 -40.000000
v -259.850311 5.300000 -40.000000
v -260.150299 0.000000 -40.000000
v -260.150299 5.300000 -40.000000
v -259.850311 0.000000 -50.000000
v -259.850311 5.300000 -50.000000
v -260.150299 0.000000 -50.000000
v -260.150299 5.300000 -50.000000
v -259.850006 0.000000 -30.000000
v -259.850006 5.300000 -30.000000
v -260.149994 0.000000 -30.000000
v -260.149994 5.300000 -30.000000
v -259.850006 0.000000 -40.000000
v -259.850006 5.300000 -40.000000
v -260.149994 0.000000 -40.000000
v -260.149994 5.300000 -40.000000
v -260.149994 0.000000 -36.000000
v -260.149994 0.000000 -34.000000
v -259.850006 0.000000 -34.000000
v -259.850006 0.000000 -36.000000
v -259.850006 3.975000 -36.000000
v -259.850006 3.975000 -34.000000
v -260.149994 3.975000 -34.000000
v -260.149994 3.975000 -36.000000
v -279.850006 0.000000 -30.000000
v -279.850006 5.300000 -30.000000
v -280.149994 0.000000 -30.000000
v -280.149994 5.300000 -30.000000
v -279.850006 0.000000 -40.000000
v -279.850006 5.300000 -40.000000
v -280.149994 0.000000 -40.000000
v -280.149994 5.300000 -40.000000
v -280.149994 0.000000 -36.000000
v -280.149994 0.000000 -34.000000
v -279.850006 0.000000 -34.000000
v -279.850006 0.000000 -36.000000
v -279.850006 3.975000 -36.000000
v -279.850006 3.975000 -34.000000
v -280.149994 3.975000 -34.000000
v -280.149994 3.975000 -36.000000
v -279.850006 0.000000 -40.000000
v -279.850006 5.300000 -40.000000
v -280.149994 0.000000 -40.000000
v -280.149994 5.300000 -40.000000
v -279.850006 0.000000 -50.000000
v -279.850006 5.300000 -50.000000
v -280.149994 0.000000 -50.000000
v -280.149994 5.300000 -50.000000
v -280.149994 0.000000 -46.000000
v -280.149994 0.000000 -44.000000
v -279.850006 0.000000 -44.000000
v -279.850006 0.000000 -46.000000
v -279.850006 3.975000 -46.000000
v -279.850006 3.975000 -44.000000
v -280.149994 3.975000 -44.000000
v -280.149994 3.975000 -46.000000
vn -0.0000 -1.0000 -0.0000
vn -0.0000 1.0000 -0.0000
vn -0.0000 -0.0000 1.0000
vn -0.0000 -0.0000 -1.0000
vn 1.0000 -0.0000 -0.0000
vn -1.0000 -0.0000 -0.0000
vt 0.125000 0.500000
vt 0.225000 0.500000
vt 0.225000 0.750000
vt 0.125000 0.750000
vt 0.625000 0.500000
vt 0.875000 0.500000
vt 0.875000 0.750000
vt 0.625000 0.750000
vt 0.275000 0.500000
vt 0.375000 0.500000
vt 0.375000 0.750000
vt 0.275000 0.750000
vt 0.625000 1.000000
vt 0.375000 1.000000
vt 0.375000 0.900000
vt 0.562500 0.900000
vt 0.562500 0.850000
vt 0.375000 0.850000
vt 0.375000 0.250000
vt 0.625000 0.250000
vt 0.375000 0.400000
vt 0.562500 0.400000
vt 0.562500 0.350000
vt 0.375000 0.350000
vt 0.000000 0.000000
vt 0.375000 0.000000
vt 0.625000 0.000000
s 0
f 3/1/1 10/2/1 11/3/1 1/4/1
f 8/5/2 4/6/2 2/7/2 6/8/2
f 9/9/1 7/10/1 5/11/1 12/12/1
f 10/2/1 9/9/1 12/12/1 11/3/1
f 5/11/3 6/8/3 2/13/3 1/14/3 11/15/3 14/16/3 13/17/3 12/18/3
f 3/19/4 4/20/4 8/5/4 7/10/4 9/21/4 16/22/4 15/23/4 10/24/4
f 10/25/5 15/25/5 14/25/5 11/25/5
f 9/25/6 12/25/6 13/25/6 16/25/6
f 7/10/5 8/5/5 6/8/5 5/11/5
f 1/26/6 2/27/6 4/20/6 3/19/6
f 15/23/1 16/22/1 13/17/1 14/16/1
f 24/5/2 20/6/2 18/7/2 22/8/2
f 19/1/1 23/10/1 21/11/1 17/4/1
f 22/8/3 18/13/3 17/14/3 21/11/3
f 23/10/5 24/5/5 22/8/5 21/11/5
f 20/20/4 24/5/4 23/10/4 19/19/4
f 17/26/6 18/27/6 20/20/6 19/19/6
f 32/5/2 28/6/2 26/7/2 30/8/2
f 27/1/1 31/10/1 29/11/1 25/4/1
f 30/8/3 26/13/3 25/14/3 29/11/3
f 31/10/5 32/5/5 30/8/5 29/11/5
f 28/20/4 32/5/4 31/10/4 27/19/4
f 25/26/6 26/27/6 28/20/6 27/19/6
f 40/5/2 36/6/2 34/7/2 38/8/2
f 35/1/1 39/10/1 37/11/1 33/4/1
f 38/8/3 34/13/3 33/14/3 37/11/3
f 39/10/5 40/5/5 38/8/5 37/11/5
f 36/20/4 40/5/4 39/10/4 35/19/4
f 33/26/6 34/27/6 36/20/6 35/19/6
f 48/5/2 44/6/2 42/7/2 46/8/2
f 43/1/1 47/10/1 45/11/1 41/4/1
f 46/8/5 42/13/5 41/14/5 45/11/5
f 47/10/4 48/5/4 46/8/4 45/11/4
f 44/20/6 48/5/6 47/10/6 43/19/6
f 41/26/3 42/27/3 44/20/3 43/19/3
f 51/1/1 58/2/1 59/3/1 49/4/1
f 56/5/2 52/6/2 50/7/2 54/8/2
f 57/9/1 55/10/1 53/11/1 60/12/1
f 58/2/1 57/9/1 60/12/1 59/3/1
f 53/11/5 54/8/5 50/13/5 49/14/5 59/15/5 62/16/5 61/17/5 60/18/5
f 51/19/6 52/20/6 56/5/6 55/10/6 57/21/6 64/22/6 63/23/6 58/24/6
f 58/25/4 63/25/4 62/25/4 59/25/4
f 57/25/3 60/25/3 61/25/3 64/25/3
f 55/10/4 56/5/4 54/8/4 53/11/4
f 49/26/3 50/27/3 52/20/3 51/19/3
f 63/23/1 64/22/1 61/17/1 62/16/1
f 67/1/1 74/2/1 75/3/1 65/4/1
f 72/5/2 68/6/2 66/7/2 70/8/2
f 73/9/1 71/10/1 69/11/1 76/12/1
f 74/2/1 73/9/1 76/12/1 75/3/1
f 69/11/5 70/8/5 66/13/5 65/14/5 75/15/5 78/16/5 77/17/5 76/18/5
f 67/19/6 68/20/6 72/5/6 71/10/6 73/21/6 80/22/6 79/23/6 74/24/6
f 74/25/4 79/25/4 78/25/4 75/25/4
f 73/25/3 76/25/3 77/25/3 80/25/3
f 71/10/4 72/5/4 70/8/4 69/11/4
f 65/26/3 66/27/3 68/20/3 67/19/3
f 79/23/1 80/22/1 77/17/1 78/16/1
f 83/1/1 90/2/1 91/3/1 81/4/1
f 88/5/2 84/6/2 82/7/2 86/8/2
f 89/9/1 87/10/1 85/11/1 92/12/1
f 90/2/1 89/9/1 92/12/1 91/3/1
f 85/11/5 86/8/5 82/13/5 81/14/5 91/15/5 94/16/5 93/17/5 92/18/5
f 83/19/6 84/20/6 88/5/6 87/10/6 89/21/6 96/22/6 95/23/6 90/24/6
f 90/25/4 95/25/4 94/25/4 91/25/4
f 89/25/3 92/25/3 93/25/3 96/25/3
f 87/10/4 88/5/4 86/8/4 85/11/4
f 81/26/3 82/27/3 84/20/3 83/19/3
f 95/23/1 96/22/1 93/17/1 94/16/1
f 34/25/1 48/25/1 38/25/1 56/25/1 44/25/1 24/25/1 52/25/1 8/25/1 20/25/1 66/25/1 4/25/1 82/25/1 70/25/1 26/25/1 86/25/1 30/25/1
f 47/25/1 37/25/1 43/25/1 55/10/1 57/9/1 58/2/1 23/25/1 51/25/1 7/25/1 19/25/1 9/9/1 10/2/1 65/25/1 3/25/1 75/3/1 76/12/1 69/11/1 81/4/1 91/3/1 92/12/1 25/25/1 85/25/1 33/25/1 29/25/1
l 4 20
l 8 24
l 7 23
l 3 19
