# Blender 4.5.1 LTS
# www.blender.org
mtllib Left_Doubles_Room_Left_4_Way_Right.mtl
o Left_Doubles_Room_Left_4_Way_Right
v -729.849976 0.000000 -40.000000
v -729.849976 5.300000 -40.000000
v -730.150024 0.000000 -40.000000
v -730.150024 5.300000 -40.000000
v -729.849976 0.000000 -50.000000
v -729.849976 5.300000 -50.000000
v -730.150024 0.000000 -50.000000
v -730.150024 5.300000 -50.000000
v -730.150024 0.000000 -46.000000
v -730.150024 0.000000 -44.000000
v -729.849976 0.000000 -44.000000
v -729.849976 0.000000 -46.000000
v -729.849976 3.975000 -46.000000
v -729.849976 3.975000 -44.000000
v -730.150024 3.975000 -44.000000
v -730.150024 3.975000 -46.000000
v -729.999878 0.000000 -29.849993
v -729.999878 5.300000 -29.849993
v -729.999878 0.000000 -30.149994
v -729.999878 5.300000 -30.149994
v -719.999878 0.000000 -29.849993
v -719.999878 5.300000 -29.849993
v -719.999878 0.000000 -30.149994
v -719.999878 5.300000 -30.149994
v -723.999878 0.000000 -30.149994
v -725.999878 0.000000 -30.149994
v -725.999878 0.000000 -29.849993
v -723.999878 0.000000 -29.849993
v -723.999878 3.975000 -29.849993
v -725.999878 3.975000 -29.849993
v -725.999878 3.975000 -30.149994
v -723.999878 3.975000 -30.149994
v -720.000244 0.000000 -29.849993
v -720.000244 5.300000 -29.849993
v -720.000244 0.000000 -30.149994
v -720.000244 5.300000 -30.149994
v -710.000244 0.000000 -29.849995
v -710.000244 5.300000 -29.849995
v -710.000244 0.000000 -30.149994
v -710.000244 5.300000 -30.149994
v -720.000244 0.000000 -49.849995
v -720.000244 5.300000 -49.849995
v -720.000244 0.000000 -50.149998
v -720.000244 5.300000 -50.149998
v -710.000244 0.000000 -49.849995
v -710.000244 5.300000 -49.849995
v -710.000244 0.000000 -50.149994
v -710.000244 5.300000 -50.149994
v -709.850220 0.000000 -39.999996
v -709.850220 5.300000 -39.999996
v -710.150208 0.000000 -39.999996
v -710.150208 5.300000 -39.999996
v -709.850220 0.000000 -49.999996
v -709.850220 5.300000 -49.999996
v -710.150208 0.000000 -49.999996
v -710.150208 5.300000 -49.999996
v -709.849915 0.000000 -29.999992
v -709.849915 5.300000 -29.999992
v -710.149902 0.000000 -29.999992
v -710.149902 5.300000 -29.999992
v -709.849915 0.000000 -39.999992
v -709.849915 5.300000 -39.999992
v -710.149902 0.000000 -39.999992
v -710.149902 5.300000 -39.999992
v -710.149902 0.000000 -35.999992
v -710.149902 0.000000 -33.999992
v -709.849915 0.000000 -33.999992
v -709.849915 0.000000 -35.999992
v -709.849915 3.975000 -35.999992
v -709.849915 3.975000 -33.999992
v -710.149902 3.975000 -33.999992
v -710.149902 3.975000 -35.999992
v -729.849854 0.000000 -29.999992
v -729.849854 5.300000 -29.999992
v -730.149841 0.000000 -29.999992
v -730.149841 5.300000 -29.999992
v -729.849854 0.000000 -39.999992
v -729.849854 5.300000 -39.999992
v -730.149841 0.000000 -39.999992
v -730.149841 5.300000 -39.999992
v -730.149841 0.000000 -35.999992
v -730.149841 0.000000 -33.999992
v -729.849854 0.000000 -33.999992
v -729.849854 0.000000 -35.999992
v -729.849854 3.975000 -35.999992
v -729.849854 3.975000 -33.999992
v -730.149841 3.975000 -33.999992
v -730.149841 3.975000 -35.999992
v -729.999878 0.000000 -49.849995
v -729.999878 5.300000 -49.849995
v -729.999878 0.000000 -50.149994
v -729.999878 5.300000 -50.149994
v -719.999878 0.000000 -49.849995
v -719.999878 5.300000 -49.849995
v -719.999878 0.000000 -50.149994
v -719.999878 5.300000 -50.149994
v -725.999878 0.000000 -49.849995
v -723.999878 0.000000 -49.849995
v -723.999878 3.975000 -49.849995
v -725.999878 3.975000 -49.849995
v -725.999878 3.975000 -50.149994
v -723.999878 3.975000 -50.149994
v -719.999878 0.000000 -49.849995
v -719.999878 5.300000 -49.849995
v -719.999878 0.000000 -50.149998
v -719.999878 5.300000 -50.149998
v -709.999878 0.000000 -49.849995
v -709.999878 5.300000 -49.849995
v -709.999878 0.000000 -50.149994
v -709.999878 5.300000 -50.149994
v -713.999878 0.000000 -50.149994
v -715.999878 0.000000 -50.149994
v -715.999878 0.000000 -49.849995
v -713.999878 0.000000 -49.849995
v -713.999878 3.975000 -49.849995
v -715.999878 3.975000 -49.849995
v -715.999878 3.975000 -50.149994
v -713.999878 3.975000 -50.149994
v -730.000183 0.000000 -49.849995
v -730.000183 5.300000 -49.849995
v -730.000183 0.000000 -50.149994
v -730.000183 5.300000 -50.149994
v -720.000183 0.000000 -49.849995
v -720.000183 5.300000 -49.849995
v -720.000183 0.000000 -50.149994
v -720.000183 5.300000 -50.149994
vn -0.0000 -1.0000 -0.0000
vn -0.0000 1.0000 -0.0000
vn 1.0000 -0.0000 -0.0000
vn -1.0000 -0.0000 -0.0000
vn -0.0000 -0.0000 -1.0000
vn -0.0000 -0.0000 1.0000
vt 0.125000 0.500000
vt 0.225000 0.500000
vt 0.225000 0.750000
vt 0.125000 0.750000
vt 0.625000 0.500000
vt 0.875000 0.500000
vt 0.875000 0.750000
vt 0.625000 0.750000
vt 0.275000 0.500000
vt 0.375000 0.500000
vt 0.375000 0.750000
vt 0.275000 0.750000
vt 0.625000 1.000000
vt 0.375000 1.000000
vt 0.375000 0.900000
vt 0.562500 0.900000
vt 0.562500 0.850000
vt 0.375000 0.850000
vt 0.375000 0.250000
vt 0.625000 0.250000
vt 0.375000 0.400000
vt 0.562500 0.400000
vt 0.562500 0.350000
vt 0.375000 0.350000
vt 0.000000 0.000000
vt 0.375000 0.000000
vt 0.625000 0.000000
s 0
f 3/1/1 10/2/1 11/3/1 1/4/1
f 8/5/2 4/6/2 2/7/2 6/8/2
f 9/9/1 7/10/1 5/11/1 12/12/1
f 10/2/1 9/9/1 12/12/1 11/3/1
f 5/11/3 6/8/3 2/13/3 1/14/3 11/15/3 14/16/3 13/17/3 12/18/3
f 3/19/4 4/20/4 8/5/4 7/10/4 9/21/4 16/22/4 15/23/4 10/24/4
f 10/25/5 15/25/5 14/25/5 11/25/5
f 9/25/6 12/25/6 13/25/6 16/25/6
f 7/10/5 8/5/5 6/8/5 5/11/5
f 1/26/6 2/27/6 4/20/6 3/19/6
f 15/23/1 16/22/1 13/17/1 14/16/1
f 19/1/1 26/2/1 27/3/1 17/4/1
f 24/5/2 20/6/2 18/7/2 22/8/2
f 25/9/1 23/10/1 21/11/1 28/12/1
f 26/2/1 25/9/1 28/12/1 27/3/1
f 21/11/6 22/8/6 18/13/6 17/14/6 27/15/6 30/16/6 29/17/6 28/18/6
f 19/19/5 20/20/5 24/5/5 23/10/5 25/21/5 32/22/5 31/23/5 26/24/5
f 26/25/3 31/25/3 30/25/3 27/25/3
f 25/25/4 28/25/4 29/25/4 32/25/4
f 23/10/3 24/5/3 22/8/3 21/11/3
f 17/26/4 18/27/4 20/20/4 19/19/4
f 31/23/1 32/22/1 29/17/1 30/16/1
f 40/5/2 36/6/2 34/7/2 38/8/2
f 35/1/1 39/10/1 37/11/1 33/4/1
f 38/8/6 34/13/6 33/14/6 37/11/6
f 39/10/3 40/5/3 38/8/3 37/11/3
f 36/20/5 40/5/5 39/10/5 35/19/5
f 33/26/4 34/27/4 36/20/4 35/19/4
f 56/5/2 52/6/2 50/7/2 54/8/2
f 51/1/1 55/10/1 53/11/1 49/4/1
f 54/8/3 50/13/3 49/14/3 53/11/3
f 55/10/5 56/5/5 54/8/5 53/11/5
f 52/20/4 56/5/4 55/10/4 51/19/4
f 49/26/6 50/27/6 52/20/6 51/19/6
f 59/1/1 66/2/1 67/3/1 57/4/1
f 64/5/2 60/6/2 58/7/2 62/8/2
f 65/9/1 63/10/1 61/11/1 68/12/1
f 66/2/1 65/9/1 68/12/1 67/3/1
f 61/11/3 62/8/3 58/13/3 57/14/3 67/15/3 70/16/3 69/17/3 68/18/3
f 59/19/4 60/20/4 64/5/4 63/10/4 65/21/4 72/22/4 71/23/4 66/24/4
f 66/25/5 71/25/5 70/25/5 67/25/5
f 65/25/6 68/25/6 69/25/6 72/25/6
f 63/10/5 64/5/5 62/8/5 61/11/5
f 57/26/6 58/27/6 60/20/6 59/19/6
f 71/23/1 72/22/1 69/17/1 70/16/1
f 75/1/1 82/2/1 83/3/1 73/4/1
f 80/5/2 76/6/2 74/7/2 78/8/2
f 81/9/1 79/10/1 77/11/1 84/12/1
f 82/2/1 81/9/1 84/12/1 83/3/1
f 77/11/3 78/8/3 74/13/3 73/14/3 83/15/3 86/16/3 85/17/3 84/18/3
f 75/19/4 76/20/4 80/5/4 79/10/4 81/21/4 88/22/4 87/23/4 82/24/4
f 82/25/5 87/25/5 86/25/5 83/25/5
f 81/25/6 84/25/6 85/25/6 88/25/6
f 79/10/5 80/5/5 78/8/5 77/11/5
f 73/26/6 74/27/6 76/20/6 75/19/6
f 87/23/1 88/22/1 85/17/1 86/16/1
f 74/25/1 20/25/1 78/25/1 2/25/1 90/25/1 6/25/1 42/25/1 94/25/1 56/25/1 46/25/1 64/25/1 52/25/1 40/25/1 60/25/1 24/25/1 36/25/1
f 45/25/1 51/25/1 63/10/1 65/9/1 66/2/1 39/25/1 59/25/1 23/25/1 35/25/1 25/9/1 26/2/1 73/25/1 19/25/1 83/3/1 84/12/1 77/11/1 1/4/1 11/3/1 12/12/1 89/25/1 5/25/1 97/3/1 98/12/1 41/25/1 93/25/1 55/25/1
f 105/1/1 112/2/1 113/3/1 103/4/1
f 110/5/2 106/6/2 104/7/2 108/8/2
f 111/9/1 109/10/1 107/11/1 114/12/1
f 112/2/1 111/9/1 114/12/1 113/3/1
f 107/11/6 108/8/6 104/13/6 103/14/6 113/15/6 116/16/6 115/17/6 114/18/6
f 105/19/5 106/20/5 110/5/5 109/10/5 111/21/5 118/22/5 117/23/5 112/24/5
f 112/25/3 117/25/3 116/25/3 113/25/3
f 111/25/4 114/25/4 115/25/4 118/25/4
f 109/10/3 110/5/3 108/8/3 107/11/3
f 103/26/4 104/27/4 106/20/4 105/19/4
f 117/23/1 118/22/1 115/17/1 116/16/1
f 126/5/2 122/6/2 120/7/2 124/8/2
f 121/1/1 125/10/1 123/11/1 119/4/1
f 124/8/6 120/13/6 119/14/6 123/11/6
f 125/10/3 126/5/3 124/8/3 123/11/3
f 122/20/5 126/5/5 125/10/5 121/19/5
f 119/26/4 120/27/4 122/20/4 121/19/4
l 43 41
l 42 44
l 45 47
l 48 46
l 91 89
l 90 92
l 93 95
l 96 94
l 89 97
l 98 93
l 94 90
l 89 90
l 94 93
l 6 24
l 2 20
l 1 23
l 5 19
