# Blender 4.5.1 LTS
# www.blender.org
mtllib Left_Doubles_Room_Right_4_Way_Left.mtl
o Left_Doubles_Room_Right_4_Way_Left
v -729.850281 0.000000 -70.000000
v -729.850281 5.300000 -70.000000
v -730.150330 0.000000 -70.000000
v -730.150330 5.300000 -70.000000
v -729.850281 0.000000 -80.000000
v -729.850281 5.300000 -80.000000
v -730.150330 0.000000 -80.000000
v -730.150330 5.300000 -80.000000
v -730.000000 0.000000 -59.849998
v -730.000000 5.300000 -59.849998
v -730.000000 0.000000 -60.150002
v -730.000000 5.300000 -60.150002
v -720.000000 0.000000 -59.849998
v -720.000000 5.300000 -59.849998
v -720.000000 0.000000 -60.150002
v -720.000000 5.300000 -60.150002
v -724.000000 0.000000 -60.150002
v -726.000000 0.000000 -60.150002
v -726.000000 0.000000 -59.849998
v -724.000000 0.000000 -59.849998
v -724.000000 3.975000 -59.849998
v -726.000000 3.975000 -59.849998
v -726.000000 3.975000 -60.150002
v -724.000000 3.975000 -60.150002
v -720.000305 0.000000 -59.849998
v -720.000305 5.300000 -59.849998
v -720.000305 0.000000 -60.150002
v -720.000305 5.300000 -60.150002
v -710.000305 0.000000 -59.850002
v -710.000305 5.300000 -59.850002
v -710.000305 0.000000 -60.150002
v -710.000305 5.300000 -60.150002
v -730.000305 0.000000 -79.849998
v -730.000305 5.300000 -79.849998
v -730.000305 0.000000 -80.149994
v -730.000305 5.300000 -80.149994
v -720.000305 0.000000 -79.849998
v -720.000305 5.300000 -79.849998
v -720.000305 0.000000 -80.149994
v -720.000305 5.300000 -80.149994
v -709.849976 0.000000 -60.000000
v -709.849976 5.300000 -60.000000
v -710.149963 0.000000 -60.000000
v -710.149963 5.300000 -60.000000
v -709.849976 0.000000 -70.000000
v -709.849976 5.300000 -70.000000
v -710.149963 0.000000 -70.000000
v -710.149963 5.300000 -70.000000
v -710.149963 0.000000 -66.000000
v -710.149963 0.000000 -64.000000
v -709.849976 0.000000 -64.000000
v -709.849976 0.000000 -66.000000
v -709.849976 3.975000 -66.000000
v -709.849976 3.975000 -64.000000
v -710.149963 3.975000 -64.000000
v -710.149963 3.975000 -66.000000
v -729.849915 0.000000 -60.000000
v -729.849915 5.300000 -60.000000
v -730.149963 0.000000 -60.000000
v -730.149963 5.300000 -60.000000
v -729.849915 0.000000 -70.000000
v -729.849915 5.300000 -70.000000
v -730.149963 0.000000 -70.000000
v -730.149963 5.300000 -70.000000
v -730.149963 0.000000 -66.000000
v -730.149963 0.000000 -64.000000
v -729.849915 0.000000 -64.000000
v -729.849915 0.000000 -66.000000
v -729.849915 3.975000 -66.000000
v -729.849915 3.975000 -64.000000
v -730.149963 3.975000 -64.000000
v -730.149963 3.975000 -66.000000
v -709.849976 0.000000 -70.000000
v -709.849976 5.300000 -70.000000
v -710.149963 0.000000 -70.000000
v -710.149963 5.300000 -70.000000
v -709.849976 0.000000 -80.000000
v -709.849976 5.300000 -80.000000
v -710.149963 0.000000 -80.000000
v -710.149963 5.300000 -80.000000
v -710.149963 0.000000 -76.000000
v -710.149963 0.000000 -74.000000
v -709.849976 0.000000 -74.000000
v -709.849976 0.000000 -76.000000
v -709.849976 3.975000 -76.000000
v -709.849976 3.975000 -74.000000
v -710.149963 3.975000 -74.000000
v -710.149963 3.975000 -76.000000
v -719.999939 0.000000 -79.849998
v -719.999939 5.300000 -79.849998
v -709.999939 0.000000 -79.849998
v -709.999939 5.300000 -79.849998
v -709.999939 0.000000 -80.149994
v -709.999939 5.300000 -80.149994
v -715.999939 0.000000 -79.849998
v -713.999939 0.000000 -79.849998
v -715.999939 3.975000 -80.149994
v -730.000000 0.000000 -79.849998
v -730.000000 5.300000 -79.849998
v -730.000000 0.000000 -80.149994
v -730.000000 5.300000 -80.149994
v -720.000000 0.000000 -79.849998
v -720.000000 5.300000 -79.849998
v -720.000000 0.000000 -80.149994
v -720.000000 5.300000 -80.149994
v -724.000000 0.000000 -80.149994
v -726.000000 0.000000 -80.149994
v -726.000000 0.000000 -79.849998
v -724.000000 0.000000 -79.849998
v -724.000000 3.975000 -79.849998
v -726.000000 3.975000 -79.849998
v -726.000000 3.975000 -80.149994
v -724.000000 3.975000 -80.149994
v -720.000305 0.000000 -79.849998
v -720.000305 5.300000 -79.849998
v -720.000305 0.000000 -80.149994
v -720.000305 5.300000 -80.149994
v -710.000305 0.000000 -79.849998
v -710.000305 5.300000 -79.849998
v -710.000305 0.000000 -80.149994
v -710.000305 5.300000 -80.149994
vn -0.0000 1.0000 -0.0000
vn -0.0000 -1.0000 -0.0000
vn 1.0000 -0.0000 -0.0000
vn -0.0000 -0.0000 -1.0000
vn -1.0000 -0.0000 -0.0000
vn -0.0000 -0.0000 1.0000
vt 0.625000 0.500000
vt 0.875000 0.500000
vt 0.875000 0.750000
vt 0.625000 0.750000
vt 0.125000 0.500000
vt 0.375000 0.500000
vt 0.375000 0.750000
vt 0.125000 0.750000
vt 0.625000 1.000000
vt 0.375000 1.000000
vt 0.625000 0.250000
vt 0.375000 0.250000
vt 0.375000 0.000000
vt 0.625000 0.000000
vt 0.225000 0.500000
vt 0.225000 0.750000
vt 0.275000 0.500000
vt 0.275000 0.750000
vt 0.375000 0.900000
vt 0.562500 0.900000
vt 0.562500 0.850000
vt 0.375000 0.850000
vt 0.375000 0.400000
vt 0.562500 0.400000
vt 0.562500 0.350000
vt 0.375000 0.350000
vt 0.000000 0.000000
s 0
f 8/1/1 4/2/1 2/3/1 6/4/1
f 3/5/2 7/6/2 5/7/2 1/8/2
f 6/4/3 2/9/3 1/10/3 5/7/3
f 7/6/4 8/1/4 6/4/4 5/7/4
f 4/11/5 8/1/5 7/6/5 3/12/5
f 1/13/6 2/14/6 4/11/6 3/12/6
f 11/5/2 18/15/2 19/16/2 9/8/2
f 16/1/1 12/2/1 10/3/1 14/4/1
f 17/17/2 15/6/2 13/7/2 20/18/2
f 18/15/2 17/17/2 20/18/2 19/16/2
f 13/7/6 14/4/6 10/9/6 9/10/6 19/19/6 22/20/6 21/21/6 20/22/6
f 11/12/4 12/11/4 16/1/4 15/6/4 17/23/4 24/24/4 23/25/4 18/26/4
f 18/27/3 23/27/3 22/27/3 19/27/3
f 17/27/5 20/27/5 21/27/5 24/27/5
f 15/6/3 16/1/3 14/4/3 13/7/3
f 9/13/5 10/14/5 12/11/5 11/12/5
f 23/25/2 24/24/2 21/21/2 22/20/2
f 32/1/1 28/2/1 26/3/1 30/4/1
f 27/5/2 31/6/2 29/7/2 25/8/2
f 30/4/6 26/9/6 25/10/6 29/7/6
f 31/6/3 32/1/3 30/4/3 29/7/3
f 28/11/4 32/1/4 31/6/4 27/12/4
f 25/13/5 26/14/5 28/11/5 27/12/5
f 43/5/2 50/15/2 51/16/2 41/8/2
f 48/1/1 44/2/1 42/3/1 46/4/1
f 49/17/2 47/6/2 45/7/2 52/18/2
f 50/15/2 49/17/2 52/18/2 51/16/2
f 45/7/3 46/4/3 42/9/3 41/10/3 51/19/3 54/20/3 53/21/3 52/22/3
f 43/12/5 44/11/5 48/1/5 47/6/5 49/23/5 56/24/5 55/25/5 50/26/5
f 50/27/4 55/27/4 54/27/4 51/27/4
f 49/27/6 52/27/6 53/27/6 56/27/6
f 47/6/4 48/1/4 46/4/4 45/7/4
f 41/13/6 42/14/6 44/11/6 43/12/6
f 55/25/2 56/24/2 53/21/2 54/20/2
f 59/5/2 66/15/2 67/16/2 57/8/2
f 64/1/1 60/2/1 58/3/1 62/4/1
f 65/17/2 63/6/2 61/7/2 68/18/2
f 66/15/2 65/17/2 68/18/2 67/16/2
f 61/7/3 62/4/3 58/9/3 57/10/3 67/19/3 70/20/3 69/21/3 68/22/3
f 59/12/5 60/11/5 64/1/5 63/6/5 65/23/5 72/24/5 71/25/5 66/26/5
f 66/27/4 71/27/4 70/27/4 67/27/4
f 65/27/6 68/27/6 69/27/6 72/27/6
f 63/6/4 64/1/4 62/4/4 61/7/4
f 57/13/6 58/14/6 60/11/6 59/12/6
f 71/25/2 72/24/2 69/21/2 70/20/2
f 75/5/2 82/15/2 83/16/2 73/8/2
f 80/1/1 76/2/1 74/3/1 78/4/1
f 81/17/2 79/6/2 77/7/2 84/18/2
f 82/15/2 81/17/2 84/18/2 83/16/2
f 77/7/3 78/4/3 74/9/3 73/10/3 83/19/3 86/20/3 85/21/3 84/22/3
f 75/12/5 76/11/5 80/1/5 79/6/5 81/23/5 88/24/5 87/25/5 82/26/5
f 82/27/4 87/27/4 86/27/4 83/27/4
f 81/27/6 84/27/6 85/27/6 88/27/6
f 79/6/4 80/1/4 78/4/4 77/7/4
f 73/13/6 74/14/6 76/11/6 75/12/6
f 87/25/2 88/24/2 85/21/2 86/20/2
f 6/27/1 34/27/1 62/27/1 2/27/1 12/27/1 58/27/1 28/27/1 16/27/1 44/27/1 32/27/1 48/27/1 76/27/1 92/27/1 80/27/1 90/27/1 38/27/1
f 61/27/2 33/27/2 5/27/2 37/27/2 89/8/2 95/16/2 96/18/2 79/27/2 91/27/2 81/17/2 82/15/2 47/27/2 75/27/2 49/17/2 50/15/2 31/27/2 43/27/2 15/27/2 27/27/2 17/17/2 18/15/2 57/27/2 11/27/2 67/16/2 68/18/2 1/27/2
f 100/5/2 107/15/2 108/16/2 98/8/2
f 105/1/1 101/2/1 99/3/1 103/4/1
f 106/17/2 104/6/2 102/7/2 109/18/2
f 107/15/2 106/17/2 109/18/2 108/16/2
f 102/7/6 103/4/6 99/9/6 98/10/6 108/19/6 111/20/6 110/21/6 109/22/6
f 100/12/4 101/11/4 105/1/4 104/6/4 106/23/4 113/24/4 112/25/4 107/26/4
f 107/27/3 112/27/3 111/27/3 108/27/3
f 106/27/5 109/27/5 110/27/5 113/27/5
f 104/6/3 105/1/3 103/4/3 102/7/3
f 98/13/5 99/14/5 101/11/5 100/12/5
f 112/25/2 113/24/2 110/21/2 111/20/2
f 121/1/1 117/2/1 115/3/1 119/4/1
f 116/5/2 120/6/2 118/7/2 114/8/2
f 119/4/6 115/9/6 114/10/6 118/7/6
f 120/6/3 121/1/3 119/4/3 118/7/3
f 117/11/4 121/1/4 120/6/4 116/12/4
f 114/13/5 115/14/5 117/11/5 116/12/5
l 35 33
l 34 36
l 37 39
l 40 38
l 91 93
l 94 92
l 96 91
l 92 90
l 92 91
l 6 16
l 1 15
l 5 11
