# Blender 4.5.1 LTS
# www.blender.org
mtllib Right_Doubles_Room_Right_2_Way_Left.mtl
o Right_Doubles_Room_Right_2_Way_Left
v -519.850281 0.000000 -60.000000
v -519.850281 5.300000 -60.000000
v -520.150330 0.000000 -60.000000
v -520.150330 5.300000 -60.000000
v -519.850281 0.000000 -70.000000
v -519.850281 5.300000 -70.000000
v -520.150330 0.000000 -70.000000
v -520.150330 5.300000 -70.000000
v -509.999939 0.000000 -59.850002
v -509.999939 5.300000 -59.850002
v -509.999939 0.000000 -60.150002
v -509.999939 5.300000 -60.150002
v -499.999939 0.000000 -59.849998
v -499.999939 5.300000 -59.849998
v -499.999939 0.000000 -60.150002
v -499.999939 5.300000 -60.150002
v -503.999939 0.000000 -60.150002
v -505.999939 0.000000 -60.150002
v -505.999939 0.000000 -59.850002
v -503.999939 0.000000 -59.850002
v -503.999939 3.975000 -59.850002
v -505.999939 3.975000 -59.850002
v -505.999939 3.975000 -60.150002
v -503.999939 3.975000 -60.150002
v -520.000244 0.000000 -59.849998
v -520.000244 5.300000 -59.849998
v -520.000244 0.000000 -60.150002
v -520.000244 5.300000 -60.150002
v -510.000244 0.000000 -59.849998
v -510.000244 5.300000 -59.849998
v -510.000244 0.000000 -60.150002
v -510.000244 5.300000 -60.150002
v -520.000244 0.000000 -79.849998
v -520.000244 5.300000 -79.849998
v -520.000244 0.000000 -80.149994
v -520.000244 5.300000 -80.149994
v -510.000244 0.000000 -79.849998
v -510.000244 5.300000 -79.849998
v -510.000244 0.000000 -80.149994
v -519.850281 0.000000 -70.000000
v -519.850281 5.300000 -70.000000
v -520.150269 0.000000 -70.000000
v -520.150269 5.300000 -70.000000
v -519.850281 0.000000 -80.000000
v -519.850281 5.300000 -80.000000
v -520.150269 0.000000 -80.000000
v -520.150269 5.300000 -80.000000
v -499.850250 0.000000 -70.000000
v -499.850250 5.300000 -70.000000
v -500.150238 0.000000 -70.000000
v -500.150238 5.300000 -70.000000
v -499.850250 0.000000 -80.000000
v -499.850250 5.300000 -80.000000
v -500.150238 0.000000 -80.000000
v -500.150238 5.300000 -80.000000
v -499.849945 0.000000 -60.000000
v -499.849945 5.300000 -60.000000
v -500.149963 0.000000 -60.000000
v -500.149963 5.300000 -60.000000
v -499.849945 0.000000 -70.000000
v -499.849945 5.300000 -70.000000
v -500.149963 0.000000 -70.000000
v -500.149963 5.300000 -70.000000
v -500.149963 0.000000 -66.000000
v -500.149963 0.000000 -64.000000
v -499.849945 0.000000 -64.000000
v -499.849945 0.000000 -66.000000
v -499.849945 3.975000 -66.000000
v -499.849945 3.975000 -64.000000
v -500.149963 3.975000 -64.000000
v -500.149963 3.975000 -66.000000
v -509.999939 0.000000 -79.849998
v -509.999939 5.300000 -79.849998
v -499.999939 0.000000 -79.849998
v -499.999939 5.300000 -79.849998
v -499.999939 0.000000 -80.149994
v -499.999939 5.300000 -80.149994
v -505.999939 0.000000 -79.849998
v -503.999939 0.000000 -79.849998
v -505.999939 3.975000 -80.149994
v -519.999939 0.000000 -79.849998
v -519.999939 5.300000 -79.849998
v -519.999939 0.000000 -80.149994
v -519.999939 5.300000 -80.149994
v -509.999939 0.000000 -79.849998
v -509.999939 5.300000 -79.849998
v -509.999939 0.000000 -80.149994
v -509.999939 5.300000 -80.149994
v -513.999939 0.000000 -80.149994
v -515.999939 0.000000 -80.149994
v -515.999939 0.000000 -79.849998
v -513.999939 0.000000 -79.849998
v -513.999939 3.975000 -79.849998
v -515.999939 3.975000 -79.849998
v -515.999939 3.975000 -80.149994
v -513.999939 3.975000 -80.149994
v -510.000275 0.000000 -79.849998
v -510.000275 5.300000 -79.849998
v -510.000275 0.000000 -80.149994
v -510.000275 5.300000 -80.149994
v -500.000275 0.000000 -79.849998
v -500.000275 5.300000 -79.849998
v -500.000275 0.000000 -80.149994
v -500.000275 5.300000 -80.149994
vn -0.0000 1.0000 -0.0000
vn -0.0000 -1.0000 -0.0000
vn 1.0000 -0.0000 -0.0000
vn -0.0000 -0.0000 -1.0000
vn -1.0000 -0.0000 -0.0000
vn -0.0000 -0.0000 1.0000
vt 0.625000 0.500000
vt 0.875000 0.500000
vt 0.875000 0.750000
vt 0.625000 0.750000
vt 0.125000 0.500000
vt 0.375000 0.500000
vt 0.375000 0.750000
vt 0.125000 0.750000
vt 0.625000 1.000000
vt 0.375000 1.000000
vt 0.625000 0.250000
vt 0.375000 0.250000
vt 0.375000 0.000000
vt 0.625000 0.000000
vt 0.225000 0.500000
vt 0.225000 0.750000
vt 0.275000 0.500000
vt 0.275000 0.750000
vt 0.375000 0.900000
vt 0.562500 0.900000
vt 0.562500 0.850000
vt 0.375000 0.850000
vt 0.375000 0.400000
vt 0.562500 0.400000
vt 0.562500 0.350000
vt 0.375000 0.350000
vt 0.000000 0.000000
s 0
f 8/1/1 4/2/1 2/3/1 6/4/1
f 3/5/2 7/6/2 5/7/2 1/8/2
f 6/4/3 2/9/3 1/10/3 5/7/3
f 7/6/4 8/1/4 6/4/4 5/7/4
f 4/11/5 8/1/5 7/6/5 3/12/5
f 1/13/6 2/14/6 4/11/6 3/12/6
f 11/5/2 18/15/2 19/16/2 9/8/2
f 16/1/1 12/2/1 10/3/1 14/4/1
f 17/17/2 15/6/2 13/7/2 20/18/2
f 18/15/2 17/17/2 20/18/2 19/16/2
f 13/7/6 14/4/6 10/9/6 9/10/6 19/19/6 22/20/6 21/21/6 20/22/6
f 11/12/4 12/11/4 16/1/4 15/6/4 17/23/4 24/24/4 23/25/4 18/26/4
f 18/27/3 23/27/3 22/27/3 19/27/3
f 17/27/5 20/27/5 21/27/5 24/27/5
f 15/6/3 16/1/3 14/4/3 13/7/3
f 9/13/5 10/14/5 12/11/5 11/12/5
f 23/25/2 24/24/2 21/21/2 22/20/2
f 32/1/1 28/2/1 26/3/1 30/4/1
f 27/5/2 31/6/2 29/7/2 25/8/2
f 30/4/6 26/9/6 25/10/6 29/7/6
f 31/6/3 32/1/3 30/4/3 29/7/3
f 28/11/4 32/1/4 31/6/4 27/12/4
f 25/13/5 26/14/5 28/11/5 27/12/5
f 47/1/1 43/2/1 41/3/1 45/4/1
f 42/5/2 46/6/2 44/7/2 40/8/2
f 45/4/3 41/9/3 40/10/3 44/7/3
f 46/6/4 47/1/4 45/4/4 44/7/4
f 43/11/5 47/1/5 46/6/5 42/12/5
f 40/13/6 41/14/6 43/11/6 42/12/6
f 55/1/1 51/2/1 49/3/1 53/4/1
f 50/5/2 54/6/2 52/7/2 48/8/2
f 53/4/3 49/9/3 48/10/3 52/7/3
f 54/6/4 55/1/4 53/4/4 52/7/4
f 51/11/5 55/1/5 54/6/5 50/12/5
f 48/13/6 49/14/6 51/11/6 50/12/6
f 58/5/2 65/15/2 66/16/2 56/8/2
f 63/1/1 59/2/1 57/3/1 61/4/1
f 64/17/2 62/6/2 60/7/2 67/18/2
f 65/15/2 64/17/2 67/18/2 66/16/2
f 60/7/3 61/4/3 57/9/3 56/10/3 66/19/3 69/20/3 68/21/3 67/22/3
f 58/12/5 59/11/5 63/1/5 62/6/5 64/23/5 71/24/5 70/25/5 65/26/5
f 65/27/4 70/27/4 69/27/4 66/27/4
f 64/27/6 67/27/6 68/27/6 71/27/6
f 62/6/4 63/1/4 61/4/4 60/7/4
f 56/13/6 57/14/6 59/11/6 58/12/6
f 70/25/2 71/24/2 68/21/2 69/20/2
f 59/27/1 16/27/1 63/27/1 51/27/1 75/27/1 55/27/1 73/27/1 38/27/1 45/27/1 34/27/1 41/27/1 6/27/1 28/27/1 2/27/1 32/27/1 12/27/1
f 40/27/2 33/27/2 44/27/2 37/27/2 72/8/2 78/16/2 79/18/2 54/27/2 74/27/2 50/27/2 62/6/2 64/17/2 65/15/2 15/27/2 58/27/2 17/17/2 18/15/2 11/5/2 31/27/2 1/27/2 27/27/2 5/27/2
f 83/5/2 90/15/2 91/16/2 81/8/2
f 88/1/1 84/2/1 82/3/1 86/4/1
f 89/17/2 87/6/2 85/7/2 92/18/2
f 90/15/2 89/17/2 92/18/2 91/16/2
f 85/7/6 86/4/6 82/9/6 81/10/6 91/19/6 94/20/6 93/21/6 92/22/6
f 83/12/4 84/11/4 88/1/4 87/6/4 89/23/4 96/24/4 95/25/4 90/26/4
f 90/27/3 95/27/3 94/27/3 91/27/3
f 89/27/5 92/27/5 93/27/5 96/27/5
f 87/6/3 88/1/3 86/4/3 85/7/3
f 81/13/5 82/14/5 84/11/5 83/12/5
f 95/25/2 96/24/2 93/21/2 94/20/2
f 104/1/1 100/2/1 98/3/1 102/4/1
f 99/5/2 103/6/2 101/7/2 97/8/2
f 102/4/6 98/9/6 97/10/6 101/7/6
f 103/6/3 104/1/3 102/4/3 101/7/3
f 100/11/4 104/1/4 103/6/4 99/12/4
f 97/13/5 98/14/5 100/11/5 99/12/5
l 35 33
l 34 36
l 37 39
l 74 76
l 77 75
l 79 74
l 75 73
l 75 74
l 6 16
l 2 12
l 1 15
l 5 11
