# Blender 4.5.1 LTS
# www.blender.org
mtllib Right_Doubles_Room_3_Way_Doubles.mtl
o Right_Doubles_Room_3_Way_Doubles
v -609.850281 0.000000 -70.000000
v -609.850281 5.300000 -70.000000
v -610.150330 0.000000 -70.000000
v -610.150330 5.300000 -70.000000
v -609.850281 0.000000 -80.000000
v -609.850281 5.300000 -80.000000
v -610.150330 0.000000 -80.000000
v -610.150330 5.300000 -80.000000
v -599.999939 0.000000 -59.849995
v -599.999939 5.300000 -59.849995
v -599.999939 0.000000 -60.149994
v -599.999939 5.300000 -60.149994
v -589.999939 0.000000 -59.849998
v -589.999939 5.300000 -59.849998
v -589.999939 0.000000 -60.149994
v -589.999939 5.300000 -60.149994
v -593.999939 0.000000 -60.149994
v -595.999939 0.000000 -60.149994
v -595.999939 0.000000 -59.849998
v -593.999939 0.000000 -59.849998
v -593.999939 3.975000 -59.849998
v -595.999939 3.975000 -59.849998
v -595.999939 3.975000 -60.149994
v -593.999939 3.975000 -60.149994
v -610.000244 0.000000 -59.849998
v -610.000244 5.300000 -59.849998
v -610.000244 0.000000 -60.150002
v -610.000244 5.300000 -60.150002
v -600.000244 0.000000 -59.849998
v -600.000244 5.300000 -59.849998
v -600.000244 0.000000 -60.150002
v -600.000244 5.300000 -60.150002
v -589.849976 0.000000 -59.999996
v -589.849976 5.300000 -59.999996
v -590.149963 0.000000 -59.999996
v -590.149963 5.300000 -59.999996
v -589.849976 0.000000 -70.000000
v -589.849976 5.300000 -70.000000
v -590.149963 0.000000 -70.000000
v -590.149963 5.300000 -70.000000
v -590.149963 0.000000 -66.000000
v -590.149963 0.000000 -63.999996
v -589.849976 0.000000 -63.999996
v -589.849976 0.000000 -66.000000
v -589.849976 3.975000 -66.000000
v -589.849976 3.975000 -63.999996
v -590.149963 3.975000 -63.999996
v -590.149963 3.975000 -66.000000
v -609.849915 0.000000 -60.000000
v -609.849915 5.300000 -60.000000
v -610.149963 0.000000 -60.000000
v -610.149963 5.300000 -60.000000
v -609.849915 0.000000 -70.000000
v -609.849915 5.300000 -70.000000
v -610.149963 0.000000 -70.000000
v -610.149963 5.300000 -70.000000
v -610.149963 0.000000 -66.000000
v -610.149963 0.000000 -64.000000
v -609.849915 0.000000 -64.000000
v -609.849915 0.000000 -66.000000
v -609.849915 3.975000 -66.000000
v -609.849915 3.975000 -64.000000
v -610.149963 3.975000 -64.000000
v -610.149963 3.975000 -66.000000
v -599.999939 0.000000 -79.849998
v -599.999939 5.300000 -79.849998
v -599.999939 0.000000 -80.150002
v -599.999939 5.300000 -80.150002
v -589.999939 0.000000 -79.849998
v -589.999939 5.300000 -79.849998
v -589.999939 0.000000 -80.150002
v -589.999939 5.300000 -80.150002
v -593.999939 0.000000 -80.150002
v -595.999939 0.000000 -80.150002
v -595.999939 0.000000 -79.849998
v -593.999939 0.000000 -79.849998
v -593.999939 3.975000 -79.849998
v -595.999939 3.975000 -79.849998
v -595.999939 3.975000 -80.150002
v -593.999939 3.975000 -80.150002
v -609.999939 0.000000 -79.849998
v -609.999939 5.300000 -79.849998
v -609.999939 0.000000 -80.150002
v -609.999939 5.300000 -80.150002
v -599.999939 0.000000 -79.849998
v -599.999939 5.300000 -79.849998
v -599.999939 0.000000 -80.150002
v -599.999939 5.300000 -80.150002
v -603.999939 0.000000 -80.150002
v -605.999939 0.000000 -80.150002
v -605.999939 0.000000 -79.849998
v -603.999939 0.000000 -79.849998
v -603.999939 3.975000 -79.849998
v -605.999939 3.975000 -79.849998
v -605.999939 3.975000 -80.150002
v -603.999939 3.975000 -80.150002
v -589.850220 0.000000 -70.000000
v -589.850220 5.300000 -70.000000
v -590.150269 0.000000 -70.000000
v -590.150269 5.300000 -70.000000
v -589.850220 0.000000 -80.000000
v -589.850220 5.300000 -80.000000
v -590.150269 0.000000 -80.000000
v -590.150269 5.300000 -80.000000
vn -0.0000 1.0000 -0.0000
vn -0.0000 -1.0000 -0.0000
vn 1.0000 -0.0000 -0.0000
vn -0.0000 -0.0000 -1.0000
vn -1.0000 -0.0000 -0.0000
vn -0.0000 -0.0000 1.0000
vt 0.625000 0.500000
vt 0.875000 0.500000
vt 0.875000 0.750000
vt 0.625000 0.750000
vt 0.125000 0.500000
vt 0.375000 0.500000
vt 0.375000 0.750000
vt 0.125000 0.750000
vt 0.625000 1.000000
vt 0.375000 1.000000
vt 0.625000 0.250000
vt 0.375000 0.250000
vt 0.375000 0.000000
vt 0.625000 0.000000
vt 0.225000 0.500000
vt 0.225000 0.750000
vt 0.275000 0.500000
vt 0.275000 0.750000
vt 0.375000 0.900000
vt 0.562500 0.900000
vt 0.562500 0.850000
vt 0.375000 0.850000
vt 0.375000 0.400000
vt 0.562500 0.400000
vt 0.562500 0.350000
vt 0.375000 0.350000
vt 0.000000 0.000000
s 0
f 8/1/1 4/2/1 2/3/1 6/4/1
f 3/5/2 7/6/2 5/7/2 1/8/2
f 6/4/3 2/9/3 1/10/3 5/7/3
f 7/6/4 8/1/4 6/4/4 5/7/4
f 4/11/5 8/1/5 7/6/5 3/12/5
f 1/13/6 2/14/6 4/11/6 3/12/6
f 11/5/2 18/15/2 19/16/2 9/8/2
f 16/1/1 12/2/1 10/3/1 14/4/1
f 17/17/2 15/6/2 13/7/2 20/18/2
f 18/15/2 17/17/2 20/18/2 19/16/2
f 13/7/6 14/4/6 10/9/6 9/10/6 19/19/6 22/20/6 21/21/6 20/22/6
f 11/12/4 12/11/4 16/1/4 15/6/4 17/23/4 24/24/4 23/25/4 18/26/4
f 18/27/3 23/27/3 22/27/3 19/27/3
f 17/27/5 20/27/5 21/27/5 24/27/5
f 15/6/3 16/1/3 14/4/3 13/7/3
f 9/13/5 10/14/5 12/11/5 11/12/5
f 23/25/2 24/24/2 21/21/2 22/20/2
f 32/1/1 28/2/1 26/3/1 30/4/1
f 27/5/2 31/6/2 29/7/2 25/8/2
f 30/4/6 26/9/6 25/10/6 29/7/6
f 31/6/3 32/1/3 30/4/3 29/7/3
f 28/11/4 32/1/4 31/6/4 27/12/4
f 25/13/5 26/14/5 28/11/5 27/12/5
f 35/5/2 42/15/2 43/16/2 33/8/2
f 40/1/1 36/2/1 34/3/1 38/4/1
f 41/17/2 39/6/2 37/7/2 44/18/2
f 42/15/2 41/17/2 44/18/2 43/16/2
f 37/7/3 38/4/3 34/9/3 33/10/3 43/19/3 46/20/3 45/21/3 44/22/3
f 35/12/5 36/11/5 40/1/5 39/6/5 41/23/5 48/24/5 47/25/5 42/26/5
f 42/27/4 47/27/4 46/27/4 43/27/4
f 41/27/6 44/27/6 45/27/6 48/27/6
f 39/6/4 40/1/4 38/4/4 37/7/4
f 33/13/6 34/14/6 36/11/6 35/12/6
f 47/25/2 48/24/2 45/21/2 46/20/2
f 51/5/2 58/15/2 59/16/2 49/8/2
f 56/1/1 52/2/1 50/3/1 54/4/1
f 57/17/2 55/6/2 53/7/2 60/18/2
f 58/15/2 57/17/2 60/18/2 59/16/2
f 53/7/3 54/4/3 50/9/3 49/10/3 59/19/3 62/20/3 61/21/3 60/22/3
f 51/12/5 52/11/5 56/1/5 55/6/5 57/23/5 64/24/5 63/25/5 58/26/5
f 58/27/4 63/27/4 62/27/4 59/27/4
f 57/27/6 60/27/6 61/27/6 64/27/6
f 55/6/4 56/1/4 54/4/4 53/7/4
f 49/13/6 50/14/6 52/11/6 51/12/6
f 63/25/2 64/24/2 61/21/2 62/20/2
f 67/5/2 74/15/2 75/16/2 65/8/2
f 72/1/1 68/2/1 66/3/1 70/4/1
f 73/17/2 71/6/2 69/7/2 76/18/2
f 74/15/2 73/17/2 76/18/2 75/16/2
f 69/7/6 70/4/6 66/9/6 65/10/6 75/19/6 78/20/6 77/21/6 76/22/6
f 67/12/4 68/11/4 72/1/4 71/6/4 73/23/4 80/24/4 79/25/4 74/26/4
f 74/27/3 79/27/3 78/27/3 75/27/3
f 73/27/5 76/27/5 77/27/5 80/27/5
f 71/6/3 72/1/3 70/4/3 69/7/3
f 65/13/5 66/14/5 68/11/5 67/12/5
f 79/25/2 80/24/2 77/21/2 78/20/2
f 83/5/2 90/15/2 91/16/2 81/8/2
f 88/1/1 84/2/1 82/3/1 86/4/1
f 89/17/2 87/6/2 85/7/2 92/18/2
f 90/15/2 89/17/2 92/18/2 91/16/2
f 85/7/6 86/4/6 82/9/6 81/10/6 91/19/6 94/20/6 93/21/6 92/22/6
f 83/12/4 84/11/4 88/1/4 87/6/4 89/23/4 96/24/4 95/25/4 90/26/4
f 90/27/3 95/27/3 94/27/3 91/27/3
f 89/27/5 92/27/5 93/27/5 96/27/5
f 87/6/3 88/1/3 86/4/3 85/7/3
f 81/13/5 82/14/5 84/11/5 83/12/5
f 95/25/2 96/24/2 93/21/2 94/20/2
f 104/1/1 100/2/1 98/3/1 102/4/1
f 99/5/2 103/6/2 101/7/2 97/8/2
f 102/4/3 98/9/3 97/10/3 101/7/3
f 103/6/4 104/1/4 102/4/4 101/7/4
f 100/11/5 104/1/5 103/6/5 99/12/5
f 97/13/6 98/14/6 100/11/6 99/12/6
f 54/27/1 28/27/1 50/27/1 32/27/1 12/27/1 36/27/1 16/27/1 40/27/1 100/27/1 70/27/1 104/27/1 66/27/1 86/27/1 6/27/1 82/27/1 2/27/1
f 27/27/2 59/16/2 60/18/2 1/27/2 53/27/2 81/27/2 5/27/2 91/16/2 92/18/2 85/7/2 65/8/2 75/16/2 76/18/2 103/27/2 69/27/2 39/27/2 99/27/2 41/17/2 42/15/2 15/27/2 35/27/2 17/17/2 18/15/2 11/5/2 31/27/2 49/27/2
l 2 12
l 6 16
l 1 11
l 5 15
