# Blender 4.5.1 LTS
# www.blender.org
mtllib Small Room Open.mtl
o Small_Room_Open
v 5.150000 0.000000 0.000000
v 5.150000 5.300000 0.000000
v 4.850000 0.000000 0.000000
v 4.850000 5.300000 0.000000
v 5.150000 0.000000 -10.000000
v 5.150000 5.300000 -10.000000
v 4.850000 0.000000 -10.000000
v 4.850000 5.300000 -10.000000
v 4.850000 0.000000 -8.000000
v 4.850000 0.000000 -6.000000
v 4.850000 0.000000 -4.000000
v 4.850000 0.000000 -2.000000
v 4.850000 5.300000 -2.000000
v 4.850000 5.300000 -4.000000
v 4.850000 5.300000 -6.000000
v 4.850000 5.300000 -8.000000
v 5.150000 0.000000 -2.000000
v 5.150000 0.000000 -4.000000
v 5.150000 0.000000 -6.000000
v 5.150000 0.000000 -8.000000
v 5.150000 5.300000 -8.000000
v 5.150000 5.300000 -6.000000
v 5.150000 5.300000 -4.000000
v 5.150000 5.300000 -2.000000
v 5.150000 1.325000 0.000000
v 5.150000 2.650000 0.000000
v 5.150000 3.975000 0.000000
v 4.850000 3.975000 0.000000
v 4.850000 2.650000 0.000000
v 4.850000 1.325000 0.000000
v 4.850000 3.975000 -10.000000
v 4.850000 2.650000 -10.000000
v 4.850000 1.325000 -10.000000
v 5.150000 3.975000 -10.000000
v 5.150000 2.650000 -10.000000
v 5.150000 1.325000 -10.000000
v 5.150000 3.975000 -8.000000
v 5.150000 2.650000 -8.000000
v 5.150000 1.325000 -8.000000
v 5.150000 3.975000 -6.000000
v 5.150000 2.650000 -6.000000
v 5.150000 1.325000 -6.000000
v 5.150000 3.975000 -4.000000
v 5.150000 2.650000 -4.000000
v 5.150000 1.325000 -4.000000
v 5.150000 3.975000 -2.000000
v 5.150000 2.650000 -2.000000
v 5.150000 1.325000 -2.000000
v 4.850000 3.975000 -2.000000
v 4.850000 2.650000 -2.000000
v 4.850000 1.325000 -2.000000
v 4.850000 3.975000 -4.000000
v 4.850000 2.650000 -4.000000
v 4.850000 1.325000 -4.000000
v 4.850000 3.975000 -6.000000
v 4.850000 2.650000 -6.000000
v 4.850000 1.325000 -6.000000
v 4.850000 3.975000 -8.000000
v 4.850000 2.650000 -8.000000
v 4.850000 1.325000 -8.000000
v -4.999999 0.000000 0.150000
v -4.999999 5.300000 0.150000
v -4.999999 0.000000 -0.150000
v -4.999999 5.300000 -0.150000
v 5.000000 0.000000 0.150000
v 5.000000 5.300000 0.150000
v 5.000000 0.000000 -0.150000
v 5.000000 5.300000 -0.150000
v 3.000000 0.000000 -0.150000
v 1.000000 0.000000 -0.150000
v -1.000000 0.000000 -0.150000
v -3.000000 0.000000 -0.150000
v -3.000000 5.300000 -0.150000
v -1.000000 5.300000 -0.150000
v 1.000000 5.300000 -0.150000
v 3.000000 5.300000 -0.150000
v -3.000000 0.000000 0.150000
v -1.000000 0.000000 0.150000
v 1.000000 0.000000 0.150000
v 3.000000 0.000000 0.150000
v 3.000000 5.300000 0.150000
v 1.000000 5.300000 0.150000
v -1.000000 5.300000 0.150000
v -3.000000 5.300000 0.150000
v -4.999999 1.325000 0.150000
v -4.999999 2.650000 0.150000
v -4.999999 3.975000 0.150000
v -4.999999 3.975000 -0.150000
v -4.999999 2.650000 -0.150000
v -4.999999 1.325000 -0.150000
v 5.000000 3.975000 -0.150000
v 5.000000 2.650000 -0.150000
v 5.000000 1.325000 -0.150000
v 5.000000 3.975000 0.150000
v 5.000000 2.650000 0.150000
v 5.000000 1.325000 0.150000
v 3.000000 3.975000 0.150000
v 3.000000 2.650000 0.150000
v 3.000000 1.325000 0.150000
v 1.000000 3.975000 0.150000
v 1.000000 2.650000 0.150000
v 1.000000 1.325000 0.150000
v -1.000000 3.975000 0.150000
v -1.000000 2.650000 0.150000
v -1.000000 1.325000 0.150000
v -3.000000 3.975000 0.150000
v -3.000000 2.650000 0.150000
v -3.000000 1.325000 0.150000
v -3.000000 3.975000 -0.150000
v -3.000000 2.650000 -0.150000
v -3.000000 1.325000 -0.150000
v -1.000000 3.975000 -0.150000
v -1.000000 2.650000 -0.150000
v -1.000000 1.325000 -0.150000
v 1.000000 3.975000 -0.150000
v 1.000000 2.650000 -0.150000
v 1.000000 1.325000 -0.150000
v 3.000000 3.975000 -0.150000
v 3.000000 2.650000 -0.150000
v 3.000000 1.325000 -0.150000
v -4.999999 0.000000 -9.850000
v -4.999999 5.300000 -9.850000
v -4.999999 0.000000 -10.150000
v -4.999999 5.300000 -10.150000
v 5.000000 0.000000 -9.850000
v 5.000000 5.300000 -9.850000
v 5.000000 0.000000 -10.150000
v 5.000000 5.300000 -10.150000
v 3.000000 0.000000 -10.150000
v 1.000000 0.000000 -10.150000
v -0.999999 0.000000 -10.150000
v -3.000000 0.000000 -10.150000
v -3.000000 5.300000 -10.150000
v -0.999999 5.300000 -10.150000
v 1.000000 5.300000 -10.150000
v 3.000000 5.300000 -10.150000
v -3.000000 0.000000 -9.850000
v -0.999999 0.000000 -9.850000
v 1.000000 0.000000 -9.850000
v 3.000000 0.000000 -9.850000
v 3.000000 5.300000 -9.850000
v 1.000000 5.300000 -9.850000
v -0.999999 5.300000 -9.850000
v -3.000000 5.300000 -9.850000
v -4.999999 1.325000 -9.850000
v -4.999999 2.650000 -9.850000
v -4.999999 3.975000 -9.850000
v -4.999999 3.975000 -10.150000
v -4.999999 2.650000 -10.150000
v -4.999999 1.325000 -10.150000
v 5.000000 3.975000 -10.150000
v 5.000000 2.650000 -10.150000
v 5.000000 1.325000 -10.150000
v 5.000000 3.975000 -9.850000
v 5.000000 2.650000 -9.850000
v 5.000000 1.325000 -9.850000
v 3.000000 3.975000 -9.850000
v 3.000000 2.650000 -9.850000
v 3.000000 1.325000 -9.850000
v 1.000000 3.975000 -9.850000
v 1.000000 2.650000 -9.850000
v 1.000000 1.325000 -9.850000
v -0.999999 3.975000 -9.850000
v -0.999999 2.650000 -9.850000
v -0.999999 1.325000 -9.850000
v -3.000000 3.975000 -9.850000
v -3.000000 2.650000 -9.850000
v -3.000000 1.325000 -9.850000
v -3.000000 3.975000 -10.150000
v -3.000000 2.650000 -10.150000
v -3.000000 1.325000 -10.150000
v -0.999999 3.975000 -10.150000
v -0.999999 2.650000 -10.150000
v -0.999999 1.325000 -10.150000
v 1.000000 3.975000 -10.150000
v 1.000000 2.650000 -10.150000
v 1.000000 1.325000 -10.150000
v 3.000000 3.975000 -10.150000
v 3.000000 2.650000 -10.150000
v 3.000000 1.325000 -10.150000
v -4.849998 0.000000 0.000000
v -4.849998 5.300000 0.000000
v -5.149999 0.000000 0.000000
v -5.149999 5.300000 0.000000
v -4.849998 0.000000 -10.000000
v -4.849998 5.300000 -10.000000
v -5.149999 0.000000 -10.000000
v -5.149999 5.300000 -10.000000
v -5.149999 0.000000 -8.000000
v -5.149999 0.000000 -6.000000
v -5.149999 0.000000 -4.000000
v -5.149999 0.000000 -2.000000
v -5.149999 5.300000 -2.000000
v -5.149999 5.300000 -4.000000
v -5.149999 5.300000 -6.000000
v -5.149999 5.300000 -8.000000
v -4.849998 0.000000 -2.000000
v -4.849998 0.000000 -4.000000
v -4.849998 0.000000 -6.000000
v -4.849998 0.000000 -8.000000
v -4.849998 5.300000 -8.000000
v -4.849998 5.300000 -6.000000
v -4.849998 5.300000 -4.000000
v -4.849998 5.300000 -2.000000
v -4.849998 1.325000 0.000000
v -4.849998 2.650000 0.000000
v -4.849998 3.975000 0.000000
v -5.149999 3.975000 0.000000
v -5.149999 2.650000 0.000000
v -5.149999 1.325000 0.000000
v -5.149999 3.975000 -10.000000
v -5.149999 2.650000 -10.000000
v -5.149999 1.325000 -10.000000
v -4.849998 3.975000 -10.000000
v -4.849998 2.650000 -10.000000
v -4.849998 1.325000 -10.000000
v -4.849998 3.975000 -8.000000
v -4.849998 2.650000 -8.000000
v -4.849998 1.325000 -8.000000
v -4.849998 3.975000 -6.000000
v -4.849998 2.650000 -6.000000
v -4.849998 1.325000 -6.000000
v -4.849998 3.975000 -4.000000
v -4.849998 2.650000 -4.000000
v -4.849998 1.325000 -4.000000
v -4.849998 3.975000 -2.000000
v -4.849998 2.650000 -2.000000
v -4.849998 1.325000 -2.000000
v -5.149999 3.975000 -2.000000
v -5.149999 2.650000 -2.000000
v -5.149999 1.325000 -2.000000
v -5.149999 3.975000 -4.000000
v -5.149999 2.650000 -4.000000
v -5.149999 1.325000 -4.000000
v -5.149999 3.975000 -6.000000
v -5.149999 2.650000 -6.000000
v -5.149999 1.325000 -6.000000
v -5.149999 3.975000 -8.000000
v -5.149999 2.650000 -8.000000
v -5.149999 1.325000 -8.000000
v -4.931486 5.150000 -0.068516
v -4.931486 5.450000 -0.068516
v -4.931483 5.150000 -9.931483
v -4.931483 5.450000 -9.931483
v 4.931483 5.150000 -0.068517
v 4.931483 5.450000 -0.068517
v 4.931483 5.150000 -9.931484
v 4.931483 5.450000 -9.931484
vn -0.0000 -0.0000 1.0000
vn -1.0000 -0.0000 -0.0000
vn -0.0000 -0.0000 -1.0000
vn 1.0000 -0.0000 -0.0000
vn -0.0000 -1.0000 -0.0000
vn -0.0000 1.0000 -0.0000
vt 0.562500 0.000000
vt 0.625000 0.000000
vt 0.625000 0.250000
vt 0.562500 0.250000
vt 0.562500 0.450000
vt 0.625000 0.450000
vt 0.625000 0.500000
vt 0.562500 0.500000
vt 0.625000 0.750000
vt 0.562500 0.750000
vt 0.562500 0.950000
vt 0.625000 0.950000
vt 0.625000 1.000000
vt 0.562500 1.000000
vt 0.325000 0.500000
vt 0.375000 0.500000
vt 0.375000 0.750000
vt 0.325000 0.750000
vt 0.825000 0.500000
vt 0.875000 0.500000
vt 0.875000 0.750000
vt 0.825000 0.750000
vt 0.675000 0.500000
vt 0.675000 0.750000
vt 0.725000 0.500000
vt 0.725000 0.750000
vt 0.775000 0.500000
vt 0.775000 0.750000
vt 0.125000 0.500000
vt 0.175000 0.500000
vt 0.175000 0.750000
vt 0.125000 0.750000
vt 0.225000 0.500000
vt 0.225000 0.750000
vt 0.275000 0.500000
vt 0.275000 0.750000
vt 0.625000 0.800000
vt 0.562500 0.800000
vt 0.625000 0.850000
vt 0.562500 0.850000
vt 0.625000 0.900000
vt 0.562500 0.900000
vt 0.625000 0.300000
vt 0.562500 0.300000
vt 0.625000 0.350000
vt 0.562500 0.350000
vt 0.625000 0.400000
vt 0.562500 0.400000
vt 0.375000 0.400000
vt 0.437500 0.400000
vt 0.437500 0.450000
vt 0.375000 0.450000
vt 0.500000 0.400000
vt 0.500000 0.450000
vt 0.000000 0.000000
vt 0.375000 0.300000
vt 0.437500 0.300000
vt 0.437500 0.350000
vt 0.375000 0.350000
vt 0.500000 0.300000
vt 0.500000 0.350000
vt 0.375000 0.250000
vt 0.437500 0.250000
vt 0.500000 0.250000
vt 0.375000 0.900000
vt 0.437500 0.900000
vt 0.437500 0.950000
vt 0.375000 0.950000
vt 0.500000 0.900000
vt 0.500000 0.950000
vt 0.375000 0.800000
vt 0.437500 0.800000
vt 0.437500 0.850000
vt 0.375000 0.850000
vt 0.500000 0.800000
vt 0.500000 0.850000
vt 0.437500 0.750000
vt 0.500000 0.750000
vt 0.437500 1.000000
vt 0.375000 1.000000
vt 0.500000 1.000000
vt 0.437500 0.500000
vt 0.500000 0.500000
vt 0.375000 0.000000
vt 0.437500 0.000000
vt 0.500000 0.000000
s 0
f 27/1/1 2/2/1 4/3/1 28/4/1
f 58/5/2 16/6/2 8/7/2 31/8/2
f 31/8/3 8/7/3 6/9/3 34/10/3
f 46/11/4 24/12/4 2/13/4 27/14/4
f 9/15/5 7/16/5 5/17/5 20/18/5
f 13/19/6 4/20/6 2/21/6 24/22/6
f 8/7/6 16/23/6 21/24/6 6/9/6
f 16/23/6 15/25/6 22/26/6 21/24/6
f 15/25/6 14/27/6 23/28/6 22/26/6
f 14/27/6 13/19/6 24/22/6 23/28/6
f 3/29/5 12/30/5 17/31/5 1/32/5
f 12/30/5 11/33/5 18/34/5 17/31/5
f 11/33/5 10/35/5 19/36/5 18/34/5
f 10/35/5 9/15/5 20/18/5 19/36/5
f 34/10/4 6/9/4 21/37/4 37/38/4
f 37/38/4 21/37/4 22/39/4 40/40/4
f 40/40/4 22/39/4 23/41/4 43/42/4
f 43/42/4 23/41/4 24/12/4 46/11/4
f 28/4/2 4/3/2 13/43/2 49/44/2
f 49/44/2 13/43/2 14/45/2 52/46/2
f 52/46/2 14/45/2 15/47/2 55/48/2
f 55/48/2 15/47/2 16/6/2 58/5/2
f 10/49/2 57/50/2 60/51/2 9/52/2
f 57/50/2 56/53/2 59/54/2 60/51/2
f 56/53/2 55/48/2 58/5/2 59/54/2
f 11/55/3 54/55/3 53/55/3 52/55/3 43/55/3 44/55/3 45/55/3 18/55/3
f 12/56/2 51/57/2 54/58/2 11/59/2
f 51/57/2 50/60/2 53/61/2 54/58/2
f 50/60/2 49/44/2 52/46/2 53/61/2
f 3/62/2 30/63/2 51/57/2 12/56/2
f 30/63/2 29/64/2 50/60/2 51/57/2
f 29/64/2 28/4/2 49/44/2 50/60/2
f 18/65/4 45/66/4 48/67/4 17/68/4
f 45/66/4 44/69/4 47/70/4 48/67/4
f 44/69/4 43/42/4 46/11/4 47/70/4
f 57/55/1 10/55/1 19/55/1 42/55/1 41/55/1 40/55/1 55/55/1 56/55/1
f 20/71/4 39/72/4 42/73/4 19/74/4
f 39/72/4 38/75/4 41/76/4 42/73/4
f 38/75/4 37/38/4 40/40/4 41/76/4
f 5/17/4 36/77/4 39/72/4 20/71/4
f 36/77/4 35/78/4 38/75/4 39/72/4
f 35/78/4 34/10/4 37/38/4 38/75/4
f 17/68/4 48/67/4 25/79/4 1/80/4
f 48/67/4 47/70/4 26/81/4 25/79/4
f 47/70/4 46/11/4 27/14/4 26/81/4
f 7/16/3 33/82/3 36/77/3 5/17/3
f 33/82/3 32/83/3 35/78/3 36/77/3
f 32/83/3 31/8/3 34/10/3 35/78/3
f 9/52/2 60/51/2 33/82/2 7/16/2
f 60/51/2 59/54/2 32/83/2 33/82/2
f 59/54/2 58/5/2 31/8/2 32/83/2
f 1/84/1 25/85/1 30/63/1 3/62/1
f 25/85/1 26/86/1 29/64/1 30/63/1
f 26/86/1 27/1/1 28/4/1 29/64/1
f 52/46/5 55/48/5 40/40/5 43/42/5
f 87/1/2 62/2/2 64/3/2 88/4/2
f 118/5/3 76/6/3 68/7/3 91/8/3
f 91/8/4 68/7/4 66/9/4 94/10/4
f 106/11/1 84/12/1 62/13/1 87/14/1
f 69/15/5 67/16/5 65/17/5 80/18/5
f 73/19/6 64/20/6 62/21/6 84/22/6
f 68/7/6 76/23/6 81/24/6 66/9/6
f 76/23/6 75/25/6 82/26/6 81/24/6
f 75/25/6 74/27/6 83/28/6 82/26/6
f 74/27/6 73/19/6 84/22/6 83/28/6
f 63/29/5 72/30/5 77/31/5 61/32/5
f 72/30/5 71/33/5 78/34/5 77/31/5
f 71/33/5 70/35/5 79/36/5 78/34/5
f 70/35/5 69/15/5 80/18/5 79/36/5
f 94/10/1 66/9/1 81/37/1 97/38/1
f 97/38/1 81/37/1 82/39/1 100/40/1
f 100/40/1 82/39/1 83/41/1 103/42/1
f 103/42/1 83/41/1 84/12/1 106/11/1
f 88/4/3 64/3/3 73/43/3 109/44/3
f 109/44/3 73/43/3 74/45/3 112/46/3
f 112/46/3 74/45/3 75/47/3 115/48/3
f 115/48/3 75/47/3 76/6/3 118/5/3
f 70/49/3 117/50/3 120/51/3 69/52/3
f 117/50/3 116/53/3 119/54/3 120/51/3
f 116/53/3 115/48/3 118/5/3 119/54/3
f 71/55/4 114/55/4 113/55/4 112/55/4 103/55/4 104/55/4 105/55/4 78/55/4
f 72/56/3 111/57/3 114/58/3 71/59/3
f 111/57/3 110/60/3 113/61/3 114/58/3
f 110/60/3 109/44/3 112/46/3 113/61/3
f 63/62/3 90/63/3 111/57/3 72/56/3
f 90/63/3 89/64/3 110/60/3 111/57/3
f 89/64/3 88/4/3 109/44/3 110/60/3
f 78/65/1 105/66/1 108/67/1 77/68/1
f 105/66/1 104/69/1 107/70/1 108/67/1
f 104/69/1 103/42/1 106/11/1 107/70/1
f 117/55/2 70/55/2 79/55/2 102/55/2 101/55/2 100/55/2 115/55/2 116/55/2
f 80/71/1 99/72/1 102/73/1 79/74/1
f 99/72/1 98/75/1 101/76/1 102/73/1
f 98/75/1 97/38/1 100/40/1 101/76/1
f 65/17/1 96/77/1 99/72/1 80/71/1
f 96/77/1 95/78/1 98/75/1 99/72/1
f 95/78/1 94/10/1 97/38/1 98/75/1
f 77/68/1 108/67/1 85/79/1 61/80/1
f 108/67/1 107/70/1 86/81/1 85/79/1
f 107/70/1 106/11/1 87/14/1 86/81/1
f 67/16/4 93/82/4 96/77/4 65/17/4
f 93/82/4 92/83/4 95/78/4 96/77/4
f 92/83/4 91/8/4 94/10/4 95/78/4
f 69/52/3 120/51/3 93/82/3 67/16/3
f 120/51/3 119/54/3 92/83/3 93/82/3
f 119/54/3 118/5/3 91/8/3 92/83/3
f 61/84/2 85/85/2 90/63/2 63/62/2
f 85/85/2 86/86/2 89/64/2 90/63/2
f 86/86/2 87/1/2 88/4/2 89/64/2
f 112/46/5 115/48/5 100/40/5 103/42/5
f 147/1/2 122/2/2 124/3/2 148/4/2
f 178/5/3 136/6/3 128/7/3 151/8/3
f 151/8/4 128/7/4 126/9/4 154/10/4
f 166/11/1 144/12/1 122/13/1 147/14/1
f 129/15/5 127/16/5 125/17/5 140/18/5
f 133/19/6 124/20/6 122/21/6 144/22/6
f 128/7/6 136/23/6 141/24/6 126/9/6
f 136/23/6 135/25/6 142/26/6 141/24/6
f 135/25/6 134/27/6 143/28/6 142/26/6
f 134/27/6 133/19/6 144/22/6 143/28/6
f 123/29/5 132/30/5 137/31/5 121/32/5
f 132/30/5 131/33/5 138/34/5 137/31/5
f 131/33/5 130/35/5 139/36/5 138/34/5
f 130/35/5 129/15/5 140/18/5 139/36/5
f 154/10/1 126/9/1 141/37/1 157/38/1
f 157/38/1 141/37/1 142/39/1 160/40/1
f 160/40/1 142/39/1 143/41/1 163/42/1
f 163/42/1 143/41/1 144/12/1 166/11/1
f 148/4/3 124/3/3 133/43/3 169/44/3
f 169/44/3 133/43/3 134/45/3 172/46/3
f 172/46/3 134/45/3 135/47/3 175/48/3
f 175/48/3 135/47/3 136/6/3 178/5/3
f 130/49/3 177/50/3 180/51/3 129/52/3
f 177/50/3 176/53/3 179/54/3 180/51/3
f 176/53/3 175/48/3 178/5/3 179/54/3
f 131/55/4 174/55/4 173/55/4 172/55/4 163/55/4 164/55/4 165/55/4 138/55/4
f 132/56/3 171/57/3 174/58/3 131/59/3
f 171/57/3 170/60/3 173/61/3 174/58/3
f 170/60/3 169/44/3 172/46/3 173/61/3
f 123/62/3 150/63/3 171/57/3 132/56/3
f 150/63/3 149/64/3 170/60/3 171/57/3
f 149/64/3 148/4/3 169/44/3 170/60/3
f 138/65/1 165/66/1 168/67/1 137/68/1
f 165/66/1 164/69/1 167/70/1 168/67/1
f 164/69/1 163/42/1 166/11/1 167/70/1
f 177/55/2 130/55/2 139/55/2 162/55/2 161/55/2 160/55/2 175/55/2 176/55/2
f 140/71/1 159/72/1 162/73/1 139/74/1
f 159/72/1 158/75/1 161/76/1 162/73/1
f 158/75/1 157/38/1 160/40/1 161/76/1
f 125/17/1 156/77/1 159/72/1 140/71/1
f 156/77/1 155/78/1 158/75/1 159/72/1
f 155/78/1 154/10/1 157/38/1 158/75/1
f 137/68/1 168/67/1 145/79/1 121/80/1
f 168/67/1 167/70/1 146/81/1 145/79/1
f 167/70/1 166/11/1 147/14/1 146/81/1
f 127/16/4 153/82/4 156/77/4 125/17/4
f 153/82/4 152/83/4 155/78/4 156/77/4
f 152/83/4 151/8/4 154/10/4 155/78/4
f 129/52/3 180/51/3 153/82/3 127/16/3
f 180/51/3 179/54/3 152/83/3 153/82/3
f 179/54/3 178/5/3 151/8/3 152/83/3
f 121/84/2 145/85/2 150/63/2 123/62/2
f 145/85/2 146/86/2 149/64/2 150/63/2
f 146/86/2 147/1/2 148/4/2 149/64/2
f 172/46/5 175/48/5 160/40/5 163/42/5
f 207/1/1 182/2/1 184/3/1 208/4/1
f 238/5/2 196/6/2 188/7/2 211/8/2
f 211/8/3 188/7/3 186/9/3 214/10/3
f 226/11/4 204/12/4 182/13/4 207/14/4
f 189/15/5 187/16/5 185/17/5 200/18/5
f 193/19/6 184/20/6 182/21/6 204/22/6
f 188/7/6 196/23/6 201/24/6 186/9/6
f 196/23/6 195/25/6 202/26/6 201/24/6
f 195/25/6 194/27/6 203/28/6 202/26/6
f 194/27/6 193/19/6 204/22/6 203/28/6
f 183/29/5 192/30/5 197/31/5 181/32/5
f 192/30/5 191/33/5 198/34/5 197/31/5
f 191/33/5 190/35/5 199/36/5 198/34/5
f 190/35/5 189/15/5 200/18/5 199/36/5
f 214/10/4 186/9/4 201/37/4 217/38/4
f 217/38/4 201/37/4 202/39/4 220/40/4
f 220/40/4 202/39/4 203/41/4 223/42/4
f 223/42/4 203/41/4 204/12/4 226/11/4
f 208/4/2 184/3/2 193/43/2 229/44/2
f 229/44/2 193/43/2 194/45/2 232/46/2
f 232/46/2 194/45/2 195/47/2 235/48/2
f 235/48/2 195/47/2 196/6/2 238/5/2
f 190/49/2 237/50/2 240/51/2 189/52/2
f 237/50/2 236/53/2 239/54/2 240/51/2
f 236/53/2 235/48/2 238/5/2 239/54/2
f 191/55/3 234/55/3 233/55/3 232/55/3 223/55/3 224/55/3 225/55/3 198/55/3
f 192/56/2 231/57/2 234/58/2 191/59/2
f 231/57/2 230/60/2 233/61/2 234/58/2
f 230/60/2 229/44/2 232/46/2 233/61/2
f 183/62/2 210/63/2 231/57/2 192/56/2
f 210/63/2 209/64/2 230/60/2 231/57/2
f 209/64/2 208/4/2 229/44/2 230/60/2
f 198/65/4 225/66/4 228/67/4 197/68/4
f 225/66/4 224/69/4 227/70/4 228/67/4
f 224/69/4 223/42/4 226/11/4 227/70/4
f 237/55/1 190/55/1 199/55/1 222/55/1 221/55/1 220/55/1 235/55/1 236/55/1
f 200/71/4 219/72/4 222/73/4 199/74/4
f 219/72/4 218/75/4 221/76/4 222/73/4
f 218/75/4 217/38/4 220/40/4 221/76/4
f 185/17/4 216/77/4 219/72/4 200/71/4
f 216/77/4 215/78/4 218/75/4 219/72/4
f 215/78/4 214/10/4 217/38/4 218/75/4
f 197/68/4 228/67/4 205/79/4 181/80/4
f 228/67/4 227/70/4 206/81/4 205/79/4
f 227/70/4 226/11/4 207/14/4 206/81/4
f 187/16/3 213/82/3 216/77/3 185/17/3
f 213/82/3 212/83/3 215/78/3 216/77/3
f 212/83/3 211/8/3 214/10/3 215/78/3
f 189/52/2 240/51/2 213/82/2 187/16/2
f 240/51/2 239/54/2 212/83/2 213/82/2
f 239/54/2 238/5/2 211/8/2 212/83/2
f 181/84/1 205/85/1 210/63/1 183/62/1
f 205/85/1 206/86/1 209/64/1 210/63/1
f 206/86/1 207/1/1 208/4/1 209/64/1
f 232/46/5 235/48/5 220/40/5 223/42/5
f 63/55/6 181/55/6 72/30/6 71/33/6 70/35/6 69/15/6 3/55/6 67/55/6 12/30/6 11/33/6 10/35/6 9/15/6 125/55/6 7/55/6 140/18/6 139/36/6 138/34/6 137/31/6 185/55/6 121/55/6 200/18/6 199/36/6 198/34/6 197/31/6
f 241/84/2 242/2/2 244/3/2 243/62/2
f 243/62/3 244/3/3 248/7/3 247/16/3
f 247/16/4 248/7/4 246/9/4 245/17/4
f 245/17/1 246/9/1 242/13/1 241/80/1
f 243/29/5 247/16/5 245/17/5 241/32/5
f 248/7/6 244/20/6 242/21/6 246/9/6
l 7 63
