# Blender 4.5.1 LTS
# www.blender.org
o Monitor_(1)
v 0.257321 -0.211319 -0.210499
v -0.252564 -0.211319 -0.216100
v -0.410392 -0.211319 -0.176260
v 0.414235 -0.211319 -0.167201
v -0.476680 -0.211318 -0.076620
v 0.478318 -0.211318 -0.066129
v -0.478315 -0.211318 0.072252
v 0.476682 -0.211318 0.082743
v -0.414233 -0.211318 0.173324
v 0.410394 -0.211318 0.182384
v -0.257318 -0.211318 0.216622
v 0.252567 -0.211318 0.222224
v 0.084580 -0.117933 -0.054404
v -0.083294 -0.117933 -0.056249
v -0.129198 -0.117933 -0.044661
v 0.130218 -0.117933 -0.041811
v -0.146055 -0.117933 -0.019323
v 0.146514 -0.117933 -0.016109
v -0.146512 -0.117933 0.022232
v 0.146058 -0.117933 0.025446
v -0.130216 -0.117933 0.047934
v 0.129201 -0.117933 0.050784
v -0.084577 -0.117933 0.060527
v 0.083297 -0.117933 0.062372
v -0.129198 -0.055189 -0.044661
v -0.083294 -0.055189 -0.056249
v 0.084580 -0.055189 -0.054404
v 0.130218 -0.055189 -0.041811
v -0.146055 -0.055189 -0.019323
v 0.146514 -0.055189 -0.016109
v -0.146512 -0.055189 0.022232
v 0.146058 -0.055189 0.025446
v -0.130216 -0.055189 0.047934
v 0.129201 -0.055189 0.050784
v -0.084577 -0.055189 0.060527
v 0.083297 -0.055189 0.062372
v 0.751630 -0.094800 -0.070905
v 0.751723 -0.094800 0.076069
v 0.751723 0.890718 0.076069
v 0.751630 0.890718 -0.070905
v 0.663971 -0.007048 0.076125
v 0.663943 -0.007048 0.032244
v 0.663943 0.802966 0.032244
v 0.663971 0.802966 0.076125
v -0.751627 -0.094800 0.077029
v -0.751721 0.890718 -0.069946
v -0.751627 0.890718 0.077028
v -0.751721 -0.094800 -0.069946
v -0.633253 0.772192 -0.160856
v -0.633253 0.023727 -0.160855
v 0.633045 0.772192 -0.161664
v 0.633045 0.023727 -0.161663
v -0.663903 -0.007048 0.033092
v -0.663903 0.802966 0.033092
v -0.663875 0.802966 0.076972
v -0.663875 -0.007048 0.076972
v -0.478315 -0.160887 0.072252
v -0.414233 -0.160887 0.173324
v -0.257318 -0.160887 0.216622
v 0.252567 -0.160887 0.222224
v 0.410394 -0.160887 0.182384
v 0.383848 -0.117933 0.144843
v 0.247468 -0.117933 0.179269
v -0.251278 -0.117933 0.173790
v -0.386868 -0.117933 0.136376
v 0.433929 -0.117933 0.069564
v 0.476682 -0.160887 0.082743
v -0.435282 -0.117933 0.060015
v 0.478318 -0.160887 -0.066129
v 0.435285 -0.117933 -0.053892
v 0.414235 -0.160887 -0.167201
v 0.386870 -0.117933 -0.130253
v -0.433926 -0.117933 -0.063441
v -0.476680 -0.160887 -0.076620
v -0.410392 -0.160887 -0.176260
v -0.383845 -0.117933 -0.138720
v -0.252564 -0.160887 -0.216100
v 0.257321 -0.160887 -0.210499
v 0.251280 -0.117933 -0.167667
v -0.247466 -0.117933 -0.173146
vn -0.0000 -1.0000 -0.0000
vn -0.0000 1.0000 -0.0000
vn 0.6380 -0.6382 -0.4309
vn 1.0000 -0.0000 -0.0006
vn 0.6380 0.6383 -0.4309
vn -1.0000 -0.0000 0.0006
vn -0.6385 0.6382 -0.4300
vn -0.6385 -0.6383 -0.4300
vn -0.2494 0.2488 -0.9359
vn -0.2494 -0.2488 -0.9359
vn 0.2482 0.2488 -0.9362
vn 0.2482 -0.2488 -0.9362
vn 0.0006 -0.0000 1.0000
vn -0.8941 0.3686 0.2543
vn -0.5952 -0.0000 0.8036
vn -0.5533 0.3684 0.7471
vn -0.9619 -0.0000 0.2735
vn -0.1396 -0.0000 0.9902
vn -0.1295 0.3736 0.9185
vn 0.1093 0.3736 0.9211
vn 0.1179 -0.0000 0.9930
vn 0.5774 -0.0000 0.8165
vn 0.5368 0.3684 0.7591
vn 0.9556 -0.0000 0.2946
vn 0.2519 0.8998 0.3563
vn 0.0480 0.9133 0.4044
vn -0.0569 0.9133 0.4032
vn -0.2597 0.8998 0.3507
vn 0.4100 0.9033 0.1264
vn 0.8884 0.3686 0.2738
vn -0.4127 0.9033 0.1173
vn 0.8941 0.3686 -0.2543
vn 0.9619 -0.0000 -0.2735
vn 0.5952 -0.0000 -0.8036
vn 0.4127 0.9033 -0.1173
vn 0.5533 0.3684 -0.7471
vn 0.1396 -0.0000 -0.9902
vn 0.2597 0.8998 -0.3507
vn -0.4100 0.9033 -0.1264
vn -0.8884 0.3686 -0.2738
vn -0.9556 -0.0000 -0.2946
vn -0.5368 0.3684 -0.7591
vn -0.5774 -0.0000 -0.8165
vn -0.2519 0.8998 -0.3563
vn -0.1093 0.3736 -0.9211
vn -0.1179 -0.0000 -0.9930
vn 0.1295 0.3736 -0.9185
vn 0.0569 0.9133 -0.4032
vn -0.0480 0.9133 -0.4044
vn 0.1397 -0.0000 -0.9902
vn -0.1397 -0.0000 0.9902
vt 0.696191 0.547614
vt 0.710874 0.783311
vt 0.696191 0.727722
vt 0.710874 0.492026
vt 0.746323 0.806336
vt 0.746323 0.469000
vt 0.798910 0.806336
vt 0.798910 0.469000
vt 0.834359 0.783311
vt 0.834359 0.492026
vt 0.849042 0.727722
vt 0.849042 0.547614
vt 0.396579 0.552996
vt 0.400850 0.628463
vt 0.396579 0.612295
vt 0.400850 0.536829
vt 0.409864 0.634318
vt 0.409864 0.530973
vt 0.424543 0.634318
vt 0.424543 0.530973
vt 0.433557 0.628463
vt 0.433557 0.536829
vt 0.437828 0.612295
vt 0.437828 0.552996
vt 0.342138 0.628479
vt 0.346408 0.553012
vt 0.346408 0.612311
vt 0.342138 0.536844
vt 0.333123 0.634334
vt 0.333123 0.530989
vt 0.318445 0.634334
vt 0.318445 0.530989
vt 0.309430 0.628479
vt 0.309430 0.536845
vt 0.305159 0.612311
vt 0.305159 0.553012
vt 0.256676 0.530989
vt 0.204764 0.879085
vt 0.204764 0.530989
vt 0.256676 0.879085
vt 0.381080 0.817079
vt 0.396579 0.530973
vt 0.396579 0.817079
vt 0.381080 0.530973
vt 0.152851 0.879085
vt 0.152851 0.530989
vt 0.204764 0.530989
vt 0.204764 0.879085
vt 0.389960 0.489429
vt 0.696191 0.530973
vt 0.348095 0.530973
vt 0.654326 0.489429
vt 0.696191 -0.000000
vt 0.389960 0.042181
vt 0.348095 -0.000000
vt 0.654326 0.042181
vt 0.849042 1.000000
vt 0.900955 0.469001
vt 0.900955 1.000000
vt 0.849042 0.469001
vt 0.952868 0.469001
vt 0.900955 1.000000
vt 0.900955 0.469001
vt 0.952868 1.000000
vt 0.696191 0.000000
vt 0.982297 0.469000
vt 0.696191 0.469000
vt 0.982297 -0.000000
vt 0.289660 0.817095
vt 0.305159 0.530989
vt 0.305159 0.817095
vt 0.289660 0.530989
vt 0.983867 0.469001
vt 0.968368 0.938010
vt 0.968368 0.469001
vt 0.983867 0.938010
vt 0.952868 0.938010
vt 0.968367 0.469001
vt 0.968367 0.938010
vt 0.952868 0.469001
vt 0.455641 0.566556
vt 0.437828 0.530973
vt 0.455641 0.530973
vt 0.437828 0.566556
vt 0.274488 0.822270
vt 0.256676 0.822270
vt 0.256676 0.766760
vt 0.274488 0.766760
vt 0.274488 0.586655
vt 0.256676 0.586655
vt 0.256676 0.530989
vt 0.274488 0.530989
vt 0.485985 0.530973
vt 0.503797 0.530973
vt 0.503797 0.566288
vt 0.027839 0.563536
vt 0.000000 0.609603
vt 0.014684 0.554015
vt 0.015151 0.611570
vt 0.289660 0.588542
vt 0.289660 0.764712
vt 0.015151 0.787743
vt 0.014683 0.845299
vt 0.000000 0.789711
vt 0.027839 0.835778
vt 0.050133 0.868325
vt 0.054621 0.546140
vt 0.485985 0.566288
vt 0.050133 0.530989
vt 0.054621 0.853173
vt 0.485985 0.618873
vt 0.503797 0.618873
vt 0.503797 0.654456
vt 0.470813 0.614473
vt 0.470813 0.570865
vt 0.098230 0.546140
vt 0.485985 0.654456
vt 0.363267 0.530973
vt 0.381080 0.530973
vt 0.381080 0.586537
vt 0.125012 0.563536
vt 0.102719 0.530989
vt 0.138168 0.554015
vt 0.098230 0.853173
vt 0.470813 0.570956
vt 0.455641 0.619141
vt 0.470813 0.614564
vt 0.437828 0.619141
vt 0.455641 0.654456
vt 0.138168 0.845299
vt 0.102719 0.868325
vt 0.437828 0.654456
vt 0.125012 0.835778
vt 0.381080 0.822258
vt 0.363267 0.822258
vt 0.363267 0.766644
vt 0.381080 0.766644
vt 0.363267 0.586537
vt 0.152851 0.789711
vt 0.137700 0.611570
vt 0.152851 0.609603
vt 0.137700 0.787743
vt 0.348095 0.764703
vt 0.348095 0.588530
vt 0.317101 0.499995
vt 0.348095 0.000000
vt 0.348095 0.530989
vt 0.317101 0.030994
vt 0.030995 0.499995
vt 0.000000 0.000000
vt 0.000000 0.530989
vt 0.030995 0.030994
vt 0.525959 0.547134
vt 0.503797 0.606432
vt 0.503797 0.547134
vt 0.525959 0.606432
vt 0.525959 0.530973
vt 0.503797 0.622607
vt 0.503797 0.530973
vt 0.525959 0.622607
vt 0.570283 0.554632
vt 0.570283 0.563680
vt 0.548121 0.563680
vt 0.570283 0.563680
vt 0.592445 0.554700
vt 0.592445 0.563680
vt 0.548121 0.554632
vt 0.570283 0.554700
vt 0.570283 0.539954
vt 0.592445 0.540022
vt 0.548121 0.539954
vt 0.570283 0.540022
vt 0.570283 0.530973
vt 0.592445 0.530973
vt 0.548121 0.530973
vt 0.525959 0.547164
vt 0.525959 0.530973
vt 0.525959 0.622606
vt 0.548121 0.606461
vt 0.548121 0.622606
vt 0.548121 0.547164
vt 0.525959 0.606461
s 1
f 1/1/1 3/2/1 2/3/1
f 3/2/1 1/1/1 4/4/1
f 3/2/1 4/4/1 5/5/1
f 5/5/1 4/4/1 6/6/1
f 5/5/1 6/6/1 7/7/1
f 7/7/1 6/6/1 8/8/1
f 7/7/1 8/8/1 9/9/1
f 9/9/1 8/8/1 10/10/1
f 9/9/1 10/10/1 11/11/1
f 11/11/1 10/10/1 12/12/1
f 13/13/1 15/14/1 14/15/1
f 15/14/1 13/13/1 16/16/1
f 15/14/1 16/16/1 17/17/1
f 17/17/1 16/16/1 18/18/1
f 17/17/1 18/18/1 19/19/1
f 19/19/1 18/18/1 20/20/1
f 19/19/1 20/20/1 21/21/1
f 21/21/1 20/20/1 22/22/1
f 21/21/1 22/22/1 23/23/1
f 23/23/1 22/22/1 24/24/1
f 25/25/2 27/26/2 26/27/2
f 27/26/2 25/25/2 28/28/2
f 28/28/2 25/25/2 29/29/2
f 28/28/2 29/29/2 30/30/2
f 30/30/2 29/29/2 31/31/2
f 30/30/2 31/31/2 32/32/2
f 32/32/2 31/31/2 33/33/2
f 32/32/2 33/33/2 34/34/2
f 34/34/2 33/33/2 35/35/2
f 34/34/2 35/35/2 36/36/2
f 37/37/3 39/38/4 38/39/4
f 37/37/3 40/40/5 39/38/4
f 41/41/6 43/42/6 42/43/6
f 41/41/6 44/44/6 43/42/6
f 45/45/6 47/46/6 46/47/7
f 45/45/6 46/47/7 48/48/8
f 49/49/9 48/50/8 46/51/7
f 49/49/9 50/52/10 48/50/8
f 50/52/10 37/53/3 48/50/8
f 51/54/11 49/49/9 46/51/7
f 50/52/10 49/49/9 51/54/11
f 51/54/11 46/51/7 40/55/5
f 52/56/12 40/55/5 37/53/3
f 50/52/10 52/56/12 37/53/3
f 50/52/10 51/54/11 52/56/12
f 52/56/12 51/54/11 40/55/5
f 38/57/1 48/58/8 37/59/3
f 38/57/1 45/60/1 48/58/8
f 47/61/2 40/62/5 46/63/7
f 47/61/2 39/64/2 40/62/5
f 42/65/13 54/66/13 53/67/13
f 42/65/13 43/68/13 54/66/13
f 55/69/4 53/70/4 54/71/4
f 55/69/4 56/72/4 53/70/4
f 56/73/2 42/74/2 53/75/2
f 56/73/2 41/76/2 42/74/2
f 44/77/1 54/78/1 43/79/1
f 44/77/1 55/80/1 54/78/1
f 57/81/14 9/82/15 58/83/16
f 57/81/14 7/84/17 9/82/15
f 58/85/16 9/86/15 11/87/18
f 58/85/16 11/87/18 59/88/19
f 11/87/18 60/89/20 59/88/19
f 11/87/18 12/90/21 60/89/20
f 60/89/20 12/90/21 10/91/22
f 60/89/20 10/91/22 61/92/23
f 61/93/23 10/94/22 8/95/24
f 62/96/25 60/97/20 61/98/23
f 62/96/25 63/99/26 60/97/20
f 63/100/26 59/88/19 60/89/20
f 63/100/26 64/101/27 59/88/19
f 62/96/25 64/102/27 63/99/26
f 64/102/27 58/103/16 59/104/19
f 64/102/27 65/105/28 58/103/16
f 62/96/25 65/105/28 64/102/27
f 65/105/28 57/106/14 58/103/16
f 66/107/29 62/96/25 61/98/23
f 66/107/29 65/105/28 62/96/25
f 61/93/23 8/95/24 67/108/30
f 66/107/29 61/98/23 67/109/30
f 66/107/29 68/110/31 65/105/28
f 65/105/28 68/110/31 57/106/14
f 8/95/24 69/111/32 67/108/30
f 8/95/24 6/112/33 69/111/32
f 69/111/32 6/112/33 4/113/34
f 70/114/35 66/115/29 67/108/30
f 70/116/35 68/110/31 66/107/29
f 70/114/35 67/108/30 69/111/32
f 69/111/32 4/113/34 71/117/36
f 71/118/36 4/119/34 1/120/37
f 72/121/38 70/116/35 69/122/32
f 72/121/38 69/122/32 71/123/36
f 70/116/35 73/124/39 68/110/31
f 72/121/38 73/124/39 70/116/35
f 68/125/31 74/126/40 57/81/14
f 68/125/31 73/127/39 74/126/40
f 5/128/41 57/81/14 74/126/40
f 5/128/41 7/84/17 57/81/14
f 5/128/41 74/126/40 75/129/42
f 73/124/39 75/130/42 74/131/40
f 5/128/41 75/129/42 3/132/43
f 72/121/38 76/133/44 73/124/39
f 73/124/39 76/133/44 75/130/42
f 3/134/43 75/135/42 77/136/45
f 3/134/43 77/136/45 2/137/46
f 1/120/37 2/137/46 77/136/45
f 1/120/37 77/136/45 78/138/47
f 76/133/44 77/139/45 75/130/42
f 71/118/36 1/120/37 78/138/47
f 79/140/48 72/121/38 71/123/36
f 79/140/48 76/133/44 72/121/38
f 79/140/48 71/123/36 78/141/47
f 76/133/44 80/142/49 77/139/45
f 76/133/44 79/140/48 80/142/49
f 80/143/49 78/138/47 77/136/45
f 80/143/49 79/144/48 78/138/47
f 55/145/13 39/146/13 47/147/13
f 55/145/13 44/148/13 39/146/13
f 56/149/13 55/145/13 47/147/13
f 44/148/13 38/150/13 39/146/13
f 56/149/13 47/147/13 45/151/13
f 44/148/13 41/152/13 38/150/13
f 41/152/13 56/149/13 45/151/13
f 41/152/13 45/151/13 38/150/13
f 13/153/50 26/154/46 27/155/50
f 13/153/50 14/156/46 26/154/46
f 16/157/34 13/153/50 27/155/50
f 14/156/46 25/158/43 26/154/46
f 16/157/34 27/155/50 28/159/34
f 14/156/46 15/160/43 25/158/43
f 18/161/33 16/162/34 28/163/34
f 15/164/43 29/165/41 25/166/43
f 18/161/33 28/163/34 30/167/33
f 15/164/43 17/168/41 29/165/41
f 20/169/24 18/161/33 30/167/33
f 17/168/41 31/170/17 29/165/41
f 20/169/24 30/167/33 32/171/24
f 17/168/41 19/172/17 31/170/17
f 22/173/22 20/169/24 32/171/24
f 19/172/17 33/174/15 31/170/17
f 22/173/22 32/171/24 34/175/22
f 19/172/17 21/173/15 33/174/15
f 24/176/21 22/177/22 34/175/22
f 21/178/15 35/179/51 33/180/15
f 24/176/21 34/175/22 36/181/21
f 21/178/15 23/182/51 35/179/51
f 23/182/51 24/176/21 36/181/21
f 23/182/51 36/181/21 35/179/51
