# Blender 4.5.1 LTS
# www.blender.org
mtllib Untitled.mtl
o Couch
v -1.479750 1.442077 0.257198
v -1.479749 1.442077 -0.654255
v -1.270759 1.442077 -0.654255
v -1.270759 1.442077 0.257198
v -1.479750 1.320671 0.782438
v -1.270759 1.320671 0.782438
v 1.270754 1.027572 1.000000
v 1.270754 0.716437 1.000000
v 1.270755 0.716437 -0.564284
v 1.270755 1.442077 -0.654255
v 1.270754 1.320671 0.782438
v 1.270754 1.442077 0.257198
v 1.466820 -0.000000 -0.564284
v 1.466820 -0.000000 -1.000000
v 1.270754 -0.000000 -1.000000
v 1.270754 -0.000000 -0.564284
v 1.466815 0.000000 1.000000
v -1.270759 -0.000000 -1.000000
v 1.270755 0.000000 1.000000
v -1.270759 -0.000000 -0.564284
v -1.479750 -0.000000 -1.000000
v -1.270759 0.000000 1.000000
v -1.479750 -0.000000 -0.564284
v -1.479750 0.000000 1.000000
v 1.466819 1.320671 0.782438
v 1.466819 1.442077 0.257198
v 1.466819 1.442077 -0.654255
v 1.466819 1.027572 1.000000
v 1.466815 0.718620 1.000000
v 1.466815 0.718619 -0.564284
v 1.466815 0.718619 -1.000000
v 1.466815 1.442077 -1.000000
v 1.466819 1.823792 -1.000000
v 1.466819 1.823792 -0.654255
v 1.386634 2.031265 -1.000000
v 1.386634 2.031265 -0.654255
v -1.270759 0.716437 -0.564284
v -1.270759 0.716437 1.000000
v -1.270759 1.027572 1.000000
v 1.041610 2.117203 -0.654255
v 1.193048 2.117203 -0.654255
v -1.041614 2.117203 -0.654255
v -1.205978 2.117203 -0.654255
v -1.399563 2.031265 -0.654255
v -1.479749 1.823792 -0.654255
v -1.479750 1.027572 1.000000
v -1.479750 0.718619 -0.564284
v -1.479750 0.718620 1.000000
v -1.479750 0.718619 -1.000000
v -1.479750 1.442077 -1.000000
v -1.479749 1.823792 -1.000000
v -1.399563 2.031265 -1.000000
v -1.205978 2.117203 -1.000000
v -1.041614 2.117203 -1.000000
v 1.041610 2.117203 -1.000000
v 1.193048 2.117203 -1.000000
v 1.270754 0.718619 -1.000000
v 1.270755 1.442077 -1.000000
v -1.270759 0.718619 -1.000000
v -1.270759 1.442077 -1.000000
v 1.239920 0.668440 0.876695
v 1.239921 0.816965 -0.538400
v 1.239921 0.668440 -0.538400
v 1.239920 0.816966 0.876695
v 1.142499 0.816966 0.974116
v 1.142499 0.668440 0.974116
v -1.142504 0.668440 0.974116
v -1.142504 0.816966 0.974116
v -1.239924 0.816966 0.876695
v -1.239924 0.668440 0.876695
v -1.239924 0.668440 -0.538400
v -1.239924 0.816965 -0.538400
v -1.142504 0.914386 0.876695
v 1.142499 0.914386 0.876695
v -1.142504 0.914386 -0.440980
v 1.142500 0.914386 -0.440980
v 1.239920 0.655007 -0.702885
v 1.239920 1.852720 -0.554359
v 1.239920 1.853409 -0.702885
v 1.239920 0.655007 -0.554359
v 1.142499 0.557586 -0.554359
v 1.142499 0.557586 -0.702885
v -1.142504 0.557586 -0.702885
v -1.142504 0.557586 -0.554359
v -1.239924 0.655007 -0.554359
v -1.239924 0.655007 -0.702885
v -1.239924 1.853409 -0.702885
v -1.239924 1.852720 -0.554359
v -1.176254 2.006433 -0.554359
v -1.176456 2.006634 -0.702885
v -1.022542 2.070102 -0.554359
v -1.023231 2.070102 -0.702885
v 1.023227 2.070102 -0.702885
v 1.022538 2.070102 -0.554359
v 1.176250 2.006433 -0.554359
v 1.176452 2.006634 -0.702885
v 1.142500 1.754265 -0.456938
v 1.078527 1.908709 -0.456938
v 1.142499 0.655007 -0.456938
v -1.142504 0.655007 -0.456938
v 1.060860 1.738026 -0.456938
v 1.060859 0.736646 -0.456938
v -1.060864 0.736646 -0.456938
v 1.016042 1.846225 -0.456938
v -1.142504 1.754265 -0.456938
v 0.907843 1.891042 -0.456938
v -1.078531 1.908709 -0.456938
v 0.924082 1.972682 -0.456938
v -0.907847 1.891042 -0.456938
v -0.924086 1.972682 -0.456938
v -1.016047 1.846225 -0.456938
v -1.060864 1.738026 -0.456938
vn -0.0000 0.9936 0.1133
vn -0.0000 1.0000 -0.0000
vn -0.0000 0.8366 0.5478
vn -1.0000 -0.0000 -0.0000
vn -0.0000 -1.0000 -0.0000
vn 1.0000 -0.0000 -0.0000
vn 0.9830 0.1834 -0.0000
vn 0.7242 0.6896 -0.0000
vn -0.0000 0.0411 0.9992
vn -0.0000 0.1230 0.9924
vn -0.0000 -0.0000 1.0000
vn -0.9830 0.1834 -0.0000
vn -0.7242 0.6896 -0.0000
vn -0.2074 0.9783 -0.0000
vn 0.2074 0.9783 -0.0000
vn -0.0000 -0.0000 -1.0000
vn -0.0000 0.3139 0.9495
vn 0.9239 -0.0000 0.3827
vn 0.9576 0.2880 -0.0000
vn 0.8756 0.3416 0.3416
vn 0.3416 0.3416 0.8756
vn 0.3827 -0.0000 0.9239
vn -0.3827 -0.0000 0.9239
vn -0.3416 0.3416 0.8756
vn -0.8756 0.3416 0.3416
vn -0.9239 -0.0000 0.3827
vn -0.6507 0.3914 -0.6507
vn -0.3416 0.8756 0.3416
vn 0.3416 0.8756 0.3416
vn -0.3002 0.9054 -0.3002
vn 0.3002 0.9054 -0.3002
vn -0.0000 0.2880 -0.9576
vn 0.9239 -0.3827 -0.0000
vn 0.9807 0.1956 0.0009
vn 0.8916 0.1948 0.4087
vn 0.8756 -0.3416 0.3416
vn 0.3416 -0.8756 0.3416
vn 0.3827 -0.9239 -0.0000
vn -0.3827 -0.9239 -0.0000
vn -0.3416 -0.8756 0.3416
vn -0.8756 -0.3416 0.3416
vn -0.9239 -0.3827 -0.0000
vn -0.9807 0.1956 0.0009
vn -0.8916 0.1948 0.4087
vn -0.6415 0.6415 0.4206
vn -0.7071 0.7071 0.0019
vn -0.1948 0.8916 0.4087
vn -0.1956 0.9807 0.0009
vn 0.1956 0.9807 0.0009
vn 0.1948 0.8916 0.4087
vn 0.6415 0.6415 0.4206
vn 0.7071 0.7071 0.0019
vn 0.3907 0.0503 0.9191
vn 0.2598 0.2598 0.9301
vn 0.3416 -0.3416 0.8756
vn -0.3416 -0.3416 0.8756
vn -0.3907 0.0503 0.9191
vn -0.2598 0.2598 0.9301
vn 0.0503 0.3907 0.9191
vn -0.0503 0.3907 0.9191
vt 0.536290 0.806717
vt 0.564309 0.928849
vt 0.536290 0.928849
vt 0.564309 0.806717
vt 0.536290 0.735794
vt 0.564309 0.735794
vt 0.787531 0.727527
vt 0.745899 0.937252
vt 0.745899 0.727526
vt 0.842996 0.949316
vt 0.826751 0.756696
vt 0.842996 0.827116
vt 0.493582 0.395050
vt 0.551999 0.368764
vt 0.551999 0.395050
vt 0.493582 0.368764
vt 0.283856 0.395050
vt 0.551999 0.028020
vt 0.283856 0.368764
vt 0.493582 0.028020
vt 0.551999 0.000000
vt 0.283856 0.028020
vt 0.493582 -0.000000
vt 0.283856 -0.000000
vt 0.297315 0.571768
vt 0.489935 0.588013
vt 0.367735 0.588013
vt 0.268146 0.532548
vt 0.268146 0.491208
vt 0.477871 0.491208
vt 0.477870 0.395050
vt 0.268145 0.395050
vt 0.536287 0.395050
vt 0.536288 0.491208
vt 0.536289 0.588013
vt 0.536290 0.639090
vt 0.489935 0.639090
vt 0.536288 0.667524
vt 0.489934 0.667524
vt 0.379844 0.889313
vt 0.476941 0.667524
vt 0.476941 0.877250
vt 0.435309 0.667524
vt 0.396090 0.696693
vt 0.379844 0.767113
vt 0.642513 0.368764
vt 0.739863 0.028020
vt 0.739863 0.368764
vt 0.642513 0.028020
vt 0.551999 0.338042
vt 0.551999 0.358345
vt 0.563521 0.384300
vt 0.551999 0.058741
vt 0.551999 0.036705
vt 0.563521 0.010751
vt 0.642513 0.000000
vt 0.591336 0.000000
vt 0.046355 0.588013
vt 0.238974 0.571768
vt 0.168555 0.588013
vt 0.268144 0.532548
vt 0.058418 0.491208
vt 0.268144 0.491208
vt 0.268145 0.395050
vt 0.058419 0.395050
vt 0.000001 0.491208
vt 0.000002 0.395050
vt 0.000000 0.588013
vt 0.046354 0.639090
vt -0.000000 0.639090
vt 0.046356 0.667524
vt 0.000001 0.667524
vt 0.917465 0.347595
vt 0.963410 0.373549
vt 0.917081 0.373549
vt 0.963793 0.347595
vt 0.963793 0.325558
vt 0.917465 0.325558
vt 0.963793 0.046258
vt 0.917465 0.046258
vt 0.963793 0.025954
vt 0.917465 0.025954
vt 0.917081 0.000000
vt 0.963410 0.000000
vt 0.000000 0.368764
vt 0.096346 0.395050
vt 0.000000 0.395050
vt 0.096346 0.368764
vt 0.000000 0.028020
vt 0.193341 0.395050
vt 0.193341 0.368764
vt 0.096346 0.028020
vt 0.000000 0.000000
vt 0.096346 0.000000
vt 0.193341 0.028020
vt 0.193341 0.000000
vt 0.272334 0.384300
vt 0.244518 0.395050
vt 0.283856 0.358345
vt 0.283856 0.338042
vt 0.283856 0.058741
vt 0.283856 0.036705
vt 0.272334 0.010751
vt 0.244518 0.000000
vt 0.917081 0.028020
vt 0.820736 0.000000
vt 0.917081 0.000000
vt 0.821029 0.028020
vt 0.917081 0.368764
vt 0.779315 -0.000000
vt 0.779315 0.028020
vt 0.739863 0.028020
vt 0.739863 0.000000
vt 0.821029 0.368764
vt 0.917081 0.395050
vt 0.820736 0.395050
vt 0.779315 0.368764
vt 0.779315 0.395050
vt 0.739863 0.395050
vt 0.739863 0.368764
vt 0.745899 0.735794
vt 0.536290 0.395050
vt 0.745899 0.395050
vt 0.536290 0.735794
vt 0.590596 0.806717
vt 0.564309 0.735794
vt 0.590596 0.735794
vt 0.564309 0.806717
vt 0.590596 0.928849
vt 0.564309 0.928849
vt 0.876723 0.740589
vt 0.876723 0.930313
vt 0.856849 0.930313
vt 0.856849 0.740590
vt 0.530245 1.000000
vt 0.510332 1.000000
vt 0.510402 0.986939
vt 0.530315 0.986939
vt 0.530315 0.680585
vt 0.510402 0.680585
vt 0.510332 0.667524
vt 0.530245 0.667524
vt 0.876723 0.930313
vt 0.896597 0.740590
vt 0.896597 0.930313
vt 0.910450 0.740588
vt 0.897414 0.727526
vt 0.203280 0.667524
vt 0.203280 0.973877
vt 0.189791 0.973877
vt 0.189791 0.667524
vt 0.856032 0.727526
vt 0.842996 0.740588
vt 0.379844 0.973877
vt 0.910450 0.917250
vt 0.842996 0.917250
vt 0.379844 0.667524
vt 0.968597 0.727526
vt 0.981658 0.408112
vt 0.981658 0.714465
vt 0.968597 0.395050
vt 0.948684 0.727526
vt 0.948684 0.395050
vt 0.758960 0.727526
vt 0.948684 0.395050
vt 0.948684 0.727526
vt 0.758960 0.395050
vt 0.745899 0.714465
vt 0.745899 0.408112
vt 0.630423 0.735794
vt 0.630424 0.896151
vt 0.610511 0.896059
vt 0.610510 0.735794
vt 0.996768 0.332476
vt 0.976855 0.332476
vt 0.976855 0.319415
vt 0.996768 0.319415
vt 0.996768 0.013061
vt 0.976855 0.013061
vt 0.976855 -0.000000
vt 0.996768 -0.000000
vt 0.590596 0.896151
vt 0.590597 0.735794
vt 0.610510 0.735794
vt 0.610509 0.896059
vt 0.610510 0.917161
vt 0.590597 0.917186
vt 0.496843 0.688160
vt 0.477225 0.667524
vt 0.497128 0.667551
vt 0.476941 0.688067
vt 0.476941 0.962438
vt 0.496843 0.962346
vt 0.497128 0.982954
vt 0.477225 0.982982
vt 0.630423 0.917186
vt 0.610510 0.917161
vt 0.042414 0.986939
vt 0.029144 1.000000
vt 0.008536 0.991464
vt 0.189721 1.000000
vt 0.021708 0.978362
vt 0.000000 0.970855
vt 0.189791 0.986939
vt 0.963793 0.319415
vt 0.963793 0.013061
vt 0.029144 0.667524
vt 0.189721 0.667524
vt 0.189791 0.680585
vt 0.044591 0.975993
vt 0.178846 0.975993
vt 0.178846 0.691531
vt 0.030085 0.969984
vt 0.042414 0.680585
vt 0.024076 0.955478
vt 0.021708 0.689162
vt 0.008536 0.676060
vt 0.013131 0.957655
vt 0.024076 0.712046
vt 0.510332 0.701360
vt 0.510332 0.949146
vt 0.013131 0.709869
vt -0.000000 0.696669
vt 0.030085 0.697540
vt 0.044591 0.691531
vt 0.642513 0.395050
vt 0.591336 0.395050
s 1
usemtl White.017
f 1/1/1 3/2/2 2/3/2
f 1/1/1 4/4/1 3/2/2
f 4/4/1 1/1/1 5/5/3
f 4/4/1 5/5/3 6/6/3
f 7/7/4 9/8/4 8/9/4
f 9/8/4 7/7/4 10/10/4
f 10/10/4 7/7/4 11/11/4
f 10/10/4 11/11/4 12/12/4
f 13/13/5 15/14/5 14/15/5
f 13/13/5 16/16/5 15/14/5
f 17/17/5 16/16/5 13/13/5
f 16/16/5 18/18/5 15/14/5
f 17/17/5 19/19/5 16/16/5
f 16/16/5 20/20/5 18/18/5
f 19/19/5 20/20/5 16/16/5
f 20/20/5 21/21/5 18/18/5
f 19/19/5 22/22/5 20/20/5
f 20/20/5 23/23/5 21/21/5
f 22/22/5 23/23/5 20/20/5
f 22/22/5 24/24/5 23/23/5
f 25/25/6 27/26/6 26/27/6
f 28/28/6 27/26/6 25/25/6
f 29/29/6 27/26/6 28/28/6
f 27/26/6 29/29/6 30/30/6
f 13/31/6 30/30/6 29/29/6
f 13/31/6 29/29/6 17/32/6
f 14/33/6 30/30/6 13/31/6
f 14/33/6 31/34/6 30/30/6
f 31/34/6 27/26/6 30/30/6
f 31/34/6 32/35/6 27/26/6
f 27/26/6 32/35/6 33/36/7
f 27/26/6 33/36/7 34/37/7
f 35/38/8 34/37/7 33/36/7
f 35/38/8 36/39/8 34/37/7
f 3/40/6 38/41/6 37/42/6
f 38/41/6 3/40/6 39/43/6
f 39/43/6 3/40/6 6/44/6
f 6/44/6 3/40/6 4/45/6
f 10/46/9 37/47/10 9/48/10
f 10/46/9 3/49/9 37/47/10
f 3/49/9 10/46/9 40/50/11
f 10/46/9 41/51/11 40/50/11
f 10/46/9 36/52/11 41/51/11
f 3/49/9 40/50/11 42/53/11
f 43/54/11 3/49/9 42/53/11
f 3/49/9 43/54/11 44/55/11
f 3/49/9 44/55/11 2/56/11
f 2/56/11 44/55/11 45/57/11
f 2/58/4 5/59/4 1/60/4
f 2/58/4 46/61/4 5/59/4
f 47/62/4 46/61/4 2/58/4
f 46/61/4 47/62/4 48/63/4
f 24/64/4 48/63/4 47/62/4
f 24/64/4 47/62/4 23/65/4
f 23/65/4 47/62/4 49/66/4
f 23/65/4 49/66/4 21/67/4
f 47/62/4 50/68/4 49/66/4
f 47/62/4 2/58/4 50/68/4
f 50/68/4 2/58/4 45/69/12
f 50/68/4 45/69/12 51/70/12
f 44/71/13 51/70/12 45/69/12
f 44/71/13 52/72/13 51/70/12
f 43/73/14 52/74/13 44/75/13
f 43/73/14 53/76/14 52/74/13
f 43/73/14 54/77/2 53/76/14
f 43/73/14 42/78/2 54/77/2
f 42/78/2 55/79/2 54/77/2
f 42/78/2 40/80/2 55/79/2
f 40/80/2 56/81/15 55/79/2
f 40/80/2 41/82/15 56/81/15
f 56/81/15 41/82/15 36/83/8
f 56/81/15 36/83/8 35/84/8
f 15/85/16 31/86/16 14/87/16
f 15/85/16 57/88/16 31/86/16
f 18/89/16 57/88/16 15/85/16
f 57/88/16 32/90/16 31/86/16
f 57/88/16 58/91/16 32/90/16
f 18/89/16 59/92/16 57/88/16
f 59/92/16 58/91/16 57/88/16
f 21/93/16 59/92/16 18/89/16
f 21/93/16 49/94/16 59/92/16
f 49/94/16 60/95/16 59/92/16
f 59/92/16 60/95/16 58/91/16
f 49/94/16 50/96/16 60/95/16
f 35/97/16 32/90/16 58/91/16
f 32/90/16 35/97/16 33/98/16
f 35/97/16 58/91/16 56/99/16
f 56/99/16 58/91/16 55/100/16
f 58/91/16 54/101/16 55/100/16
f 58/91/16 60/95/16 54/101/16
f 60/95/16 53/102/16 54/101/16
f 53/102/16 60/95/16 52/103/16
f 52/103/16 60/95/16 50/96/16
f 52/103/16 50/96/16 51/104/16
f 22/105/11 48/106/11 24/107/11
f 22/105/11 38/108/11 48/106/11
f 19/109/11 38/108/11 22/105/11
f 38/108/11 46/110/17 48/106/11
f 38/108/11 39/111/17 46/110/17
f 6/112/3 46/110/17 39/111/17
f 6/112/3 5/113/3 46/110/17
f 19/109/11 8/114/11 38/108/11
f 17/115/11 8/114/11 19/109/11
f 17/115/11 29/116/11 8/114/11
f 29/116/11 7/117/17 8/114/11
f 29/116/11 28/118/17 7/117/17
f 25/119/3 7/117/17 28/118/17
f 25/119/3 11/120/3 7/117/17
f 37/121/2 8/122/2 9/123/2
f 37/121/2 38/124/2 8/122/2
f 26/125/1 11/126/3 25/127/3
f 26/125/1 12/128/1 11/126/3
f 12/128/1 26/125/1 27/129/2
f 12/128/1 27/129/2 10/130/2
f 61/131/18 63/132/6 62/133/19
f 61/131/18 62/133/19 64/134/20
f 61/135/18 64/136/20 65/137/21
f 61/135/18 65/137/21 66/138/22
f 67/139/23 66/138/22 65/137/21
f 67/139/23 65/137/21 68/140/24
f 67/139/23 68/140/24 69/141/25
f 67/139/23 69/141/25 70/142/26
f 71/143/4 70/131/26 69/144/25
f 71/143/4 69/144/25 72/145/27
f 72/145/27 69/144/25 73/146/28
f 68/147/24 73/146/28 69/144/25
f 74/148/29 73/149/28 68/150/24
f 74/148/29 68/150/24 65/151/21
f 65/152/21 64/134/20 74/153/29
f 75/154/30 73/149/28 74/148/29
f 72/145/27 73/146/28 75/155/30
f 64/134/20 76/156/31 74/153/29
f 75/154/30 74/148/29 76/157/31
f 64/134/20 62/133/19 76/156/31
f 62/158/32 75/159/30 76/160/31
f 62/158/32 72/161/27 75/159/30
f 63/162/16 72/161/27 62/158/32
f 63/162/16 71/163/16 72/161/27
f 61/164/5 71/165/5 63/166/5
f 71/165/5 61/164/5 70/167/5
f 70/167/5 61/164/5 66/168/5
f 70/167/5 66/168/5 67/169/5
f 77/170/33 79/171/34 78/172/35
f 77/170/33 78/172/35 80/173/36
f 77/174/33 80/175/36 81/176/37
f 77/174/33 81/176/37 82/177/38
f 83/178/39 82/177/38 81/176/37
f 83/178/39 81/176/37 84/179/40
f 83/178/39 84/179/40 85/180/41
f 83/178/39 85/180/41 86/181/42
f 87/182/43 86/183/42 85/184/41
f 87/182/43 85/184/41 88/185/44
f 89/186/45 87/182/43 88/185/44
f 89/186/45 90/187/46 87/182/43
f 91/188/47 90/189/46 89/190/45
f 91/188/47 92/191/48 90/189/46
f 93/192/49 92/191/48 91/188/47
f 93/192/49 91/188/47 94/193/50
f 93/192/49 94/193/50 95/194/51
f 93/192/49 95/194/51 96/195/52
f 96/196/52 95/197/51 78/172/35
f 96/196/52 78/172/35 79/171/34
f 97/198/53 78/199/35 95/200/51
f 80/201/36 78/199/35 97/198/53
f 97/198/53 95/200/51 98/202/54
f 98/202/54 95/200/51 94/203/50
f 80/201/36 97/198/53 99/204/55
f 81/176/37 80/175/36 99/205/55
f 99/205/55 84/179/40 81/176/37
f 99/205/55 100/206/56 84/179/40
f 84/179/40 100/206/56 85/180/41
f 88/207/44 85/208/41 100/209/56
f 99/204/55 97/198/53 101/210/11
f 99/204/55 101/210/11 102/211/11
f 100/209/56 99/204/55 102/211/11
f 100/209/56 102/211/11 103/212/11
f 97/198/53 104/213/11 101/210/11
f 104/213/11 102/211/11 101/210/11
f 97/198/53 98/202/54 104/213/11
f 102/211/11 104/213/11 103/212/11
f 88/207/44 100/209/56 105/214/57
f 105/214/57 100/209/56 103/212/11
f 98/202/54 106/215/11 104/213/11
f 103/212/11 104/213/11 106/215/11
f 88/207/44 105/214/57 107/216/58
f 88/207/44 107/216/58 89/217/45
f 98/202/54 108/218/59 106/215/11
f 98/202/54 94/203/50 108/218/59
f 108/218/59 109/219/11 106/215/11
f 103/212/11 106/215/11 109/219/11
f 94/193/50 110/220/60 108/221/59
f 89/217/45 107/216/58 110/222/60
f 94/193/50 91/188/47 110/220/60
f 89/217/45 110/222/60 91/223/47
f 108/218/59 110/222/60 109/219/11
f 110/222/60 111/224/11 109/219/11
f 103/212/11 109/219/11 111/224/11
f 110/222/60 107/216/58 111/224/11
f 107/216/58 105/214/57 112/225/11
f 105/214/57 103/212/11 112/225/11
f 103/212/11 111/224/11 112/225/11
f 107/216/58 112/225/11 111/224/11
f 36/52/11 27/226/11 34/227/11
f 27/226/11 36/52/11 10/46/9
